<svg width="115" height="39" viewBox="0 0 115 39" fill="none" xmlns="http://www.w3.org/2000/svg">
<g clip-path="url(#clip0_2045_10280)">
<path d="M11.4828 0.248174L17.6834 23.7955H17.7796L23.884 0.248174H34.2538V30.1337H27.5782V5.1457H27.5297L21.0917 30.1337H14.0377L7.78948 5.1457H7.69479V30.1337H1.01923V0.248174H11.4828Z" fill="#0053A0"/>
<mask id="mask0_2045_10280" style="mask-type:luminance" maskUnits="userSpaceOnUse" x="-102" y="-69" width="263" height="174">
<path d="M-101.038 -68.9237H160.388V104.038H-101.038V-68.9237Z" fill="white"/>
</mask>
<g mask="url(#mask0_2045_10280)">
<path d="M48.5488 20.5419C46.0403 20.9114 44.0061 21.4868 44.0061 23.8747C44.0061 25.9331 45.8027 26.5527 47.1295 26.5527C50.0656 26.5527 53.094 24.8616 53.094 22.186V19.349C52.4318 19.7978 51.295 20.17 48.5488 20.5419ZM38.1341 15.1489C38.8913 8.35683 44.2883 7.40954 49.4957 7.40954C53.094 7.40954 59.6269 8.35683 59.6269 13.8322V25.8089C59.6269 28.4052 60.2879 28.9781 61.0948 29.2286V30.1338H53.8985C53.5188 29.0623 53.4263 28.735 53.284 27.5C51.7672 28.8564 49.591 30.7113 45.0467 30.7113C41.2114 30.7113 37.3296 28.8143 37.3296 24.2441C37.3296 19.141 42.8192 17.0435 49.211 16.5898C52.0521 16.3839 53.094 15.7243 53.094 14.6556C53.094 12.1856 50.3955 12.059 48.6912 12.059C45.3305 12.059 44.7608 13.8718 44.5721 15.1489H38.1341Z" fill="#0053A0"/>
<path d="M70.1364 5.3937H63.4612V-0.00233886H70.1364V5.3937ZM70.1364 7.98479V32.4398C70.1364 38.2425 67.0595 39.0262 60.2877 39.0262V34.3716C62.7966 34.3716 63.4612 34.126 63.4612 32.3135V7.98479H70.1364Z" fill="#EF3D33"/>
<path d="M79.2969 19.0194C79.2969 21.8588 80.2489 25.809 85.1787 25.809C90.109 25.809 91.0135 21.9009 91.0135 19.059C91.0135 16.2202 90.109 12.3072 85.1787 12.3072C80.2489 12.3072 79.2969 16.1781 79.2969 19.0194ZM97.5725 19.0194C97.5725 27.004 91.6907 30.7114 85.1787 30.7114C78.6645 30.7114 72.7403 27.0461 72.7403 19.059C72.7403 11.0746 78.6645 7.40966 85.1787 7.40966C91.6907 7.40966 97.5725 11.0301 97.5725 19.0194Z" fill="#0053A0"/>
<path d="M106.613 7.98493V11.8137H106.705C108.08 9.59181 109.597 7.40954 113.667 7.40954C113.997 7.40954 114.709 7.45195 114.991 7.49161V13.4206C114.377 13.3364 113.667 13.2965 113.052 13.2965C107.845 13.2965 106.85 16.0541 106.85 18.5259V30.099H100.176V7.98493H106.613Z" fill="#0053A0"/>
<path d="M3.51378 38.4254C2.80303 38.4254 2.23861 38.1139 2.07137 37.6474C1.98806 37.4192 1.9773 37.3155 1.9773 36.8283V33.9446H1.44455V32.9906H1.9773C1.9773 32.4717 1.9773 32.1297 2.02956 31.7355L3.45106 31.3828C3.3988 31.8704 3.36745 32.4512 3.36745 32.9906H4.62171L4.26633 33.9446H3.36745V36.6105C3.36745 37.2844 3.49287 37.4607 3.97367 37.4607C4.0991 37.4607 4.22452 37.4296 4.47507 37.357L4.65306 38.1868C4.24512 38.3528 3.8796 38.4254 3.51378 38.4254Z" fill="#0053A0"/>
<path d="M8.22748 35.0027C8.22748 34.6086 8.18567 34.4008 8.06025 34.204C7.92437 33.9966 7.72578 33.8928 7.44357 33.8928C6.91051 33.8928 6.60739 34.3078 6.60739 35.0442V35.0647H8.22748V35.0027ZM6.5868 36.0812V36.1227C6.5868 36.9422 6.99412 37.4089 7.71532 37.4089C8.19613 37.4089 8.64557 37.2326 9.0738 36.8799L9.61732 37.7098C9.00094 38.2077 8.35291 38.4459 7.60035 38.4459C6.06388 38.4459 5.07123 37.3674 5.07123 35.6974C5.07123 34.7431 5.26982 34.1107 5.74017 33.592C6.17885 33.1045 6.71191 32.8763 7.42266 32.8763C8.03934 32.8763 8.62467 33.0838 8.96959 33.4364C9.46084 33.9343 9.68034 34.6501 9.68034 35.7597V36.0812H6.5868Z" fill="#0053A0"/>
<path d="M13.1815 34.204C13.0456 34.1314 12.9306 34.1003 12.7738 34.1003C12.4603 34.1003 12.1781 34.2455 11.9171 34.5463V38.301H10.5165V34.7538C10.5165 34.0381 10.4328 33.4987 10.3179 33.1979L11.5721 32.8659C11.6976 33.0838 11.7707 33.3223 11.7916 33.6235C12.0944 33.2189 12.523 32.8659 13.0456 32.8659C13.2546 32.8659 13.3487 32.887 13.5682 32.98L13.1815 34.204Z" fill="#0053A0"/>
<path d="M19.4523 38.3009V34.7952C19.4523 34.1627 19.3792 34.038 19.0134 34.038C18.752 34.038 18.3862 34.2143 18.0831 34.484V38.3009H16.756V34.847C16.756 34.1832 16.6619 34.0276 16.2752 34.0276C16.0139 34.0276 15.6585 34.1627 15.3554 34.4321V38.3009H13.9865V34.5981C13.9865 33.8308 13.9342 33.4989 13.7879 33.2395L15.0523 32.8972C15.1463 33.0425 15.1882 33.1669 15.2404 33.4366C15.6062 33.0836 16.0557 32.8972 16.5469 32.8972C16.9859 32.8972 17.3518 33.0425 17.6337 33.3329C17.7068 33.4052 17.7803 33.4989 17.843 33.5919C18.334 33.0943 18.773 32.8972 19.3583 32.8972C19.7764 32.8972 20.1735 33.0214 20.4136 33.2292C20.7168 33.4885 20.8108 33.7994 20.8108 34.5255V38.3009H19.4523Z" fill="#0053A0"/>
<path d="M22.118 38.3009V33.0836L23.5186 32.8661V38.3009H22.118ZM22.8183 32.389C22.3479 32.389 21.9612 32.0052 21.9612 31.528C21.9612 31.0509 22.3584 30.6674 22.8392 30.6674C23.3092 30.6674 23.6858 31.0509 23.6858 31.528C23.6858 32.0052 23.2991 32.389 22.8183 32.389Z" fill="#0053A0"/>
<path d="M27.6676 38.3009V34.847C27.6676 34.2454 27.5631 34.0691 27.1973 34.0691C26.9151 34.0691 26.5493 34.2558 26.2255 34.5462V38.3009H24.8249V34.4532C24.8249 33.9968 24.7622 33.5611 24.6368 33.2084L25.8806 32.8554C26.0057 33.0733 26.0792 33.3015 26.0792 33.5193C26.2879 33.3744 26.4656 33.2496 26.6956 33.1254C26.9778 32.9802 27.3436 32.8972 27.6572 32.8972C28.253 32.8972 28.7756 33.2084 28.9425 33.6648C29.0157 33.8616 29.047 34.0898 29.047 34.4218V38.3009H27.6676Z" fill="#0053A0"/>
<path d="M32.7889 35.9776C31.8171 35.9776 31.4827 36.154 31.4827 36.7864C31.4827 37.2016 31.744 37.4817 32.0993 37.4817C32.3603 37.4817 32.6217 37.3466 32.831 37.1184L32.8516 35.9776H32.7889ZM33.9804 38.5706C33.6564 38.436 33.0084 38.1349 32.9039 38.2078C32.6426 38.3942 32.2666 38.4979 31.8276 38.4979C30.636 38.4979 29.988 37.8963 29.988 36.8383C29.988 35.5938 30.8555 35.013 32.5589 35.013C32.6635 35.013 32.7575 35.013 32.8725 35.0233V34.8055C32.8725 34.2146 32.7575 34.0172 32.2454 34.0172C31.7962 34.0172 31.2733 34.2353 30.6988 34.6191L30.103 33.6233C30.3852 33.447 30.5942 33.3432 30.9705 33.1873C31.4931 32.9698 31.9423 32.8765 32.4338 32.8765C33.3324 32.8765 33.9488 33.2084 34.1581 33.7993C34.231 34.0172 34.2626 34.1831 34.2522 34.7536L34.2208 36.5378C34.2104 37.1184 34.2522 37.3676 34.7225 37.72L33.9804 38.5706Z" fill="#0053A0"/>
<path d="M35.4996 31.1649V38.4253L36.9411 38.446V31.1649H35.4996Z" fill="#0053A0"/>
</g>
</g>
<defs>
<clipPath id="clip0_2045_10280">
<rect width="115" height="39" fill="white"/>
</clipPath>
</defs>
</svg>
