<svg width="52" height="34" viewBox="0 0 52 34" fill="none" xmlns="http://www.w3.org/2000/svg">
<path d="M19.8428 26.8865C19.8428 27.2264 19.9635 27.494 20.2049 27.6891C20.4463 27.8846 20.7895 27.982 21.2346 27.982C21.9336 27.982 22.5088 27.7647 22.9598 27.33C23.4108 26.8958 23.6368 26.3704 23.6368 25.7536V25.3754L21.5967 25.5834C20.427 25.6846 19.8428 26.1185 19.8428 26.8865ZM16.8873 27.0376C16.8873 25.1745 18.3236 24.1105 21.1964 23.8457L23.6368 23.6194V23.355C23.6368 22.2973 23.0711 21.7622 21.9399 21.7497C21.4316 21.7497 21.0215 21.8568 20.7105 22.0706C20.3987 22.2848 20.2241 22.5995 20.186 23.015H17.4405C17.4787 21.8439 17.917 20.9942 18.7561 20.4653C19.5947 19.9368 20.6558 19.6724 21.9399 19.6724C23.4273 19.6724 24.5804 20.028 25.4006 20.7395C26.2203 21.4506 26.63 22.5305 26.63 23.9781V29.7948H23.8464V28.114C23.0966 29.3859 21.9018 30.0215 20.2623 30.0215C19.1819 30.0215 18.3491 29.7446 17.7645 29.1904C17.1798 28.6366 16.8873 27.9189 16.8873 27.0376Z" fill="#00539F"/>
<path d="M28.527 16.5751H31.5206V19.1813H28.527V16.5751ZM26.6776 33.7235V31.3436C26.8808 31.3561 27.1289 31.3623 27.421 31.3623C27.8405 31.3623 28.1295 31.265 28.2884 31.0698C28.4476 30.8747 28.527 30.4939 28.527 29.9272V19.8994H31.5202V30.645C31.5202 31.7907 31.2882 32.6027 30.8243 33.0813C30.3603 33.5596 29.5437 33.7991 28.3745 33.7991C28.0312 33.7991 27.4655 33.7734 26.6776 33.7235Z" fill="#00539F"/>
<path d="M36.5986 22.779C36.1724 23.3141 35.9601 24.0038 35.9601 24.8466C35.9601 25.6905 36.1724 26.3798 36.5986 26.9149C37.0244 27.45 37.6059 27.7171 38.3431 27.7171C39.0677 27.7171 39.6425 27.45 40.0687 26.9149C40.4941 26.3798 40.7072 25.6905 40.7072 24.8466C40.7072 24.0038 40.4941 23.3141 40.0687 22.779C39.6425 22.2439 39.0677 21.9764 38.3431 21.9764C37.6059 21.9764 37.0244 22.2439 36.5986 22.779ZM34.444 28.6238C33.4843 27.6922 33.0046 26.4331 33.0046 24.8466C33.0046 23.2603 33.4843 22.0017 34.444 21.0697C35.4037 20.1382 36.7036 19.672 38.3431 19.672C39.97 19.672 41.2631 20.1351 42.2228 21.0604C43.1826 21.9857 43.6626 23.2479 43.6626 24.8466C43.6626 26.446 43.1826 27.7082 42.2228 28.6335C41.2631 29.5588 39.97 30.0215 38.3431 30.0215C36.7036 30.0215 35.4037 29.5561 34.444 28.6238Z" fill="#00539F"/>
<path d="M50.837 19.6912C51.2435 19.6912 51.6312 19.7418 52 19.8423V22.4294C51.3642 22.316 50.837 22.2596 50.4175 22.2596C49.6292 22.2596 49.0544 22.4862 48.6923 22.9395C48.3298 23.3929 48.1489 24.148 48.1489 25.2057V29.7949H45.1553V19.8992H47.939V21.7307C48.5492 20.3712 49.5148 19.6912 50.837 19.6912Z" fill="#00539F"/>
<path d="M28.527 16.5751H31.5206V19.1813H28.527V16.5751ZM26.6776 33.7235V31.3436C26.8808 31.3561 27.1289 31.3623 27.421 31.3623C27.8405 31.3623 28.1295 31.265 28.2884 31.0698C28.4476 30.8747 28.527 30.4939 28.527 29.9272V19.8994H31.5202V30.645C31.5202 31.7907 31.2882 32.6027 30.8243 33.0813C30.3603 33.5596 29.5437 33.7991 28.3745 33.7991C28.0312 33.7991 27.4655 33.7734 26.6776 33.7235Z" fill="#E10000"/>
<path d="M18.0145 4.29611H16.0008L15.148 6.30989L15.1429 7.15536V8.45687H15.6796V8.45726C15.6796 8.95885 16.0928 9.3662 16.6019 9.3662C17.113 9.3662 17.5258 8.95885 17.5258 8.45726V8.45687H19.4649V8.45726C19.4649 8.95885 19.8785 9.3662 20.3884 9.3662C20.8972 9.3662 21.3132 8.95885 21.3132 8.45726V8.45687H21.5066V8.45726C21.5066 8.95885 21.9194 9.3662 22.4297 9.3662C22.9381 9.3662 23.3533 8.95885 23.3533 8.45726C23.3533 8.45687 23.3533 8.45687 23.3533 8.45687H23.7197V7.15536H18.0145V4.29611ZM18.2949 6.89522H23.7248V3.0612H18.2949V6.89522ZM7.5765 3.00123C7.5765 3.00123 7.87098 2.03971 7.12161 2.03971L4.79331 5.27555H6.76895L7.5765 3.00123ZM10.6361 4.47759H10.1147L9.33472 5.69575L6.66515 5.56724L4.58454 5.56607L4.58336 5.56724H3.27138C2.6266 5.56724 2.0573 5.81765 2.0573 6.14438C2.0573 6.47891 2.6266 6.72309 3.27138 6.72309H4.58336L7.12161 10.2491C7.87098 10.2491 7.5765 9.28715 7.5765 9.28715L6.66515 6.72309L9.33472 6.59496L10.1147 7.81468H10.6361L10.1816 6.59496L10.1222 6.14438L10.1816 5.69575L10.6361 4.47759ZM34.7593 3.54722H36.0213V4.78992H34.7593V3.54722ZM34.2953 6.88354H36.7302V3.93978H36.9999V3.0246H34.2953V6.88354ZM29.5279 8.47089H30.1644C30.1644 8.47205 30.1648 8.47322 30.1648 8.47439C30.1648 8.64691 30.0221 8.78711 29.8459 8.78711C29.6718 8.78711 29.5275 8.64691 29.5275 8.47439C29.5275 8.47322 29.5279 8.47205 29.5279 8.47089ZM31.787 8.47089H32.4215C32.4215 8.47205 32.4219 8.47322 32.4219 8.47439C32.4219 8.64691 32.2796 8.78711 32.1043 8.78711C31.9285 8.78711 31.7866 8.64691 31.7866 8.47439C31.7866 8.47322 31.787 8.47205 31.787 8.47089ZM33.9765 8.47089H34.6134C34.6134 8.47205 34.6138 8.47322 34.6138 8.47439C34.6138 8.64691 34.4711 8.78711 34.2953 8.78711C34.1192 8.78711 33.9761 8.64691 33.9761 8.47439C33.9761 8.47322 33.9765 8.47205 33.9765 8.47089ZM28.7003 7.55532H28.4184V8.47089H28.9181C28.9181 8.47205 28.9177 8.47322 28.9177 8.47439C28.9177 8.97949 29.3333 9.38957 29.8459 9.38957C30.3602 9.38957 30.7758 8.97949 30.7758 8.47439C30.7758 8.47322 30.7754 8.47205 30.7754 8.47089H31.1748C31.1748 8.47205 31.1744 8.47322 31.1744 8.47439C31.1744 8.97949 31.5908 9.38957 32.1043 9.38957C32.6162 9.38957 33.0349 8.97949 33.0349 8.47439C33.0349 8.47322 33.0345 8.47205 33.0345 8.47089H33.3667C33.3667 8.47205 33.3663 8.47322 33.3663 8.47439C33.3663 8.97949 33.7819 9.38957 34.2953 9.38957C34.8072 9.38957 35.2248 8.97949 35.2248 8.47439C35.2248 8.47322 35.2244 8.47205 35.2244 8.47089H36.718V7.16276H28.7003V7.55532ZM34.0138 6.88354V4.26651H29.9458V3.22087H29.2326V4.26651H28.7003C28.3393 5.10225 28.3393 6.0478 28.7003 6.88354H34.0138ZM37.8621 9.25638C37.8621 9.80082 37.8613 10.1525 37.8393 10.42C37.8181 10.6767 37.7819 10.7717 37.7579 10.8184C37.6667 10.996 37.5208 11.1405 37.3416 11.2312C37.2944 11.255 37.1981 11.2904 36.939 11.3114C36.6689 11.3336 36.3138 11.334 35.7642 11.334H29.4709C28.9212 11.334 28.5662 11.3336 28.2961 11.3114C28.037 11.2904 27.9411 11.255 27.8939 11.2312C27.7146 11.1405 27.5684 10.996 27.4771 10.8184C27.4532 10.7717 27.417 10.6767 27.3958 10.42C27.3737 10.1525 27.373 9.80082 27.373 9.25638V3.02265C27.373 2.47783 27.3737 2.12616 27.3958 1.85862C27.417 1.60198 27.4532 1.50696 27.4771 1.46023C27.5684 1.28264 27.7146 1.13816 27.8939 1.04742C27.9411 1.02367 28.037 0.988227 28.2961 0.967196C28.5662 0.944999 28.9212 0.94461 29.4709 0.94461H35.7642C36.3138 0.94461 36.6689 0.944999 36.939 0.967196C37.1981 0.988227 37.2944 1.02367 37.3416 1.04742C37.5208 1.13816 37.6667 1.28264 37.7579 1.46023C37.7819 1.50696 37.8181 1.60198 37.8393 1.85862C37.8613 2.12616 37.8621 2.47783 37.8621 3.02265V9.25638ZM37.7744 0.205846C37.3663 0.00022316 36.8324 0.00022316 35.7642 0.00022316H29.4709C28.403 0.00022316 27.8687 0.00022316 27.4606 0.205846C27.1021 0.386934 26.8103 0.675897 26.6275 1.03145C26.4195 1.43569 26.4195 1.96455 26.4195 3.02265V9.25638C26.4195 10.3141 26.4195 10.843 26.6275 11.2472C26.8103 11.6027 27.1021 11.8917 27.4606 12.0728C27.8687 12.2788 28.403 12.2788 29.4709 12.2788H35.7642C36.8324 12.2788 37.3663 12.2788 37.7744 12.0728C38.133 11.8917 38.4251 11.6027 38.6075 11.2472C38.8155 10.843 38.8155 10.3141 38.8155 9.25638V3.02265C38.8155 1.96455 38.8155 1.43569 38.6075 1.03145C38.4251 0.675897 38.133 0.386934 37.7744 0.205846ZM24.6782 9.25638C24.6782 9.80082 24.6774 10.1525 24.655 10.42C24.6338 10.6767 24.598 10.7717 24.574 10.8184C24.4828 10.996 24.337 11.1405 24.1573 11.2312C24.1101 11.255 24.0142 11.2904 23.7551 11.3114C23.485 11.3336 23.13 11.334 22.5803 11.334H16.287C15.737 11.334 15.3823 11.3336 15.1118 11.3114C14.8531 11.2904 14.7568 11.255 14.7096 11.2312C14.5303 11.1405 14.3845 10.996 14.2933 10.8184C14.2693 10.7717 14.2331 10.6767 14.2119 10.42C14.1899 10.1525 14.1891 9.80082 14.1891 9.25638V3.02265C14.1891 2.47783 14.1899 2.12616 14.2119 1.85862C14.2331 1.60198 14.2693 1.50696 14.2933 1.46023C14.3845 1.28264 14.5303 1.13816 14.7096 1.04742C14.7568 1.02367 14.8531 0.988227 15.1118 0.967196C15.3823 0.944999 15.737 0.94461 16.287 0.94461H22.5803C23.13 0.94461 23.485 0.944999 23.7551 0.967196C24.0142 0.988227 24.1101 1.02367 24.1573 1.04742C24.337 1.13816 24.4828 1.28264 24.574 1.46023C24.598 1.50696 24.6338 1.60198 24.655 1.85862C24.6774 2.12616 24.6782 2.47783 24.6782 3.02265V9.25638ZM24.5902 0.205846C24.1825 0.00022316 23.6481 0.00022316 22.5803 0.00022316H16.287C15.2188 0.00022316 14.6849 0.00022316 14.2768 0.205846C13.9178 0.386934 13.6265 0.675897 13.4436 1.03145C13.2357 1.43569 13.2357 1.96455 13.2357 3.02265V9.25638C13.2357 10.3141 13.2357 10.843 13.4436 11.2472C13.6265 11.6027 13.9178 11.8917 14.2768 12.0728C14.6849 12.2788 15.2188 12.2788 16.287 12.2788H22.5803C23.6481 12.2788 24.1825 12.2788 24.5902 12.0728C24.9491 11.8917 25.2408 11.6027 25.4237 11.2472C25.6316 10.843 25.6316 10.3141 25.6316 9.25638V3.02265C25.6316 1.96455 25.6316 1.43569 25.4237 1.03145C25.2408 0.675897 24.9491 0.386934 24.5902 0.205846ZM51.046 9.25638C51.046 9.80082 51.0452 10.1525 51.0232 10.42C51.002 10.6767 50.9662 10.7717 50.9422 10.8184C50.8506 10.996 50.7051 11.1405 50.5254 11.2312C50.4783 11.255 50.3823 11.2904 50.1232 11.3114C49.8531 11.3336 49.4981 11.334 48.9485 11.334H42.6551C42.1051 11.334 41.7501 11.3336 41.48 11.3114C41.2213 11.2904 41.125 11.255 41.0778 11.2312C40.8985 11.1405 40.7526 10.996 40.661 10.8184C40.637 10.7717 40.6009 10.6767 40.58 10.42C40.558 10.1525 40.5572 9.80082 40.5572 9.25638V3.02265C40.5572 2.47783 40.558 2.12616 40.58 1.85862C40.6009 1.60198 40.637 1.50696 40.661 1.46023C40.7526 1.28264 40.8985 1.13816 41.0778 1.04742C41.125 1.02367 41.2213 0.988227 41.48 0.967196C41.7501 0.944999 42.1051 0.94461 42.6551 0.94461H48.9485C49.4981 0.94461 49.8531 0.944999 50.1232 0.967196C50.3823 0.988227 50.4783 1.02367 50.5254 1.04742C50.7051 1.13816 50.8506 1.28264 50.9422 1.46023C50.9662 1.50696 51.002 1.60198 51.0232 1.85862C51.0452 2.12616 51.046 2.47783 51.046 3.02265V9.25638ZM51.7918 1.03145C51.609 0.675897 51.3173 0.386934 50.9583 0.205846C50.5506 0.00022316 50.0163 0.00022316 48.9485 0.00022316H42.6551C41.5869 0.00022316 41.053 0.00022316 40.6449 0.205846C40.2859 0.386934 39.9942 0.675897 39.8114 1.03145C39.6038 1.43569 39.6038 1.96455 39.6038 3.02265V9.25638C39.6038 10.3141 39.6038 10.843 39.8114 11.2472C39.9942 11.6027 40.2859 11.8917 40.6449 12.0728C41.053 12.2788 41.5869 12.2788 42.6551 12.2788H48.9485C50.0163 12.2788 50.5506 12.2788 50.9583 12.0728C51.3173 11.8917 51.609 11.6027 51.7918 11.2472C51.9998 10.843 51.9998 10.3141 51.9998 9.25638V3.02265C51.9998 1.96455 51.9998 1.43569 51.7918 1.03145ZM11.494 9.25638C11.494 9.80082 11.4932 10.1525 11.4712 10.42C11.4499 10.6767 11.4141 10.7717 11.3898 10.8184C11.2986 10.996 11.1527 11.1405 10.9734 11.2312C10.9262 11.255 10.8303 11.2904 10.5712 11.3114C10.3011 11.3336 9.94608 11.334 9.39605 11.334H3.10272C2.55308 11.334 2.19805 11.3336 1.92795 11.3114C1.66886 11.2904 1.57293 11.255 1.52575 11.2312C1.34646 11.1405 1.2006 10.996 1.109 10.8184C1.08501 10.7717 1.04923 10.6767 1.028 10.42C1.00599 10.1525 1.0052 9.80082 1.0052 9.25638V3.02265C1.0052 2.47783 1.00599 2.12616 1.028 1.85862C1.04923 1.60198 1.08501 1.50696 1.109 1.46023C1.2006 1.28264 1.34646 1.13816 1.52575 1.04742C1.57293 1.02367 1.66886 0.988227 1.92795 0.967196C2.19805 0.944999 2.55308 0.94461 3.10272 0.94461H9.39605C9.94608 0.94461 10.3011 0.944999 10.5712 0.967196C10.8303 0.988227 10.9262 1.02367 10.9734 1.04742C11.1527 1.13816 11.2986 1.28264 11.3898 1.46023C11.4141 1.50696 11.4499 1.60198 11.4712 1.85862C11.4932 2.12616 11.494 2.47783 11.494 3.02265V9.25638ZM11.4063 0.205846C10.9982 0.00022316 10.4643 0.00022316 9.39605 0.00022316H3.10272C2.03489 0.00022316 1.50098 0.00022316 1.09288 0.205846C0.733919 0.386934 0.442194 0.675897 0.259374 1.03145C0.0513913 1.43569 0.0513916 1.96455 0.0513916 3.02265V9.25638C0.0513916 10.3141 0.0513913 10.843 0.259374 11.2472C0.442194 11.6027 0.733919 11.8917 1.09288 12.0728C1.50098 12.2788 2.03489 12.2788 3.10272 12.2788H9.39605C10.4643 12.2788 10.9982 12.2788 11.4063 12.0728C11.7652 11.8917 12.057 11.6027 12.2398 11.2472C12.4474 10.843 12.4474 10.3141 12.4474 9.25638V3.02265C12.4474 1.96455 12.4474 1.43569 12.2398 1.03145C12.057 0.675897 11.7652 0.386934 11.4063 0.205846ZM43.3223 4.79693L41.5106 4.79498L43.1316 8.54137H49.1392L50.0926 6.92637V5.8967H46.2785C43.6086 5.8967 43.3223 4.79693 43.3223 4.79693ZM49.3298 4.79498H48.376V3.44091H46.2785V5.60618H49.3298V4.79498Z" fill="#00539F"/>
<path d="M10.0285 16.5579L7.74068 27.8323L5.47171 16.5579H0V29.7776H2.99318V18.4654L5.62426 29.7776H9.83783L12.4689 18.4654V29.7776H15.4432V16.5579H10.0285Z" fill="#00539F"/>
</svg>
