<svg width="572" height="453" viewBox="0 0 572 453" fill="none" xmlns="http://www.w3.org/2000/svg">
<g clip-path="url(#clip0_2511_33240)">
<path d="M-13 379.209H535.742V76.1376L259.918 38.2544L-13 76.1376V379.209Z" fill="#D1E1F5"/>
<path d="M267.909 165.881C267.909 166.41 268.097 166.827 268.473 167.131C268.849 167.436 269.384 167.587 270.077 167.587C271.166 167.587 272.062 167.249 272.764 166.572C273.467 165.895 273.819 165.077 273.819 164.116V163.527L270.641 163.851C268.819 164.009 267.909 164.684 267.909 165.881ZM263.305 166.116C263.305 163.214 265.542 161.557 270.018 161.144L273.819 160.792V160.38C273.819 158.732 272.938 157.899 271.176 157.879C270.384 157.879 269.745 158.046 269.261 158.379C268.775 158.713 268.503 159.203 268.444 159.85H264.167C264.226 158.026 264.909 156.702 266.216 155.879C267.522 155.055 269.175 154.643 271.176 154.643C273.492 154.643 275.289 155.197 276.566 156.306C277.843 157.413 278.481 159.096 278.481 161.35V170.411H274.145V167.793C272.977 169.774 271.116 170.764 268.562 170.764C266.879 170.764 265.582 170.333 264.672 169.47C263.761 168.607 263.305 167.489 263.305 166.116Z" fill="#00539F"/>
<path d="M281.436 149.818H286.099V153.878H281.436V149.818ZM278.555 176.53V172.823C278.872 172.843 279.258 172.852 279.714 172.852C280.367 172.852 280.817 172.701 281.065 172.397C281.313 172.093 281.436 171.499 281.436 170.617V154.997H286.099V171.735C286.099 173.52 285.737 174.784 285.015 175.53C284.292 176.275 283.02 176.648 281.199 176.648C280.664 176.648 279.783 176.608 278.555 176.53Z" fill="#00539F"/>
<path d="M294.009 159.483C293.345 160.316 293.015 161.39 293.015 162.703C293.015 164.018 293.345 165.092 294.009 165.925C294.673 166.759 295.578 167.175 296.727 167.175C297.855 167.175 298.751 166.759 299.415 165.925C300.077 165.092 300.409 164.018 300.409 162.703C300.409 161.39 300.077 160.316 299.415 159.483C298.751 158.649 297.855 158.232 296.727 158.232C295.578 158.232 294.673 158.649 294.009 159.483ZM290.653 168.587C289.158 167.136 288.411 165.175 288.411 162.703C288.411 160.232 289.158 158.272 290.653 156.82C292.148 155.369 294.173 154.643 296.727 154.643C299.261 154.643 301.275 155.364 302.77 156.806C304.265 158.247 305.013 160.213 305.013 162.703C305.013 165.195 304.265 167.161 302.77 168.602C301.275 170.043 299.261 170.764 296.727 170.764C294.173 170.764 292.148 170.039 290.653 168.587Z" fill="#00539F"/>
<path d="M316.188 154.673C316.822 154.673 317.425 154.751 318 154.908V158.938C317.01 158.761 316.188 158.673 315.535 158.673C314.307 158.673 313.412 159.026 312.848 159.733C312.283 160.439 312.001 161.615 312.001 163.263V170.411H307.338V154.997H311.674V157.85C312.625 155.732 314.129 154.673 316.188 154.673Z" fill="#00539F"/>
<path d="M281.436 149.818H286.099V153.878H281.436V149.818ZM278.555 176.53V172.823C278.872 172.843 279.258 172.852 279.714 172.852C280.367 172.852 280.817 172.701 281.065 172.397C281.313 172.093 281.436 171.499 281.436 170.617V154.997H286.099V171.735C286.099 173.52 285.737 174.784 285.015 175.53C284.292 176.275 283.02 176.648 281.199 176.648C280.664 176.648 279.783 176.608 278.555 176.53Z" fill="#E10000"/>
<path d="M265.061 130.692H261.924L260.596 133.829L260.588 135.146V137.173H261.424V137.174C261.424 137.955 262.068 138.59 262.861 138.59C263.657 138.59 264.3 137.955 264.3 137.174V137.173H267.32V137.174C267.32 137.955 267.965 138.59 268.759 138.59C269.551 138.59 270.199 137.955 270.199 137.174V137.173H270.501V137.174C270.501 137.955 271.144 138.59 271.939 138.59C272.731 138.59 273.377 137.955 273.377 137.174C273.377 137.173 273.377 137.173 273.377 137.173H273.948V135.146H265.061V130.692ZM265.498 134.74H273.956V128.768H265.498V134.74ZM248.802 128.675C248.802 128.675 249.261 127.177 248.093 127.177L244.467 132.218H247.544L248.802 128.675ZM253.568 130.975H252.756L251.541 132.872L247.382 132.672L244.141 132.67L244.139 132.672H242.096C241.091 132.672 240.205 133.062 240.205 133.571C240.205 134.092 241.091 134.472 242.096 134.472H244.139L248.093 139.965C249.261 139.965 248.802 138.466 248.802 138.466L247.382 134.472L251.541 134.273L252.756 136.173H253.568L252.86 134.273L252.767 133.571L252.86 132.872L253.568 130.975ZM291.144 129.525H293.11V131.461H291.144V129.525ZM290.422 134.722H294.214V130.137H294.634V128.711H290.422V134.722ZM282.995 137.195H283.987C283.987 137.197 283.987 137.199 283.987 137.2C283.987 137.469 283.765 137.687 283.491 137.687C283.22 137.687 282.995 137.469 282.995 137.2C282.995 137.199 282.995 137.197 282.995 137.195ZM286.514 137.195H287.503C287.503 137.197 287.503 137.199 287.503 137.2C287.503 137.469 287.282 137.687 287.009 137.687C286.735 137.687 286.514 137.469 286.514 137.2C286.514 137.199 286.514 137.197 286.514 137.195ZM289.925 137.195H290.917C290.917 137.197 290.918 137.199 290.918 137.2C290.918 137.469 290.695 137.687 290.422 137.687C290.147 137.687 289.924 137.469 289.924 137.2C289.924 137.199 289.925 137.197 289.925 137.195ZM281.706 135.769H281.267V137.195H282.045C282.045 137.197 282.045 137.199 282.045 137.2C282.045 137.987 282.692 138.626 283.491 138.626C284.292 138.626 284.939 137.987 284.939 137.2C284.939 137.199 284.939 137.197 284.939 137.195H285.561C285.561 137.197 285.56 137.199 285.56 137.2C285.56 137.987 286.209 138.626 287.009 138.626C287.806 138.626 288.458 137.987 288.458 137.2C288.458 137.199 288.458 137.197 288.458 137.195H288.975C288.975 137.197 288.974 137.199 288.974 137.2C288.974 137.987 289.622 138.626 290.422 138.626C291.219 138.626 291.869 137.987 291.869 137.2C291.869 137.199 291.869 137.197 291.869 137.195H294.195V135.157H281.706V135.769ZM289.983 134.722V130.646H283.646V129.017H282.535V130.646H281.706C281.144 131.948 281.144 133.42 281.706 134.722H289.983ZM295.978 138.418C295.978 139.267 295.976 139.814 295.942 140.231C295.909 140.631 295.853 140.779 295.815 140.852C295.673 141.128 295.446 141.353 295.167 141.495C295.093 141.532 294.943 141.587 294.54 141.62C294.119 141.654 293.566 141.655 292.71 141.655H282.907C282.05 141.655 281.497 141.654 281.077 141.62C280.673 141.587 280.524 141.532 280.45 141.495C280.171 141.353 279.943 141.128 279.801 140.852C279.764 140.779 279.707 140.631 279.674 140.231C279.64 139.814 279.639 139.267 279.639 138.418V128.708C279.639 127.86 279.64 127.312 279.674 126.895C279.707 126.495 279.764 126.347 279.801 126.274C279.943 125.998 280.171 125.773 280.45 125.631C280.524 125.594 280.673 125.539 281.077 125.506C281.497 125.472 282.05 125.471 282.907 125.471H292.71C293.566 125.471 294.119 125.472 294.54 125.506C294.943 125.539 295.093 125.594 295.167 125.631C295.446 125.773 295.673 125.998 295.815 126.274C295.853 126.347 295.909 126.495 295.942 126.895C295.976 127.312 295.978 127.86 295.978 128.708V138.418ZM295.841 124.321C295.205 124 294.374 124 292.71 124H282.907C281.243 124 280.411 124 279.775 124.321C279.217 124.603 278.762 125.053 278.478 125.607C278.154 126.236 278.154 127.06 278.154 128.708V138.418C278.154 140.066 278.154 140.89 278.478 141.52C278.762 142.073 279.217 142.523 279.775 142.806C280.411 143.126 281.243 143.126 282.907 143.126H292.71C294.374 143.126 295.205 143.126 295.841 142.806C296.399 142.523 296.855 142.073 297.139 141.52C297.463 140.89 297.463 140.066 297.463 138.418V128.708C297.463 127.06 297.463 126.236 297.139 125.607C296.855 125.053 296.399 124.603 295.841 124.321ZM275.441 138.418C275.441 139.267 275.44 139.814 275.405 140.231C275.372 140.631 275.316 140.779 275.279 140.852C275.137 141.128 274.91 141.353 274.63 141.495C274.556 141.532 274.407 141.587 274.003 141.62C273.582 141.654 273.029 141.655 272.173 141.655H262.37C261.513 141.655 260.961 141.654 260.54 141.62C260.137 141.587 259.987 141.532 259.913 141.495C259.634 141.353 259.407 141.128 259.265 140.852C259.227 140.779 259.171 140.631 259.138 140.231C259.103 139.814 259.102 139.267 259.102 138.418V128.708C259.102 127.86 259.103 127.312 259.138 126.895C259.171 126.495 259.227 126.347 259.265 126.274C259.407 125.998 259.634 125.773 259.913 125.631C259.987 125.594 260.137 125.539 260.54 125.506C260.961 125.472 261.513 125.471 262.37 125.471H272.173C273.029 125.471 273.582 125.472 274.003 125.506C274.407 125.539 274.556 125.594 274.63 125.631C274.91 125.773 275.137 125.998 275.279 126.274C275.316 126.347 275.372 126.495 275.405 126.895C275.44 127.312 275.441 127.86 275.441 128.708V138.418ZM275.304 124.321C274.669 124 273.837 124 272.173 124H262.37C260.706 124 259.875 124 259.239 124.321C258.68 124.603 258.226 125.053 257.941 125.607C257.617 126.236 257.617 127.06 257.617 128.708V138.418C257.617 140.066 257.617 140.89 257.941 141.52C258.226 142.073 258.68 142.523 259.239 142.806C259.875 143.126 260.706 143.126 262.37 143.126H272.173C273.837 143.126 274.669 143.126 275.304 142.806C275.863 142.523 276.317 142.073 276.602 141.52C276.926 140.89 276.926 140.066 276.926 138.418V128.708C276.926 127.06 276.926 126.236 276.602 125.607C276.317 125.053 275.863 124.603 275.304 124.321ZM316.514 138.418C316.514 139.267 316.513 139.814 316.478 140.231C316.445 140.631 316.39 140.779 316.352 140.852C316.21 141.128 315.983 141.353 315.703 141.495C315.63 141.532 315.48 141.587 315.077 141.62C314.656 141.654 314.103 141.655 313.247 141.655H303.444C302.587 141.655 302.034 141.654 301.613 141.62C301.21 141.587 301.06 141.532 300.987 141.495C300.707 141.353 300.48 141.128 300.337 140.852C300.3 140.779 300.244 140.631 300.211 140.231C300.177 139.814 300.176 139.267 300.176 138.418V128.708C300.176 127.86 300.177 127.312 300.211 126.895C300.244 126.495 300.3 126.347 300.337 126.274C300.48 125.998 300.707 125.773 300.987 125.631C301.06 125.594 301.21 125.539 301.613 125.506C302.034 125.472 302.587 125.471 303.444 125.471H313.247C314.103 125.471 314.656 125.472 315.077 125.506C315.48 125.539 315.63 125.594 315.703 125.631C315.983 125.773 316.21 125.998 316.352 126.274C316.39 126.347 316.445 126.495 316.478 126.895C316.513 127.312 316.514 127.86 316.514 128.708V138.418ZM317.676 125.607C317.391 125.053 316.937 124.603 316.377 124.321C315.742 124 314.91 124 313.247 124H303.444C301.78 124 300.948 124 300.312 124.321C299.753 124.603 299.299 125.053 299.014 125.607C298.691 126.236 298.691 127.06 298.691 128.708V138.418C298.691 140.066 298.691 140.89 299.014 141.52C299.299 142.073 299.753 142.523 300.312 142.806C300.948 143.126 301.78 143.126 303.444 143.126H313.247C314.91 143.126 315.742 143.126 316.377 142.806C316.937 142.523 317.391 142.073 317.676 141.52C318 140.89 318 140.066 318 138.418V128.708C318 127.06 318 126.236 317.676 125.607ZM254.904 138.418C254.904 139.267 254.903 139.814 254.869 140.231C254.835 140.631 254.78 140.779 254.742 140.852C254.6 141.128 254.372 141.353 254.093 141.495C254.02 141.532 253.87 141.587 253.467 141.62C253.046 141.654 252.493 141.655 251.636 141.655H241.833C240.977 141.655 240.424 141.654 240.003 141.62C239.6 141.587 239.45 141.532 239.377 141.495C239.097 141.353 238.87 141.128 238.727 140.852C238.69 140.779 238.634 140.631 238.601 140.231C238.567 139.814 238.566 139.267 238.566 138.418V128.708C238.566 127.86 238.567 127.312 238.601 126.895C238.634 126.495 238.69 126.347 238.727 126.274C238.87 125.998 239.097 125.773 239.377 125.631C239.45 125.594 239.6 125.539 240.003 125.506C240.424 125.472 240.977 125.471 241.833 125.471H251.636C252.493 125.471 253.046 125.472 253.467 125.506C253.87 125.539 254.02 125.594 254.093 125.631C254.372 125.773 254.6 125.998 254.742 126.274C254.78 126.347 254.835 126.495 254.869 126.895C254.903 127.312 254.904 127.86 254.904 128.708V138.418ZM254.768 124.321C254.132 124 253.3 124 251.636 124H241.833C240.17 124 239.338 124 238.702 124.321C238.143 124.603 237.689 125.053 237.404 125.607C237.08 126.236 237.08 127.06 237.08 128.708V138.418C237.08 140.066 237.08 140.89 237.404 141.52C237.689 142.073 238.143 142.523 238.702 142.806C239.338 143.126 240.17 143.126 241.833 143.126H251.636C253.3 143.126 254.132 143.126 254.768 142.806C255.327 142.523 255.781 142.073 256.066 141.52C256.389 140.89 256.389 140.066 256.389 138.418V128.708C256.389 127.06 256.389 126.236 256.066 125.607C255.781 125.053 255.327 124.603 254.768 124.321ZM304.483 131.472L301.661 131.469L304.186 137.305H313.544L315.029 134.789V133.185H309.088C304.929 133.185 304.483 131.472 304.483 131.472ZM313.841 131.469H312.355V129.36H309.088V132.733H313.841V131.469Z" fill="#00539F"/>
<path d="M252.621 149.792L249.058 167.354L245.523 149.792H237V170.384H241.662V152.763L245.761 170.384H252.324L256.423 152.763V170.384H261.056V149.792H252.621Z" fill="#00539F"/>
<path d="M238.399 179.248C237.918 179.248 237.537 179.037 237.424 178.722C237.367 178.567 237.36 178.497 237.36 178.168V176.218H237V175.573H237.36C237.36 175.222 237.36 174.991 237.396 174.724L238.357 174.486C238.321 174.816 238.3 175.208 238.3 175.573H239.148L238.908 176.218H238.3V178.02C238.3 178.476 238.385 178.595 238.71 178.595C238.795 178.595 238.88 178.574 239.049 178.525L239.169 179.086C238.894 179.198 238.646 179.248 238.399 179.248Z" fill="#0053A0"/>
<path d="M241.586 176.933C241.586 176.667 241.558 176.526 241.473 176.393C241.381 176.253 241.247 176.183 241.056 176.183C240.696 176.183 240.491 176.463 240.491 176.961V176.975H241.586V176.933ZM240.477 177.662V177.69C240.477 178.245 240.752 178.56 241.24 178.56C241.565 178.56 241.869 178.441 242.158 178.202L242.526 178.763C242.109 179.1 241.671 179.261 241.162 179.261C240.123 179.261 239.452 178.532 239.452 177.403C239.452 176.758 239.586 176.33 239.904 175.979C240.201 175.65 240.561 175.495 241.042 175.495C241.459 175.495 241.855 175.636 242.088 175.874C242.42 176.211 242.568 176.695 242.568 177.445V177.662H240.477Z" fill="#0053A0"/>
<path d="M244.936 176.393C244.844 176.344 244.766 176.323 244.66 176.323C244.448 176.323 244.257 176.421 244.081 176.624V179.163H243.134V176.765C243.134 176.281 243.077 175.916 242.999 175.713L243.848 175.488C243.932 175.636 243.982 175.797 243.996 176C244.201 175.727 244.49 175.488 244.844 175.488C244.985 175.488 245.049 175.503 245.197 175.565L244.936 176.393Z" fill="#0053A0"/>
<path d="M249.175 179.163V176.793C249.175 176.365 249.126 176.281 248.879 176.281C248.702 176.281 248.455 176.4 248.25 176.582V179.163H247.352V176.828C247.352 176.379 247.289 176.274 247.027 176.274C246.851 176.274 246.61 176.365 246.405 176.547V179.163H245.48V176.66C245.48 176.141 245.445 175.916 245.346 175.741L246.2 175.51C246.264 175.608 246.292 175.692 246.328 175.874C246.575 175.636 246.879 175.51 247.211 175.51C247.508 175.51 247.755 175.608 247.946 175.804C247.995 175.853 248.045 175.916 248.087 175.979C248.419 175.643 248.716 175.51 249.112 175.51C249.395 175.51 249.663 175.594 249.825 175.734C250.03 175.909 250.094 176.12 250.094 176.61V179.163H249.175Z" fill="#0053A0"/>
<path d="M250.978 179.163V175.636L251.925 175.489V179.163H250.978ZM251.451 175.166C251.133 175.166 250.872 174.906 250.872 174.584C250.872 174.261 251.14 174.002 251.465 174.002C251.783 174.002 252.038 174.261 252.038 174.584C252.038 174.906 251.776 175.166 251.451 175.166Z" fill="#0053A0"/>
<path d="M254.73 179.163V176.828C254.73 176.421 254.659 176.302 254.412 176.302C254.221 176.302 253.974 176.428 253.755 176.624V179.163H252.808V176.562C252.808 176.253 252.766 175.958 252.681 175.72L253.522 175.481C253.606 175.629 253.656 175.783 253.656 175.93C253.797 175.832 253.917 175.748 254.073 175.664C254.264 175.566 254.511 175.51 254.723 175.51C255.126 175.51 255.479 175.72 255.592 176.029C255.641 176.162 255.663 176.316 255.663 176.54V179.163H254.73Z" fill="#0053A0"/>
<path d="M258.193 177.592C257.536 177.592 257.309 177.711 257.309 178.139C257.309 178.42 257.486 178.609 257.726 178.609C257.903 178.609 258.08 178.518 258.221 178.363L258.235 177.592H258.193ZM258.998 179.345C258.779 179.254 258.341 179.051 258.27 179.1C258.094 179.226 257.839 179.296 257.543 179.296C256.737 179.296 256.299 178.889 256.299 178.174C256.299 177.333 256.885 176.94 258.037 176.94C258.108 176.94 258.171 176.94 258.249 176.947V176.8C258.249 176.4 258.171 176.267 257.825 176.267C257.521 176.267 257.168 176.414 256.779 176.674L256.377 176C256.567 175.881 256.709 175.811 256.963 175.705C257.317 175.558 257.62 175.495 257.953 175.495C258.56 175.495 258.977 175.72 259.118 176.119C259.168 176.267 259.189 176.379 259.182 176.765L259.161 177.971C259.154 178.363 259.182 178.532 259.5 178.77L258.998 179.345Z" fill="#0053A0"/>
<path d="M260.025 174.338V179.247L261 179.261V174.338H260.025Z" fill="#0053A0"/>
<path d="M433.329 177H483.671C485.51 177 487 174.491 487 171.399V130.601C487 127.507 485.51 125 483.671 125H433.329C431.49 125 430 127.507 430 130.601V171.399C430 174.491 431.49 177 433.329 177Z" fill="#678FB5"/>
<path d="M64.3874 177H115.613C117.484 177 119 174.491 119 171.399V130.601C119 127.507 117.484 125 115.613 125H64.3874C62.5164 125 61 127.507 61 130.601V171.399C61 174.491 62.5164 177 64.3874 177Z" fill="#678FB5"/>
<path d="M61.2383 379.21H487.373V230.515H61.2383V379.21Z" fill="#07529B"/>
<path d="M66.8946 379.209H481.721V237.144H66.8946V379.209Z" fill="#B1CCE8"/>
<path d="M66.8946 272.502H481.721V237.145H66.8946V272.502Z" fill="#D1E1F5"/>
<path d="M66.8946 239.754H481.721V236.33H66.8946V239.754Z" fill="#A3C5E5"/>
<path d="M66.8946 252.09H481.721V248.668H66.8946V252.09Z" fill="#A3C5E5"/>
<path d="M66.8946 264.427H481.721V261.004H66.8946V264.427Z" fill="#A3C5E5"/>
<path d="M214.551 336.393H110.664V379.209H214.551V336.393Z" fill="#FFF7D5"/>
<path d="M207.77 379.209H215.32V336.393H207.77V379.209Z" fill="#D1C38D"/>
<path d="M168.532 362.507H158.219V336.392H168.532V362.507Z" fill="#07529B"/>
<path d="M110.664 352.459H75.0352V379.21H110.664V352.459Z" fill="#FFF7D5"/>
<path d="M106.934 379.21H111.431V352.459H106.934V379.21Z" fill="#D1C38D"/>
<path d="M93.9418 368.775H88.9609V352.459H93.9418V368.775Z" fill="#07529B"/>
<path d="M275.837 430.18H294.26C296.495 430.18 298.324 428.351 298.324 426.115V409.478C298.324 407.244 296.495 405.414 294.26 405.414H275.837C273.602 405.414 271.773 407.244 271.773 409.478V426.115C271.773 428.351 273.602 430.18 275.837 430.18Z" fill="#0E1844"/>
<path d="M351.651 431.355H364.059V339.603C364.059 336.176 361.281 333.399 357.855 333.399C354.429 333.399 351.651 336.176 351.651 339.603V431.355Z" fill="#07529B"/>
<path d="M285.108 408.049H316.547C318.865 408.049 320.762 406.152 320.762 403.834V395.943C320.762 393.626 318.865 391.729 316.547 391.729H285.108C282.79 391.729 280.894 393.626 280.894 395.943V403.834C280.894 406.152 282.79 408.049 285.108 408.049Z" fill="#07529B"/>
<path d="M347.533 420.708L297.028 422.755V401.906L348.371 402.744L347.533 420.708Z" fill="#07529B"/>
<path d="M287.262 428.676C287.262 421.869 281.745 416.351 274.939 416.351C268.133 416.351 262.616 421.869 262.616 428.676C262.616 435.482 268.133 441 274.939 441C281.745 441 287.262 435.482 287.262 428.676Z" fill="#07529B"/>
<path d="M282.039 428.676C282.039 424.753 278.86 421.574 274.938 421.574C271.017 421.574 267.837 424.753 267.837 428.676C267.837 432.598 271.017 435.778 274.938 435.778C278.86 435.778 282.039 432.598 282.039 428.676Z" fill="#EF3D33"/>
<path d="M283.873 388.502V397.811H296.903L334.902 418.287V433.506H297.233C294.011 433.506 291.399 430.891 291.399 427.669V424.23C291.399 420.508 289.573 417.024 286.514 414.905C284.795 413.714 282.752 413.075 280.66 413.075H270.823C268.162 413.075 266.005 410.918 266.005 408.255V393.666C266.005 390.813 268.317 388.502 271.168 388.502H283.873Z" fill="#1E1E1E"/>
<path d="M349.514 412.566L353.789 412.096L327.633 350.317C324.489 342.867 317.234 338.053 309.15 338.053H289.001C284.034 338.053 279.993 342.095 279.993 347.063V397.811H284.087V347.063C284.087 344.353 286.291 342.149 289.001 342.149H309.15C315.584 342.149 321.358 345.98 323.86 351.91L349.514 412.566Z" fill="#1E1E1E"/>
<path d="M292.078 372.975L293.556 391.73H316.817C316.817 391.73 318.048 386.489 314.189 386.26C310.331 386.032 301.089 384.638 301.089 384.638C301.089 384.638 301.544 372.99 294.426 371.047C293.182 370.708 291.978 371.71 292.078 372.975Z" fill="#004996"/>
<path d="M323.804 377.883C324.235 378.062 324.735 377.858 324.916 377.427L329.224 367.103C329.403 366.672 329.199 366.174 328.768 365.994C328.337 365.813 327.837 366.018 327.658 366.449L323.349 376.774C323.169 377.204 323.374 377.703 323.804 377.883Z" fill="#1E1E1E"/>
<path d="M332.25 370.593H328.922C328.058 370.593 327.288 371.135 326.996 371.947L326.035 374.625C325.84 375.166 325.882 375.763 326.15 376.272L326.703 377.319C328.027 379.829 330.554 381.478 333.384 381.681L337.445 381.973L334.194 372.004C333.92 371.162 333.135 370.593 332.25 370.593Z" fill="#1E1E1E"/>
<path d="M360.562 425.363C360.562 416.727 353.562 409.725 344.927 409.725C336.292 409.725 329.292 416.727 329.292 425.363C329.292 434 336.292 441 344.927 441C353.562 441 360.562 434 360.562 425.363Z" fill="#07529B"/>
<path d="M353.934 425.363C353.934 420.386 349.9 416.351 344.924 416.351C339.948 416.351 335.914 420.386 335.914 425.363C335.914 430.34 339.948 434.374 344.924 434.374C349.9 434.374 353.934 430.34 353.934 425.363Z" fill="#EF3D33"/>
<path d="M364.057 397.664H444.521C445.348 397.664 446.02 396.993 446.02 396.166C446.02 395.337 445.348 394.667 444.521 394.667H364.057V397.664Z" fill="#07529B"/>
<path d="M397.144 358.927H444.746V394.666H397.144V358.927Z" fill="#FFF7D5"/>
<path d="M402.016 394.666H397.142V358.927H402.016V394.666Z" fill="black"/>
<path d="M419.488 380.726H426.145V358.927H419.488V380.726Z" fill="#07529B"/>
<path d="M364.059 369.827H397.145V394.667H364.059V369.827Z" fill="#FFF7D5"/>
<path d="M367.445 394.667H364.058V369.826H367.445V394.667Z" fill="black"/>
<path d="M379.589 384.977H384.215V369.826H379.589V384.977Z" fill="#07529B"/>
</g>
<path d="M6.86182 37.2583L270.985 0.335183C271.615 0.246996 272.255 0.246996 272.885 0.335183L537.979 37.2612C541.378 37.7351 543.907 40.641 543.907 44.0725C543.907 48.2496 540.215 51.4617 536.079 50.8838L273.786 14.2267C273.155 14.1385 272.515 14.1385 271.885 14.226L8.76228 50.8874C4.62729 51.4639 0.9375 48.2518 0.9375 44.0761V44.0696C0.9375 40.6396 3.46523 37.733 6.86182 37.2583Z" fill="#014996"/>
<defs>
<clipPath id="clip0_2511_33240">
<rect width="562" height="423" fill="white" transform="translate(10 30)"/>
</clipPath>
</defs>
</svg>
