<svg width="76" height="47" viewBox="0 0 76 47" fill="none" xmlns="http://www.w3.org/2000/svg">
<path d="M14.9844 29.9238V33H1.36719V30.375L7.80664 23.4707C8.45378 22.7507 8.96419 22.1172 9.33789 21.5703C9.71159 21.0143 9.98047 20.5176 10.1445 20.0801C10.3177 19.6335 10.4043 19.2096 10.4043 18.8086C10.4043 18.207 10.304 17.6921 10.1035 17.2637C9.90299 16.8262 9.60677 16.4889 9.21484 16.252C8.83203 16.015 8.35807 15.8965 7.79297 15.8965C7.19141 15.8965 6.67188 16.0423 6.23438 16.334C5.80599 16.6257 5.47786 17.0312 5.25 17.5508C5.03125 18.0703 4.92188 18.6582 4.92188 19.3145H0.970703C0.970703 18.1296 1.25326 17.0449 1.81836 16.0605C2.38346 15.0671 3.18099 14.2786 4.21094 13.6953C5.24089 13.1029 6.46224 12.8066 7.875 12.8066C9.26953 12.8066 10.4453 13.0345 11.4023 13.4902C12.3685 13.9368 13.0977 14.584 13.5898 15.4316C14.0911 16.2702 14.3418 17.2728 14.3418 18.4395C14.3418 19.0957 14.237 19.7383 14.0273 20.3672C13.8177 20.987 13.5169 21.6068 13.125 22.2266C12.7422 22.8372 12.2773 23.457 11.7305 24.0859C11.1836 24.7148 10.5775 25.3665 9.91211 26.041L6.45312 29.9238H14.9844ZM31.3906 25.5625V28.6523H17.0488L16.8574 26.2598L25.1562 13.0938H28.2871L24.8965 18.7676L20.7676 25.5625H31.3906ZM29.1348 13.0938V33H25.1973V13.0938H29.1348ZM67.9629 13.0938V15.2129L60.2656 33H56.1094L63.8066 16.1699H53.8945V13.0938H67.9629Z" fill="#004996"/>
<line x1="46.9852" y1="0.171341" x2="38.9852" y2="46.1713" stroke="#D6E4F6" stroke-width="2"/>
</svg>
