<svg width="54" height="54" viewBox="0 0 54 54" fill="none" xmlns="http://www.w3.org/2000/svg">
<path d="M52.875 38.25L41.625 49.5L33.75 41.625L37.125 38.25L41.625 42.75L49.5 34.875L52.875 38.25ZM13.5 4.5C12.3065 4.5 11.1619 4.97411 10.318 5.81802C9.47411 6.66193 9 7.80653 9 9V45C9 47.4975 11.0025 49.5 13.5 49.5H31.0725C30.2625 48.105 29.7 46.575 29.43 45H13.5V9H29.25V20.25H40.5V29.43C41.2425 29.3175 42.0075 29.25 42.75 29.25C43.515 29.25 44.2575 29.3175 45 29.43V18L31.5 4.5M18 27V31.5H36V27M18 36V40.5H29.25V36H18Z" fill="#004996"/>
</svg>
