<svg width="96" height="47" viewBox="0 0 96 47" fill="none" xmlns="http://www.w3.org/2000/svg">
<path d="M84 23C82.35 23 80.9375 22.3146 79.7625 20.9437C78.5875 19.5729 78 17.925 78 16C78 14.075 78.5875 12.4271 79.7625 11.0563C80.9375 9.68542 82.35 9 84 9C85.65 9 87.0625 9.68542 88.2375 11.0563C89.4125 12.4271 90 14.075 90 16C90 17.925 89.4125 19.5729 88.2375 20.9437C87.0625 22.3146 85.65 23 84 23ZM75 37C74.175 37 73.4685 36.657 72.8805 35.971C72.2925 35.285 71.999 34.4613 72 33.5V32.1C72 31.1083 72.219 30.1966 72.657 29.3647C73.095 28.5329 73.676 27.8988 74.4 27.4625C75.95 26.5583 77.525 25.8799 79.125 25.4272C80.725 24.9746 82.35 24.7488 84 24.75C85.65 24.75 87.275 24.9763 88.875 25.429C90.475 25.8817 92.05 26.5595 93.6 27.4625C94.325 27.9 94.9065 28.5347 95.3445 29.3665C95.7825 30.1983 96.001 31.1095 96 32.1V33.5C96 34.4625 95.706 35.2867 95.118 35.9727C94.53 36.6587 93.824 37.0012 93 37H75Z" fill="#07529B"/>
<path d="M3.4165 37.125V12.75H13.6665V6.25H27.3332V12.75H37.5832V37.125H3.4165ZM17.0832 12.75H23.9165V9.5H17.0832V12.75ZM34.1665 27.375H25.6248V30.625H15.3748V27.375H6.83317V33.875H34.1665V27.375ZM18.7915 27.375H22.2082V24.125H18.7915V27.375ZM6.83317 24.125H15.3748V20.875H25.6248V24.125H34.1665V16H6.83317V24.125Z" fill="#004996"/>
<line x1="59.9852" y1="0.171341" x2="51.9852" y2="46.1713" stroke="#D6E4F6" stroke-width="2"/>
</svg>
