<svg width="54" height="54" viewBox="0 0 54 54" fill="none" xmlns="http://www.w3.org/2000/svg">
<path d="M49.5 27C49.5 37.6065 49.5 42.9097 46.2037 46.2037C42.912 49.5 37.6065 49.5 27 49.5C16.3935 49.5 11.0903 49.5 7.794 46.2037C4.5 42.912 4.5 37.6065 4.5 27C4.5 16.3935 4.5 11.0903 7.794 7.794C11.0925 4.5 16.3935 4.5 27 4.5C37.6065 4.5 42.9097 4.5 46.2037 7.794C48.3952 9.9855 49.1287 13.0657 49.3762 18" stroke="#004996" stroke-width="3" stroke-linecap="round"/>
<path d="M32.8442 30.9512C31.3756 30.9512 29.9526 30.4412 28.8183 29.5084C27.684 28.5756 26.9088 27.2779 26.6252 25.8369C26.3416 24.396 26.5671 22.9013 27.2633 21.6082C27.9595 20.3151 29.0831 19.3038 30.4421 18.7473C31.8011 18.1907 33.3113 18.1233 34.7145 18.5566C36.1177 18.9899 37.3269 19.8971 38.1355 21.123C38.9441 22.349 39.3018 23.8177 39.1477 25.2781C38.9935 26.7386 38.337 28.1003 37.2903 29.1304" stroke="#E10000" stroke-width="1.5" stroke-linecap="round"/>
<path d="M32.844 35.5609V30.9512M32.844 35.5609H36.3014M32.844 35.5609H29.3867" stroke="#E10000" stroke-width="1.5" stroke-linecap="round" stroke-linejoin="round"/>
<path d="M16.1339 25.189V24.3247C15.9046 24.3247 15.6848 24.4158 15.5227 24.5779C15.3606 24.74 15.2695 24.9598 15.2695 25.189H16.1339ZM23.0485 25.189H23.9128C23.9128 24.9598 23.8218 24.74 23.6597 24.5779C23.4976 24.4158 23.2777 24.3247 23.0485 24.3247V25.189ZM23.9128 32.1037C23.9128 31.8744 23.8218 31.6546 23.6597 31.4925C23.4976 31.3304 23.2777 31.2393 23.0485 31.2393C22.8193 31.2393 22.5994 31.3304 22.4373 31.4925C22.2752 31.6546 22.1842 31.8744 22.1842 32.1037H23.9128ZM22.1842 27.4939C22.1842 27.7231 22.2752 27.943 22.4373 28.1051C22.5994 28.2672 22.8193 28.3582 23.0485 28.3582C23.2777 28.3582 23.4976 28.2672 23.6597 28.1051C23.8218 27.943 23.9128 27.7231 23.9128 27.4939H22.1842ZM16.1339 26.0534H23.0485V24.3247H16.1339V26.0534ZM16.9982 32.1037V25.189H15.2695V32.1037H16.9982ZM19.5912 34.6967C18.9035 34.6967 18.2439 34.4235 17.7577 33.9372C17.2714 33.4509 16.9982 32.7914 16.9982 32.1037H15.2695C15.2695 33.2498 15.7248 34.3491 16.5353 35.1595C17.3458 35.97 18.445 36.4253 19.5912 36.4253V34.6967ZM22.1842 32.1037C22.1842 32.7914 21.911 33.4509 21.4247 33.9372C20.9384 34.4235 20.2789 34.6967 19.5912 34.6967V36.4253C20.1587 36.4253 20.7207 36.3135 21.245 36.0964C21.7693 35.8792 22.2457 35.5608 22.647 35.1595C23.0483 34.7582 23.3667 34.2818 23.5839 33.7575C23.801 33.2332 23.9128 32.6712 23.9128 32.1037H22.1842ZM22.1842 25.189V27.4939H23.9128V25.189H22.1842Z" fill="#E10000"/>
<path d="M17.2861 25.1892H21.8959V18.9868C21.8958 18.7904 21.8455 18.5973 21.7498 18.4259C21.6541 18.2544 21.5162 18.1102 21.3492 18.007C21.1821 17.9038 20.9915 17.845 20.7953 17.8361C20.5991 17.8273 20.404 17.8687 20.2283 17.9565L17.9234 19.1089C17.732 19.2046 17.571 19.3516 17.4585 19.5336C17.3459 19.7156 17.2862 19.9253 17.2861 20.1392V25.1892Z" stroke="#E10000" stroke-width="1.5"/>
</svg>
