<svg width="434" height="429" viewBox="0 0 434 429" fill="none" xmlns="http://www.w3.org/2000/svg">
<g clip-path="url(#clip0_2328_25428)">
<path d="M50.637 402.678H21.4531V22.3682H50.637V402.678Z" fill="#D1E1F5"/>
<path d="M366.813 31.3677H50.6362V22.3677H366.813V31.3677Z" fill="#014996"/>
<path d="M367 40.9995H51V36.9995H367V40.9995Z" fill="#D1E1F5"/>
<path d="M366.813 212.523H50.6362V202.625H366.813V212.523Z" fill="#D1E1F5"/>
<path d="M366.813 365.596H50.6362V353.808H366.813V365.596Z" fill="#D1E1F5"/>
<path d="M395.141 402.678H366.813V22.3682H395.141V402.678Z" fill="#D1E1F5"/>
<path d="M139.796 275.002H94.5376V308.947H139.796V275.002Z" fill="#FFF7D5"/>
<path d="M135.163 308.947H139.797V275.001H135.163V308.947Z" fill="#CCC6AB"/>
<path d="M118.551 295.705H112.223V275.002H118.551V295.705Z" fill="#07529B"/>
<path d="M196.73 309.199H102.266V354.286H196.73V309.199Z" fill="#FFF7D5"/>
<path d="M190.577 354.286H196.731V309.199H190.577V354.286Z" fill="#CCC6AB"/>
<path d="M151.337 336.698H142.932V309.199H151.337V336.698Z" fill="#07529B"/>
<path d="M182.463 145H88V202.957H182.463V145Z" fill="#FFF7D5"/>
<path d="M176.31 202.957H182.463V145H176.31V202.957Z" fill="#CCC6AB"/>
<path d="M137.07 185.369H128.666V145H137.07V185.369Z" fill="#07529B"/>
<path d="M408.023 313.859H321.536V378.727H408.023V313.859Z" fill="#FFF7D5"/>
<path d="M399.169 378.727H408.023V313.859H399.169V378.727Z" fill="#CCC6AB"/>
<path d="M367.425 353.424H355.332V313.859H367.425V353.424Z" fill="#07529B"/>
<path d="M321.536 333.641H261.423V378.727H321.536V333.641Z" fill="#FFF7D5"/>
<path d="M315.381 378.727H321.535V333.641H315.381V378.727Z" fill="#CCC6AB"/>
<path d="M293.318 361.14H284.913V333.641H293.318V361.14Z" fill="#07529B"/>
<path d="M212.549 389.437H220.123V256.195H212.549V389.437Z" fill="#1E1E1E"/>
<path d="M198.247 262.387H217.084C220.156 262.387 222.648 259.899 222.648 256.829C222.648 253.759 220.156 251.271 217.084 251.271H198.247C195.175 251.271 192.684 253.759 192.684 256.829C192.684 259.899 195.175 262.387 198.247 262.387Z" fill="#1E1E1E"/>
<path d="M220.122 322.816C221.04 322.897 260.972 346.485 260.972 346.485V380.906H219.434L220.122 322.816Z" fill="#1E1E1E"/>
<path d="M418.557 391.058C418.557 384.831 413.504 379.783 407.272 379.783C401.038 379.783 395.986 384.831 395.986 391.058C395.986 397.286 401.038 402.334 407.272 402.334C413.504 402.334 418.557 397.286 418.557 391.058Z" fill="#07529B"/>
<path d="M414.34 391.058C414.34 387.158 411.175 383.996 407.271 383.996C403.367 383.996 400.202 387.158 400.202 391.058C400.202 394.96 403.367 398.121 407.271 398.121C411.175 398.121 414.34 394.96 414.34 391.058Z" fill="#EF3D33"/>
<path d="M212.549 389.437H423.295V379.299H212.549V389.437Z" fill="#1E1E1E"/>
<path d="M238.104 384.369C238.104 374.447 230.053 366.403 220.123 366.403C210.192 366.403 202.142 374.447 202.142 384.369C202.142 394.29 210.192 402.334 220.123 402.334C230.053 402.334 238.104 394.29 238.104 384.369Z" fill="#07529B"/>
<path d="M231.386 384.368C231.386 378.153 226.343 373.116 220.123 373.116C213.902 373.116 208.86 378.153 208.86 384.368C208.86 390.583 213.902 395.621 220.123 395.621C226.343 395.621 231.386 390.583 231.386 384.368Z" fill="#EF3D33"/>
<path d="M310.2 65.173L310.179 64.2603L310.166 63.612L291.766 55.4997L291.764 55.4998L290.49 54.9369L290.488 54.937L290.427 54.9106L284.344 52.2285L283.599 51.901L281.729 51.0766L277.699 51.2782L277.049 51.3099L276.401 51.3415L276.398 51.3415L275.394 51.3919L270.663 51.6285L270.518 51.7004L268.42 52.7252L263.096 55.3337L262.684 55.5353L259.402 57.1408L258.744 57.4624L256.166 58.7246L252.707 60.4189L244.673 64.3498L244.279 64.5441L243.263 65.0409L243.525 77.207L245.569 77.1631L246.78 77.1384L257.949 76.8995L270.752 76.625L276.352 76.5064L277.354 76.4837L306.721 75.8581L307.151 75.8471L310.425 75.7781L310.2 65.173ZM307.479 74.0096L307.052 74.0206L277.057 74.6612L276.494 74.6727L269.62 74.8196L257.835 75.071L247.256 75.2979L245.81 75.3297L245.313 75.3398L245.291 74.2592L245.177 69.0153C245.177 69.013 245.177 69.013 245.177 69.0107L245.117 66.1715L251.537 63.0278L256.41 60.6425L259.721 59.0203L260.997 58.3963L264.397 56.7332L264.941 56.4668L269.568 54.2014L271.13 53.4359L274.878 53.2492L274.921 53.2461L281.387 52.9235L281.86 53.1324L282.605 53.4622L282.608 53.4621L288.602 56.1046L288.92 56.2454L290.443 56.9159L308.362 64.8171L308.443 68.5759L308.47 69.8909C308.47 69.8909 308.47 69.8909 308.47 69.8932L308.558 73.9877L307.479 74.0096Z" fill="#231F20"/>
<path d="M276.118 52.9229L276.094 45.6247C277.095 45.6006 278.577 45.3179 279.818 44.0755C282.072 41.8187 282.379 37.5607 280.489 34.7774C279.018 32.6127 276.471 31.6194 274.293 32.3646C271.442 33.3389 269.703 36.9448 270.333 40.5733L271.759 40.2591C271.271 37.4568 272.571 34.6872 274.717 33.9537C276.331 33.4027 278.233 34.1568 279.342 35.7892C280.752 37.8664 280.525 41.1546 278.856 42.8262C277.639 44.0447 276.056 44.0104 275.432 43.9396L274.634 43.8485L274.665 52.9201L276.118 52.9229Z" fill="#231F20"/>
<path d="M335.837 100.822C334.378 103.093 330.497 108.457 323.238 111.624C318.016 113.903 313.303 114.059 310.673 113.947C309.175 108.548 307.68 103.147 306.183 97.7458C306.087 97.4023 305.991 97.0569 305.895 96.7137C305.895 96.7137 305.897 96.7116 305.895 96.7095C305.703 96.0124 305.509 95.3176 305.317 94.6205L306.584 156.831C299.427 157.839 291.631 158.608 283.262 158.96C269.51 159.537 257.055 158.873 246.225 157.646C246.616 137.231 247.004 116.813 247.395 96.3974C247.404 95.8532 247.416 95.3093 247.426 94.7654C247.329 95.0836 247.234 95.4022 247.137 95.7205C245.748 100.327 244.36 104.93 242.971 109.537C240.373 109.993 234.553 110.651 227.849 108.19C221.517 105.865 217.626 101.941 215.896 99.9562C218.654 95.2769 221.842 90.3467 225.522 85.2868C231.767 76.6987 238.169 69.4847 244.161 63.5052C244.287 63.3784 244.411 63.2538 244.536 63.1314C244.729 62.9373 244.923 62.7472 245.116 62.5573C249.959 60.0458 254.8 57.5361 259.643 55.0246C260.101 55.7016 265.58 63.53 275.531 63.5921C286.133 63.6596 291.789 54.8519 292.091 54.3639C298.249 57.4144 304.406 60.4694 310.564 63.5198C310.687 63.5815 310.81 63.6429 310.934 63.7045C311.197 63.8337 311.462 63.9645 311.725 64.0958C319.763 76.3379 327.799 88.5803 335.837 100.822Z" fill="#D1E1F5"/>
<path d="M288.536 123.496L266.422 123.946L265.559 81.5771L287.674 81.1269L288.536 123.496Z" fill="#678FB5"/>
</g>
<defs>
<clipPath id="clip0_2328_25428">
<rect width="434" height="429" fill="white"/>
</clipPath>
</defs>
</svg>
