<svg width="382" height="388" viewBox="0 0 382 388" fill="none" xmlns="http://www.w3.org/2000/svg">
<g clip-path="url(#clip0_3006_58340)">
<mask id="mask0_3006_58340" style="mask-type:luminance" maskUnits="userSpaceOnUse" x="0" y="0" width="382" height="388">
<path d="M382 0H0V388H382V0Z" fill="white"/>
</mask>
<g mask="url(#mask0_3006_58340)">
<path d="M149.938 238.373C134.091 250.842 123.89 270.357 123.89 292.293C123.89 329.939 153.936 360.457 191 360.457C228.064 360.457 258.11 329.939 258.11 292.293C258.11 269.923 247.501 250.072 231.117 237.642V68.7678C231.117 45.9924 212.945 27.5419 190.528 27.5419C168.107 27.5419 149.938 45.9986 149.938 68.7678V238.373Z" stroke="#49ACFF" stroke-width="4.75"/>
<path d="M191.028 253.446C212.369 253.446 229.696 271.045 229.696 292.721C229.696 314.397 212.369 331.996 191.028 331.996C169.688 331.996 152.361 314.397 152.361 292.721C152.361 271.045 169.688 253.446 191.028 253.446Z" fill="#004996"/>
<g opacity="0.3">
<path d="M203.365 84.5379V256.14C203.365 266.359 197.682 274.657 190.683 274.657C183.683 274.657 178 266.359 178 256.14V84.5379C178 74.3184 183.683 66.0209 190.683 66.0209C197.682 66.0209 203.365 74.3184 203.365 84.5379Z" fill="#49ACFF"/>
</g>
<path d="M313.546 173.839C313.406 173.914 313.272 174.005 313.146 174.114L292.652 191.971C291.761 192.747 291.663 194.106 292.436 195.014L293.125 195.823C293.895 196.729 295.243 196.832 296.132 196.057L313.009 181.353L311.472 202.875C311.387 204.055 312.271 205.093 313.446 205.184L314.496 205.265C315.676 205.356 316.692 204.47 316.777 203.285L318.337 181.443L333.232 198.929C334.001 199.832 335.348 199.938 336.24 199.161L337.037 198.466C337.93 197.688 338.025 196.328 337.255 195.424L319.523 174.607C319.333 174.384 319.107 174.21 318.863 174.086L320.827 146.592L343.442 162.204C343.386 162.475 343.381 162.761 343.436 163.05L348.545 190.007C348.768 191.177 349.88 191.949 351.041 191.729L352.077 191.532C353.233 191.311 353.991 190.184 353.77 189.014L349.478 166.371L367.666 178.926C368.634 179.594 369.961 179.343 370.622 178.359L371.212 177.479C371.876 176.492 371.623 175.154 370.651 174.483L352.725 162.109L374.641 157.944C375.796 157.725 376.554 156.597 376.332 155.426L376.133 154.378C375.91 153.202 374.794 152.433 373.638 152.653L347.023 157.71C346.86 157.741 346.708 157.79 346.562 157.854L324.226 142.436L348.196 130.777C348.4 130.962 348.641 131.11 348.916 131.208L374.52 140.307C375.632 140.702 376.844 140.115 377.232 138.987L377.578 137.98C377.964 136.856 377.374 135.623 376.264 135.229L354.756 127.586L374.528 117.969C375.58 117.457 376.024 116.168 375.51 115.092L375.051 114.131C374.535 113.052 373.264 112.601 372.208 113.115L352.721 122.592L360.036 101.287C360.421 100.165 359.832 98.9328 358.72 98.5371L357.723 98.1838C356.607 97.7867 355.397 98.378 355.011 99.5013L346.127 125.375C346.073 125.533 346.038 125.692 346.022 125.851L321.455 137.801L323.404 110.514C323.664 110.428 323.911 110.291 324.131 110.1L344.626 92.2422C345.516 91.4665 345.615 90.1074 344.842 89.1997L344.152 88.3901C343.381 87.4858 342.034 87.3815 341.145 88.1563L323.929 103.157L325.513 80.9841C325.597 79.804 324.714 78.7658 323.539 78.6749L322.488 78.5935C321.309 78.5023 320.293 79.389 320.208 80.5734L318.647 102.425L304.045 85.2844C303.276 84.3813 301.928 84.2769 301.038 85.0527L300.242 85.7472C299.348 86.5259 299.252 87.8853 300.022 88.7895L317.754 109.606C317.863 109.733 317.983 109.844 318.11 109.939L316.185 136.885L294.144 121.669C294.15 121.509 294.138 121.346 294.107 121.182L288.998 94.2252C288.777 93.0549 287.663 92.2826 286.502 92.5034L285.468 92.7006C284.311 92.9206 283.552 94.0485 283.774 95.2177L287.981 117.415L270.326 105.228C269.358 104.56 268.032 104.811 267.371 105.796L266.78 106.676C266.117 107.663 266.371 109.001 267.342 109.672L285.259 122.04L262.902 126.288C261.748 126.507 260.989 127.635 261.211 128.806L261.411 129.854C261.634 131.03 262.75 131.799 263.905 131.579L290.521 126.522C290.806 126.467 291.066 126.358 291.294 126.206L313.615 141.614L289.039 153.567C288.905 153.481 288.76 153.41 288.604 153.354L263 144.256C261.888 143.861 260.675 144.448 260.288 145.577L259.942 146.582C259.555 147.707 260.145 148.939 261.256 149.333L282.339 156.826L263.147 166.161C262.094 166.673 261.653 167.963 262.167 169.038L262.626 169.999C263.141 171.078 264.412 171.529 265.468 171.015L284.945 161.541L277.484 183.275C277.098 184.397 277.689 185.63 278.801 186.025L279.796 186.38C280.913 186.777 282.124 186.185 282.509 185.061L291.393 159.187C291.488 158.91 291.523 158.627 291.507 158.35L315.485 146.687L313.546 173.839Z" fill="#D1E1F5"/>
<g opacity="0.5">
<path d="M69.3866 62.3459C69.3143 62.4086 69.2471 62.4803 69.1877 62.5612L59.4589 75.8158C59.0363 76.3916 59.1524 77.1995 59.7214 77.6237L60.2283 78.0022C60.7953 78.4254 61.5983 78.3005 62.0204 77.7254L70.0318 66.8113L71.8799 79.6011C71.9812 80.3024 72.6314 80.7878 73.3315 80.6794L73.9577 80.5825C74.6603 80.4737 75.1428 79.8157 75.041 79.1118L73.1655 66.1314L84.1273 74.3037C84.6934 74.7257 85.496 74.6022 85.9191 74.0257L86.2975 73.5102C86.7217 72.9322 86.6038 72.1246 86.0369 71.702L72.9871 61.9731C72.8474 61.8689 72.6931 61.7983 72.5337 61.7591L70.1729 45.4201L85.4193 51.4359C85.4213 51.6018 85.4546 51.7693 85.5237 51.9307L91.961 66.9837C92.2409 67.6372 92.9913 67.9356 93.6434 67.6469L94.2251 67.3894C94.8747 67.1018 95.1746 66.3384 94.8955 65.6854L89.4884 53.0411L101.75 57.8789C102.403 58.1364 103.148 57.8073 103.41 57.141L103.643 56.5456C103.906 55.8773 103.587 55.1302 102.932 54.8717L90.8469 50.1036L103.157 44.6569C103.806 44.3702 104.106 43.6067 103.827 42.9525L103.576 42.3675C103.295 41.711 102.543 41.4148 101.894 41.7023L86.9434 48.317C86.8524 48.3572 86.7691 48.4066 86.6921 48.4641L71.6342 42.5234L84.1908 32.4141C84.3342 32.4942 84.4944 32.5476 84.6677 32.5671L100.834 34.3655C101.536 34.4432 102.171 33.9336 102.254 33.2207L102.328 32.5848C102.411 31.8745 101.908 31.2354 101.207 31.1575L87.6276 29.6471L97.9853 21.3081C98.5361 20.8644 98.6316 20.0498 98.1931 19.492L97.8013 18.9934C97.3613 18.4338 96.559 18.3448 96.0058 18.7902L85.7973 27.0083L87.3625 13.5507C87.4448 12.8419 86.9422 12.2027 86.2397 12.1243L85.6108 12.0548C84.9057 11.9762 84.2723 12.4882 84.1894 13.1978L82.2887 29.5414C82.2772 29.6409 82.2771 29.7387 82.2877 29.8342L69.4179 40.1954L67.0749 23.9794C67.2162 23.8936 67.3438 23.7794 67.4479 23.6374L77.1767 10.3828C77.5994 9.80703 77.4839 8.99906 76.9149 8.57482L76.4074 8.19646C75.8398 7.77394 75.0374 7.89815 74.6153 8.47319L66.4431 19.6071L64.5391 6.43028C64.4378 5.72897 63.7876 5.24365 63.0875 5.35201L62.4613 5.44893C61.7587 5.55768 61.2763 6.21572 61.378 6.91957L63.2544 19.9058L52.5084 11.895C51.9422 11.4729 51.1391 11.5972 50.7165 12.173L50.3388 12.6883C49.9146 13.2663 50.0319 14.074 50.5988 14.4966L63.6485 24.2255C63.7282 24.2849 63.8127 24.3331 63.8996 24.3711L66.2133 40.3844L51.354 34.5218C51.3371 34.4273 51.3094 34.3338 51.2703 34.2421L44.833 19.1891C44.5539 18.5355 43.8027 18.2372 43.1507 18.5259L42.5696 18.7833C41.92 19.0709 41.6195 19.8344 41.8986 20.4874L47.1992 32.8823L35.2973 28.1869C34.6444 27.9294 33.8994 28.2585 33.6378 28.9248L33.404 29.5202C33.1414 30.1885 33.4612 30.9355 34.1162 31.194L46.1949 35.9597L33.6367 41.5158C32.9882 41.8026 32.6876 42.5661 32.9676 43.2202L33.2181 43.8052C33.499 44.4618 34.2511 44.758 34.9001 44.4705L49.8506 37.8558C50.0109 37.7847 50.149 37.6851 50.2634 37.5651L65.3111 43.5021L52.4367 53.8666C52.3475 53.8348 52.2532 53.8129 52.1547 53.8021L35.9887 52.0043C35.2869 51.9266 34.6513 52.4362 34.5682 53.1491L34.494 53.7844C34.4112 54.4946 34.9144 55.1337 35.6156 55.2116L48.9271 56.6925L38.8732 64.7869C38.3217 65.2308 38.2274 66.0451 38.6659 66.603L39.0577 67.1016C39.4978 67.6612 40.3 67.7501 40.8532 67.3047L51.0564 59.0901L49.46 72.8184C49.3776 73.5273 49.8808 74.1664 50.5834 74.2447L51.2117 74.315C51.9169 74.3936 52.5508 73.8809 52.6331 73.1714L54.5338 56.8278C54.5543 56.6525 54.5388 56.4822 54.4938 56.323L67.055 46.2096L69.3866 62.3459Z" fill="#1E1E1E"/>
</g>
</g>
</g>
<path d="M203.612 107.062V262.108C203.612 269.1 199.188 274.776 193.739 274.776H188.531C183.082 274.776 178.659 269.1 178.659 262.108V107.062C178.659 100.071 183.082 94.3943 188.531 94.3943H193.739C199.188 94.3943 203.612 100.071 203.612 107.062Z" fill="#004996"/>
<defs>
<clipPath id="clip0_3006_58340">
<rect width="382" height="388" fill="white"/>
</clipPath>
</defs>
</svg>
