<svg width="100" height="100" viewBox="0 0 100 100" fill="none" xmlns="http://www.w3.org/2000/svg">
<g clip-path="url(#clip0_2131_11038)">
<path d="M39.7333 43.0625H42.3V57.9375H39.7333V43.0625ZM43.5833 43.0625H44.8667V57.9375H43.5833V43.0625ZM46.15 43.0625H50V57.9375H46.15V43.0625ZM51.2833 43.0625H52.5667V57.9375H51.2833V43.0625ZM55.1333 43.0625H57.7V57.9375H55.1333V43.0625ZM58.9833 43.0625H60.2667V57.9375H58.9833V43.0625ZM37.1667 40.5833V45.5416H34.6V40.5833C34.6 39.9258 34.8704 39.2952 35.3518 38.8303C35.8331 38.3653 36.486 38.1041 37.1667 38.1041H42.3V40.5833H37.1667ZM62.8333 38.1041C63.5141 38.1041 64.1669 38.3653 64.6482 38.8303C65.1296 39.2952 65.4 39.9258 65.4 40.5833V45.5416H62.8333V40.5833H57.7V38.1041H62.8333ZM37.1667 55.4583V60.4166H42.3V62.8958H37.1667C36.486 62.8958 35.8331 62.6346 35.3518 62.1697C34.8704 61.7047 34.6 61.0741 34.6 60.4166V55.4583H37.1667ZM62.8333 60.4166V55.4583H65.4V60.4166C65.4 61.0741 65.1296 61.7047 64.6482 62.1697C64.1669 62.6346 63.5141 62.8958 62.8333 62.8958H57.7V60.4166H62.8333Z" fill="#E10000"/>
</g>
<path d="M82 18.75V18H81.25H68.75C68.1201 18 67.516 17.7498 67.0706 17.3044C66.6252 16.859 66.375 16.2549 66.375 15.625C66.375 14.9951 66.6252 14.391 67.0706 13.9456C67.516 13.5002 68.1201 13.25 68.75 13.25H84.375C85.0049 13.25 85.609 13.5002 86.0544 13.9456C86.4998 14.391 86.75 14.9951 86.75 15.625V31.25C86.75 31.8799 86.4998 32.484 86.0544 32.9294C85.609 33.3748 85.0049 33.625 84.375 33.625C83.7451 33.625 83.141 33.3748 82.6956 32.9294C82.2502 32.484 82 31.8799 82 31.25V18.75ZM18 81.25V82H18.75H31.25C31.8799 82 32.484 82.2502 32.9294 82.6956C33.3748 83.141 33.625 83.7451 33.625 84.375C33.625 85.0049 33.3748 85.609 32.9294 86.0544C32.484 86.4998 31.8799 86.75 31.25 86.75H15.625C14.9951 86.75 14.391 86.4998 13.9456 86.0544C13.5002 85.609 13.25 85.0049 13.25 84.375V68.75C13.25 68.1201 13.5002 67.516 13.9456 67.0706C14.391 66.6252 14.9951 66.375 15.625 66.375C16.2549 66.375 16.859 66.6252 17.3044 67.0706C17.7498 67.516 18 68.1201 18 68.75V81.25ZM81.25 82H82V81.25V68.75C82 68.1201 82.2502 67.516 82.6956 67.0706C83.141 66.6252 83.7451 66.375 84.375 66.375C85.0049 66.375 85.609 66.6252 86.0544 67.0706C86.4998 67.516 86.75 68.1201 86.75 68.75V84.375C86.75 85.0049 86.4998 85.609 86.0544 86.0544C85.609 86.4998 85.0049 86.75 84.375 86.75H68.75C68.1201 86.75 67.516 86.4998 67.0706 86.0544C66.6252 85.609 66.375 85.0049 66.375 84.375C66.375 83.7451 66.6252 83.141 67.0706 82.6956C67.516 82.2502 68.1201 82 68.75 82H81.25ZM18.75 18H18V18.75V31.25C18 31.8799 17.7498 32.484 17.3044 32.9294C16.859 33.3748 16.2549 33.625 15.625 33.625C14.9951 33.625 14.391 33.3748 13.9456 32.9294C13.5002 32.484 13.25 31.8799 13.25 31.25V15.625C13.25 14.9951 13.5002 14.391 13.9456 13.9456C14.391 13.5002 14.9951 13.25 15.625 13.25H31.25C31.8799 13.25 32.484 13.5002 32.9294 13.9456C33.3748 14.391 33.625 14.9951 33.625 15.625C33.625 16.2549 33.3748 16.859 32.9294 17.3044C32.484 17.7498 31.8799 18 31.25 18H18.75ZM33.625 65.625V66.375H34.375H65.625H66.375V65.625V34.375V33.625H65.625H34.375H33.625V34.375V65.625ZM65.625 71.125H34.375C32.9163 71.125 31.5174 70.5455 30.4859 69.5141C29.4545 68.4826 28.875 67.0837 28.875 65.625V34.375C28.875 32.9163 29.4545 31.5174 30.4859 30.4859C31.5174 29.4545 32.9163 28.875 34.375 28.875H65.625C67.0837 28.875 68.4826 29.4545 69.5141 30.4859C70.5455 31.5174 71.125 32.9163 71.125 34.375V65.625C71.125 67.0837 70.5455 68.4826 69.5141 69.5141C68.4826 70.5455 67.0837 71.125 65.625 71.125Z" fill="#004996" stroke="white" stroke-width="1.5"/>
<defs>
<clipPath id="clip0_2131_11038">
<rect width="22" height="17" fill="white" transform="translate(39 42)"/>
</clipPath>
</defs>
</svg>
