<svg width="102" height="102" viewBox="0 0 102 102" fill="none" xmlns="http://www.w3.org/2000/svg">
<path d="M63.75 23.3125H64.75V22.3125V19.125C64.75 17.6995 65.3163 16.3323 66.3243 15.3243C67.3323 14.3163 68.6995 13.75 70.125 13.75H82.875C84.3005 13.75 85.6677 14.3163 86.6757 15.3243C87.6837 16.3323 88.25 17.6995 88.25 19.125V31.875C88.25 33.3005 87.6837 34.6677 86.6757 35.6757C85.6677 36.6837 84.3005 37.25 82.875 37.25H79.6875H78.6875V38.25V63.75V64.75H79.6875H82.875C84.3005 64.75 85.6677 65.3163 86.6757 66.3243C87.6837 67.3323 88.25 68.6995 88.25 70.125V82.875C88.25 84.3005 87.6837 85.6677 86.6757 86.6757C85.6677 87.6837 84.3005 88.25 82.875 88.25H70.125C68.6995 88.25 67.3323 87.6837 66.3243 86.6757C65.3163 85.6677 64.75 84.3005 64.75 82.875V79.6875V78.6875H63.75H38.25H37.25V79.6875V82.875C37.25 84.3005 36.6837 85.6677 35.6757 86.6757C34.6677 87.6837 33.3005 88.25 31.875 88.25H19.125C17.6995 88.25 16.3323 87.6837 15.3243 86.6757C14.3163 85.6677 13.75 84.3005 13.75 82.875V70.125C13.75 68.6995 14.3163 67.3323 15.3243 66.3243C16.3323 65.3163 17.6995 64.75 19.125 64.75H22.3125H23.3125V63.75V38.25V37.25H22.3125H19.125C17.6995 37.25 16.3323 36.6837 15.3243 35.6757C14.3163 34.6677 13.75 33.3005 13.75 31.875V19.125C13.75 17.6995 14.3163 16.3323 15.3243 15.3243C16.3323 14.3163 17.6995 13.75 19.125 13.75H31.875C33.3005 13.75 34.6677 14.3163 35.6757 15.3243C36.6837 16.3323 37.25 17.6995 37.25 19.125V22.3125V23.3125H38.25H63.75ZM70.125 18.125H69.125V19.125V31.875V32.875H70.125H82.875H83.875V31.875V19.125V18.125H82.875H70.125ZM19.125 18.125H18.125V19.125V31.875V32.875H19.125H31.875H32.875V31.875V19.125V18.125H31.875H19.125ZM31.875 83.875H32.875V82.875V70.125V69.125H31.875H19.125H18.125V70.125V82.875V83.875H19.125H31.875ZM82.875 83.875H83.875V82.875V70.125V69.125H82.875H70.125H69.125V70.125V82.875V83.875H70.125H82.875ZM73.3125 64.75H74.3125V63.75V38.25V37.25H73.3125H70.125C68.6995 37.25 67.3323 36.6837 66.3243 35.6757C65.3163 34.6677 64.75 33.3005 64.75 31.875V28.6875V27.6875H63.75H38.25H37.25V28.6875V31.875C37.25 33.3005 36.6837 34.6677 35.6757 35.6757C34.6677 36.6837 33.3005 37.25 31.875 37.25H28.6875H27.6875V38.25V63.75V64.75H28.6875H31.875C33.3005 64.75 34.6677 65.3163 35.6757 66.3243C36.6837 67.3323 37.25 68.6995 37.25 70.125V73.3125V74.3125H38.25H63.75H64.75V73.3125V70.125C64.75 68.6995 65.3163 67.3323 66.3243 66.3243C67.3323 65.3163 68.6995 64.75 70.125 64.75H73.3125Z" fill="#004996" stroke="white" stroke-width="2"/>
</svg>
