<svg width="94" height="82" viewBox="0 0 94 82" fill="none" xmlns="http://www.w3.org/2000/svg">
<path d="M5.67812 60.6334C5.67678 60.8239 5.72584 61.0113 5.82035 61.1767C5.9152 61.3427 6.05242 61.4805 6.21798 61.5761L6.21793 61.5762L6.22592 61.5805L34.4329 77.0196L35.025 77.3437V76.6688V45.9673V45.7303L34.8171 45.6164L6.27025 29.9836L5.67812 29.6594V30.3345V60.6334ZM5.67812 60.6334C5.67813 60.6327 5.67814 60.632 5.67814 60.6314L6.07812 60.6349M5.67812 60.6334V60.6349H6.07812M6.07812 60.6349V30.7905L34.8171 76.3179L34.625 76.6688H34.225V76.4498L6.41797 61.2297C6.31374 61.1695 6.22736 61.0827 6.16765 60.9782C6.10794 60.8738 6.07705 60.7553 6.07812 60.6349ZM68.662 24.3133L68.6621 24.3133C69.3475 24.6883 69.9194 25.2407 70.3181 25.9126C70.7168 26.5846 70.9275 27.3513 70.9281 28.1326V60.6346C70.9275 61.4159 70.7168 62.1826 70.3181 62.8546C69.9194 63.5265 69.3475 64.0789 68.6621 64.4539L68.662 64.454L38.7557 80.8276L38.7547 80.8282C38.1144 81.1812 37.3952 81.3663 36.6641 81.3663C35.9329 81.3663 35.2137 81.1812 34.5734 80.8282L34.5724 80.8276L4.66616 64.454L4.66606 64.4539C3.98066 64.0789 3.40868 63.5265 3.01001 62.8546C2.61138 62.1827 2.40069 61.416 2.4 60.6348V28.1324C2.40069 27.3512 2.61138 26.5845 3.01001 25.9126C3.40868 25.2407 3.98066 24.6883 4.66606 24.3133L4.66616 24.3133L34.5724 7.93959L34.5737 7.93888C35.2137 7.5854 35.9329 7.4 36.6641 7.4C37.3952 7.4 38.1144 7.5854 38.7544 7.93888L38.7557 7.93959L68.662 24.3133ZM36.1322 10.813L36.132 10.8131L24.9341 16.9507L24.2937 17.3017L24.9343 17.6523L53.6579 33.3735L53.8499 33.4786L54.042 33.3735L65.5763 27.0626L66.2175 26.7118L65.5763 26.3609L37.1688 10.813L37.1687 10.813C37.0098 10.726 36.8316 10.6805 36.6505 10.6805C36.4693 10.6805 36.2911 10.726 36.1322 10.813ZM7.75173 26.3609L7.11084 26.7119L7.75187 27.0626L36.4721 42.777L36.6641 42.8821L36.8561 42.777L49.7939 35.6981L50.4351 35.3472L49.794 34.9963L35.4339 27.1357L21.0738 19.2751L20.8817 19.17L20.6896 19.2752L7.75173 26.3609ZM67.1022 61.5805L67.1023 61.5806L67.25 60.6349H67.65V60.6333V30.3345V29.6594L67.0579 29.9836L54.8235 36.6819L54.6156 36.7958V37.0328V52.5399C54.6156 52.9746 54.4429 53.3915 54.1356 53.6989C53.8282 54.0062 53.4113 54.1789 52.9766 54.1789C52.5419 54.1789 52.125 54.0062 51.8176 53.6989C51.5102 53.3915 51.3375 52.9746 51.3375 52.5399V39.2622V38.5871L50.7454 38.9113L38.511 45.6096L38.3031 45.7235V45.9605V76.6688V77.3437L38.8952 77.0196L67.1022 61.5805Z" fill="#004996" stroke="white" stroke-width="0.8"/>
<path d="M81.99 2C76.47 2 72 6.48 72 12C72 17.52 76.47 22 81.99 22C87.52 22 92 17.52 92 12C92 6.48 87.52 2 81.99 2ZM85.29 16.71L81 12.41V7H83V11.59L86.71 15.3L85.29 16.71Z" fill="#E10000"/>
</svg>
