<svg width="82" height="82" viewBox="0 0 82 82" fill="none" xmlns="http://www.w3.org/2000/svg">
<path d="M75.1666 41C75.1666 57.1062 75.1666 65.1593 70.1612 70.1613C65.1626 75.1667 57.1061 75.1667 41 75.1667C24.8938 75.1667 16.8407 75.1667 11.8353 70.1613C6.83331 65.1627 6.83331 57.1062 6.83331 41C6.83331 24.8939 6.83331 16.8408 11.8353 11.8354C16.8441 6.83337 24.8938 6.83337 41 6.83337C57.1061 6.83337 65.1592 6.83337 70.1612 11.8354C73.4891 15.1632 74.6029 19.8406 74.9787 27.3334" stroke="#004996" stroke-width="4" stroke-linecap="round"/>
<path d="M49.875 47C47.6449 47 45.484 46.2256 43.7616 44.8091C42.0391 43.3926 40.862 41.4219 40.4313 39.2338C40.0007 37.0457 40.3431 34.776 41.4003 32.8124C42.4575 30.8488 44.1637 29.3132 46.2274 28.468C48.2911 27.6228 50.5843 27.5205 52.7151 28.1785C54.8459 28.8365 56.6821 30.214 57.9099 32.0757C59.1378 33.9373 59.681 36.1675 59.447 38.3853C59.2129 40.6031 58.216 42.6707 56.6265 44.235" stroke="#E10000" stroke-width="1.5" stroke-linecap="round"/>
<path d="M49.875 54V47M49.875 54H55.125M49.875 54H44.625" stroke="#E10000" stroke-width="1.5" stroke-linecap="round" stroke-linejoin="round"/>
<path d="M24.5 38.25V36.9375C24.1519 36.9375 23.8181 37.0758 23.5719 37.3219C23.3258 37.5681 23.1875 37.9019 23.1875 38.25H24.5ZM35 38.25H36.3125C36.3125 37.9019 36.1742 37.5681 35.9281 37.3219C35.6819 37.0758 35.3481 36.9375 35 36.9375V38.25ZM36.3125 48.75C36.3125 48.4019 36.1742 48.0681 35.9281 47.8219C35.6819 47.5758 35.3481 47.4375 35 47.4375C34.6519 47.4375 34.3181 47.5758 34.0719 47.8219C33.8258 48.0681 33.6875 48.4019 33.6875 48.75H36.3125ZM33.6875 41.75C33.6875 42.0981 33.8258 42.4319 34.0719 42.6781C34.3181 42.9242 34.6519 43.0625 35 43.0625C35.3481 43.0625 35.6819 42.9242 35.9281 42.6781C36.1742 42.4319 36.3125 42.0981 36.3125 41.75H33.6875ZM24.5 39.5625H35V36.9375H24.5V39.5625ZM25.8125 48.75V38.25H23.1875V48.75H25.8125ZM29.75 52.6875C28.7057 52.6875 27.7042 52.2727 26.9658 51.5342C26.2273 50.7958 25.8125 49.7943 25.8125 48.75H23.1875C23.1875 50.4905 23.8789 52.1597 25.1096 53.3904C26.3403 54.6211 28.0095 55.3125 29.75 55.3125V52.6875ZM33.6875 48.75C33.6875 49.7943 33.2727 50.7958 32.5342 51.5342C31.7958 52.2727 30.7943 52.6875 29.75 52.6875V55.3125C30.6118 55.3125 31.4652 55.1428 32.2614 54.813C33.0576 54.4832 33.781 53.9998 34.3904 53.3904C34.9998 52.781 35.4832 52.0576 35.813 51.2614C36.1428 50.4652 36.3125 49.6118 36.3125 48.75H33.6875ZM33.6875 38.25V41.75H36.3125V38.25H33.6875Z" fill="#E10000"/>
<path d="M26.25 38.25H33.25V28.8315C33.2498 28.5333 33.1735 28.2401 33.0282 27.9797C32.8829 27.7193 32.6735 27.5004 32.4198 27.3436C32.1661 27.1869 31.8766 27.0976 31.5787 27.0842C31.2809 27.0708 30.9845 27.1337 30.7177 27.267L27.2177 29.017C26.9271 29.1622 26.6826 29.3855 26.5117 29.6618C26.3408 29.9381 26.2502 30.2566 26.25 30.5815V38.25Z" stroke="#E10000" stroke-width="1.5"/>
</svg>
