<svg width="75" height="75" viewBox="0 0 75 75" fill="none" xmlns="http://www.w3.org/2000/svg">
<path d="M71.8829 71.8317L71.8734 71.8411L71.8642 71.8508C70.5423 73.234 68.7191 74 66.821 74H9.5679C7.66981 74 5.84653 73.234 4.52465 71.8508L4.51544 71.8411L4.50597 71.8317C3.14783 70.4844 2.38889 68.6179 2.38889 66.6667V8.33333C2.38889 4.24291 5.59837 1 9.5679 1H66.821C68.7189 1 70.5429 1.76799 71.8907 3.14124C73.2392 4.51514 74 6.38245 74 8.33333V66.6667C74 68.6179 73.241 70.4844 71.8829 71.8317ZM66.821 67.6667H67.821V66.6667V8.33333V7.33333H66.821H9.5679H8.5679V8.33333V66.6667V67.6667H9.5679H66.821ZM48.9398 42.8968L48.4182 42.5779L47.8966 42.8968L39.1944 48.2166V17.6667H57.642V48.2166L48.9398 42.8968Z" fill="#004996" stroke="white" stroke-width="2"/>
</svg>
