<svg width="54" height="54" viewBox="0 0 54 54" fill="none" xmlns="http://www.w3.org/2000/svg">
<path d="M42.75 15.75H54V20.25H42.75V15.75ZM38.25 27H54V31.5H38.25V27ZM45 38.25H54V42.75H45V38.25ZM4.5 49.5C4.5 44.7261 6.39642 40.1477 9.77208 36.7721C13.1477 33.3964 17.7261 31.5 22.5 31.5C27.2739 31.5 31.8523 33.3964 35.2279 36.7721C38.6036 40.1477 40.5 44.7261 40.5 49.5H36C36 45.9196 34.5777 42.4858 32.0459 39.9541C29.5142 37.4223 26.0804 36 22.5 36C18.9196 36 15.4858 37.4223 12.9541 39.9541C10.4223 42.4858 9 45.9196 9 49.5H4.5ZM22.5 29.25C15.0413 29.25 9 23.2087 9 15.75C9 8.29125 15.0413 2.25 22.5 2.25C29.9587 2.25 36 8.29125 36 15.75C36 23.2087 29.9587 29.25 22.5 29.25ZM22.5 24.75C27.4725 24.75 31.5 20.7225 31.5 15.75C31.5 10.7775 27.4725 6.75 22.5 6.75C17.5275 6.75 13.5 10.7775 13.5 15.75C13.5 20.7225 17.5275 24.75 22.5 24.75Z" fill="#00539F"/>
</svg>
