<svg width="54" height="54" viewBox="0 0 54 54" fill="none" xmlns="http://www.w3.org/2000/svg">
<path d="M38.25 47.25L32.0625 40.5L34.6725 37.89L38.25 41.4675L46.3275 33.39L48.9375 36.5625M28.8 47.25H11.25C8.7525 47.25 6.75 45.2475 6.75 42.75V11.25C6.75 8.7525 8.7525 6.75 11.25 6.75H42.75C45.2475 6.75 47.25 8.7525 47.25 11.25V28.8C45.8775 28.0125 44.37 27.45 42.75 27.18V11.25H11.25V42.75H27.18C27.45 44.37 28.0125 45.8775 28.8 47.25ZM27 38.25H15.75V33.75H27M33.03 29.25H15.75V24.75H38.25V27.18C36.3375 27.495 34.5825 28.215 33.03 29.25ZM38.25 20.25H15.75V15.75H38.25" fill="#00539F"/>
</svg>
