<svg width="110" height="110" viewBox="0 0 110 110" fill="none" xmlns="http://www.w3.org/2000/svg">
<path d="M71.8654 37.1156C70.2733 35.524 68.1142 34.6299 65.863 34.6299C63.6118 34.6299 61.4527 35.524 59.8606 37.1156L58.5447 38.4287L62.5463 42.4303L63.8622 41.1172C64.3959 40.6017 65.1108 40.3165 65.8528 40.3229C66.5948 40.3294 67.3046 40.627 67.8293 41.1517C68.354 41.6764 68.6517 42.3862 68.6581 43.1282C68.6646 43.8702 68.3793 44.5851 67.8638 45.1188L58.5447 54.4379L62.5463 58.4395L71.8654 49.1204C73.457 47.5283 74.3511 45.3692 74.3511 43.118C74.3511 40.8668 73.457 38.7077 71.8654 37.1156ZM45.224 67.7586C44.6902 68.2741 43.9754 68.5594 43.2334 68.5529C42.4913 68.5465 41.7816 68.2489 41.2568 67.7242C40.7321 67.1995 40.4345 66.4897 40.4281 65.7477C40.4216 65.0056 40.7069 64.2908 41.2224 63.757L50.5415 54.4379L46.5399 50.4363L37.2208 59.7555C36.4099 60.5386 35.7631 61.4754 35.3182 62.5113C34.8732 63.5471 34.639 64.6611 34.6292 65.7884C34.6194 66.9157 34.8342 68.0336 35.2611 69.077C35.688 70.1204 36.3184 71.0683 37.1156 71.8655C37.9127 72.6626 38.8606 73.293 39.904 73.7199C40.9474 74.1468 42.0653 74.3616 43.1926 74.3518C44.3199 74.342 45.434 74.1078 46.4698 73.6628C47.5056 73.2179 48.4424 72.5711 49.2256 71.7602L50.5415 70.4471L46.5399 66.4455L45.224 67.7586ZM49.2256 37.1185C47.6178 35.6094 45.4861 34.7851 43.2814 34.8198C41.0767 34.8546 38.972 35.7457 37.4127 37.3047C35.8533 38.8637 34.9617 40.9682 34.9264 43.1729C34.8911 45.3776 35.715 47.5095 37.2236 49.1176L38.5367 50.4335L42.5383 46.4319L41.2252 45.116C40.7097 44.5822 40.4245 43.8674 40.4309 43.1254C40.4374 42.3833 40.735 41.6736 41.2597 41.1489C41.7844 40.6242 42.4942 40.3265 43.2362 40.3201C43.9782 40.3136 44.6931 40.5989 45.2268 41.1144L54.5431 50.4363L58.5447 46.4347L49.2256 37.1185Z" fill="#004996"/>
<path d="M71.997 60.3544L70.6995 59.0742L66.7453 62.9672L68.0429 64.2474C68.5523 64.7667 68.8341 65.4622 68.8277 66.184C68.8214 66.9059 68.5273 67.5964 68.0088 68.1069C67.4903 68.6174 66.7889 68.9069 66.0557 68.9132C65.3225 68.9195 64.6161 68.642 64.0887 68.1404L54.8802 59.0742L50.926 62.9672L60.1346 72.0334C61.7168 73.538 63.836 74.3705 66.0356 74.3517C68.2352 74.3329 70.3394 73.4642 71.8948 71.9328C73.4502 70.4014 74.3325 68.3299 74.3516 66.1642C74.3707 63.9986 73.5252 61.9122 71.997 60.3544Z" fill="#E10000"/>
<path d="M55 106.563C54.3913 106.563 53.7934 106.402 53.2675 106.095L12.0175 82.0325C11.4985 81.7297 11.068 81.2961 10.7688 80.775C10.4697 80.2539 10.3123 79.6634 10.3125 79.0625V30.9375C10.3123 30.3367 10.4697 29.7462 10.7688 29.2251C11.068 28.704 11.4985 28.2704 12.0175 27.9675L53.2675 3.90504C53.7933 3.59821 54.3912 3.43652 55 3.43652C55.6088 3.43652 56.2067 3.59821 56.7325 3.90504L97.9825 27.9675L94.5175 33.9075L55 10.8557L17.1875 32.9107V77.0894L55 99.1479L92.8125 77.0894V51.5625H99.6875V79.0625C99.6877 79.6634 99.5303 80.2539 99.2312 80.775C98.932 81.2961 98.5015 81.7297 97.9825 82.0325L56.7325 106.095C56.2066 106.402 55.6087 106.563 55 106.563Z" fill="#D6E4F6"/>
</svg>
