<svg width="88" height="102" viewBox="0 0 88 102" fill="none" xmlns="http://www.w3.org/2000/svg">
<path d="M44 0L0 14.5714V58.2857C0 82.431 19.6969 102 44 102C68.3031 102 88 82.431 88 58.2857V14.5714L44 0ZM79.75 58.2857C79.75 77.9002 63.7427 93.8036 44 93.8036C24.2573 93.8036 8.25 77.9002 8.25 58.2857V20.7188L44 8.19643L79.75 20.7188V58.2857Z" fill="#D6E4F6"/>
<path d="M31.9337 46.3146C31.6659 46.0413 31.3477 45.8244 30.9971 45.6764C30.6466 45.5285 30.2708 45.4523 29.8912 45.4523C29.5117 45.4523 29.1358 45.5285 28.7853 45.6764C28.4348 45.8244 28.1165 46.0413 27.8488 46.3146C27.5797 46.5866 27.3663 46.91 27.2206 47.2661C27.075 47.6222 27 48.004 27 48.3897C27 48.7753 27.075 49.1571 27.2206 49.5132C27.3663 49.8693 27.5797 50.1927 27.8488 50.4648L38.2337 61.0155L38.4023 61.1867C38.6556 61.4445 38.9564 61.649 39.2876 61.7886C39.6188 61.9282 39.9738 62 40.3324 62C40.6909 62 41.046 61.9282 41.3772 61.7886C41.7084 61.649 42.0092 61.4445 42.2625 61.1867L60.1995 42.9635C60.4532 42.7061 60.6546 42.4005 60.7919 42.064C60.9293 41.7275 61 41.3668 61 41.0026C61 40.6383 60.9293 40.2776 60.7919 39.9411C60.6546 39.6046 60.4532 39.299 60.1995 39.0416L59.9747 38.8133C59.7214 38.5555 59.4206 38.351 59.0894 38.2114C58.7582 38.0718 58.4032 38 58.0446 38C57.6861 38 57.331 38.0718 56.9998 38.2114C56.6686 38.351 56.3678 38.5555 56.1145 38.8133L40.3284 54.8432L31.9337 46.3146Z" fill="#E10000"/>
</svg>
