<svg width="108" height="108" viewBox="0 0 108 108" fill="none" xmlns="http://www.w3.org/2000/svg">
<path d="M54 104.625C53.4023 104.625 52.8153 104.467 52.299 104.166L11.799 80.541C11.2895 80.2437 10.8667 79.818 10.573 79.3063C10.2793 78.7947 10.1248 78.215 10.125 77.625V30.375C10.1248 29.7851 10.2793 29.2054 10.573 28.6937C10.8667 28.1821 11.2895 27.7564 11.799 27.459L52.299 3.83402C52.8153 3.53277 53.4023 3.37402 54 3.37402C54.5977 3.37402 55.1847 3.53277 55.701 3.83402L96.201 27.459L92.799 33.291L54 10.6583L16.875 32.3123V75.6878L54 97.3451L91.125 75.6878V50.625H97.875V77.625C97.8752 78.215 97.7207 78.7947 97.427 79.3063C97.1333 79.818 96.7105 80.2437 96.201 80.541L55.701 104.166C55.1847 104.467 54.5977 104.625 54 104.625Z" fill="#D6E4F6"/>
<path d="M44.8357 42.6469L41.499 39.8735L29.7773 54.0002L41.499 68.1269L44.8357 65.3535L35.4107 54.0002L44.8357 42.6469ZM43.1673 56.1669H47.5007V51.8335H43.1673V56.1669ZM64.834 51.8335H60.5007V56.1669H64.834V51.8335ZM51.834 56.1669H56.1673V51.8335H51.834V56.1669ZM66.5023 39.8735L63.1657 42.6469L72.5907 54.0002L63.1657 65.3535L66.5023 68.1269L78.224 54.0002L66.5023 39.8735Z" fill="#E10000"/>
</svg>
