<svg width="58" height="23" viewBox="0 0 58 23" fill="none" xmlns="http://www.w3.org/2000/svg">
<path d="M14.9844 17.9238V21H1.36719V18.375L7.80664 11.4707C8.45378 10.7507 8.96419 10.1172 9.33789 9.57031C9.71159 9.01432 9.98047 8.51758 10.1445 8.08008C10.3177 7.63346 10.4043 7.20964 10.4043 6.80859C10.4043 6.20703 10.304 5.69206 10.1035 5.26367C9.90299 4.82617 9.60677 4.48893 9.21484 4.25195C8.83203 4.01497 8.35807 3.89648 7.79297 3.89648C7.19141 3.89648 6.67188 4.04232 6.23438 4.33398C5.80599 4.62565 5.47786 5.03125 5.25 5.55078C5.03125 6.07031 4.92188 6.6582 4.92188 7.31445H0.970703C0.970703 6.12956 1.25326 5.04492 1.81836 4.06055C2.38346 3.06706 3.18099 2.27865 4.21094 1.69531C5.24089 1.10286 6.46224 0.806641 7.875 0.806641C9.26953 0.806641 10.4453 1.03451 11.4023 1.49023C12.3685 1.93685 13.0977 2.58398 13.5898 3.43164C14.0911 4.27018 14.3418 5.27279 14.3418 6.43945C14.3418 7.0957 14.237 7.73828 14.0273 8.36719C13.8177 8.98698 13.5169 9.60677 13.125 10.2266C12.7422 10.8372 12.2773 11.457 11.7305 12.0859C11.1836 12.7148 10.5775 13.3665 9.91211 14.041L6.45312 17.9238H14.9844Z" fill="#004996"/>
<path d="M31.3906 13.5625V16.6523H17.0488L16.8574 14.2598L25.1562 1.09375H28.2871L24.8965 6.76758L20.7676 13.5625H31.3906ZM29.1348 1.09375V21H25.1973V1.09375H29.1348Z" fill="#004996"/>
<path d="M42.1914 1.09375L34.8906 22.709H31.9648L39.2656 1.09375H42.1914Z" fill="#004996"/>
<path d="M57.4355 1.09375V3.21289L49.7383 21H45.582L53.2793 4.16992H43.3672V1.09375H57.4355Z" fill="#004996"/>
</svg>
