<svg width="54" height="54" viewBox="0 0 54 54" fill="none" xmlns="http://www.w3.org/2000/svg">
<path d="M10.2375 37.7782V47.0322L19.8 44.7459L27 51.7137L34.2 44.7459L43.7625 47.0322V37.7782L53.4375 35.383L48.6 26.129L53.4375 16.875L43.7625 14.4798V5.22576L34.2 7.51205L27 0.544312L19.8 7.51205L10.2375 5.22576V14.4798L0.5625 16.875L5.4 26.129L0.5625 35.383L10.2375 37.7782ZM9.675 24.0604L7.5375 19.8145L11.3625 18.9435C12.4875 18.7258 13.3687 18.1996 14.0062 17.3649C14.6437 16.5302 14.9625 15.5685 14.9625 14.4798V11.2137L18.5625 12.1935H19.8C21.075 12.1935 22.2 11.7217 23.175 10.7782L27 7.07657L30.825 10.7782C31.8 11.7217 32.925 12.1935 34.2 12.1935C34.65 12.1935 35.0625 12.1209 35.4375 11.9758L39.0375 11.2137V14.4798C39.0375 15.5685 39.3562 16.5302 39.9937 17.3649C40.6312 18.1996 41.5125 18.7258 42.6375 18.9435L46.4625 19.8145L44.325 24.0604C43.575 25.4395 43.575 26.8185 44.325 28.1975L46.4625 32.4435L42.6375 33.3145C41.5125 33.5322 40.6312 34.0584 39.9937 34.8931C39.3562 35.7278 39.0375 36.6895 39.0375 37.7782V41.0443L35.4375 40.0645H34.2C32.925 40.0645 31.8 40.5363 30.825 41.4798L27 45.1814L23.175 41.4798C22.2 40.5363 21.075 40.0645 19.8 40.0645C19.35 40.0645 18.9375 40.1371 18.5625 40.2822L14.9625 41.0443V37.7782C14.9625 36.6895 14.6437 35.7278 14.0062 34.8931C13.3687 34.0584 12.4875 33.5322 11.3625 33.3145L7.5375 32.4435L9.675 28.1975C10.425 26.8185 10.425 25.4395 9.675 24.0604ZM24.6375 34.0766L35.8875 23.0806C36.9375 22.0645 36.9375 20.9758 35.8875 19.8145C34.7625 18.8709 33.6375 18.8709 32.5125 19.8145L24.6375 27.5443L21.4875 24.4959C20.3625 23.5524 19.2375 23.5524 18.1125 24.4959C17.1375 25.5846 17.1375 26.6733 18.1125 27.7621L24.6375 34.0766Z" fill="#004996"/>
</svg>
