<svg width="54" height="54" viewBox="0 0 54 54" fill="none" xmlns="http://www.w3.org/2000/svg">
<path d="M47.25 16.875H37.125V10.125C37.125 9.22989 36.7694 8.37145 36.1365 7.73851C35.5035 7.10558 34.6451 6.75 33.75 6.75H20.25C19.3549 6.75 18.4965 7.10558 17.8635 7.73851C17.2306 8.37145 16.875 9.22989 16.875 10.125V16.875H6.75C5.85489 16.875 4.99645 17.2306 4.36351 17.8635C3.73058 18.4965 3.375 19.3549 3.375 20.25V43.875C3.375 44.7701 3.73058 45.6285 4.36351 46.2615C4.99645 46.8944 5.85489 47.25 6.75 47.25H47.25C48.1451 47.25 49.0035 46.8944 49.6365 46.2615C50.2694 45.6285 50.625 44.7701 50.625 43.875V20.25C50.625 19.3549 50.2694 18.4965 49.6365 17.8635C49.0035 17.2306 48.1451 16.875 47.25 16.875ZM20.25 10.125H33.75V16.875H20.25V10.125ZM6.75 43.875V20.25H47.25V43.875H6.75Z" fill="#00539F"/>
</svg>
