<svg width="697" height="336" viewBox="0 0 697 336" fill="none" xmlns="http://www.w3.org/2000/svg">
<path fill-rule="evenodd" clip-rule="evenodd" d="M340.188 28.9999C337.384 29.0661 334.614 29.6649 332.427 30.7959C332.289 30.8665 258.111 69.2313 257.592 69.4992C255.048 70.815 253.396 73.0192 253.062 75.5467C252.729 78.0734 253.745 80.6854 255.849 82.7119L259.091 85.8317C262.513 89.1279 265.54 93.1851 266.117 94.7664C266.709 96.3918 267.37 101.689 267.37 106.692V162.079C267.37 164.784 268.291 167.335 269.956 169.348L270.45 169.914C272.37 171.936 274.888 173.049 277.561 173.049C277.563 173.049 277.566 173.049 277.566 173.049L327.155 173.046C327.159 173.046 327.161 173.046 327.165 173.046C330.086 173.046 332.867 171.849 334.793 169.762C336.426 167.992 337.314 165.723 337.299 163.369L337.245 155.792C337.236 154.644 336.368 153.719 335.302 153.719C335.297 153.719 335.292 153.719 335.287 153.719C334.215 153.728 333.351 154.671 333.361 155.827L333.414 163.402C333.426 164.98 332.672 166.131 332.038 166.817C330.837 168.119 329.06 168.866 327.163 168.866C327.162 168.866 327.158 168.866 327.157 168.866L277.567 168.869C277.564 168.869 277.564 168.869 277.563 168.869C275.888 168.869 274.307 168.16 273.112 166.874C271.916 165.588 271.255 163.884 271.255 162.08V106.692C271.255 102.13 270.687 95.8508 269.734 93.2388C268.724 90.4679 264.83 85.7499 261.681 82.7171L258.441 79.5988C257.302 78.5032 256.759 77.2728 256.909 76.1362C257.059 74.9972 257.9 73.9794 259.275 73.2695L334.11 34.563C335.848 33.6662 338.165 33.2042 340.5 33.1785L340.188 28.9999Z" fill="#014A97"/>
<path fill-rule="evenodd" clip-rule="evenodd" d="M340.494 29.006C343.655 28.9323 346.856 29.5305 349.321 30.8018L424.37 69.504C426.921 70.8195 428.578 73.0223 428.914 75.5511C429.25 78.0776 428.233 80.6918 426.123 82.7194L422.834 85.8852C419.403 89.1852 416.376 93.2287 415.806 94.7951C415.218 96.4072 414.562 101.69 414.562 106.691V162.076C414.562 162.42 414.545 162.761 414.515 163.101L414.411 163.902C414.062 166.131 413.086 168.19 411.56 169.827C411.504 169.886 411.443 169.939 411.385 169.997L410.842 170.528C409.012 172.16 406.738 173.049 404.341 173.049H404.339L354.608 173.027C351.645 173.023 348.831 171.822 346.889 169.73C345.281 167.997 344.397 165.781 344.403 163.488L344.423 156.053C344.426 154.9 345.298 153.97 346.37 153.97C346.372 153.97 346.374 153.97 346.376 153.97C347.453 153.973 348.321 154.913 348.318 156.067L348.299 163.5C348.294 165.006 349.03 166.115 349.647 166.781C350.866 168.093 352.675 168.845 354.61 168.848L404.339 168.869H404.34C406.02 168.869 407.607 168.16 408.807 166.873C410.007 165.585 410.669 163.881 410.669 162.077V106.693C410.669 102.133 411.234 95.8663 412.18 93.2721C413.183 90.5211 417.078 85.811 420.234 82.7744L423.525 79.6079C424.665 78.5131 425.209 77.2807 425.059 76.1418C424.908 75.0037 424.064 73.9847 422.685 73.274L347.635 34.5687C345.789 33.6182 343.288 33.1562 340.807 33.1842L340.494 29.006Z" fill="#ED1C24"/>
<path d="M66.499 42.3457V44H60.6338V42.3457H66.499ZM61.2012 42.3457V46.4473H59.3213L59.2119 42.3457H61.2012ZM67.9482 42.3457L67.7705 46.4473H65.9385V42.3457H67.9482ZM65.4668 34.0469V35.708H61.4473V34.0469H65.4668ZM66.9092 34.0469V44H64.9199V34.0469H66.9092ZM61.2012 34.0469H63.2041L62.958 38.1211C62.9215 38.7956 62.86 39.3903 62.7734 39.9053C62.6914 40.4157 62.5889 40.8623 62.4658 41.2451C62.3473 41.6279 62.2152 41.9629 62.0693 42.25C61.9235 42.5326 61.7686 42.7786 61.6045 42.9883C61.4404 43.1934 61.2718 43.3779 61.0986 43.542C60.9255 43.7061 60.7546 43.8587 60.5859 44H59.499V42.3457H59.8818C59.9958 42.2363 60.1097 42.0882 60.2236 41.9014C60.3376 41.7145 60.4424 41.4639 60.5381 41.1494C60.6338 40.8304 60.7181 40.4248 60.791 39.9326C60.8639 39.4404 60.9209 38.8366 60.9619 38.1211L61.2012 34.0469ZM70.792 40.6641L72.6309 36.6035H74.4766V44H72.583V39.9531L70.751 44H68.8984V36.6035H70.792V40.6641ZM78.5713 42.5439C78.749 42.5439 78.9017 42.5075 79.0293 42.4346C79.1615 42.3617 79.2617 42.2432 79.3301 42.0791C79.3984 41.915 79.4349 41.7031 79.4395 41.4434H81.2373C81.2373 41.9993 81.1188 42.4801 80.8818 42.8857C80.6494 43.2868 80.335 43.5967 79.9385 43.8154C79.5465 44.0296 79.1022 44.1367 78.6055 44.1367C78.1087 44.1367 77.6758 44.057 77.3066 43.8975C76.9375 43.738 76.6322 43.5055 76.3906 43.2002C76.1536 42.8949 75.9736 42.5234 75.8506 42.0859C75.7321 41.6439 75.6729 41.138 75.6729 40.5684V40.0283C75.6729 39.4678 75.7321 38.9665 75.8506 38.5244C75.9736 38.0824 76.1536 37.7087 76.3906 37.4033C76.6322 37.098 76.9352 36.8656 77.2998 36.7061C77.6689 36.5465 78.1019 36.4668 78.5986 36.4668C79.1318 36.4668 79.5944 36.5785 79.9863 36.8018C80.3783 37.0205 80.6836 37.3441 80.9023 37.7725C81.1257 38.2008 81.2373 38.7295 81.2373 39.3584H79.4395C79.4349 39.0758 79.4007 38.8411 79.3369 38.6543C79.2777 38.4629 79.1842 38.3171 79.0566 38.2168C78.9336 38.112 78.7695 38.0596 78.5645 38.0596C78.3503 38.0596 78.1771 38.1051 78.0449 38.1963C77.9173 38.2829 77.8193 38.4105 77.751 38.5791C77.6872 38.7432 77.6439 38.9482 77.6211 39.1943C77.5983 39.4404 77.5869 39.7184 77.5869 40.0283V40.5684C77.5869 40.901 77.596 41.1904 77.6143 41.4365C77.637 41.6781 77.6803 41.8831 77.7441 42.0518C77.8125 42.2158 77.9105 42.3389 78.0381 42.4209C78.1702 42.5029 78.348 42.5439 78.5713 42.5439ZM85.749 36.6035V44H83.8281V36.6035H85.749ZM87.6494 36.6035V38.1826H81.9346V36.6035H87.6494ZM90.6094 38.0254V46.8438H88.7021V36.6035H90.4658L90.6094 38.0254ZM94.4512 40.0488V40.541C94.4512 41.1198 94.401 41.6325 94.3008 42.0791C94.2005 42.5212 94.0501 42.8971 93.8496 43.207C93.6536 43.5124 93.4076 43.7448 93.1113 43.9043C92.8151 44.0592 92.4688 44.1367 92.0723 44.1367C91.7031 44.1367 91.3841 44.0501 91.1152 43.877C90.8509 43.6992 90.6276 43.4554 90.4453 43.1455C90.263 42.8356 90.1172 42.4733 90.0078 42.0586C89.8984 41.6439 89.8141 41.1995 89.7549 40.7256V39.96C89.8096 39.4541 89.8893 38.9893 89.9941 38.5654C90.099 38.137 90.2425 37.7656 90.4248 37.4512C90.6117 37.1367 90.8372 36.8952 91.1016 36.7266C91.3704 36.5534 91.6895 36.4668 92.0586 36.4668C92.4596 36.4668 92.8083 36.5397 93.1045 36.6855C93.4053 36.8314 93.6536 37.0524 93.8496 37.3486C94.0501 37.6403 94.2005 38.0117 94.3008 38.4629C94.401 38.9141 94.4512 39.4427 94.4512 40.0488ZM92.5303 40.541V40.0488C92.5303 39.6934 92.512 39.3903 92.4756 39.1396C92.4391 38.889 92.3799 38.6839 92.2979 38.5244C92.2158 38.3649 92.1087 38.2487 91.9766 38.1758C91.8444 38.1029 91.6826 38.0664 91.4912 38.0664C91.3044 38.0664 91.1403 38.1029 90.999 38.1758C90.8623 38.2487 90.7507 38.3558 90.6641 38.4971C90.5775 38.6338 90.5114 38.8024 90.4658 39.0029C90.4202 39.1989 90.3952 39.4222 90.3906 39.6729V41.0127C90.3997 41.3089 90.4385 41.571 90.5068 41.7988C90.5798 42.0267 90.696 42.209 90.8555 42.3457C91.015 42.4779 91.2314 42.5439 91.5049 42.5439C91.7008 42.5439 91.8626 42.5029 91.9902 42.4209C92.1224 42.3389 92.2295 42.2158 92.3115 42.0518C92.3936 41.8877 92.4505 41.6803 92.4824 41.4297C92.5143 41.179 92.5303 40.8828 92.5303 40.541ZM97.5205 40.6641L99.3594 36.6035H101.205V44H99.3115V39.9531L97.4795 44H95.627V36.6035H97.5205V40.6641ZM106.387 33.3496H107.925C107.925 33.7142 107.886 34.0286 107.809 34.293C107.731 34.5573 107.606 34.7829 107.433 34.9697C107.264 35.1566 107.036 35.3161 106.749 35.4482C106.462 35.5804 106.104 35.6943 105.676 35.79C105.37 35.863 105.106 35.9906 104.883 36.1729C104.66 36.3506 104.477 36.5921 104.336 36.8975C104.195 37.1982 104.097 37.5811 104.042 38.0459C103.987 38.5062 103.974 39.0599 104.001 39.707V40.0146L102.524 40.2402V39.9395C102.524 39.0417 102.59 38.2601 102.723 37.5947C102.859 36.9294 103.051 36.3688 103.297 35.9131C103.543 35.4574 103.839 35.0951 104.186 34.8262C104.532 34.5527 104.915 34.359 105.334 34.2451C105.576 34.1768 105.774 34.1084 105.929 34.04C106.084 33.9717 106.198 33.8828 106.271 33.7734C106.348 33.6641 106.387 33.5228 106.387 33.3496ZM105.867 37.0137C106.291 37.0137 106.662 37.1003 106.981 37.2734C107.305 37.4421 107.576 37.6836 107.795 37.998C108.014 38.3079 108.178 38.6748 108.287 39.0986C108.401 39.5179 108.458 39.9759 108.458 40.4727V40.6162C108.458 41.1221 108.394 41.5892 108.267 42.0176C108.139 42.446 107.95 42.8197 107.699 43.1387C107.449 43.4577 107.139 43.7061 106.77 43.8838C106.4 44.057 105.977 44.1436 105.498 44.1436C105.015 44.1436 104.589 44.0479 104.22 43.8564C103.851 43.665 103.538 43.3984 103.283 43.0566C103.033 42.7103 102.843 42.3047 102.716 41.8398C102.588 41.375 102.524 40.8669 102.524 40.3154V40.165C102.524 40.0921 102.556 40.0215 102.62 39.9531C102.688 39.8802 102.771 39.7959 102.866 39.7002C102.962 39.6045 103.042 39.4837 103.105 39.3379C103.356 38.8275 103.618 38.3991 103.892 38.0527C104.17 37.7064 104.47 37.4466 104.794 37.2734C105.118 37.1003 105.475 37.0137 105.867 37.0137ZM105.491 38.6064C105.218 38.6064 105.004 38.693 104.849 38.8662C104.698 39.0348 104.591 39.2604 104.527 39.543C104.468 39.8255 104.438 40.1331 104.438 40.4658V40.6094C104.438 40.8783 104.454 41.1312 104.486 41.3682C104.518 41.6006 104.573 41.8079 104.65 41.9902C104.732 42.168 104.842 42.307 104.979 42.4072C105.115 42.5029 105.288 42.5508 105.498 42.5508C105.699 42.5508 105.867 42.5029 106.004 42.4072C106.141 42.307 106.248 42.168 106.325 41.9902C106.407 41.8079 106.464 41.6006 106.496 41.3682C106.528 41.1357 106.544 40.8828 106.544 40.6094V40.4727C106.544 40.2174 106.526 39.9782 106.489 39.7549C106.457 39.5316 106.403 39.3356 106.325 39.167C106.248 38.9938 106.141 38.8571 106.004 38.7568C105.867 38.6566 105.696 38.6064 105.491 38.6064ZM110.878 38.7637H112.601C113.184 38.7637 113.681 38.8753 114.091 39.0986C114.506 39.3174 114.82 39.625 115.034 40.0215C115.253 40.418 115.362 40.876 115.362 41.3955C115.362 41.7738 115.299 42.1224 115.171 42.4414C115.048 42.7559 114.868 43.0316 114.631 43.2686C114.398 43.501 114.111 43.681 113.77 43.8086C113.428 43.9362 113.038 44 112.601 44H109.654V36.6035H111.582V42.4141H112.601C112.806 42.4141 112.97 42.3662 113.093 42.2705C113.22 42.1748 113.312 42.0518 113.366 41.9014C113.425 41.7464 113.455 41.5778 113.455 41.3955C113.455 41.2041 113.425 41.0309 113.366 40.876C113.312 40.7165 113.22 40.5911 113.093 40.5C112.97 40.4043 112.806 40.3564 112.601 40.3564H110.878V38.7637ZM120.435 39.4336V41.0332H116.887V39.4336H120.435ZM118.507 36.6035V44H116.586V36.6035H118.507ZM119.122 40.377V40.2334C119.122 39.6956 119.186 39.1989 119.313 38.7432C119.446 38.2829 119.637 37.8841 119.888 37.5469C120.143 37.2051 120.453 36.9408 120.817 36.7539C121.187 36.5625 121.613 36.4668 122.096 36.4668C122.583 36.4668 123.012 36.5625 123.381 36.7539C123.755 36.9408 124.067 37.2051 124.317 37.5469C124.573 37.8841 124.764 38.2829 124.892 38.7432C125.024 39.1989 125.09 39.6956 125.09 40.2334V40.377C125.09 40.9147 125.024 41.4137 124.892 41.874C124.764 42.3298 124.573 42.7285 124.317 43.0703C124.067 43.4076 123.755 43.6696 123.381 43.8564C123.012 44.0433 122.588 44.1367 122.109 44.1367C121.626 44.1367 121.198 44.0433 120.824 43.8564C120.455 43.6696 120.143 43.4076 119.888 43.0703C119.637 42.7285 119.446 42.3298 119.313 41.874C119.186 41.4137 119.122 40.9147 119.122 40.377ZM121.036 40.2402V40.377C121.036 40.6823 121.054 40.9671 121.091 41.2314C121.127 41.4912 121.184 41.7191 121.262 41.915C121.344 42.111 121.455 42.266 121.597 42.3799C121.738 42.4893 121.909 42.5439 122.109 42.5439C122.314 42.5439 122.483 42.4893 122.615 42.3799C122.752 42.266 122.861 42.111 122.943 41.915C123.025 41.7145 123.082 41.4844 123.114 41.2246C123.151 40.9603 123.169 40.6777 123.169 40.377V40.2334C123.169 39.9417 123.151 39.666 123.114 39.4062C123.078 39.1465 123.019 38.9163 122.937 38.7158C122.859 38.5107 122.752 38.3512 122.615 38.2373C122.479 38.1188 122.305 38.0596 122.096 38.0596C121.895 38.0596 121.727 38.1188 121.59 38.2373C121.453 38.3512 121.344 38.5107 121.262 38.7158C121.184 38.9163 121.127 39.1465 121.091 39.4062C121.054 39.666 121.036 39.944 121.036 40.2402ZM129.677 36.6035V44H127.756V36.6035H129.677ZM131.577 36.6035V38.1826H125.862V36.6035H131.577ZM132.199 40.5547V40.0557C132.199 39.4769 132.268 38.9642 132.404 38.5176C132.546 38.071 132.746 37.6973 133.006 37.3965C133.266 37.0911 133.578 36.861 133.942 36.7061C134.312 36.5465 134.724 36.4668 135.18 36.4668C135.64 36.4668 136.052 36.5465 136.417 36.7061C136.786 36.861 137.101 37.0911 137.36 37.3965C137.625 37.6973 137.827 38.071 137.969 38.5176C138.11 38.9642 138.181 39.4769 138.181 40.0557V40.5547C138.181 41.1289 138.11 41.6393 137.969 42.0859C137.827 42.5326 137.625 42.9085 137.36 43.2139C137.101 43.5192 136.788 43.7493 136.424 43.9043C136.059 44.0592 135.649 44.1367 135.193 44.1367C134.738 44.1367 134.325 44.0592 133.956 43.9043C133.591 43.7493 133.277 43.5192 133.013 43.2139C132.748 42.9085 132.546 42.5326 132.404 42.0859C132.268 41.6393 132.199 41.1289 132.199 40.5547ZM134.113 40.0557V40.5547C134.113 40.8965 134.136 41.1927 134.182 41.4434C134.232 41.694 134.302 41.9014 134.394 42.0654C134.489 42.2295 134.603 42.3503 134.735 42.4277C134.868 42.5052 135.02 42.5439 135.193 42.5439C135.367 42.5439 135.521 42.5052 135.658 42.4277C135.795 42.3503 135.907 42.2295 135.993 42.0654C136.084 41.9014 136.15 41.694 136.191 41.4434C136.237 41.1927 136.26 40.8965 136.26 40.5547V40.0557C136.26 39.723 136.235 39.4313 136.185 39.1807C136.134 38.9255 136.064 38.7181 135.973 38.5586C135.882 38.3945 135.768 38.2715 135.631 38.1895C135.499 38.1029 135.348 38.0596 135.18 38.0596C135.011 38.0596 134.861 38.1029 134.729 38.1895C134.601 38.2715 134.489 38.3945 134.394 38.5586C134.302 38.7181 134.232 38.9255 134.182 39.1807C134.136 39.4313 134.113 39.723 134.113 40.0557ZM141.305 38.0254V46.8438H139.397V36.6035H141.161L141.305 38.0254ZM145.146 40.0488V40.541C145.146 41.1198 145.096 41.6325 144.996 42.0791C144.896 42.5212 144.745 42.8971 144.545 43.207C144.349 43.5124 144.103 43.7448 143.807 43.9043C143.51 44.0592 143.164 44.1367 142.768 44.1367C142.398 44.1367 142.079 44.0501 141.811 43.877C141.546 43.6992 141.323 43.4554 141.141 43.1455C140.958 42.8356 140.812 42.4733 140.703 42.0586C140.594 41.6439 140.509 41.1995 140.45 40.7256V39.96C140.505 39.4541 140.585 38.9893 140.689 38.5654C140.794 38.137 140.938 37.7656 141.12 37.4512C141.307 37.1367 141.533 36.8952 141.797 36.7266C142.066 36.5534 142.385 36.4668 142.754 36.4668C143.155 36.4668 143.504 36.5397 143.8 36.6855C144.101 36.8314 144.349 37.0524 144.545 37.3486C144.745 37.6403 144.896 38.0117 144.996 38.4629C145.096 38.9141 145.146 39.4427 145.146 40.0488ZM143.226 40.541V40.0488C143.226 39.6934 143.207 39.3903 143.171 39.1396C143.134 38.889 143.075 38.6839 142.993 38.5244C142.911 38.3649 142.804 38.2487 142.672 38.1758C142.54 38.1029 142.378 38.0664 142.187 38.0664C142 38.0664 141.836 38.1029 141.694 38.1758C141.558 38.2487 141.446 38.3558 141.359 38.4971C141.273 38.6338 141.207 38.8024 141.161 39.0029C141.116 39.1989 141.09 39.4222 141.086 39.6729V41.0127C141.095 41.3089 141.134 41.571 141.202 41.7988C141.275 42.0267 141.391 42.209 141.551 42.3457C141.71 42.4779 141.927 42.5439 142.2 42.5439C142.396 42.5439 142.558 42.5029 142.686 42.4209C142.818 42.3389 142.925 42.2158 143.007 42.0518C143.089 41.8877 143.146 41.6803 143.178 41.4297C143.21 41.179 143.226 40.8828 143.226 40.541ZM147.669 38.7637H149.392C149.975 38.7637 150.472 38.8753 150.882 39.0986C151.297 39.3174 151.611 39.625 151.825 40.0215C152.044 40.418 152.153 40.876 152.153 41.3955C152.153 41.7738 152.09 42.1224 151.962 42.4414C151.839 42.7559 151.659 43.0316 151.422 43.2686C151.189 43.501 150.902 43.681 150.561 43.8086C150.219 43.9362 149.829 44 149.392 44H146.445V36.6035H148.373V42.4141H149.392C149.597 42.4141 149.761 42.3662 149.884 42.2705C150.011 42.1748 150.103 42.0518 150.157 41.9014C150.216 41.7464 150.246 41.5778 150.246 41.3955C150.246 41.2041 150.216 41.0309 150.157 40.876C150.103 40.7165 150.011 40.5911 149.884 40.5C149.761 40.4043 149.597 40.3564 149.392 40.3564H147.669V38.7637ZM154.922 36.6035V44H153.008V36.6035H154.922Z" fill="#052343"/>
<path d="M7.2207 221.493H5.18359V219.832H7.21387C7.50553 219.832 7.74023 219.768 7.91797 219.641C8.0957 219.513 8.22559 219.338 8.30762 219.114C8.38965 218.886 8.43066 218.631 8.43066 218.349C8.43066 218.062 8.38965 217.793 8.30762 217.542C8.22559 217.291 8.0957 217.091 7.91797 216.94C7.74023 216.785 7.50781 216.708 7.2207 216.708H5.82617V225H3.83008V215.047H7.2207C7.89062 215.047 8.46712 215.188 8.9502 215.471C9.43327 215.753 9.80241 216.143 10.0576 216.64C10.3174 217.132 10.4473 217.697 10.4473 218.335C10.4473 218.973 10.3174 219.529 10.0576 220.003C9.79785 220.477 9.42643 220.844 8.94336 221.104C8.46484 221.363 7.89062 221.493 7.2207 221.493ZM11.377 221.555V221.056C11.377 220.477 11.4453 219.964 11.582 219.518C11.7233 219.071 11.9238 218.697 12.1836 218.396C12.4434 218.091 12.7555 217.861 13.1201 217.706C13.4893 217.547 13.9017 217.467 14.3574 217.467C14.8177 217.467 15.2301 217.547 15.5947 217.706C15.9639 217.861 16.2783 218.091 16.5381 218.396C16.8024 218.697 17.0052 219.071 17.1465 219.518C17.2878 219.964 17.3584 220.477 17.3584 221.056V221.555C17.3584 222.129 17.2878 222.639 17.1465 223.086C17.0052 223.533 16.8024 223.909 16.5381 224.214C16.2783 224.519 15.9661 224.749 15.6016 224.904C15.237 225.059 14.8268 225.137 14.3711 225.137C13.9154 225.137 13.5029 225.059 13.1338 224.904C12.7692 224.749 12.4548 224.519 12.1904 224.214C11.9261 223.909 11.7233 223.533 11.582 223.086C11.4453 222.639 11.377 222.129 11.377 221.555ZM13.291 221.056V221.555C13.291 221.896 13.3138 222.193 13.3594 222.443C13.4095 222.694 13.4801 222.901 13.5713 223.065C13.667 223.229 13.7809 223.35 13.9131 223.428C14.0452 223.505 14.1979 223.544 14.3711 223.544C14.5443 223.544 14.6992 223.505 14.8359 223.428C14.9727 223.35 15.0843 223.229 15.1709 223.065C15.262 222.901 15.3281 222.694 15.3691 222.443C15.4147 222.193 15.4375 221.896 15.4375 221.555V221.056C15.4375 220.723 15.4124 220.431 15.3623 220.181C15.3122 219.925 15.2415 219.718 15.1504 219.559C15.0592 219.395 14.9453 219.271 14.8086 219.189C14.6764 219.103 14.526 219.06 14.3574 219.06C14.1888 219.06 14.0384 219.103 13.9062 219.189C13.7786 219.271 13.667 219.395 13.5713 219.559C13.4801 219.718 13.4095 219.925 13.3594 220.181C13.3138 220.431 13.291 220.723 13.291 221.056ZM21.4805 221.473H20.168V220.577H21.084C21.2389 220.577 21.362 220.545 21.4531 220.481C21.5443 220.413 21.6104 220.32 21.6514 220.201C21.6969 220.078 21.7197 219.939 21.7197 219.784C21.7197 219.647 21.7015 219.518 21.665 219.395C21.6286 219.267 21.5648 219.164 21.4736 219.087C21.387 219.005 21.2594 218.964 21.0908 218.964C20.945 218.964 20.8151 218.993 20.7012 219.053C20.5872 219.112 20.5007 219.199 20.4414 219.312C20.3867 219.426 20.3594 219.565 20.3594 219.729H18.4385C18.4385 219.256 18.5524 218.852 18.7803 218.52C19.0127 218.182 19.3226 217.925 19.71 217.747C20.0973 217.565 20.5234 217.474 20.9883 217.474C21.3893 217.474 21.7516 217.521 22.0752 217.617C22.3988 217.708 22.6768 217.845 22.9092 218.027C23.1416 218.21 23.3193 218.435 23.4424 218.704C23.5654 218.968 23.627 219.276 23.627 219.627C23.627 219.878 23.5768 220.115 23.4766 220.338C23.3763 220.561 23.2327 220.759 23.0459 220.933C22.859 221.101 22.6335 221.233 22.3691 221.329C22.1048 221.425 21.8086 221.473 21.4805 221.473ZM20.168 220.98H21.4805C21.8451 220.98 22.1663 221.024 22.4443 221.11C22.7269 221.192 22.9639 221.315 23.1553 221.479C23.3467 221.644 23.4925 221.846 23.5928 222.088C23.693 222.325 23.7432 222.598 23.7432 222.908C23.7432 223.259 23.6748 223.574 23.5381 223.852C23.4059 224.125 23.2168 224.357 22.9707 224.549C22.7246 224.74 22.4329 224.886 22.0957 224.986C21.763 225.087 21.3939 225.137 20.9883 225.137C20.5553 225.137 20.1361 225.055 19.7305 224.891C19.3249 224.727 18.9922 224.474 18.7324 224.132C18.4727 223.785 18.3428 223.343 18.3428 222.806H20.2637C20.2637 222.951 20.291 223.09 20.3457 223.223C20.4049 223.35 20.4961 223.455 20.6191 223.537C20.7422 223.615 20.9017 223.653 21.0977 223.653C21.2754 223.653 21.4167 223.61 21.5215 223.523C21.6309 223.432 21.7083 223.321 21.7539 223.188C21.7995 223.052 21.8223 222.906 21.8223 222.751C21.8223 222.546 21.7949 222.377 21.7402 222.245C21.6855 222.108 21.6035 222.01 21.4941 221.951C21.3848 221.887 21.248 221.855 21.084 221.855H20.168V220.98ZM29.1641 220.57V222.156H26.2109V220.57H29.1641ZM26.833 217.604V225H24.9121V217.604H26.833ZM30.4697 217.604V225H28.5557V217.604H30.4697ZM33.792 221.664L35.6309 217.604H37.4766V225H35.583V220.953L33.751 225H31.8984V217.604H33.792V221.664ZM44.3398 217.604V225H42.4189V217.604H44.3398ZM43.4375 220.755V222.348C43.3099 222.425 43.1481 222.496 42.9521 222.56C42.7607 222.623 42.5579 222.676 42.3438 222.717C42.1341 222.753 41.9313 222.771 41.7354 222.771C41.1383 222.771 40.6188 222.674 40.1768 222.478C39.7393 222.277 39.3997 221.967 39.1582 221.548C38.9167 221.129 38.7959 220.593 38.7959 219.941V217.597H40.71V219.941C40.71 220.26 40.7464 220.511 40.8193 220.693C40.8968 220.876 41.0107 221.003 41.1611 221.076C41.3115 221.145 41.5029 221.179 41.7354 221.179C41.9313 221.179 42.1159 221.163 42.2891 221.131C42.4622 221.094 42.64 221.044 42.8223 220.98C43.0046 220.917 43.2096 220.841 43.4375 220.755ZM50.0137 220.57V222.156H47.0605V220.57H50.0137ZM47.6826 217.604V225H45.7617V217.604H47.6826ZM51.3193 217.604V225H49.4053V217.604H51.3193ZM54.0947 219.764H55.8174C56.4007 219.764 56.8975 219.875 57.3076 220.099C57.7223 220.317 58.0368 220.625 58.251 221.021C58.4697 221.418 58.5791 221.876 58.5791 222.396C58.5791 222.774 58.5153 223.122 58.3877 223.441C58.2646 223.756 58.0846 224.032 57.8477 224.269C57.6152 224.501 57.3281 224.681 56.9863 224.809C56.6445 224.936 56.2549 225 55.8174 225H52.8711V217.604H54.7988V223.414H55.8174C56.0225 223.414 56.1865 223.366 56.3096 223.271C56.4372 223.175 56.5283 223.052 56.583 222.901C56.6423 222.746 56.6719 222.578 56.6719 222.396C56.6719 222.204 56.6423 222.031 56.583 221.876C56.5283 221.716 56.4372 221.591 56.3096 221.5C56.1865 221.404 56.0225 221.356 55.8174 221.356H54.0947V219.764ZM61.3477 217.604V225H59.4336V217.604H61.3477ZM65.9688 225.137C65.4629 225.137 65.014 225.059 64.6221 224.904C64.2347 224.749 63.9066 224.526 63.6377 224.234C63.3688 223.938 63.1637 223.58 63.0225 223.161C62.8812 222.742 62.8105 222.263 62.8105 221.726V221.117C62.8105 220.516 62.8789 219.989 63.0156 219.538C63.1523 219.082 63.346 218.7 63.5967 218.39C63.8473 218.08 64.1549 217.85 64.5195 217.699C64.8887 217.544 65.3057 217.467 65.7705 217.467C66.2354 217.467 66.6432 217.544 66.9941 217.699C67.3496 217.85 67.6436 218.077 67.876 218.383C68.1084 218.684 68.2839 219.057 68.4023 219.504C68.5208 219.951 68.5801 220.47 68.5801 221.062V221.938H63.624V220.591H66.7002V220.42C66.7002 220.119 66.6683 219.868 66.6045 219.668C66.5407 219.463 66.4404 219.31 66.3037 219.21C66.167 219.11 65.9847 219.06 65.7568 219.06C65.5654 219.06 65.4036 219.098 65.2715 219.176C65.1393 219.253 65.0345 219.374 64.957 219.538C64.8796 219.702 64.8226 219.916 64.7861 220.181C64.7497 220.44 64.7314 220.753 64.7314 221.117V221.726C64.7314 222.067 64.7611 222.354 64.8203 222.587C64.8796 222.815 64.9661 223.002 65.0801 223.147C65.1986 223.289 65.3421 223.391 65.5107 223.455C65.6794 223.514 65.8753 223.544 66.0986 223.544C66.4359 223.544 66.7389 223.485 67.0078 223.366C67.2812 223.243 67.5137 223.077 67.7051 222.867L68.4707 224.029C68.3385 224.202 68.1562 224.376 67.9238 224.549C67.6914 224.722 67.4134 224.863 67.0898 224.973C66.7663 225.082 66.3926 225.137 65.9688 225.137ZM11.4521 236.348L12.8398 231.604H14.4189L12.1494 239H10.7412L8.45801 231.604H10.0713L11.4521 236.348ZM9.55176 231.604V239H7.69922V231.604H9.55176ZM13.3936 239V231.604H15.2529V239H13.3936ZM20.1338 237.298V233.88C20.1338 233.657 20.1064 233.479 20.0518 233.347C20.0016 233.215 19.9242 233.119 19.8193 233.06C19.7191 232.996 19.596 232.964 19.4502 232.964C19.2861 232.964 19.1494 232.998 19.04 233.066C18.9307 233.135 18.8486 233.233 18.7939 233.36C18.7438 233.488 18.7188 233.641 18.7188 233.818H16.7979C16.7979 233.499 16.8594 233.199 16.9824 232.916C17.1055 232.629 17.2855 232.378 17.5225 232.164C17.764 231.945 18.0511 231.774 18.3838 231.651C18.7165 231.528 19.0902 231.467 19.5049 231.467C19.9971 231.467 20.4346 231.551 20.8174 231.72C21.2002 231.884 21.5033 232.146 21.7266 232.506C21.9499 232.866 22.0615 233.333 22.0615 233.907V237.202C22.0615 237.617 22.082 237.954 22.123 238.214C22.1686 238.474 22.2347 238.697 22.3213 238.884V239H20.3936C20.307 238.795 20.2409 238.54 20.1953 238.234C20.1543 237.924 20.1338 237.612 20.1338 237.298ZM20.3662 234.481L20.373 235.63H19.6689C19.4867 235.63 19.3271 235.66 19.1904 235.719C19.0583 235.778 18.9466 235.862 18.8555 235.972C18.7643 236.076 18.696 236.2 18.6504 236.341C18.6094 236.482 18.5889 236.632 18.5889 236.792C18.5889 236.97 18.6139 237.12 18.6641 237.243C18.7142 237.366 18.7894 237.46 18.8896 237.523C18.9899 237.587 19.1084 237.619 19.2451 237.619C19.4548 237.619 19.637 237.576 19.792 237.489C19.9469 237.403 20.0609 237.298 20.1338 237.175C20.2113 237.052 20.2363 236.938 20.209 236.833L20.6465 237.578C20.5918 237.747 20.5166 237.922 20.4209 238.104C20.3298 238.287 20.2135 238.455 20.0723 238.61C19.931 238.765 19.7555 238.893 19.5459 238.993C19.3408 239.089 19.097 239.137 18.8145 239.137C18.418 239.137 18.0557 239.046 17.7275 238.863C17.3994 238.681 17.1396 238.426 16.9482 238.098C16.7614 237.77 16.668 237.38 16.668 236.929C16.668 236.555 16.7272 236.218 16.8457 235.917C16.9688 235.612 17.151 235.354 17.3926 235.145C17.6341 234.93 17.9395 234.766 18.3086 234.652C18.6777 234.538 19.1107 234.481 19.6074 234.481H20.3662ZM27.8037 231.604V233.196H25.3906V239H23.4766V231.604H27.8037ZM31.9326 237.298V233.88C31.9326 233.657 31.9053 233.479 31.8506 233.347C31.8005 233.215 31.723 233.119 31.6182 233.06C31.5179 232.996 31.3949 232.964 31.249 232.964C31.085 232.964 30.9482 232.998 30.8389 233.066C30.7295 233.135 30.6475 233.233 30.5928 233.36C30.5426 233.488 30.5176 233.641 30.5176 233.818H28.5967C28.5967 233.499 28.6582 233.199 28.7812 232.916C28.9043 232.629 29.0843 232.378 29.3213 232.164C29.5628 231.945 29.8499 231.774 30.1826 231.651C30.5153 231.528 30.889 231.467 31.3037 231.467C31.7959 231.467 32.2334 231.551 32.6162 231.72C32.999 231.884 33.3021 232.146 33.5254 232.506C33.7487 232.866 33.8604 233.333 33.8604 233.907V237.202C33.8604 237.617 33.8809 237.954 33.9219 238.214C33.9674 238.474 34.0335 238.697 34.1201 238.884V239H32.1924C32.1058 238.795 32.0397 238.54 31.9941 238.234C31.9531 237.924 31.9326 237.612 31.9326 237.298ZM32.165 234.481L32.1719 235.63H31.4678C31.2855 235.63 31.126 235.66 30.9893 235.719C30.8571 235.778 30.7454 235.862 30.6543 235.972C30.5632 236.076 30.4948 236.2 30.4492 236.341C30.4082 236.482 30.3877 236.632 30.3877 236.792C30.3877 236.97 30.4128 237.12 30.4629 237.243C30.513 237.366 30.5882 237.46 30.6885 237.523C30.7887 237.587 30.9072 237.619 31.0439 237.619C31.2536 237.619 31.4359 237.576 31.5908 237.489C31.7458 237.403 31.8597 237.298 31.9326 237.175C32.0101 237.052 32.0352 236.938 32.0078 236.833L32.4453 237.578C32.3906 237.747 32.3154 237.922 32.2197 238.104C32.1286 238.287 32.0124 238.455 31.8711 238.61C31.7298 238.765 31.5544 238.893 31.3447 238.993C31.1396 239.089 30.8958 239.137 30.6133 239.137C30.2168 239.137 29.8545 239.046 29.5264 238.863C29.1982 238.681 28.9385 238.426 28.7471 238.098C28.5602 237.77 28.4668 237.38 28.4668 236.929C28.4668 236.555 28.526 236.218 28.6445 235.917C28.7676 235.612 28.9499 235.354 29.1914 235.145C29.4329 234.93 29.7383 234.766 30.1074 234.652C30.4766 234.538 30.9095 234.481 31.4062 234.481H32.165ZM38.1875 235.473H36.875V234.577H37.791C37.946 234.577 38.069 234.545 38.1602 234.481C38.2513 234.413 38.3174 234.32 38.3584 234.201C38.404 234.078 38.4268 233.939 38.4268 233.784C38.4268 233.647 38.4085 233.518 38.3721 233.395C38.3356 233.267 38.2718 233.164 38.1807 233.087C38.0941 233.005 37.9665 232.964 37.7979 232.964C37.652 232.964 37.5221 232.993 37.4082 233.053C37.2943 233.112 37.2077 233.199 37.1484 233.312C37.0938 233.426 37.0664 233.565 37.0664 233.729H35.1455C35.1455 233.256 35.2594 232.852 35.4873 232.52C35.7197 232.182 36.0296 231.925 36.417 231.747C36.8044 231.565 37.2305 231.474 37.6953 231.474C38.0964 231.474 38.4587 231.521 38.7822 231.617C39.1058 231.708 39.3838 231.845 39.6162 232.027C39.8486 232.21 40.0264 232.435 40.1494 232.704C40.2725 232.968 40.334 233.276 40.334 233.627C40.334 233.878 40.2839 234.115 40.1836 234.338C40.0833 234.561 39.9398 234.759 39.7529 234.933C39.5661 235.101 39.3405 235.233 39.0762 235.329C38.8118 235.425 38.5156 235.473 38.1875 235.473ZM36.875 234.98H38.1875C38.5521 234.98 38.8734 235.024 39.1514 235.11C39.4339 235.192 39.6709 235.315 39.8623 235.479C40.0537 235.644 40.1995 235.846 40.2998 236.088C40.4001 236.325 40.4502 236.598 40.4502 236.908C40.4502 237.259 40.3818 237.574 40.2451 237.852C40.113 238.125 39.9238 238.357 39.6777 238.549C39.4316 238.74 39.14 238.886 38.8027 238.986C38.4701 239.087 38.1009 239.137 37.6953 239.137C37.2624 239.137 36.8431 239.055 36.4375 238.891C36.0319 238.727 35.6992 238.474 35.4395 238.132C35.1797 237.785 35.0498 237.343 35.0498 236.806H36.9707C36.9707 236.951 36.998 237.09 37.0527 237.223C37.112 237.35 37.2031 237.455 37.3262 237.537C37.4492 237.615 37.6087 237.653 37.8047 237.653C37.9824 237.653 38.1237 237.61 38.2285 237.523C38.3379 237.432 38.4154 237.321 38.4609 237.188C38.5065 237.052 38.5293 236.906 38.5293 236.751C38.5293 236.546 38.502 236.377 38.4473 236.245C38.3926 236.108 38.3105 236.01 38.2012 235.951C38.0918 235.887 37.9551 235.855 37.791 235.855H36.875V234.98ZM43.5127 235.664L45.3516 231.604H47.1973V239H45.3037V234.953L43.4717 239H41.6191V231.604H43.5127V235.664ZM52.8711 234.57V236.156H49.918V234.57H52.8711ZM50.54 231.604V239H48.6191V231.604H50.54ZM54.1768 231.604V239H52.2627V231.604H54.1768ZM56.9521 233.764H58.6748C59.2581 233.764 59.7549 233.875 60.165 234.099C60.5798 234.317 60.8942 234.625 61.1084 235.021C61.3271 235.418 61.4365 235.876 61.4365 236.396C61.4365 236.774 61.3727 237.122 61.2451 237.441C61.1221 237.756 60.9421 238.032 60.7051 238.269C60.4727 238.501 60.1855 238.681 59.8438 238.809C59.502 238.936 59.1123 239 58.6748 239H55.7285V231.604H57.6562V237.414H58.6748C58.8799 237.414 59.0439 237.366 59.167 237.271C59.2946 237.175 59.3857 237.052 59.4404 236.901C59.4997 236.746 59.5293 236.578 59.5293 236.396C59.5293 236.204 59.4997 236.031 59.4404 235.876C59.3857 235.716 59.2946 235.591 59.167 235.5C59.0439 235.404 58.8799 235.356 58.6748 235.356H56.9521V233.764ZM64.2051 231.604V239H62.291V231.604H64.2051Z" fill="#052343"/>
<path d="M180.142 321.493H178.104V319.832H180.135C180.426 319.832 180.661 319.768 180.839 319.641C181.017 319.513 181.146 319.338 181.229 319.114C181.311 318.886 181.352 318.631 181.352 318.349C181.352 318.062 181.311 317.793 181.229 317.542C181.146 317.291 181.017 317.091 180.839 316.94C180.661 316.785 180.429 316.708 180.142 316.708H178.747V325H176.751V315.047H180.142C180.812 315.047 181.388 315.188 181.871 315.471C182.354 315.753 182.723 316.143 182.979 316.64C183.238 317.132 183.368 317.697 183.368 318.335C183.368 318.973 183.238 319.529 182.979 320.003C182.719 320.477 182.347 320.844 181.864 321.104C181.386 321.363 180.812 321.493 180.142 321.493ZM187.497 325.137C186.991 325.137 186.542 325.059 186.15 324.904C185.763 324.749 185.435 324.526 185.166 324.234C184.897 323.938 184.692 323.58 184.551 323.161C184.41 322.742 184.339 322.263 184.339 321.726V321.117C184.339 320.516 184.407 319.989 184.544 319.538C184.681 319.082 184.874 318.7 185.125 318.39C185.376 318.08 185.683 317.85 186.048 317.699C186.417 317.544 186.834 317.467 187.299 317.467C187.764 317.467 188.172 317.544 188.522 317.699C188.878 317.85 189.172 318.077 189.404 318.383C189.637 318.684 189.812 319.057 189.931 319.504C190.049 319.951 190.108 320.47 190.108 321.062V321.938H185.152V320.591H188.229V320.42C188.229 320.119 188.197 319.868 188.133 319.668C188.069 319.463 187.969 319.31 187.832 319.21C187.695 319.11 187.513 319.06 187.285 319.06C187.094 319.06 186.932 319.098 186.8 319.176C186.668 319.253 186.563 319.374 186.485 319.538C186.408 319.702 186.351 319.916 186.314 320.181C186.278 320.44 186.26 320.753 186.26 321.117V321.726C186.26 322.067 186.289 322.354 186.349 322.587C186.408 322.815 186.494 323.002 186.608 323.147C186.727 323.289 186.87 323.391 187.039 323.455C187.208 323.514 187.404 323.544 187.627 323.544C187.964 323.544 188.267 323.485 188.536 323.366C188.81 323.243 189.042 323.077 189.233 322.867L189.999 324.029C189.867 324.202 189.685 324.376 189.452 324.549C189.22 324.722 188.942 324.863 188.618 324.973C188.295 325.082 187.921 325.137 187.497 325.137ZM194.545 317.604V325H192.624V317.604H194.545ZM196.445 317.604V319.183H190.73V317.604H196.445ZM200.034 325.137C199.528 325.137 199.079 325.059 198.688 324.904C198.3 324.749 197.972 324.526 197.703 324.234C197.434 323.938 197.229 323.58 197.088 323.161C196.947 322.742 196.876 322.263 196.876 321.726V321.117C196.876 320.516 196.944 319.989 197.081 319.538C197.218 319.082 197.411 318.7 197.662 318.39C197.913 318.08 198.22 317.85 198.585 317.699C198.954 317.544 199.371 317.467 199.836 317.467C200.301 317.467 200.709 317.544 201.06 317.699C201.415 317.85 201.709 318.077 201.941 318.383C202.174 318.684 202.349 319.057 202.468 319.504C202.586 319.951 202.646 320.47 202.646 321.062V321.938H197.689V320.591H200.766V320.42C200.766 320.119 200.734 319.868 200.67 319.668C200.606 319.463 200.506 319.31 200.369 319.21C200.232 319.11 200.05 319.06 199.822 319.06C199.631 319.06 199.469 319.098 199.337 319.176C199.205 319.253 199.1 319.374 199.022 319.538C198.945 319.702 198.888 319.916 198.852 320.181C198.815 320.44 198.797 320.753 198.797 321.117V321.726C198.797 322.067 198.826 322.354 198.886 322.587C198.945 322.815 199.032 323.002 199.146 323.147C199.264 323.289 199.408 323.391 199.576 323.455C199.745 323.514 199.941 323.544 200.164 323.544C200.501 323.544 200.804 323.485 201.073 323.366C201.347 323.243 201.579 323.077 201.771 322.867L202.536 324.029C202.404 324.202 202.222 324.376 201.989 324.549C201.757 324.722 201.479 324.863 201.155 324.973C200.832 325.082 200.458 325.137 200.034 325.137ZM205.646 321.664L207.485 317.604H209.331V325H207.438V320.953L205.605 325H203.753V317.604H205.646V321.664ZM207.547 314.603H208.955C208.955 315.004 208.857 315.357 208.661 315.662C208.47 315.963 208.196 316.2 207.841 316.373C207.49 316.546 207.073 316.633 206.59 316.633C205.861 316.633 205.284 316.444 204.86 316.065C204.437 315.687 204.225 315.2 204.225 314.603H205.619C205.619 314.84 205.692 315.049 205.838 315.231C205.984 315.414 206.234 315.505 206.59 315.505C206.941 315.505 207.187 315.414 207.328 315.231C207.474 315.049 207.547 314.84 207.547 314.603ZM214.909 317.604V319.196H211.915V317.604H214.909ZM216.338 317.604V325H214.424V317.604H216.338ZM211.443 317.604H213.33L213.146 321.356C213.123 321.885 213.073 322.352 212.995 322.758C212.918 323.163 212.813 323.51 212.681 323.797C212.553 324.079 212.4 324.31 212.223 324.487C212.045 324.665 211.842 324.795 211.614 324.877C211.386 324.959 211.136 325 210.862 325H210.295L210.274 323.394L210.493 323.366C210.607 323.353 210.707 323.312 210.794 323.243C210.885 323.175 210.963 323.075 211.026 322.942C211.09 322.81 211.14 322.642 211.177 322.437C211.218 322.231 211.25 321.99 211.272 321.712C211.295 321.434 211.313 321.115 211.327 320.755L211.443 317.604Z" fill="#052343"/>
<path d="M532.518 34.0469H534.274L536.305 40.8555L538.328 34.0469H539.88L537.05 44H535.553L532.518 34.0469ZM531.807 34.0469H533.481L533.741 40.6094V44H531.807V34.0469ZM539.114 34.0469H540.796V44H538.868V40.6094L539.114 34.0469ZM545.595 42.2979V38.8799C545.595 38.6566 545.567 38.4788 545.513 38.3467C545.463 38.2145 545.385 38.1188 545.28 38.0596C545.18 37.9958 545.057 37.9639 544.911 37.9639C544.747 37.9639 544.61 37.998 544.501 38.0664C544.392 38.1348 544.31 38.2327 544.255 38.3604C544.205 38.488 544.18 38.6406 544.18 38.8184H542.259C542.259 38.4993 542.32 38.1986 542.443 37.916C542.566 37.6289 542.746 37.3783 542.983 37.1641C543.225 36.9453 543.512 36.7744 543.845 36.6514C544.177 36.5283 544.551 36.4668 544.966 36.4668C545.458 36.4668 545.896 36.5511 546.278 36.7197C546.661 36.8838 546.964 37.1458 547.188 37.5059C547.411 37.8659 547.522 38.333 547.522 38.9072V42.2021C547.522 42.6169 547.543 42.9541 547.584 43.2139C547.63 43.4736 547.696 43.6969 547.782 43.8838V44H545.854C545.768 43.7949 545.702 43.5397 545.656 43.2344C545.615 42.9245 545.595 42.6123 545.595 42.2979ZM545.827 39.4814L545.834 40.6299H545.13C544.948 40.6299 544.788 40.6595 544.651 40.7188C544.519 40.778 544.408 40.8623 544.316 40.9717C544.225 41.0765 544.157 41.1995 544.111 41.3408C544.07 41.4821 544.05 41.6325 544.05 41.792C544.05 41.9697 544.075 42.1201 544.125 42.2432C544.175 42.3662 544.25 42.4596 544.351 42.5234C544.451 42.5872 544.569 42.6191 544.706 42.6191C544.916 42.6191 545.098 42.5758 545.253 42.4893C545.408 42.4027 545.522 42.2979 545.595 42.1748C545.672 42.0518 545.697 41.9378 545.67 41.833L546.107 42.5781C546.053 42.7467 545.978 42.9222 545.882 43.1045C545.791 43.2868 545.674 43.4554 545.533 43.6104C545.392 43.7653 545.216 43.8929 545.007 43.9932C544.802 44.0889 544.558 44.1367 544.275 44.1367C543.879 44.1367 543.517 44.0456 543.188 43.8633C542.86 43.681 542.601 43.4258 542.409 43.0977C542.222 42.7695 542.129 42.3799 542.129 41.9287C542.129 41.555 542.188 41.2178 542.307 40.917C542.43 40.6117 542.612 40.3542 542.854 40.1445C543.095 39.9303 543.4 39.7663 543.77 39.6523C544.139 39.5384 544.572 39.4814 545.068 39.4814H545.827ZM550.852 38.0254V46.8438H548.944V36.6035H550.708L550.852 38.0254ZM554.693 40.0488V40.541C554.693 41.1198 554.643 41.6325 554.543 42.0791C554.443 42.5212 554.292 42.8971 554.092 43.207C553.896 43.5124 553.65 43.7448 553.354 43.9043C553.057 44.0592 552.711 44.1367 552.314 44.1367C551.945 44.1367 551.626 44.0501 551.357 43.877C551.093 43.6992 550.87 43.4554 550.688 43.1455C550.505 42.8356 550.359 42.4733 550.25 42.0586C550.141 41.6439 550.056 41.1995 549.997 40.7256V39.96C550.052 39.4541 550.132 38.9893 550.236 38.5654C550.341 38.137 550.485 37.7656 550.667 37.4512C550.854 37.1367 551.079 36.8952 551.344 36.7266C551.613 36.5534 551.932 36.4668 552.301 36.4668C552.702 36.4668 553.05 36.5397 553.347 36.6855C553.647 36.8314 553.896 37.0524 554.092 37.3486C554.292 37.6403 554.443 38.0117 554.543 38.4629C554.643 38.9141 554.693 39.4427 554.693 40.0488ZM552.772 40.541V40.0488C552.772 39.6934 552.754 39.3903 552.718 39.1396C552.681 38.889 552.622 38.6839 552.54 38.5244C552.458 38.3649 552.351 38.2487 552.219 38.1758C552.087 38.1029 551.925 38.0664 551.733 38.0664C551.547 38.0664 551.382 38.1029 551.241 38.1758C551.104 38.2487 550.993 38.3558 550.906 38.4971C550.82 38.6338 550.754 38.8024 550.708 39.0029C550.662 39.1989 550.637 39.4222 550.633 39.6729V41.0127C550.642 41.3089 550.681 41.571 550.749 41.7988C550.822 42.0267 550.938 42.209 551.098 42.3457C551.257 42.4779 551.474 42.5439 551.747 42.5439C551.943 42.5439 552.105 42.5029 552.232 42.4209C552.365 42.3389 552.472 42.2158 552.554 42.0518C552.636 41.8877 552.693 41.6803 552.725 41.4297C552.757 41.179 552.772 40.8828 552.772 40.541ZM557.927 36.6035V44H556.006V36.6035H557.927ZM561.946 36.6035L559.267 41.2725H557.578L557.332 39.3789H558.392L559.533 36.6035H561.946ZM559.561 44L558.275 40.9033L559.943 39.9395L562.104 44H559.561ZM565.795 44.1367C565.289 44.1367 564.84 44.0592 564.448 43.9043C564.061 43.7493 563.733 43.526 563.464 43.2344C563.195 42.9382 562.99 42.5804 562.849 42.1611C562.707 41.7419 562.637 41.2633 562.637 40.7256V40.1172C562.637 39.5156 562.705 38.9893 562.842 38.5381C562.979 38.0824 563.172 37.6995 563.423 37.3896C563.674 37.0798 563.981 36.8496 564.346 36.6992C564.715 36.5443 565.132 36.4668 565.597 36.4668C566.062 36.4668 566.469 36.5443 566.82 36.6992C567.176 36.8496 567.47 37.0775 567.702 37.3828C567.935 37.6836 568.11 38.0573 568.229 38.5039C568.347 38.9505 568.406 39.4701 568.406 40.0625V40.9375H563.45V39.5908H566.526V39.4199C566.526 39.1191 566.494 38.8685 566.431 38.668C566.367 38.4629 566.267 38.3102 566.13 38.21C565.993 38.1097 565.811 38.0596 565.583 38.0596C565.392 38.0596 565.23 38.0983 565.098 38.1758C564.965 38.2533 564.861 38.374 564.783 38.5381C564.706 38.7021 564.649 38.9163 564.612 39.1807C564.576 39.4404 564.558 39.7526 564.558 40.1172V40.7256C564.558 41.0674 564.587 41.3545 564.646 41.5869C564.706 41.8148 564.792 42.0016 564.906 42.1475C565.025 42.2887 565.168 42.3913 565.337 42.4551C565.506 42.5143 565.701 42.5439 565.925 42.5439C566.262 42.5439 566.565 42.4847 566.834 42.3662C567.107 42.2432 567.34 42.0768 567.531 41.8672L568.297 43.0293C568.165 43.2025 567.982 43.3757 567.75 43.5488C567.518 43.722 567.24 43.8633 566.916 43.9727C566.592 44.082 566.219 44.1367 565.795 44.1367ZM572.843 36.6035V44H570.922V36.6035H572.843ZM574.743 36.6035V38.1826H569.028V36.6035H574.743ZM579.945 36.6035V38.1963H577.19V36.6035H579.945ZM577.71 36.6035V44H575.789V36.6035H577.71ZM581.367 36.6035V44H579.439V36.6035H581.367ZM586.945 36.6035V38.1963H583.951V36.6035H586.945ZM588.374 36.6035V44H586.46V36.6035H588.374ZM583.479 36.6035H585.366L585.182 40.3564C585.159 40.8851 585.109 41.3522 585.031 41.7578C584.954 42.1634 584.849 42.5098 584.717 42.7969C584.589 43.0794 584.437 43.3096 584.259 43.4873C584.081 43.665 583.878 43.7949 583.65 43.877C583.423 43.959 583.172 44 582.898 44H582.331L582.311 42.3936L582.529 42.3662C582.643 42.3525 582.743 42.3115 582.83 42.2432C582.921 42.1748 582.999 42.0745 583.062 41.9424C583.126 41.8102 583.176 41.6416 583.213 41.4365C583.254 41.2314 583.286 40.9899 583.309 40.7119C583.331 40.4339 583.35 40.1149 583.363 39.7549L583.479 36.6035ZM592.783 44.1367C592.277 44.1367 591.828 44.0592 591.437 43.9043C591.049 43.7493 590.721 43.526 590.452 43.2344C590.183 42.9382 589.978 42.5804 589.837 42.1611C589.696 41.7419 589.625 41.2633 589.625 40.7256V40.1172C589.625 39.5156 589.693 38.9893 589.83 38.5381C589.967 38.0824 590.16 37.6995 590.411 37.3896C590.662 37.0798 590.969 36.8496 591.334 36.6992C591.703 36.5443 592.12 36.4668 592.585 36.4668C593.05 36.4668 593.458 36.5443 593.809 36.6992C594.164 36.8496 594.458 37.0775 594.69 37.3828C594.923 37.6836 595.098 38.0573 595.217 38.5039C595.335 38.9505 595.395 39.4701 595.395 40.0625V40.9375H590.438V39.5908H593.515V39.4199C593.515 39.1191 593.483 38.8685 593.419 38.668C593.355 38.4629 593.255 38.3102 593.118 38.21C592.981 38.1097 592.799 38.0596 592.571 38.0596C592.38 38.0596 592.218 38.0983 592.086 38.1758C591.954 38.2533 591.849 38.374 591.771 38.5381C591.694 38.7021 591.637 38.9163 591.601 39.1807C591.564 39.4404 591.546 39.7526 591.546 40.1172V40.7256C591.546 41.0674 591.576 41.3545 591.635 41.5869C591.694 41.8148 591.781 42.0016 591.895 42.1475C592.013 42.2887 592.157 42.3913 592.325 42.4551C592.494 42.5143 592.69 42.5439 592.913 42.5439C593.25 42.5439 593.553 42.4847 593.822 42.3662C594.096 42.2432 594.328 42.0768 594.52 41.8672L595.285 43.0293C595.153 43.2025 594.971 43.3757 594.738 43.5488C594.506 43.722 594.228 43.8633 593.904 43.9727C593.581 44.082 593.207 44.1367 592.783 44.1367ZM598.396 40.6641L600.234 36.6035H602.08V44H600.187V39.9531L598.354 44H596.502V36.6035H598.396V40.6641ZM600.296 33.6025H601.704C601.704 34.0036 601.606 34.3568 601.41 34.6621C601.219 34.9629 600.945 35.1999 600.59 35.373C600.239 35.5462 599.822 35.6328 599.339 35.6328C598.61 35.6328 598.033 35.4437 597.609 35.0654C597.186 34.6872 596.974 34.1995 596.974 33.6025H598.368C598.368 33.8395 598.441 34.0492 598.587 34.2314C598.733 34.4137 598.983 34.5049 599.339 34.5049C599.69 34.5049 599.936 34.4137 600.077 34.2314C600.223 34.0492 600.296 33.8395 600.296 33.6025ZM606.175 42.5439C606.353 42.5439 606.505 42.5075 606.633 42.4346C606.765 42.3617 606.865 42.2432 606.934 42.0791C607.002 41.915 607.038 41.7031 607.043 41.4434H608.841C608.841 41.9993 608.722 42.4801 608.485 42.8857C608.253 43.2868 607.938 43.5967 607.542 43.8154C607.15 44.0296 606.706 44.1367 606.209 44.1367C605.712 44.1367 605.279 44.057 604.91 43.8975C604.541 43.738 604.236 43.5055 603.994 43.2002C603.757 42.8949 603.577 42.5234 603.454 42.0859C603.336 41.6439 603.276 41.138 603.276 40.5684V40.0283C603.276 39.4678 603.336 38.9665 603.454 38.5244C603.577 38.0824 603.757 37.7087 603.994 37.4033C604.236 37.098 604.539 36.8656 604.903 36.7061C605.272 36.5465 605.705 36.4668 606.202 36.4668C606.735 36.4668 607.198 36.5785 607.59 36.8018C607.982 37.0205 608.287 37.3441 608.506 37.7725C608.729 38.2008 608.841 38.7295 608.841 39.3584H607.043C607.038 39.0758 607.004 38.8411 606.94 38.6543C606.881 38.4629 606.788 38.3171 606.66 38.2168C606.537 38.112 606.373 38.0596 606.168 38.0596C605.954 38.0596 605.781 38.1051 605.648 38.1963C605.521 38.2829 605.423 38.4105 605.354 38.5791C605.291 38.7432 605.247 38.9482 605.225 39.1943C605.202 39.4404 605.19 39.7184 605.19 40.0283V40.5684C605.19 40.901 605.2 41.1904 605.218 41.4365C605.241 41.6781 605.284 41.8831 605.348 42.0518C605.416 42.2158 605.514 42.3389 605.642 42.4209C605.774 42.5029 605.951 42.5439 606.175 42.5439ZM611.288 38.7637H613.011C613.594 38.7637 614.091 38.8753 614.501 39.0986C614.916 39.3174 615.23 39.625 615.444 40.0215C615.663 40.418 615.772 40.876 615.772 41.3955C615.772 41.7738 615.709 42.1224 615.581 42.4414C615.458 42.7559 615.278 43.0316 615.041 43.2686C614.809 43.501 614.521 43.681 614.18 43.8086C613.838 43.9362 613.448 44 613.011 44H610.064V36.6035H611.992V42.4141H613.011C613.216 42.4141 613.38 42.3662 613.503 42.2705C613.631 42.1748 613.722 42.0518 613.776 41.9014C613.836 41.7464 613.865 41.5778 613.865 41.3955C613.865 41.2041 613.836 41.0309 613.776 40.876C613.722 40.7165 613.631 40.5911 613.503 40.5C613.38 40.4043 613.216 40.3564 613.011 40.3564H611.288V38.7637ZM618.541 36.6035V44H616.627V36.6035H618.541ZM625.507 34.0469V44H623.504V34.0469H625.507ZM628.624 38.2783V39.9326H625.001V38.2783H628.624ZM629.007 34.0469V35.708H625.001V34.0469H629.007ZM633.539 39.6592H631.495L631.488 38.21H633.225C633.498 38.21 633.721 38.1644 633.895 38.0732C634.072 37.9775 634.202 37.8385 634.284 37.6562C634.371 37.4694 634.414 37.2415 634.414 36.9727C634.414 36.6719 634.373 36.4303 634.291 36.248C634.214 36.0612 634.088 35.9245 633.915 35.8379C633.746 35.7513 633.523 35.708 633.245 35.708H632.179V44H630.176V34.0469H633.245C633.742 34.0469 634.186 34.1016 634.578 34.2109C634.97 34.3203 635.3 34.4867 635.569 34.71C635.843 34.9333 636.052 35.2158 636.198 35.5576C636.344 35.8994 636.417 36.3027 636.417 36.7676C636.417 37.1777 636.335 37.556 636.171 37.9023C636.007 38.2487 635.749 38.5335 635.398 38.7568C635.052 38.9756 634.599 39.0964 634.038 39.1191L633.539 39.6592ZM633.464 44H630.928L631.728 42.3457H633.464C633.733 42.3457 633.947 42.2887 634.106 42.1748C634.266 42.0609 634.382 41.9082 634.455 41.7168C634.533 41.5208 634.571 41.2975 634.571 41.0469C634.571 40.7643 634.537 40.5182 634.469 40.3086C634.405 40.099 634.298 39.9395 634.147 39.8301C633.997 39.7161 633.794 39.6592 633.539 39.6592H631.816L631.83 38.21H633.922L634.394 38.7842C634.927 38.766 635.353 38.8685 635.672 39.0918C635.991 39.3105 636.219 39.5977 636.355 39.9531C636.497 40.304 636.567 40.6777 636.567 41.0742C636.567 41.7122 636.447 42.25 636.205 42.6875C635.968 43.1204 635.619 43.4486 635.159 43.6719C634.699 43.8906 634.134 44 633.464 44ZM642.248 41.3818C642.248 41.2041 642.232 41.0423 642.2 40.8965C642.168 40.7507 642.1 40.6162 641.995 40.4932C641.895 40.3701 641.747 40.2471 641.551 40.124C641.359 40.001 641.109 39.8734 640.799 39.7412C640.43 39.5863 640.072 39.4222 639.726 39.249C639.379 39.0713 639.067 38.8662 638.789 38.6338C638.511 38.4014 638.29 38.1279 638.126 37.8135C637.966 37.4945 637.887 37.1208 637.887 36.6924C637.887 36.2731 637.962 35.8926 638.112 35.5508C638.267 35.209 638.486 34.9173 638.769 34.6758C639.051 34.4297 639.382 34.2406 639.76 34.1084C640.143 33.9762 640.569 33.9102 641.038 33.9102C641.676 33.9102 642.228 34.0423 642.692 34.3066C643.162 34.571 643.524 34.9333 643.779 35.3936C644.039 35.8538 644.169 36.3825 644.169 36.9795H642.173C642.173 36.6969 642.132 36.4486 642.05 36.2344C641.972 36.0156 641.847 35.8447 641.674 35.7217C641.501 35.5986 641.277 35.5371 641.004 35.5371C640.749 35.5371 640.537 35.5895 640.368 35.6943C640.204 35.7946 640.081 35.9336 639.999 36.1113C639.922 36.2845 639.883 36.4805 639.883 36.6992C639.883 36.8633 639.922 37.0114 639.999 37.1436C640.081 37.2712 640.193 37.3874 640.334 37.4922C640.475 37.5924 640.642 37.6904 640.833 37.7861C641.029 37.8818 641.243 37.9753 641.476 38.0664C641.927 38.2441 642.326 38.4401 642.672 38.6543C643.018 38.8639 643.308 39.1009 643.54 39.3652C643.772 39.625 643.948 39.9189 644.066 40.2471C644.185 40.5752 644.244 40.9489 644.244 41.3682C644.244 41.7829 644.171 42.1611 644.025 42.5029C643.884 42.8402 643.677 43.1318 643.403 43.3779C643.13 43.6195 642.799 43.8063 642.412 43.9385C642.029 44.0706 641.601 44.1367 641.127 44.1367C640.667 44.1367 640.231 44.0729 639.821 43.9453C639.411 43.8132 639.049 43.6149 638.734 43.3506C638.424 43.0817 638.181 42.7422 638.003 42.332C637.825 41.9173 637.736 41.4274 637.736 40.8623H639.739C639.739 41.1631 639.769 41.4206 639.828 41.6348C639.887 41.8444 639.979 42.013 640.102 42.1406C640.225 42.2637 640.375 42.3571 640.553 42.4209C640.735 42.4801 640.942 42.5098 641.175 42.5098C641.439 42.5098 641.649 42.4596 641.804 42.3594C641.963 42.2591 642.077 42.1247 642.146 41.9561C642.214 41.7874 642.248 41.596 642.248 41.3818Z" fill="#EF3D33"/>
<path d="M585.518 199.047H587.274L589.305 205.855L591.328 199.047H592.88L590.05 209H588.553L585.518 199.047ZM584.807 199.047H586.481L586.741 205.609V209H584.807V199.047ZM592.114 199.047H593.796V209H591.868V205.609L592.114 199.047ZM598.595 207.298V203.88C598.595 203.657 598.567 203.479 598.513 203.347C598.463 203.215 598.385 203.119 598.28 203.06C598.18 202.996 598.057 202.964 597.911 202.964C597.747 202.964 597.61 202.998 597.501 203.066C597.392 203.135 597.31 203.233 597.255 203.36C597.205 203.488 597.18 203.641 597.18 203.818H595.259C595.259 203.499 595.32 203.199 595.443 202.916C595.566 202.629 595.746 202.378 595.983 202.164C596.225 201.945 596.512 201.774 596.845 201.651C597.177 201.528 597.551 201.467 597.966 201.467C598.458 201.467 598.896 201.551 599.278 201.72C599.661 201.884 599.964 202.146 600.188 202.506C600.411 202.866 600.522 203.333 600.522 203.907V207.202C600.522 207.617 600.543 207.954 600.584 208.214C600.63 208.474 600.696 208.697 600.782 208.884V209H598.854C598.768 208.795 598.702 208.54 598.656 208.234C598.615 207.924 598.595 207.612 598.595 207.298ZM598.827 204.481L598.834 205.63H598.13C597.948 205.63 597.788 205.66 597.651 205.719C597.519 205.778 597.408 205.862 597.316 205.972C597.225 206.076 597.157 206.2 597.111 206.341C597.07 206.482 597.05 206.632 597.05 206.792C597.05 206.97 597.075 207.12 597.125 207.243C597.175 207.366 597.25 207.46 597.351 207.523C597.451 207.587 597.569 207.619 597.706 207.619C597.916 207.619 598.098 207.576 598.253 207.489C598.408 207.403 598.522 207.298 598.595 207.175C598.672 207.052 598.697 206.938 598.67 206.833L599.107 207.578C599.053 207.747 598.978 207.922 598.882 208.104C598.791 208.287 598.674 208.455 598.533 208.61C598.392 208.765 598.216 208.893 598.007 208.993C597.802 209.089 597.558 209.137 597.275 209.137C596.879 209.137 596.517 209.046 596.188 208.863C595.86 208.681 595.601 208.426 595.409 208.098C595.222 207.77 595.129 207.38 595.129 206.929C595.129 206.555 595.188 206.218 595.307 205.917C595.43 205.612 595.612 205.354 595.854 205.145C596.095 204.93 596.4 204.766 596.77 204.652C597.139 204.538 597.572 204.481 598.068 204.481H598.827ZM603.852 203.025V211.844H601.944V201.604H603.708L603.852 203.025ZM607.693 205.049V205.541C607.693 206.12 607.643 206.632 607.543 207.079C607.443 207.521 607.292 207.897 607.092 208.207C606.896 208.512 606.65 208.745 606.354 208.904C606.057 209.059 605.711 209.137 605.314 209.137C604.945 209.137 604.626 209.05 604.357 208.877C604.093 208.699 603.87 208.455 603.688 208.146C603.505 207.836 603.359 207.473 603.25 207.059C603.141 206.644 603.056 206.2 602.997 205.726V204.96C603.052 204.454 603.132 203.989 603.236 203.565C603.341 203.137 603.485 202.766 603.667 202.451C603.854 202.137 604.079 201.895 604.344 201.727C604.613 201.553 604.932 201.467 605.301 201.467C605.702 201.467 606.05 201.54 606.347 201.686C606.647 201.831 606.896 202.052 607.092 202.349C607.292 202.64 607.443 203.012 607.543 203.463C607.643 203.914 607.693 204.443 607.693 205.049ZM605.772 205.541V205.049C605.772 204.693 605.754 204.39 605.718 204.14C605.681 203.889 605.622 203.684 605.54 203.524C605.458 203.365 605.351 203.249 605.219 203.176C605.087 203.103 604.925 203.066 604.733 203.066C604.547 203.066 604.382 203.103 604.241 203.176C604.104 203.249 603.993 203.356 603.906 203.497C603.82 203.634 603.754 203.802 603.708 204.003C603.662 204.199 603.637 204.422 603.633 204.673V206.013C603.642 206.309 603.681 206.571 603.749 206.799C603.822 207.027 603.938 207.209 604.098 207.346C604.257 207.478 604.474 207.544 604.747 207.544C604.943 207.544 605.105 207.503 605.232 207.421C605.365 207.339 605.472 207.216 605.554 207.052C605.636 206.888 605.693 206.68 605.725 206.43C605.757 206.179 605.772 205.883 605.772 205.541ZM610.927 201.604V209H609.006V201.604H610.927ZM614.946 201.604L612.267 206.272H610.578L610.332 204.379H611.392L612.533 201.604H614.946ZM612.561 209L611.275 205.903L612.943 204.939L615.104 209H612.561ZM618.795 209.137C618.289 209.137 617.84 209.059 617.448 208.904C617.061 208.749 616.733 208.526 616.464 208.234C616.195 207.938 615.99 207.58 615.849 207.161C615.707 206.742 615.637 206.263 615.637 205.726V205.117C615.637 204.516 615.705 203.989 615.842 203.538C615.979 203.082 616.172 202.7 616.423 202.39C616.674 202.08 616.981 201.85 617.346 201.699C617.715 201.544 618.132 201.467 618.597 201.467C619.062 201.467 619.469 201.544 619.82 201.699C620.176 201.85 620.47 202.077 620.702 202.383C620.935 202.684 621.11 203.057 621.229 203.504C621.347 203.951 621.406 204.47 621.406 205.062V205.938H616.45V204.591H619.526V204.42C619.526 204.119 619.494 203.868 619.431 203.668C619.367 203.463 619.267 203.31 619.13 203.21C618.993 203.11 618.811 203.06 618.583 203.06C618.392 203.06 618.23 203.098 618.098 203.176C617.965 203.253 617.861 203.374 617.783 203.538C617.706 203.702 617.649 203.916 617.612 204.181C617.576 204.44 617.558 204.753 617.558 205.117V205.726C617.558 206.067 617.587 206.354 617.646 206.587C617.706 206.815 617.792 207.002 617.906 207.147C618.025 207.289 618.168 207.391 618.337 207.455C618.506 207.514 618.701 207.544 618.925 207.544C619.262 207.544 619.565 207.485 619.834 207.366C620.107 207.243 620.34 207.077 620.531 206.867L621.297 208.029C621.165 208.202 620.982 208.376 620.75 208.549C620.518 208.722 620.24 208.863 619.916 208.973C619.592 209.082 619.219 209.137 618.795 209.137ZM625.843 201.604V209H623.922V201.604H625.843ZM627.743 201.604V203.183H622.028V201.604H627.743ZM632.945 201.604V203.196H630.19V201.604H632.945ZM630.71 201.604V209H628.789V201.604H630.71ZM634.367 201.604V209H632.439V201.604H634.367ZM639.945 201.604V203.196H636.951V201.604H639.945ZM641.374 201.604V209H639.46V201.604H641.374ZM636.479 201.604H638.366L638.182 205.356C638.159 205.885 638.109 206.352 638.031 206.758C637.954 207.163 637.849 207.51 637.717 207.797C637.589 208.079 637.437 208.31 637.259 208.487C637.081 208.665 636.878 208.795 636.65 208.877C636.423 208.959 636.172 209 635.898 209H635.331L635.311 207.394L635.529 207.366C635.643 207.353 635.743 207.312 635.83 207.243C635.921 207.175 635.999 207.075 636.062 206.942C636.126 206.81 636.176 206.642 636.213 206.437C636.254 206.231 636.286 205.99 636.309 205.712C636.331 205.434 636.35 205.115 636.363 204.755L636.479 201.604ZM645.783 209.137C645.277 209.137 644.828 209.059 644.437 208.904C644.049 208.749 643.721 208.526 643.452 208.234C643.183 207.938 642.978 207.58 642.837 207.161C642.696 206.742 642.625 206.263 642.625 205.726V205.117C642.625 204.516 642.693 203.989 642.83 203.538C642.967 203.082 643.16 202.7 643.411 202.39C643.662 202.08 643.969 201.85 644.334 201.699C644.703 201.544 645.12 201.467 645.585 201.467C646.05 201.467 646.458 201.544 646.809 201.699C647.164 201.85 647.458 202.077 647.69 202.383C647.923 202.684 648.098 203.057 648.217 203.504C648.335 203.951 648.395 204.47 648.395 205.062V205.938H643.438V204.591H646.515V204.42C646.515 204.119 646.483 203.868 646.419 203.668C646.355 203.463 646.255 203.31 646.118 203.21C645.981 203.11 645.799 203.06 645.571 203.06C645.38 203.06 645.218 203.098 645.086 203.176C644.954 203.253 644.849 203.374 644.771 203.538C644.694 203.702 644.637 203.916 644.601 204.181C644.564 204.44 644.546 204.753 644.546 205.117V205.726C644.546 206.067 644.576 206.354 644.635 206.587C644.694 206.815 644.781 207.002 644.895 207.147C645.013 207.289 645.157 207.391 645.325 207.455C645.494 207.514 645.69 207.544 645.913 207.544C646.25 207.544 646.553 207.485 646.822 207.366C647.096 207.243 647.328 207.077 647.52 206.867L648.285 208.029C648.153 208.202 647.971 208.376 647.738 208.549C647.506 208.722 647.228 208.863 646.904 208.973C646.581 209.082 646.207 209.137 645.783 209.137ZM651.396 205.664L653.234 201.604H655.08V209H653.187V204.953L651.354 209H649.502V201.604H651.396V205.664ZM653.296 198.603H654.704C654.704 199.004 654.606 199.357 654.41 199.662C654.219 199.963 653.945 200.2 653.59 200.373C653.239 200.546 652.822 200.633 652.339 200.633C651.61 200.633 651.033 200.444 650.609 200.065C650.186 199.687 649.974 199.2 649.974 198.603H651.368C651.368 198.84 651.441 199.049 651.587 199.231C651.733 199.414 651.983 199.505 652.339 199.505C652.69 199.505 652.936 199.414 653.077 199.231C653.223 199.049 653.296 198.84 653.296 198.603ZM659.175 207.544C659.353 207.544 659.505 207.507 659.633 207.435C659.765 207.362 659.865 207.243 659.934 207.079C660.002 206.915 660.038 206.703 660.043 206.443H661.841C661.841 206.999 661.722 207.48 661.485 207.886C661.253 208.287 660.938 208.597 660.542 208.815C660.15 209.03 659.706 209.137 659.209 209.137C658.712 209.137 658.279 209.057 657.91 208.897C657.541 208.738 657.236 208.506 656.994 208.2C656.757 207.895 656.577 207.523 656.454 207.086C656.336 206.644 656.276 206.138 656.276 205.568V205.028C656.276 204.468 656.336 203.966 656.454 203.524C656.577 203.082 656.757 202.709 656.994 202.403C657.236 202.098 657.539 201.866 657.903 201.706C658.272 201.547 658.705 201.467 659.202 201.467C659.735 201.467 660.198 201.578 660.59 201.802C660.982 202.021 661.287 202.344 661.506 202.772C661.729 203.201 661.841 203.729 661.841 204.358H660.043C660.038 204.076 660.004 203.841 659.94 203.654C659.881 203.463 659.788 203.317 659.66 203.217C659.537 203.112 659.373 203.06 659.168 203.06C658.954 203.06 658.781 203.105 658.648 203.196C658.521 203.283 658.423 203.41 658.354 203.579C658.291 203.743 658.247 203.948 658.225 204.194C658.202 204.44 658.19 204.718 658.19 205.028V205.568C658.19 205.901 658.2 206.19 658.218 206.437C658.241 206.678 658.284 206.883 658.348 207.052C658.416 207.216 658.514 207.339 658.642 207.421C658.774 207.503 658.951 207.544 659.175 207.544ZM664.288 203.764H666.011C666.594 203.764 667.091 203.875 667.501 204.099C667.916 204.317 668.23 204.625 668.444 205.021C668.663 205.418 668.772 205.876 668.772 206.396C668.772 206.774 668.709 207.122 668.581 207.441C668.458 207.756 668.278 208.032 668.041 208.269C667.809 208.501 667.521 208.681 667.18 208.809C666.838 208.936 666.448 209 666.011 209H663.064V201.604H664.992V207.414H666.011C666.216 207.414 666.38 207.366 666.503 207.271C666.631 207.175 666.722 207.052 666.776 206.901C666.836 206.746 666.865 206.578 666.865 206.396C666.865 206.204 666.836 206.031 666.776 205.876C666.722 205.716 666.631 205.591 666.503 205.5C666.38 205.404 666.216 205.356 666.011 205.356H664.288V203.764ZM671.541 201.604V209H669.627V201.604H671.541ZM586.81 213.047V223H584.807V213.047H586.81ZM589.927 217.278V218.933H586.304V217.278H589.927ZM590.31 213.047V214.708H586.304V213.047H590.31ZM594.842 218.659H592.798L592.791 217.21H594.527C594.801 217.21 595.024 217.164 595.197 217.073C595.375 216.978 595.505 216.839 595.587 216.656C595.674 216.469 595.717 216.242 595.717 215.973C595.717 215.672 595.676 215.43 595.594 215.248C595.516 215.061 595.391 214.924 595.218 214.838C595.049 214.751 594.826 214.708 594.548 214.708H593.481V223H591.479V213.047H594.548C595.045 213.047 595.489 213.102 595.881 213.211C596.273 213.32 596.603 213.487 596.872 213.71C597.146 213.933 597.355 214.216 597.501 214.558C597.647 214.899 597.72 215.303 597.72 215.768C597.72 216.178 597.638 216.556 597.474 216.902C597.31 217.249 597.052 217.534 596.701 217.757C596.355 217.976 595.901 218.096 595.341 218.119L594.842 218.659ZM594.767 223H592.23L593.03 221.346H594.767C595.035 221.346 595.25 221.289 595.409 221.175C595.569 221.061 595.685 220.908 595.758 220.717C595.835 220.521 595.874 220.298 595.874 220.047C595.874 219.764 595.84 219.518 595.771 219.309C595.708 219.099 595.601 218.939 595.45 218.83C595.3 218.716 595.097 218.659 594.842 218.659H593.119L593.133 217.21H595.225L595.696 217.784C596.229 217.766 596.656 217.868 596.975 218.092C597.294 218.311 597.521 218.598 597.658 218.953C597.799 219.304 597.87 219.678 597.87 220.074C597.87 220.712 597.749 221.25 597.508 221.688C597.271 222.12 596.922 222.449 596.462 222.672C596.002 222.891 595.437 223 594.767 223ZM606.333 217.251V218.912C606.333 219.614 606.246 220.229 606.073 220.758C605.905 221.282 605.663 221.722 605.349 222.077C605.039 222.428 604.663 222.692 604.221 222.87C603.783 223.048 603.298 223.137 602.765 223.137C602.231 223.137 601.744 223.048 601.302 222.87C600.864 222.692 600.486 222.428 600.167 222.077C599.853 221.722 599.609 221.282 599.436 220.758C599.262 220.229 599.176 219.614 599.176 218.912V217.251C599.176 216.531 599.26 215.902 599.429 215.364C599.597 214.822 599.841 214.371 600.16 214.011C600.479 213.646 600.857 213.373 601.295 213.19C601.732 213.004 602.218 212.91 602.751 212.91C603.284 212.91 603.77 213.004 604.207 213.19C604.645 213.373 605.023 213.646 605.342 214.011C605.661 214.371 605.905 214.822 606.073 215.364C606.246 215.902 606.333 216.531 606.333 217.251ZM604.344 218.912V217.237C604.344 216.763 604.31 216.36 604.241 216.027C604.173 215.69 604.07 215.414 603.934 215.2C603.797 214.986 603.631 214.829 603.435 214.729C603.239 214.628 603.011 214.578 602.751 214.578C602.491 214.578 602.261 214.628 602.061 214.729C601.865 214.829 601.698 214.986 601.562 215.2C601.429 215.414 601.329 215.69 601.261 216.027C601.197 216.36 601.165 216.763 601.165 217.237V218.912C601.165 219.368 601.199 219.757 601.268 220.081C601.336 220.405 601.438 220.669 601.575 220.874C601.712 221.079 601.878 221.232 602.074 221.332C602.275 221.428 602.505 221.476 602.765 221.476C603.02 221.476 603.245 221.428 603.441 221.332C603.642 221.232 603.808 221.079 603.94 220.874C604.073 220.669 604.173 220.405 604.241 220.081C604.31 219.757 604.344 219.368 604.344 218.912Z" fill="#ED1C24"/>
<path d="M401.142 324.343L404.252 318.047H406.152V328H404.218V321.779L401.135 328H399.2V318.047H401.142V324.343ZM411.915 323.57V325.156H408.962V323.57H411.915ZM409.584 320.604V328H407.663V320.604H409.584ZM413.221 320.604V328H411.307V320.604H413.221ZM418.061 320.604V328H416.14V320.604H418.061ZM419.961 320.604V322.183H414.246V320.604H419.961ZM423.55 328.137C423.044 328.137 422.595 328.059 422.203 327.904C421.816 327.749 421.488 327.526 421.219 327.234C420.95 326.938 420.745 326.58 420.604 326.161C420.462 325.742 420.392 325.263 420.392 324.726V324.117C420.392 323.516 420.46 322.989 420.597 322.538C420.733 322.082 420.927 321.7 421.178 321.39C421.428 321.08 421.736 320.85 422.101 320.699C422.47 320.544 422.887 320.467 423.352 320.467C423.816 320.467 424.224 320.544 424.575 320.699C424.931 320.85 425.225 321.077 425.457 321.383C425.689 321.684 425.865 322.057 425.983 322.504C426.102 322.951 426.161 323.47 426.161 324.062V324.938H421.205V323.591H424.281V323.42C424.281 323.119 424.249 322.868 424.186 322.668C424.122 322.463 424.021 322.31 423.885 322.21C423.748 322.11 423.566 322.06 423.338 322.06C423.146 322.06 422.985 322.098 422.853 322.176C422.72 322.253 422.616 322.374 422.538 322.538C422.461 322.702 422.404 322.916 422.367 323.181C422.331 323.44 422.312 323.753 422.312 324.117V324.726C422.312 325.067 422.342 325.354 422.401 325.587C422.461 325.815 422.547 326.002 422.661 326.147C422.78 326.289 422.923 326.391 423.092 326.455C423.26 326.514 423.456 326.544 423.68 326.544C424.017 326.544 424.32 326.485 424.589 326.366C424.862 326.243 425.095 326.077 425.286 325.867L426.052 327.029C425.92 327.202 425.737 327.376 425.505 327.549C425.272 327.722 424.994 327.863 424.671 327.973C424.347 328.082 423.974 328.137 423.55 328.137ZM429.183 322.025V330.844H427.275V320.604H429.039L429.183 322.025ZM433.024 324.049V324.541C433.024 325.12 432.974 325.632 432.874 326.079C432.774 326.521 432.623 326.897 432.423 327.207C432.227 327.512 431.981 327.745 431.685 327.904C431.388 328.059 431.042 328.137 430.646 328.137C430.276 328.137 429.957 328.05 429.688 327.877C429.424 327.699 429.201 327.455 429.019 327.146C428.836 326.836 428.69 326.473 428.581 326.059C428.472 325.644 428.387 325.2 428.328 324.726V323.96C428.383 323.454 428.463 322.989 428.567 322.565C428.672 322.137 428.816 321.766 428.998 321.451C429.185 321.137 429.41 320.895 429.675 320.727C429.944 320.553 430.263 320.467 430.632 320.467C431.033 320.467 431.382 320.54 431.678 320.686C431.979 320.831 432.227 321.052 432.423 321.349C432.623 321.64 432.774 322.012 432.874 322.463C432.974 322.914 433.024 323.443 433.024 324.049ZM431.104 324.541V324.049C431.104 323.693 431.085 323.39 431.049 323.14C431.012 322.889 430.953 322.684 430.871 322.524C430.789 322.365 430.682 322.249 430.55 322.176C430.418 322.103 430.256 322.066 430.064 322.066C429.878 322.066 429.714 322.103 429.572 322.176C429.436 322.249 429.324 322.356 429.237 322.497C429.151 322.634 429.085 322.802 429.039 323.003C428.993 323.199 428.968 323.422 428.964 323.673V325.013C428.973 325.309 429.012 325.571 429.08 325.799C429.153 326.027 429.269 326.209 429.429 326.346C429.588 326.478 429.805 326.544 430.078 326.544C430.274 326.544 430.436 326.503 430.563 326.421C430.696 326.339 430.803 326.216 430.885 326.052C430.967 325.888 431.024 325.68 431.056 325.43C431.088 325.179 431.104 324.883 431.104 324.541ZM438.452 323.57V325.156H435.499V323.57H438.452ZM436.121 320.604V328H434.2V320.604H436.121ZM439.758 320.604V328H437.844V320.604H439.758ZM444.167 328.137C443.661 328.137 443.212 328.059 442.82 327.904C442.433 327.749 442.105 327.526 441.836 327.234C441.567 326.938 441.362 326.58 441.221 326.161C441.079 325.742 441.009 325.263 441.009 324.726V324.117C441.009 323.516 441.077 322.989 441.214 322.538C441.351 322.082 441.544 321.7 441.795 321.39C442.046 321.08 442.353 320.85 442.718 320.699C443.087 320.544 443.504 320.467 443.969 320.467C444.434 320.467 444.841 320.544 445.192 320.699C445.548 320.85 445.842 321.077 446.074 321.383C446.307 321.684 446.482 322.057 446.601 322.504C446.719 322.951 446.778 323.47 446.778 324.062V324.938H441.822V323.591H444.898V323.42C444.898 323.119 444.867 322.868 444.803 322.668C444.739 322.463 444.639 322.31 444.502 322.21C444.365 322.11 444.183 322.06 443.955 322.06C443.764 322.06 443.602 322.098 443.47 322.176C443.338 322.253 443.233 322.374 443.155 322.538C443.078 322.702 443.021 322.916 442.984 323.181C442.948 323.44 442.93 323.753 442.93 324.117V324.726C442.93 325.067 442.959 325.354 443.019 325.587C443.078 325.815 443.164 326.002 443.278 326.147C443.397 326.289 443.54 326.391 443.709 326.455C443.878 326.514 444.074 326.544 444.297 326.544C444.634 326.544 444.937 326.485 445.206 326.366C445.479 326.243 445.712 326.077 445.903 325.867L446.669 327.029C446.537 327.202 446.354 327.376 446.122 327.549C445.89 327.722 445.612 327.863 445.288 327.973C444.965 328.082 444.591 328.137 444.167 328.137ZM451.215 320.604V328H449.294V320.604H451.215ZM453.115 320.604V322.183H447.4V320.604H453.115ZM457.606 322.935V324.527H454.277V322.935H457.606ZM463.096 325.348L464.483 320.604H466.062L463.793 328H462.385L460.102 320.604H461.715L463.096 325.348ZM461.195 320.604V328H459.343V320.604H461.195ZM465.037 328V320.604H466.896V328H465.037ZM471.777 326.298V322.88C471.777 322.657 471.75 322.479 471.695 322.347C471.645 322.215 471.568 322.119 471.463 322.06C471.363 321.996 471.24 321.964 471.094 321.964C470.93 321.964 470.793 321.998 470.684 322.066C470.574 322.135 470.492 322.233 470.438 322.36C470.387 322.488 470.362 322.641 470.362 322.818H468.441C468.441 322.499 468.503 322.199 468.626 321.916C468.749 321.629 468.929 321.378 469.166 321.164C469.408 320.945 469.695 320.774 470.027 320.651C470.36 320.528 470.734 320.467 471.148 320.467C471.641 320.467 472.078 320.551 472.461 320.72C472.844 320.884 473.147 321.146 473.37 321.506C473.593 321.866 473.705 322.333 473.705 322.907V326.202C473.705 326.617 473.726 326.954 473.767 327.214C473.812 327.474 473.878 327.697 473.965 327.884V328H472.037C471.951 327.795 471.884 327.54 471.839 327.234C471.798 326.924 471.777 326.612 471.777 326.298ZM472.01 323.481L472.017 324.63H471.312C471.13 324.63 470.971 324.66 470.834 324.719C470.702 324.778 470.59 324.862 470.499 324.972C470.408 325.076 470.34 325.2 470.294 325.341C470.253 325.482 470.232 325.632 470.232 325.792C470.232 325.97 470.257 326.12 470.308 326.243C470.358 326.366 470.433 326.46 470.533 326.523C470.633 326.587 470.752 326.619 470.889 326.619C471.098 326.619 471.281 326.576 471.436 326.489C471.59 326.403 471.704 326.298 471.777 326.175C471.855 326.052 471.88 325.938 471.853 325.833L472.29 326.578C472.235 326.747 472.16 326.922 472.064 327.104C471.973 327.287 471.857 327.455 471.716 327.61C471.575 327.765 471.399 327.893 471.189 327.993C470.984 328.089 470.741 328.137 470.458 328.137C470.062 328.137 469.699 328.046 469.371 327.863C469.043 327.681 468.783 327.426 468.592 327.098C468.405 326.77 468.312 326.38 468.312 325.929C468.312 325.555 468.371 325.218 468.489 324.917C468.612 324.612 468.795 324.354 469.036 324.145C469.278 323.93 469.583 323.766 469.952 323.652C470.321 323.538 470.754 323.481 471.251 323.481H472.01ZM479.447 320.604V322.196H477.034V328H475.12V320.604H479.447ZM483.576 326.298V322.88C483.576 322.657 483.549 322.479 483.494 322.347C483.444 322.215 483.367 322.119 483.262 322.06C483.161 321.996 483.038 321.964 482.893 321.964C482.729 321.964 482.592 321.998 482.482 322.066C482.373 322.135 482.291 322.233 482.236 322.36C482.186 322.488 482.161 322.641 482.161 322.818H480.24C480.24 322.499 480.302 322.199 480.425 321.916C480.548 321.629 480.728 321.378 480.965 321.164C481.206 320.945 481.493 320.774 481.826 320.651C482.159 320.528 482.533 320.467 482.947 320.467C483.439 320.467 483.877 320.551 484.26 320.72C484.643 320.884 484.946 321.146 485.169 321.506C485.392 321.866 485.504 322.333 485.504 322.907V326.202C485.504 326.617 485.524 326.954 485.565 327.214C485.611 327.474 485.677 327.697 485.764 327.884V328H483.836C483.749 327.795 483.683 327.54 483.638 327.234C483.597 326.924 483.576 326.612 483.576 326.298ZM483.809 323.481L483.815 324.63H483.111C482.929 324.63 482.77 324.66 482.633 324.719C482.501 324.778 482.389 324.862 482.298 324.972C482.207 325.076 482.138 325.2 482.093 325.341C482.052 325.482 482.031 325.632 482.031 325.792C482.031 325.97 482.056 326.12 482.106 326.243C482.157 326.366 482.232 326.46 482.332 326.523C482.432 326.587 482.551 326.619 482.688 326.619C482.897 326.619 483.079 326.576 483.234 326.489C483.389 326.403 483.503 326.298 483.576 326.175C483.654 326.052 483.679 325.938 483.651 325.833L484.089 326.578C484.034 326.747 483.959 326.922 483.863 327.104C483.772 327.287 483.656 327.455 483.515 327.61C483.373 327.765 483.198 327.893 482.988 327.993C482.783 328.089 482.539 328.137 482.257 328.137C481.86 328.137 481.498 328.046 481.17 327.863C480.842 327.681 480.582 327.426 480.391 327.098C480.204 326.77 480.11 326.38 480.11 325.929C480.11 325.555 480.17 325.218 480.288 324.917C480.411 324.612 480.593 324.354 480.835 324.145C481.076 323.93 481.382 323.766 481.751 323.652C482.12 323.538 482.553 323.481 483.05 323.481H483.809ZM489.831 324.473H488.519V323.577H489.435C489.59 323.577 489.713 323.545 489.804 323.481C489.895 323.413 489.961 323.32 490.002 323.201C490.048 323.078 490.07 322.939 490.07 322.784C490.07 322.647 490.052 322.518 490.016 322.395C489.979 322.267 489.915 322.164 489.824 322.087C489.738 322.005 489.61 321.964 489.441 321.964C489.296 321.964 489.166 321.993 489.052 322.053C488.938 322.112 488.851 322.199 488.792 322.312C488.737 322.426 488.71 322.565 488.71 322.729H486.789C486.789 322.256 486.903 321.852 487.131 321.52C487.363 321.182 487.673 320.925 488.061 320.747C488.448 320.565 488.874 320.474 489.339 320.474C489.74 320.474 490.102 320.521 490.426 320.617C490.749 320.708 491.027 320.845 491.26 321.027C491.492 321.21 491.67 321.435 491.793 321.704C491.916 321.968 491.978 322.276 491.978 322.627C491.978 322.878 491.927 323.115 491.827 323.338C491.727 323.561 491.583 323.759 491.396 323.933C491.21 324.101 490.984 324.233 490.72 324.329C490.455 324.425 490.159 324.473 489.831 324.473ZM488.519 323.98H489.831C490.196 323.98 490.517 324.024 490.795 324.11C491.077 324.192 491.314 324.315 491.506 324.479C491.697 324.644 491.843 324.846 491.943 325.088C492.044 325.325 492.094 325.598 492.094 325.908C492.094 326.259 492.025 326.574 491.889 326.852C491.757 327.125 491.567 327.357 491.321 327.549C491.075 327.74 490.784 327.886 490.446 327.986C490.114 328.087 489.744 328.137 489.339 328.137C488.906 328.137 488.487 328.055 488.081 327.891C487.675 327.727 487.343 327.474 487.083 327.132C486.823 326.785 486.693 326.343 486.693 325.806H488.614C488.614 325.951 488.642 326.09 488.696 326.223C488.756 326.35 488.847 326.455 488.97 326.537C489.093 326.615 489.252 326.653 489.448 326.653C489.626 326.653 489.767 326.61 489.872 326.523C489.981 326.432 490.059 326.321 490.104 326.188C490.15 326.052 490.173 325.906 490.173 325.751C490.173 325.546 490.146 325.377 490.091 325.245C490.036 325.108 489.954 325.01 489.845 324.951C489.735 324.887 489.599 324.855 489.435 324.855H488.519V323.98ZM495.156 324.664L496.995 320.604H498.841V328H496.947V323.953L495.115 328H493.263V320.604H495.156V324.664ZM504.515 323.57V325.156H501.562V323.57H504.515ZM502.184 320.604V328H500.263V320.604H502.184ZM505.82 320.604V328H503.906V320.604H505.82Z" fill="#ED1C24"/>
<path d="M292.415 131.595C291.586 131.595 290.927 131.215 290.732 130.645C290.634 130.367 290.622 130.24 290.622 129.645V126.125H290V124.961H290.622C290.622 124.327 290.622 123.91 290.683 123.429L292.342 122.998C292.281 123.594 292.244 124.303 292.244 124.961H293.708L293.294 126.125H292.244V129.379C292.244 130.202 292.391 130.417 292.952 130.417C293.098 130.417 293.245 130.379 293.537 130.291L293.745 131.304C293.269 131.506 292.842 131.595 292.415 131.595Z" fill="#052343"/>
<path d="M298.594 127.609C298.594 127.153 298.54 126.912 298.377 126.684C298.2 126.444 297.942 126.324 297.575 126.324C296.882 126.324 296.488 126.805 296.488 127.657V127.681H298.594V127.609ZM296.461 128.857V128.905C296.461 129.854 296.991 130.394 297.929 130.394C298.554 130.394 299.138 130.19 299.695 129.782L300.401 130.743C299.6 131.319 298.757 131.595 297.779 131.595C295.782 131.595 294.491 130.346 294.491 128.413C294.491 127.308 294.749 126.576 295.361 125.976C295.931 125.412 296.624 125.147 297.548 125.147C298.35 125.147 299.111 125.388 299.559 125.796C300.198 126.372 300.483 127.201 300.483 128.485V128.857H296.461Z" fill="#052343"/>
<path d="M304.532 126.735C304.375 126.649 304.243 126.612 304.062 126.612C303.701 126.612 303.376 126.784 303.075 127.141V131.595H301.461V127.387C301.461 126.538 301.365 125.898 301.232 125.541L302.678 125.147C302.822 125.406 302.906 125.689 302.93 126.046C303.279 125.566 303.773 125.147 304.375 125.147C304.616 125.147 304.724 125.172 304.977 125.283L304.532 126.735Z" fill="#052343"/>
<path d="M312.229 131.595V127.412C312.229 126.657 312.135 126.509 311.667 126.509C311.333 126.509 310.864 126.719 310.476 127.041V131.595H308.778V127.474C308.778 126.682 308.658 126.496 308.163 126.496C307.828 126.496 307.374 126.657 306.986 126.979V131.595H305.234V127.177C305.234 126.261 305.167 125.865 304.979 125.556L306.598 125.147C306.718 125.321 306.772 125.469 306.838 125.791C307.307 125.37 307.882 125.147 308.511 125.147C309.072 125.147 309.541 125.321 309.901 125.667C309.995 125.754 310.089 125.865 310.169 125.976C310.798 125.383 311.359 125.147 312.108 125.147C312.643 125.147 313.152 125.296 313.459 125.544C313.847 125.853 313.967 126.224 313.967 127.09V131.595H312.229Z" fill="#052343"/>
<path d="M315.668 131.595V125.23L317.493 124.964V131.595H315.668ZM316.581 124.382C315.968 124.382 315.464 123.914 315.464 123.332C315.464 122.75 315.981 122.282 316.608 122.282C317.22 122.282 317.711 122.75 317.711 123.332C317.711 123.914 317.207 124.382 316.581 124.382Z" fill="#052343"/>
<path d="M322.064 131.595V127.505C322.064 126.793 321.94 126.584 321.505 126.584C321.169 126.584 320.734 126.805 320.35 127.149V131.595H318.685V127.039C318.685 126.499 318.61 125.983 318.461 125.565L319.94 125.147C320.088 125.405 320.176 125.676 320.176 125.933C320.424 125.762 320.635 125.614 320.908 125.467C321.244 125.295 321.679 125.197 322.052 125.197C322.76 125.197 323.381 125.565 323.58 126.106C323.667 126.339 323.704 126.609 323.704 127.002V131.595H322.064Z" fill="#052343"/>
<path d="M328.747 128.659C327.517 128.659 327.094 128.859 327.094 129.575C327.094 130.045 327.424 130.362 327.874 130.362C328.205 130.362 328.535 130.209 328.8 129.95L328.826 128.659H328.747ZM330.255 131.595C329.845 131.442 329.025 131.101 328.892 131.184C328.562 131.395 328.086 131.513 327.53 131.513C326.022 131.513 325.202 130.831 325.202 129.633C325.202 128.224 326.3 127.567 328.456 127.567C328.588 127.567 328.707 127.567 328.853 127.578V127.332C328.853 126.663 328.707 126.439 328.059 126.439C327.491 126.439 326.829 126.686 326.102 127.121L325.348 125.993C325.705 125.793 325.969 125.676 326.446 125.499C327.107 125.253 327.675 125.147 328.298 125.147C329.435 125.147 330.215 125.523 330.48 126.192C330.572 126.439 330.612 126.627 330.599 127.273L330.559 129.293C330.546 129.95 330.599 130.233 331.194 130.632L330.255 131.595Z" fill="#052343"/>
<path d="M331.943 122.998V131.57L333.441 131.595V122.998H331.943Z" fill="#052343"/>
<path d="M299.619 89L305.216 110.274H305.303L310.813 89H320.174V116H314.148V93.4247H314.104L308.293 116H301.925L296.285 93.4247H296.2V116H290.174V89H299.619Z" fill="#07529B"/>
<path d="M333.088 106.835C330.871 107.168 329.073 107.687 329.073 109.839C329.073 111.694 330.661 112.252 331.833 112.252C334.428 112.252 337.104 110.728 337.104 108.317V105.76C336.519 106.165 335.514 106.5 333.088 106.835ZM323.885 101.975C324.554 95.8537 329.323 95 333.924 95C337.104 95 342.877 95.8537 342.877 100.788V111.582C342.877 113.922 343.461 114.438 344.174 114.664V115.48H337.815C337.479 114.514 337.398 114.219 337.272 113.106C335.931 114.328 334.008 116 329.993 116C326.604 116 323.174 114.29 323.174 110.172C323.174 105.573 328.025 103.682 333.673 103.273C336.183 103.088 337.104 102.493 337.104 101.53C337.104 99.3043 334.719 99.1902 333.213 99.1902C330.244 99.1902 329.74 100.824 329.574 101.975H323.885Z" fill="#07529B"/>
<path d="M352.174 93.8391H346.074V89H352.174V93.8391ZM352.174 96.1627V118.093C352.174 123.297 349.362 124 343.174 124V119.826C345.466 119.826 346.074 119.606 346.074 117.98V96.1627H352.174Z" fill="#EF3D33"/>
<path d="M360.247 105.463C360.247 108.022 361.128 111.582 365.694 111.582C370.261 111.582 371.099 108.06 371.099 105.499C371.099 102.94 370.261 99.4137 365.694 99.4137C361.128 99.4137 360.247 102.902 360.247 105.463ZM377.174 105.463C377.174 112.659 371.726 116 365.694 116C359.661 116 354.174 112.697 354.174 105.499C354.174 98.303 359.661 95 365.694 95C371.726 95 377.174 98.2628 377.174 105.463Z" fill="#07529B"/>
<path d="M384.822 95.5072V98.8822H384.903C386.109 96.9236 387.44 95 391.011 95C391.301 95 391.926 95.0374 392.174 95.0723V100.299C391.634 100.224 391.011 100.189 390.472 100.189C385.903 100.189 385.03 102.62 385.03 104.799V115H379.174V95.5072H384.822Z" fill="#07529B"/>
<path fill-rule="evenodd" clip-rule="evenodd" d="M247.609 82.4994C247.294 82.4994 246.977 82.4287 246.685 82.2817L170.471 43.699C169.604 43.2595 169.316 42.2981 169.826 41.5518C170.337 40.8053 171.454 40.5564 172.322 40.9958L188.699 49.2861L230.785 28.2642L196.43 11.9159L221.206 0.194546C222.088 -0.222858 223.197 0.0533929 223.682 0.812565C224.167 1.5715 223.844 2.52563 222.962 2.94257L203.98 11.9239L238.179 28.1984L192.305 51.1124L248.536 79.579C249.403 80.0178 249.691 80.9792 249.181 81.7264C248.842 82.2237 248.233 82.4994 247.609 82.4994ZM111.227 196.053C110.921 196.053 110.612 195.987 110.327 195.847L62.9212 172.635C62.0466 172.207 61.7407 171.249 62.2393 170.496C62.7368 169.743 63.8507 169.48 64.7253 169.909L69.7998 172.393L148.072 133.379L187.826 153.77L256.914 119.721C257.788 119.289 258.902 119.55 259.402 120.303C259.904 121.054 259.601 122.013 258.727 122.442L187.787 157.404L148.045 137.017L73.469 174.189L112.131 193.121C113.006 193.549 113.311 194.506 112.813 195.259C112.477 195.768 111.861 196.053 111.227 196.053ZM248.703 298C248.389 298 248.072 297.931 247.782 297.784L179.956 263.592C179.087 263.155 178.797 262.195 179.305 261.447C179.814 260.7 180.932 260.449 181.799 260.887L210.027 275.115C210.097 275.07 210.171 275.027 210.25 274.989L306.661 228.337L225.462 187.618L260.15 169.306C261.007 168.855 262.13 169.085 262.657 169.824C263.183 170.562 262.914 171.528 262.057 171.981L232.563 187.549L314 228.386L213.651 276.943L249.625 295.078C250.495 295.516 250.787 296.477 250.276 297.224C249.937 297.722 249.328 298 248.703 298Z" fill="#014A97"/>
<path fill-rule="evenodd" clip-rule="evenodd" d="M434.391 82.4994C434.706 82.4994 435.023 82.4287 435.315 82.2817L511.529 43.699C512.396 43.2595 512.684 42.2981 512.174 41.5518C511.663 40.8053 510.546 40.5564 509.678 40.9958L493.301 49.2861L451.215 28.2642L485.57 11.9159L460.794 0.194546C459.912 -0.222858 458.803 0.0533929 458.318 0.812565C457.833 1.5715 458.156 2.52563 459.038 2.94257L478.02 11.9239L443.821 28.1984L489.695 51.1124L433.464 79.579C432.597 80.0178 432.309 80.9792 432.819 81.7264C433.158 82.2237 433.767 82.4994 434.391 82.4994ZM570.773 196.053C571.079 196.053 571.388 195.987 571.673 195.847L619.079 172.635C619.953 172.207 620.259 171.249 619.761 170.496C619.263 169.743 618.149 169.48 617.275 169.909L612.2 172.393L533.928 133.379L494.174 153.77L425.086 119.721C424.212 119.289 423.098 119.55 422.598 120.303C422.096 121.054 422.399 122.013 423.273 122.442L494.213 157.404L533.955 137.017L608.531 174.189L569.869 193.121C568.994 193.549 568.689 194.506 569.187 195.259C569.523 195.768 570.139 196.053 570.773 196.053ZM433.297 298C433.611 298 433.928 297.931 434.218 297.784L502.044 263.592C502.913 263.155 503.203 262.195 502.695 261.447C502.186 260.7 501.068 260.449 500.201 260.887L471.973 275.115C471.903 275.07 471.829 275.027 471.75 274.989L375.339 228.337L456.538 187.618L421.85 169.306C420.993 168.855 419.87 169.085 419.343 169.824C418.817 170.562 419.086 171.528 419.943 171.981L449.437 187.549L368 228.386L468.349 276.943L432.375 295.078C431.505 295.516 431.213 296.477 431.724 297.224C432.063 297.722 432.672 298 433.297 298Z" fill="#ED1C24"/>
</svg>
