<svg width="82" height="82" viewBox="0 0 82 82" fill="none" xmlns="http://www.w3.org/2000/svg">
<path d="M75.1668 41.0002C75.1668 57.1063 75.1668 65.1594 70.1614 70.1614C65.1628 75.1668 57.1063 75.1668 41.0002 75.1668C24.894 75.1668 16.8409 75.1668 11.8355 70.1614C6.8335 65.1628 6.8335 57.1063 6.8335 41.0002C6.8335 24.894 6.8335 16.8409 11.8355 11.8355C16.8443 6.8335 24.894 6.8335 41.0002 6.8335C57.1063 6.8335 65.1594 6.8335 70.1614 11.8355C73.4892 15.1633 74.6031 19.8407 74.9789 27.3335" stroke="white" stroke-width="4" stroke-linecap="round"/>
<path d="M49.8749 47C47.6448 47 45.4839 46.2256 43.7615 44.8091C42.039 43.3926 40.8619 41.4219 40.4312 39.2338C40.0005 37.0457 40.343 34.776 41.4002 32.8124C42.4573 30.8488 44.1635 29.3132 46.2273 28.468C48.291 27.6228 50.5842 27.5205 52.715 28.1785C54.8458 28.8365 56.6819 30.214 57.9098 32.0757C59.1376 33.9373 59.6809 36.1675 59.4468 38.3853C59.2128 40.6031 58.2158 42.6707 56.6264 44.235" stroke="white" stroke-width="1.5" stroke-linecap="round"/>
<path d="M49.875 54V47M49.875 54H55.125M49.875 54H44.625" stroke="white" stroke-width="1.5" stroke-linecap="round" stroke-linejoin="round"/>
<path d="M24.5 38.25V36.9375C24.1519 36.9375 23.8181 37.0758 23.5719 37.3219C23.3258 37.5681 23.1875 37.9019 23.1875 38.25H24.5ZM35 38.25H36.3125C36.3125 37.9019 36.1742 37.5681 35.9281 37.3219C35.6819 37.0758 35.3481 36.9375 35 36.9375V38.25ZM36.3125 48.75C36.3125 48.4019 36.1742 48.0681 35.9281 47.8219C35.6819 47.5758 35.3481 47.4375 35 47.4375C34.6519 47.4375 34.3181 47.5758 34.0719 47.8219C33.8258 48.0681 33.6875 48.4019 33.6875 48.75H36.3125ZM33.6875 41.75C33.6875 42.0981 33.8258 42.4319 34.0719 42.6781C34.3181 42.9242 34.6519 43.0625 35 43.0625C35.3481 43.0625 35.6819 42.9242 35.9281 42.6781C36.1742 42.4319 36.3125 42.0981 36.3125 41.75H33.6875ZM24.5 39.5625H35V36.9375H24.5V39.5625ZM25.8125 48.75V38.25H23.1875V48.75H25.8125ZM29.75 52.6875C28.7057 52.6875 27.7042 52.2727 26.9658 51.5342C26.2273 50.7958 25.8125 49.7943 25.8125 48.75H23.1875C23.1875 50.4905 23.8789 52.1597 25.1096 53.3904C26.3403 54.6211 28.0095 55.3125 29.75 55.3125V52.6875ZM33.6875 48.75C33.6875 49.7943 33.2727 50.7958 32.5342 51.5342C31.7958 52.2727 30.7943 52.6875 29.75 52.6875V55.3125C30.6118 55.3125 31.4652 55.1428 32.2614 54.813C33.0576 54.4832 33.781 53.9998 34.3904 53.3904C34.9998 52.781 35.4832 52.0576 35.813 51.2614C36.1428 50.4652 36.3125 49.6118 36.3125 48.75H33.6875ZM33.6875 38.25V41.75H36.3125V38.25H33.6875Z" fill="white"/>
<path d="M26.25 38.2501H33.25V28.8316C33.2498 28.5334 33.1735 28.2402 33.0282 27.9798C32.8829 27.7194 32.6735 27.5005 32.4198 27.3437C32.1661 27.187 31.8766 27.0977 31.5787 27.0843C31.2809 27.0709 30.9845 27.1338 30.7177 27.2671L27.2177 29.0171C26.9271 29.1623 26.6826 29.3856 26.5117 29.6619C26.3408 29.9382 26.2502 30.2567 26.25 30.5816V38.2501Z" stroke="white" stroke-width="1.5"/>
</svg>
