<?xml version="1.0" encoding="utf-8"?>
<!-- Generator: Adobe Illustrator 25.2.3, SVG Export Plug-In . SVG Version: 6.00 Build 0)  -->
<svg version="1.1" id="Слой_1" xmlns="http://www.w3.org/2000/svg" xmlns:xlink="http://www.w3.org/1999/xlink" x="0px" y="0px"
	 viewBox="0 0 92 82" style="enable-background:new 0 0 92 82;" xml:space="preserve">
<style type="text/css">
	.st0{fill:#FFFFFF;stroke:#004996;stroke-width:0.8;}
	.st1{fill:#FFFFFF;}
</style>
<path class="st0" d="M3.7,60.6c0,0.2,0,0.4,0.1,0.5c0.1,0.2,0.2,0.3,0.4,0.4l0,0l0,0L32.4,77l0.6,0.3v-0.7V46v-0.2l-0.2-0.1L4.3,30
	l-0.6-0.3v0.7V60.6z M3.7,60.6C3.7,60.6,3.7,60.6,3.7,60.6l0.4,0 M3.7,60.6L3.7,60.6l0.4,0 M66.7,24.3L66.7,24.3
	c0.7,0.4,1.3,0.9,1.7,1.6c0.4,0.7,0.6,1.4,0.6,2.2v32.5c0,0.8-0.2,1.5-0.6,2.2c-0.4,0.7-1,1.2-1.7,1.6l0,0L36.8,80.8l0,0
	c-0.6,0.4-1.4,0.5-2.1,0.5c-0.7,0-1.5-0.2-2.1-0.5l0,0L2.7,64.5l0,0C2,64.1,1.4,63.5,1,62.9c-0.4-0.7-0.6-1.4-0.6-2.2V28.1
	c0-0.8,0.2-1.5,0.6-2.2c0.4-0.7,1-1.2,1.7-1.6h0L32.6,7.9l0,0c0.6-0.4,1.4-0.5,2.1-0.5c0.7,0,1.5,0.2,2.1,0.5l0,0L66.7,24.3z
	 M34.1,10.8L34.1,10.8L22.9,17l-0.6,0.4l0.6,0.4l28.7,15.7l0.2,0.1l0.2-0.1l11.5-6.3l0.6-0.4l-0.6-0.4L35.2,10.8h0
	c-0.2-0.1-0.3-0.1-0.5-0.1C34.5,10.7,34.3,10.7,34.1,10.8z M5.8,26.4l-0.6,0.4l0.6,0.4l28.7,15.7l0.2,0.1l0.2-0.1l12.9-7.1l0.6-0.4
	L47.8,35L19.1,19.3l-0.2-0.1l-0.2,0.1L5.8,26.4z M65.1,61.6L65.1,61.6l0.1-0.9h0.4v0V30.3v-0.7L65.1,30l-12.2,6.7l-0.2,0.1V37v15.5
	c0,0.4-0.2,0.9-0.5,1.2c-0.3,0.3-0.7,0.5-1.2,0.5s-0.9-0.2-1.2-0.5c-0.3-0.3-0.5-0.7-0.5-1.2V39.3v-0.7l-0.6,0.3l-12.2,6.7l-0.2,0.1
	V46v30.7v0.7l0.6-0.3L65.1,61.6z"/>
<path class="st1" d="M80,2c-5.5,0-10,4.5-10,10s4.5,10,10,10c5.5,0,10-4.5,10-10S85.5,2,80,2z M83.3,16.7L79,12.4V7h2v4.6l3.7,3.7
	L83.3,16.7z"/>
</svg>
