<svg width="292" height="69" viewBox="0 0 292 69" fill="none" xmlns="http://www.w3.org/2000/svg">
<path d="M100.944 24.1409H89.628L84.8358 35.4574L84.8071 40.2085V47.5224H87.8229V47.5245C87.8229 50.3433 90.145 52.6324 93.0061 52.6324C95.8783 52.6324 98.1982 50.3433 98.1982 47.5245V47.5224H109.095V47.5245C109.095 50.3433 111.419 52.6324 114.285 52.6324C117.144 52.6324 119.481 50.3433 119.481 47.5245V47.5224H120.568V47.5245C120.568 50.3433 122.888 52.6324 125.756 52.6324C128.613 52.6324 130.946 50.3433 130.946 47.5245C130.946 47.5224 130.946 47.5224 130.946 47.5224H133.005V40.2085H100.944V24.1409ZM102.52 38.7466H133.034V17.2013H102.52V38.7466ZM42.2876 16.8642C42.2876 16.8642 43.9424 11.4609 39.7313 11.4609L26.6474 29.6448H37.7495L42.2876 16.8642ZM59.481 25.1607H56.5513L52.1679 32.0062L37.1662 31.284L25.4742 31.2774L25.4675 31.284H18.0948C14.4714 31.284 11.2723 32.6912 11.2723 34.5273C11.2723 36.4072 14.4714 37.7793 18.0948 37.7793H25.4675L39.7313 57.5936C43.9424 57.5936 42.2876 52.1881 42.2876 52.1881L37.1662 37.7793L52.1679 37.0593L56.5513 43.9136H59.481L56.9269 37.0593L56.5933 34.5273L56.9269 32.0062L59.481 25.1607ZM195.042 19.9325H202.134V26.9158H195.042V19.9325ZM192.435 38.681H206.118V22.1384H207.633V16.9956H192.435V38.681ZM165.644 47.6011H169.221C169.221 47.6077 169.223 47.6143 169.223 47.6208C169.223 48.5903 168.421 49.3782 167.431 49.3782C166.453 49.3782 165.642 48.5903 165.642 47.6208C165.642 47.6143 165.644 47.6077 165.644 47.6011ZM178.339 47.6011H181.905C181.905 47.6077 181.907 47.6143 181.907 47.6208C181.907 48.5903 181.107 49.3782 180.122 49.3782C179.134 49.3782 178.337 48.5903 178.337 47.6208C178.337 47.6143 178.339 47.6077 178.339 47.6011ZM190.643 47.6011H194.222C194.222 47.6077 194.225 47.6143 194.225 47.6208C194.225 48.5903 193.423 49.3782 192.435 49.3782C191.445 49.3782 190.641 48.5903 190.641 47.6208C190.641 47.6143 190.643 47.6077 190.643 47.6011ZM160.993 42.4561H159.409V47.6011H162.217C162.217 47.6077 162.215 47.6143 162.215 47.6208C162.215 50.4593 164.55 52.7637 167.431 52.7637C170.321 52.7637 172.657 50.4593 172.657 47.6208C172.657 47.6143 172.654 47.6077 172.654 47.6011H174.899C174.899 47.6077 174.897 47.6143 174.897 47.6208C174.897 50.4593 177.237 52.7637 180.122 52.7637C182.999 52.7637 185.352 50.4593 185.352 47.6208C185.352 47.6143 185.349 47.6077 185.349 47.6011H187.216C187.216 47.6077 187.214 47.6143 187.214 47.6208C187.214 50.4593 189.55 52.7637 192.435 52.7637C195.312 52.7637 197.658 50.4593 197.658 47.6208C197.658 47.6143 197.656 47.6077 197.656 47.6011H206.049V40.2501H160.993V42.4561ZM190.853 38.681V23.9745H167.993V18.0985H163.985V23.9745H160.993C158.965 28.671 158.965 33.9846 160.993 38.681H190.853ZM212.478 52.0153C212.478 55.0747 212.474 57.0509 212.35 58.5544C212.231 59.9966 212.028 60.5305 211.893 60.7932C211.38 61.7911 210.561 62.603 209.553 63.1129C209.288 63.2464 208.747 63.4456 207.291 63.5637C205.773 63.6885 203.778 63.6907 200.689 63.6907H165.324C162.235 63.6907 160.24 63.6885 158.722 63.5637C157.266 63.4456 156.727 63.2464 156.462 63.1129C155.454 62.603 154.632 61.7911 154.12 60.7932C153.985 60.5305 153.782 59.9966 153.663 58.5544C153.539 57.0509 153.534 55.0747 153.534 52.0153V16.9846C153.534 13.923 153.539 11.9468 153.663 10.4433C153.782 9.00111 153.985 8.46713 154.12 8.20452C154.632 7.20658 155.454 6.39466 156.462 5.88475C156.727 5.75126 157.266 5.5521 158.722 5.43393C160.24 5.30919 162.235 5.307 165.324 5.307H200.689C203.778 5.307 205.773 5.30919 207.291 5.43393C208.747 5.5521 209.288 5.75126 209.553 5.88475C210.561 6.39466 211.38 7.20658 211.893 8.20452C212.028 8.46713 212.231 9.00111 212.35 10.4433C212.474 11.9468 212.478 13.923 212.478 16.9846V52.0153ZM211.986 1.15549C209.692 -1.52588e-05 206.692 -1.52588e-05 200.689 -1.52588e-05H165.324C159.323 -1.52588e-05 156.32 -1.52588e-05 154.027 1.15549C152.012 2.17313 150.373 3.79696 149.345 5.79502C148.177 8.06664 148.177 11.0386 148.177 16.9846V52.0153C148.177 57.9591 148.177 60.931 149.345 63.2027C150.373 65.2007 152.012 66.8246 154.027 67.8422C156.32 68.9999 159.323 68.9999 165.324 68.9999H200.689C206.692 68.9999 209.692 68.9999 211.986 67.8422C214.001 66.8246 215.642 65.2007 216.667 63.2027C217.836 60.931 217.836 57.9591 217.836 52.0153V16.9846C217.836 11.0386 217.836 8.06664 216.667 5.79502C215.642 3.79696 214.001 2.17313 211.986 1.15549ZM138.391 52.0153C138.391 55.0747 138.387 57.0509 138.261 58.5544C138.142 59.9966 137.941 60.5305 137.806 60.7932C137.293 61.7911 136.474 62.603 135.464 63.1129C135.199 63.2464 134.66 63.4456 133.204 63.5637C131.686 63.6885 129.691 63.6907 126.602 63.6907H91.2364C88.1455 63.6907 86.1526 63.6885 84.6326 63.5637C83.1788 63.4456 82.6375 63.2464 82.3724 63.1129C81.3649 62.603 80.5452 61.7911 80.0327 60.7932C79.8979 60.5305 79.6946 59.9966 79.5753 58.5544C79.4516 57.0509 79.4472 55.0747 79.4472 52.0153V16.9846C79.4472 13.923 79.4516 11.9468 79.5753 10.4433C79.6946 9.00111 79.8979 8.46713 80.0327 8.20452C80.5452 7.20658 81.3649 6.39466 82.3724 5.88475C82.6375 5.75126 83.1788 5.5521 84.6326 5.43393C86.1526 5.30919 88.1455 5.307 91.2364 5.307H126.602C129.691 5.307 131.686 5.30919 133.204 5.43393C134.66 5.5521 135.199 5.75126 135.464 5.88475C136.474 6.39466 137.293 7.20658 137.806 8.20452C137.941 8.46713 138.142 9.00111 138.261 10.4433C138.387 11.9468 138.391 13.923 138.391 16.9846V52.0153ZM137.896 1.15549C135.605 -1.52588e-05 132.603 -1.52588e-05 126.602 -1.52588e-05H91.2364C85.2335 -1.52588e-05 82.2332 -1.52588e-05 79.9399 1.15549C77.9227 2.17313 76.2855 3.79696 75.2582 5.79502C74.0894 8.06664 74.0894 11.0386 74.0894 16.9846V52.0153C74.0894 57.9591 74.0894 60.931 75.2582 63.2027C76.2855 65.2007 77.9227 66.8246 79.9399 67.8422C82.2332 68.9999 85.2335 68.9999 91.2364 68.9999H126.602C132.603 68.9999 135.605 68.9999 137.896 67.8422C139.914 66.8246 141.553 65.2007 142.58 63.2027C143.749 60.931 143.749 57.9591 143.749 52.0153V16.9846C143.749 11.0386 143.749 8.06664 142.58 5.79502C141.553 3.79696 139.914 2.17313 137.896 1.15549ZM286.566 52.0153C286.566 55.0747 286.561 57.0509 286.438 58.5544C286.318 59.9966 286.117 60.5305 285.982 60.7932C285.468 61.7911 284.65 62.603 283.64 63.1129C283.375 63.2464 282.836 63.4456 281.38 63.5637C279.862 63.6885 277.867 63.6907 274.779 63.6907H239.413C236.322 63.6907 234.327 63.6885 232.809 63.5637C231.355 63.4456 230.814 63.2464 230.549 63.1129C229.542 62.603 228.722 61.7911 228.207 60.7932C228.072 60.5305 227.869 59.9966 227.752 58.5544C227.628 57.0509 227.624 55.0747 227.624 52.0153V16.9846C227.624 13.923 227.628 11.9468 227.752 10.4433C227.869 9.00111 228.072 8.46713 228.207 8.20452C228.722 7.20658 229.542 6.39466 230.549 5.88475C230.814 5.75126 231.355 5.5521 232.809 5.43393C234.327 5.30919 236.322 5.307 239.413 5.307H274.779C277.867 5.307 279.862 5.30919 281.38 5.43393C282.836 5.5521 283.375 5.75126 283.64 5.88475C284.65 6.39466 285.468 7.20658 285.982 8.20452C286.117 8.46713 286.318 9.00111 286.438 10.4433C286.561 11.9468 286.566 13.923 286.566 16.9846V52.0153ZM290.757 5.79502C289.73 3.79696 288.09 2.17313 286.073 1.15549C283.782 -1.52588e-05 280.779 -1.52588e-05 274.779 -1.52588e-05H239.413C233.41 -1.52588e-05 230.41 -1.52588e-05 228.116 1.15549C226.099 2.17313 224.46 3.79696 223.433 5.79502C222.266 8.06664 222.266 11.0386 222.266 16.9846V52.0153C222.266 57.9591 222.266 60.931 223.433 63.2027C224.46 65.2007 226.099 66.8246 228.116 67.8422C230.41 68.9999 233.41 68.9999 239.413 68.9999H274.779C280.779 68.9999 283.782 68.9999 286.073 67.8422C288.09 66.8246 289.73 65.2007 290.757 63.2027C291.926 60.931 291.926 57.9591 291.926 52.0153V16.9846C291.926 11.0386 291.926 8.06664 290.757 5.79502ZM64.3019 52.0153C64.3019 55.0747 64.2974 57.0509 64.1737 58.5544C64.0544 59.9966 63.8533 60.5305 63.7164 60.7932C63.2038 61.7911 62.3841 62.603 61.3766 63.1129C61.1115 63.2464 60.5724 63.4456 59.1164 63.5637C57.5986 63.6885 55.6035 63.6907 52.5126 63.6907H17.147C14.0583 63.6907 12.0632 63.6885 10.5454 63.5637C9.0894 63.4456 8.55031 63.2464 8.28518 63.1129C7.2777 62.603 6.45802 61.7911 5.94323 60.7932C5.80846 60.5305 5.60741 59.9966 5.4881 58.5544C5.36437 57.0509 5.35996 55.0747 5.35996 52.0153V16.9846C5.35996 13.923 5.36437 11.9468 5.4881 10.4433C5.60741 9.00111 5.80846 8.46713 5.94323 8.20452C6.45802 7.20658 7.2777 6.39466 8.28518 5.88475C8.55031 5.75126 9.0894 5.5521 10.5454 5.43393C12.0632 5.30919 14.0583 5.307 17.147 5.307H52.5126C55.6035 5.307 57.5986 5.30919 59.1164 5.43393C60.5724 5.5521 61.1115 5.75126 61.3766 5.88475C62.3841 6.39466 63.2038 7.20658 63.7164 8.20452C63.8533 8.46713 64.0544 9.00111 64.1737 10.4433C64.2974 11.9468 64.3019 13.923 64.3019 16.9846V52.0153ZM63.8092 1.15549C61.5158 -1.52588e-05 58.5155 -1.52588e-05 52.5126 -1.52588e-05H17.147C11.1463 -1.52588e-05 8.14599 -1.52588e-05 5.85265 1.15549C3.83548 2.17313 2.19612 3.79696 1.16876 5.79502C-1.44858e-06 8.06664 0 11.0386 0 16.9846V52.0153C0 57.9591 -1.44858e-06 60.931 1.16876 63.2027C2.19612 65.2007 3.83548 66.8246 5.85265 67.8422C8.14599 68.9999 11.1463 68.9999 17.147 68.9999H52.5126C58.5155 68.9999 61.5158 68.9999 63.8092 67.8422C65.8263 66.8246 67.4657 65.2007 68.493 63.2027C69.6596 60.931 69.6596 57.9591 69.6596 52.0153V16.9846C69.6596 11.0386 69.6596 8.06664 68.493 5.79502C67.4657 3.79696 65.8263 2.17313 63.8092 1.15549ZM243.162 26.9552L232.982 26.9443L242.091 47.9972H275.85L281.208 38.9217V33.1354H259.775C244.771 33.1354 243.162 26.9552 243.162 26.9552ZM276.922 26.9443H271.562V19.335H259.775V31.5028H276.922V26.9443Z" fill="white"/>
</svg>
