<svg width="137" height="137" viewBox="0 0 137 137" fill="none" xmlns="http://www.w3.org/2000/svg">
<g filter="url(#filter0_d_3034_40107)">
<circle cx="68.5" cy="64.5" r="48.5" fill="white"/>
</g>
<path d="M86.5643 46.4645C86.3138 46.2134 86.0161 46.0142 85.6885 45.8783C85.3609 45.7424 85.0097 45.6724 84.6549 45.6724C84.3002 45.6724 83.949 45.7424 83.6214 45.8783C83.2937 46.0142 82.9961 46.2134 82.7456 46.4645L69.5018 59.6811L56.2581 46.4374C56.0073 46.1866 55.7097 45.9877 55.382 45.852C55.0544 45.7163 54.7033 45.6465 54.3487 45.6465C53.9941 45.6465 53.643 45.7163 53.3154 45.852C52.9877 45.9877 52.6901 46.1866 52.4393 46.4374C52.1886 46.6881 51.9897 46.9858 51.854 47.3134C51.7183 47.641 51.6484 47.9921 51.6484 48.3467C51.6484 48.7014 51.7183 49.0525 51.854 49.3801C51.9897 49.7077 52.1886 50.0054 52.4393 50.2561L65.6831 63.4999L52.4393 76.7436C52.1886 76.9944 51.9897 77.292 51.854 77.6196C51.7183 77.9473 51.6484 78.2984 51.6484 78.653C51.6484 79.0076 51.7183 79.3587 51.854 79.6863C51.9897 80.014 52.1886 80.3116 52.4393 80.5624C52.6901 80.8131 52.9877 81.012 53.3154 81.1477C53.643 81.2834 53.9941 81.3533 54.3487 81.3533C54.7033 81.3533 55.0544 81.2834 55.382 81.1477C55.7097 81.012 56.0073 80.8131 56.2581 80.5624L69.5018 67.3186L82.7456 80.5624C82.9963 80.8131 83.294 81.012 83.6216 81.1477C83.9492 81.2834 84.3003 81.3533 84.6549 81.3533C85.0096 81.3533 85.3607 81.2834 85.6883 81.1477C86.0159 81.012 86.3136 80.8131 86.5643 80.5624C86.8151 80.3116 87.014 80.014 87.1497 79.6863C87.2854 79.3587 87.3552 79.0076 87.3552 78.653C87.3552 78.2984 87.2854 77.9473 87.1497 77.6196C87.014 77.292 86.8151 76.9944 86.5643 76.7436L73.3206 63.4999L86.5643 50.2561C87.5935 49.227 87.5935 47.4936 86.5643 46.4645Z" fill="#E10000"/>
<defs>
<filter id="filter0_d_3034_40107" x="0" y="0" width="137" height="137" filterUnits="userSpaceOnUse" color-interpolation-filters="sRGB">
<feFlood flood-opacity="0" result="BackgroundImageFix"/>
<feColorMatrix in="SourceAlpha" type="matrix" values="0 0 0 0 0 0 0 0 0 0 0 0 0 0 0 0 0 0 127 0" result="hardAlpha"/>
<feOffset dy="4"/>
<feGaussianBlur stdDeviation="10"/>
<feComposite in2="hardAlpha" operator="out"/>
<feColorMatrix type="matrix" values="0 0 0 0 0 0 0 0 0 0.32549 0 0 0 0 0.623529 0 0 0 0.1 0"/>
<feBlend mode="normal" in2="BackgroundImageFix" result="effect1_dropShadow_3034_40107"/>
<feBlend mode="normal" in="SourceGraphic" in2="effect1_dropShadow_3034_40107" result="shape"/>
</filter>
</defs>
</svg>
