<svg width="400" height="234" viewBox="0 0 400 234" fill="none" xmlns="http://www.w3.org/2000/svg">
<path d="M73.7568 144.695V192.839L15.6899 168.882L15.2383 168.698V120.582L43.9895 132.428L45.8121 133.182L46.3444 133.401L52.4737 135.926L54.1512 136.617L60.345 139.166L62.1676 139.919L63.9911 140.673L72.2575 144.073L73.7334 144.683L73.7568 144.695Z" fill="#D2D2D2"/>
<path d="M15.6914 134.814V136.25L73.7599 160.19V158.746L15.6914 134.814Z" fill="#AAAAAA"/>
<path d="M15.6914 139.51V140.945L73.7599 164.886V163.441L15.6914 139.51Z" fill="#AAAAAA"/>
<path d="M15.6914 144.203V145.639L73.7599 169.579V168.134L15.6914 144.203Z" fill="#AAAAAA"/>
<path d="M15.6914 125.426V126.862L73.7599 150.802V149.358L15.6914 125.426Z" fill="#AAAAAA"/>
<path d="M15.6914 130.121V131.557L73.7599 155.497V154.052L15.6914 130.121Z" fill="#AAAAAA"/>
<path d="M15.6914 148.898V150.335L73.7599 174.274V172.83L15.6914 148.898Z" fill="#AAAAAA"/>
<path d="M15.6914 153.594V155.029L73.7599 178.97V177.525L15.6914 153.594Z" fill="#AAAAAA"/>
<path d="M15.6914 158.287V159.723L73.7599 183.663V182.218L15.6914 158.287Z" fill="#AAAAAA"/>
<path d="M15.6914 162.982V164.418L73.7599 188.358V186.913L15.6914 162.982Z" fill="#AAAAAA"/>
<path d="M399.065 70.2539V136.947L224.401 207.901L160.465 233.871V167.178L307.859 107.302L399.065 70.2539Z" fill="#00539E"/>
<path d="M96.296 129.764L94.3758 128.641L75.1419 117.428L0.277419 102.074L0.0078125 102.185V164.538L4.93302 166.535L5.35453 166.706L17.0192 171.438V135.287L18.4533 135.874V135.619L41.8951 145.136L43.3812 145.742L43.8152 145.917L48.8127 147.945L50.1811 148.5L55.2306 150.548L56.7167 151.154L58.2035 151.758L64.9436 154.49L66.147 154.98L66.166 154.989V155.252L66.1733 155.258V180.151L66.2449 180.178L66.1733 180.211V191.368L80.4294 197.154L88.7543 200.537L95.7239 203.366L96.5662 203.703L97.8149 204.211L104.049 206.744L106.14 207.595L113.117 210.424L114.004 210.783L115.102 211.233L121.442 213.806L123.427 214.61L130.405 217.443L131.502 217.892L132.495 218.29L138.73 220.823L140.82 221.673L147.79 224.507L148.941 224.969L156.115 227.885L160.403 229.623V229.628L160.468 229.599V167.178L96.296 129.764ZM141.898 181.574L97.1508 163.42V152.391L141.898 170.551V181.574Z" fill="#00539E"/>
<path d="M66.1648 154.992V155.255L66.1457 155.251L65.8169 155.117L64.6136 154.627L58.2023 152.025L56.7155 151.424L55.2294 150.818L49.8504 148.637L48.4893 148.082L43.8139 146.187L43.3799 146.012L41.8938 145.406L18.8197 136.042V174.699L17.0252 175.425L17.0179 175.43L0.394531 168.723L17.0179 175.425V135.289L18.4514 135.876V135.622L41.8938 145.138L43.3799 145.744L43.8139 145.919L48.8115 147.948L50.1792 148.503L55.2294 150.55L56.7155 151.156L58.2023 151.761L64.9424 154.493L66.1457 154.983L66.1648 154.992Z" fill="#2EB4A6"/>
<path d="M66.1719 180.212L66.2429 180.18L66.1719 180.152V180.212Z" fill="#2EB4A6"/>
<path d="M160.468 167.177L96.296 129.764L94.3758 128.641L75.1419 117.428L0.277419 102.074L0.0078125 102.185V101.871L0.579901 101.954L74.3265 112.834L97.3678 127.37L99.255 128.562L160.468 167.177Z" fill="#2EB4A6"/>
<path d="M141.9 170.551V181.575L97.1523 163.42V152.393L141.9 170.551Z" fill="#2EB4A6"/>
<path d="M160.468 229.601V233.867L160.441 233.857L160.434 233.853L160.401 233.839L66.1719 195.487V191.369L80.4274 197.156L88.7529 200.539L95.7231 203.367L96.5641 203.705L97.8135 204.213L104.047 206.746L106.138 207.597L113.116 210.425L114.003 210.785L115.101 211.234L121.44 213.808L123.427 214.612L130.403 217.445L131.501 217.894L132.494 218.291L138.728 220.824L140.819 221.675L147.789 224.508L148.94 224.97L156.114 227.886L160.401 229.624V229.629L160.468 229.601Z" fill="#2EB4A6"/>
<path d="M0.00390625 97.815L75.2563 112.262L313.952 15.3295L238.729 0.871094L0.00390625 97.815Z" fill="#666362"/>
<path d="M75.2539 112.262L313.949 15.3301L399.139 66.1252L160.463 163.027L75.2539 112.262Z" fill="#585756"/>
<path d="M160.467 163.028V167.179L96.2947 129.765L94.3746 128.642L75.1406 117.429L0.276179 102.076L0.00657712 102.02H0V97.8145L7.31219 99.2195L75.2524 112.262L99.2669 126.567L101.253 127.75L160.467 163.028Z" fill="#E1E1E1"/>
<path d="M399.07 66.1445L160.465 163.027V167.178L399.07 70.2556V66.1445Z" fill="#C1C1C1"/>
<path d="M80.4204 110.167L5.16797 95.7206L7.36426 94.8281L82.5864 109.287L80.4204 110.167Z" fill="#777370"/>
<path d="M88.1502 107.026L12.8984 92.58L15.0941 91.6875L90.3169 106.146L88.1502 107.026Z" fill="#777370"/>
<path d="M95.8735 103.887L20.6211 89.4399L22.8174 88.5488L98.0409 103.008L95.8735 103.887Z" fill="#777370"/>
<path d="M103.553 100.771L28.3008 86.3237L30.4971 85.4316L105.719 99.891L103.553 100.771Z" fill="#777370"/>
<path d="M111.284 97.6348L36.0312 83.1889L38.2269 82.2969L113.45 96.7558L111.284 97.6348Z" fill="#777370"/>
<path d="M118.99 94.5029L43.7383 80.0561L45.9333 79.1641L121.157 93.6229L118.99 94.5029Z" fill="#777370"/>
<path d="M126.706 91.374L51.4531 76.9272L53.6494 76.0352L128.873 90.494L126.706 91.374Z" fill="#777370"/>
<path d="M134.412 88.2393L59.1602 73.7924L61.3564 72.9004L136.579 87.3593L134.412 88.2393Z" fill="#777370"/>
<path d="M142.131 85.1045L66.8789 70.6581L69.0745 69.7656L144.297 84.2245L142.131 85.1045Z" fill="#777370"/>
<path d="M149.838 81.9766L74.5859 67.5307L76.7822 66.6387L152.004 81.0976L149.838 81.9766Z" fill="#777370"/>
<path d="M157.549 78.8428L82.2969 64.3959L84.4918 63.5039L159.715 77.9628L157.549 78.8428Z" fill="#777370"/>
<path d="M165.275 75.7139L90.0234 61.267L92.2184 60.375L167.442 74.8339L165.275 75.7139Z" fill="#777370"/>
<path d="M172.987 72.5801L97.7344 58.1342L99.93 57.2422L175.153 71.7011L172.987 72.5801Z" fill="#777370"/>
<path d="M180.709 69.4463L105.457 54.9994L107.653 54.1074L182.875 68.5663L180.709 69.4463Z" fill="#777370"/>
<path d="M188.405 66.3184L113.152 51.8725L115.349 50.9805L190.572 65.4394L188.405 66.3184Z" fill="#777370"/>
<path d="M196.123 63.1904L120.871 48.744L123.067 47.8516L198.29 62.3104L196.123 63.1904Z" fill="#777370"/>
<path d="M203.834 60.0557L128.582 45.6093L130.778 44.7168L206 59.1761L203.834 60.0557Z" fill="#777370"/>
<path d="M211.553 56.9209L136.301 42.4745L138.496 41.582L213.719 56.0409L211.553 56.9209Z" fill="#777370"/>
<path d="M219.248 53.794L143.996 39.3471L146.192 38.4551L221.416 52.9144L219.248 53.794Z" fill="#777370"/>
<path d="M226.967 50.6583L151.715 36.2123L153.91 35.3203L229.133 49.7792L226.967 50.6583Z" fill="#777370"/>
<path d="M234.657 47.5225L159.406 33.0756L161.601 32.1836L236.825 46.6425L234.657 47.5225Z" fill="#777370"/>
<path d="M242.381 44.3818L167.129 29.935L169.324 29.043L244.547 43.5019L242.381 44.3818Z" fill="#777370"/>
<path d="M250.064 41.2647L174.812 26.8183L177.009 25.9258L252.231 40.3847L250.064 41.2647Z" fill="#777370"/>
<path d="M257.791 38.1318L182.539 23.685L184.734 22.793L259.958 37.2519L257.791 38.1318Z" fill="#777370"/>
<path d="M265.502 34.9971L190.25 20.5507L192.445 19.6582L267.668 34.1171L265.502 34.9971Z" fill="#777370"/>
<path d="M273.217 31.8682L197.965 17.4218L200.16 16.5293L275.383 30.9882L273.217 31.8682Z" fill="#777370"/>
<path d="M280.924 28.7334L205.672 14.2865L207.868 13.3945L283.09 27.8534L280.924 28.7334Z" fill="#777370"/>
<path d="M288.639 25.6006L213.387 11.1537L215.582 10.2617L290.805 24.7206L288.639 25.6006Z" fill="#777370"/>
<path d="M296.349 22.4717L221.098 8.02482L223.294 7.13281L298.516 21.5917L296.349 22.4717Z" fill="#777370"/>
<path d="M304.056 19.3389L228.805 4.89247L231 4L306.223 18.4589L304.056 19.3389Z" fill="#777370"/>
<path d="M311.783 16.21L236.531 1.76357L238.726 0.871094L313.95 15.33L311.783 16.21Z" fill="#777370"/>
<path d="M80.4258 110.163L165.635 160.927L167.796 160.052L82.5925 109.283L80.4258 110.163Z" fill="#6C6B6A"/>
<path d="M88.1367 107.032L173.345 157.796L175.507 156.922L90.3041 106.152L88.1367 107.032Z" fill="#6C6B6A"/>
<path d="M95.8477 103.9L181.057 154.664L183.218 153.789L98.015 103.02L95.8477 103.9Z" fill="#6C6B6A"/>
<path d="M103.562 100.77L188.772 151.535L190.933 150.66L105.73 99.8906L103.562 100.77Z" fill="#6C6B6A"/>
<path d="M111.277 97.6398L196.487 148.404L198.647 147.529L113.445 96.7598L111.277 97.6398Z" fill="#6C6B6A"/>
<path d="M118.992 94.5084L204.2 145.274L206.362 144.399L121.159 93.6289L118.992 94.5084Z" fill="#6C6B6A"/>
<path d="M126.707 91.3761L211.916 142.14L214.077 141.265L128.874 90.4961L126.707 91.3761Z" fill="#6C6B6A"/>
<path d="M134.422 88.2448L219.631 139.01L221.792 138.134L136.589 87.3652L134.422 88.2448Z" fill="#6C6B6A"/>
<path d="M142.133 85.1144L227.342 135.879L229.503 135.004L144.3 84.2344L142.133 85.1144Z" fill="#6C6B6A"/>
<path d="M149.848 81.9835L235.056 132.748L237.217 131.873L152.014 81.1035L149.848 81.9835Z" fill="#6C6B6A"/>
<path d="M157.562 78.8517L242.771 129.616L244.932 128.742L159.729 77.9727L157.562 78.8517Z" fill="#6C6B6A"/>
<path d="M165.277 75.7198L250.487 126.484L252.647 125.61L167.445 74.8398L165.277 75.7198Z" fill="#6C6B6A"/>
<path d="M172.988 72.5905L258.198 123.355L260.358 122.48L175.156 71.7109L172.988 72.5905Z" fill="#6C6B6A"/>
<path d="M180.699 69.4581L265.909 120.222L268.069 119.347L182.867 68.5781L180.699 69.4581Z" fill="#6C6B6A"/>
<path d="M188.414 66.3273L273.623 117.091L275.784 116.217L190.581 65.4473L188.414 66.3273Z" fill="#6C6B6A"/>
<path d="M196.129 63.1964L281.338 113.961L283.499 113.086L198.296 62.3164L196.129 63.1964Z" fill="#6C6B6A"/>
<path d="M203.844 60.0655L289.053 110.83L291.214 109.955L206.011 59.1855L203.844 60.0655Z" fill="#6C6B6A"/>
<path d="M211.559 56.9347L296.786 107.699L298.947 106.824L213.725 56.0547L211.559 56.9347Z" fill="#6C6B6A"/>
<path d="M219.273 53.7843L304.516 104.571L306.676 103.696L221.441 52.9043L219.273 53.7843Z" fill="#6C6B6A"/>
<path d="M226.984 50.6603L312.221 101.443L314.382 100.569L229.152 49.7812L226.984 50.6603Z" fill="#6C6B6A"/>
<path d="M234.637 47.546L319.846 98.3111L322.007 97.4362L236.804 46.666L234.637 47.546Z" fill="#6C6B6A"/>
<path d="M242.348 44.4151L327.556 95.1802L329.718 94.3049L244.515 43.5352L242.348 44.4151Z" fill="#6C6B6A"/>
<path d="M250.062 41.2843L335.272 92.0484L337.433 91.174L252.23 40.4043L250.062 41.2843Z" fill="#6C6B6A"/>
<path d="M257.777 38.1534L342.987 88.9176L345.147 88.0427L259.945 37.2734L257.777 38.1534Z" fill="#6C6B6A"/>
<path d="M265.488 35.0236L350.698 85.7878L352.858 84.9138L267.656 34.1445L265.488 35.0236Z" fill="#6C6B6A"/>
<path d="M273.199 31.8917L358.408 82.6559L360.569 81.781L275.367 31.0117L273.199 31.8917Z" fill="#6C6B6A"/>
<path d="M280.918 28.7589L366.127 79.524L368.288 78.6491L283.085 27.8789L280.918 28.7589Z" fill="#6C6B6A"/>
<path d="M288.629 25.628L373.838 76.3922L375.999 75.5177L290.796 24.748L288.629 25.628Z" fill="#6C6B6A"/>
<path d="M296.344 22.4972L381.553 73.2613L383.714 72.3864L298.511 21.6172L296.344 22.4972Z" fill="#6C6B6A"/>
<path d="M304.055 19.3663L389.263 70.1305L391.424 69.2556L306.221 18.4863L304.055 19.3663Z" fill="#6C6B6A"/>
<path d="M311.77 16.2355L396.978 66.9996L399.138 66.1247L313.936 15.3555L311.77 16.2355Z" fill="#6C6B6A"/>
<path d="M399.13 132.746V136.994L224.4 207.901L160.464 233.844L160.438 233.858L160.398 233.871V229.629L160.464 229.601L393.396 135.075L399.064 132.774L399.13 132.746Z" fill="#C1C1C1"/>
<path d="M160.402 229.624V233.867L66.1719 195.488V191.369L80.428 197.156L88.7529 200.538L95.7231 203.367L96.5648 203.705L97.8135 204.214L104.048 206.746L106.138 207.597L113.116 210.425L114.003 210.785L115.101 211.234L121.441 213.808L123.427 214.613L130.403 217.445L131.502 217.894L132.494 218.291L138.728 220.824L140.819 221.674L147.789 224.508L148.94 224.97L156.114 227.886L160.402 229.624Z" fill="#D2D2D2"/>
<path d="M17.0192 171.439V175.423L0.395779 168.722L0.0801457 168.592L0.0078125 168.565V164.539L4.93302 166.536L5.35387 166.707L17.0192 171.439Z" fill="#D2D2D2"/>
<path d="M17.0156 175.428L17.0222 175.423V171.444L17.0156 171.439V175.428Z" fill="#D2D2D2"/>
<path d="M141.9 170.551V181.575L97.1523 163.42V152.393L141.9 170.551Z" fill="white"/>
<path d="M118.247 162.141L98.4414 154.102V161.849L118.247 169.892V162.141Z" fill="#999999"/>
<path d="M118.247 168.946L101.061 162.035L98.4414 162.834L118.247 170.907V168.946Z" fill="#E1E1E1"/>
<path d="M101.061 155.168L98.4414 154.102V162.835L101.061 162.036V155.168Z" fill="#C1C1C1"/>
<path d="M140.306 171.067L120.5 163.027V170.775L140.306 178.818V171.067Z" fill="#999999"/>
<path d="M140.306 177.871L123.118 170.961L120.5 171.76L140.306 179.833V177.871Z" fill="#E1E1E1"/>
<path d="M123.118 164.093L120.5 163.027V171.76L123.118 170.962V164.093Z" fill="#C1C1C1"/>
<path d="M178.871 170.552L223.619 152.393V163.418L178.871 181.577V170.552Z" fill="white"/>
<path d="M202.52 162.141L222.324 154.102V161.849L202.52 169.892V162.141Z" fill="#999999"/>
<path d="M202.52 168.946L219.706 162.035L222.324 162.834L202.52 170.907V168.946Z" fill="#E1E1E1"/>
<path d="M219.707 155.168L222.325 154.102V162.835L219.707 162.036V155.168Z" fill="#C1C1C1"/>
<path d="M180.465 171.067L200.271 163.027V170.775L180.465 178.818V171.067Z" fill="#999999"/>
<path d="M180.465 177.871L197.652 170.961L200.271 171.76L180.465 179.833V177.871Z" fill="#E1E1E1"/>
<path d="M197.648 164.093L200.267 163.027V171.76L197.648 170.962V164.093Z" fill="#C1C1C1"/>
<path d="M342.125 104.229L386.873 86.0703V97.0952L342.125 115.254V104.229Z" fill="white"/>
<path d="M365.773 95.818L385.578 87.7793V95.5268L365.773 103.57V95.818Z" fill="#999999"/>
<path d="M365.773 102.623L382.96 95.7129L385.578 96.5115L365.773 104.585V102.623Z" fill="#E1E1E1"/>
<path d="M382.961 88.8451L385.579 87.7793V96.5118L382.961 95.7136V88.8451Z" fill="#C1C1C1"/>
<path d="M343.715 104.744L363.52 96.7051V104.453L343.715 112.496V104.744Z" fill="#999999"/>
<path d="M343.715 111.549L360.901 104.639L363.52 105.437L343.715 113.511V111.549Z" fill="#E1E1E1"/>
<path d="M360.902 97.7713L363.521 96.7051V105.438L360.902 104.64V97.7713Z" fill="#C1C1C1"/>
<path d="M18.8174 136.022V174.697L17.0229 175.423L17.0156 175.428V135.287L18.4491 135.874L18.8174 136.022Z" fill="#9B9B9B"/>
<path d="M228.609 174.988L235.198 172.314V169.898L228.609 172.572V174.988Z" fill="white"/>
<path d="M228.609 174.988L226.676 174.256V171.84L228.609 172.572V174.988Z" fill="#C1C1C1"/>
<path d="M235.195 169.899L228.605 172.573L226.672 171.841L233.363 169.164L235.195 169.899Z" fill="#D2D2D2"/>
<path d="M341.984 128.814L348.573 126.14V123.725L341.984 126.398V128.814Z" fill="white"/>
<path d="M341.984 128.814L340.051 128.082V125.666L341.984 126.398V128.814Z" fill="#C1C1C1"/>
<path d="M348.573 123.724L341.984 126.397L340.051 125.665L346.742 122.988L348.573 123.724Z" fill="#D2D2D2"/>
<path d="M18.4492 174.54L18.8201 174.692V136.04L18.4492 135.889V174.54Z" fill="#D2D2D2"/>
</svg>
