<svg width="128" height="87" viewBox="0 0 128 87" fill="none" xmlns="http://www.w3.org/2000/svg">
<path d="M48.4603 65.6646C48.4603 66.4949 48.7551 67.1484 49.3447 67.6249C49.9342 68.1024 50.7725 68.3402 51.8595 68.3402C53.5668 68.3402 54.9716 67.8094 56.073 66.7479C57.1744 65.6874 57.7266 64.4043 57.7266 62.8977V61.9742L52.7439 62.4821C49.8872 62.7294 48.4603 63.7889 48.4603 65.6646ZM41.2422 66.0336C41.2422 61.4834 44.7499 58.8848 51.7664 58.2381L57.7266 57.6855V57.0396C57.7266 54.4563 56.3448 53.1495 53.5822 53.119C52.3406 53.119 51.3391 53.3806 50.5795 53.9028C49.8181 54.4259 49.3917 55.1944 49.2986 56.2093H42.5932C42.6864 53.3492 43.757 51.2738 45.8062 49.9821C47.8544 48.6914 50.4461 48.0456 53.5822 48.0456C57.2148 48.0456 60.0311 48.914 62.0342 50.6518C64.0363 52.3885 65.0368 55.0261 65.0368 58.5615V72.7677H58.2384V68.6626C56.4072 71.769 53.489 73.3213 49.4849 73.3213C46.8461 73.3213 44.8123 72.645 43.3845 71.2916C41.9566 69.939 41.2422 68.1861 41.2422 66.0336Z" fill="white"/>
<path d="M69.6712 40.4807H76.9825V46.8457H69.6712V40.4807ZM65.1543 82.3624V76.5499C65.6507 76.5804 66.2566 76.5956 66.9701 76.5956C67.9947 76.5956 68.7005 76.3578 69.0884 75.8813C69.4773 75.4047 69.6712 74.4745 69.6712 73.0906V48.5996H76.9815V74.8436C76.9815 77.6418 76.415 79.625 75.2819 80.7939C74.1488 81.9619 72.1544 82.5469 69.2987 82.5469C68.4604 82.5469 67.0786 82.4841 65.1543 82.3624Z" fill="white"/>
<path d="M89.3849 55.6329C88.344 56.9398 87.8255 58.6242 87.8255 60.6825C87.8255 62.7436 88.344 64.4272 89.3849 65.734C90.4249 67.0409 91.8451 67.6934 93.6455 67.6934C95.4152 67.6934 96.8191 67.0409 97.86 65.734C98.899 64.4272 99.4194 62.7436 99.4194 60.6825C99.4194 58.6242 98.899 56.9398 97.86 55.6329C96.8191 54.326 95.4152 53.6726 93.6455 53.6726C91.8451 53.6726 90.4249 54.326 89.3849 55.6329ZM84.1228 69.9076C81.7789 67.6325 80.6074 64.5575 80.6074 60.6825C80.6074 56.8085 81.7789 53.7344 84.1228 51.4583C86.4668 49.1832 89.6413 48.0447 93.6455 48.0447C97.619 48.0447 100.777 49.1756 103.121 51.4355C105.465 53.6954 106.638 56.7781 106.638 60.6825C106.638 64.5888 105.465 67.6715 103.121 69.9314C100.777 72.1913 97.619 73.3213 93.6455 73.3213C89.6413 73.3213 86.4668 72.1847 84.1228 69.9076Z" fill="white"/>
<path d="M124.16 48.0911C125.152 48.0911 126.099 48.2148 127 48.4602V54.7786C125.447 54.5018 124.16 54.3639 123.135 54.3639C121.21 54.3639 119.806 54.9175 118.921 56.0246C118.036 57.1317 117.594 58.976 117.594 61.5593V72.7676H110.283V48.599H117.082V53.0723C118.572 49.7518 120.93 48.0911 124.16 48.0911Z" fill="white"/>
<path d="M69.6712 40.4807H76.9825V46.8457H69.6712V40.4807ZM65.1543 82.3624V76.5499C65.6507 76.5804 66.2566 76.5956 66.9701 76.5956C67.9947 76.5956 68.7005 76.3578 69.0884 75.8813C69.4773 75.4047 69.6712 74.4745 69.6712 73.0906V48.5996H76.9815V74.8436C76.9815 77.6418 76.415 79.625 75.2819 80.7939C74.1488 81.9619 72.1544 82.5469 69.2987 82.5469C68.4604 82.5469 67.0786 82.4841 65.1543 82.3624Z" fill="#E10000"/>
<path d="M43.9985 10.4921H39.0803L36.9975 15.4103L36.9851 17.4752V20.6539H38.2958V20.6549C38.2958 21.8799 39.305 22.8748 40.5484 22.8748C41.7967 22.8748 42.805 21.8799 42.805 20.6549V20.6539H47.5408V20.6549C47.5408 21.8799 48.5509 22.8748 49.7963 22.8748C51.0389 22.8748 52.0548 21.8799 52.0548 20.6549V20.6539H52.5272V20.6549C52.5272 21.8799 53.5354 22.8748 54.7818 22.8748C56.0234 22.8748 57.0374 21.8799 57.0374 20.6549C57.0374 20.6539 57.0374 20.6539 57.0374 20.6539H57.9323V17.4752H43.9985V10.4921ZM44.6832 16.8399H57.9448V7.47603H44.6832V16.8399ZM18.5056 7.32956C18.5056 7.32956 19.2248 4.98122 17.3946 4.98122L11.7082 12.8841H16.5333L18.5056 7.32956ZM25.978 10.9353H24.7048L22.7997 13.9104L16.2798 13.5965L11.1983 13.5937L11.1954 13.5965H7.99117C6.4164 13.5965 5.026 14.2081 5.026 15.0061C5.026 15.8231 6.4164 16.4195 7.99117 16.4195H11.1954L17.3946 25.031C19.2248 25.031 18.5056 22.6817 18.5056 22.6817L16.2798 16.4195L22.7997 16.1066L24.7048 19.0855H25.978L24.868 16.1066L24.723 15.0061L24.868 13.9104L25.978 10.9353ZM84.8944 8.66304H87.9767V11.6981H84.8944V8.66304ZM83.7613 16.8114H89.708V9.62178H90.3667V7.38663H83.7613V16.8114ZM72.1177 20.6882H73.6722C73.6722 20.691 73.6732 20.6939 73.6732 20.6967C73.6732 21.1181 73.3247 21.4605 72.8945 21.4605C72.4691 21.4605 72.1167 21.1181 72.1167 20.6967C72.1167 20.6939 72.1177 20.691 72.1177 20.6882ZM77.6351 20.6882H79.1849C79.1849 20.691 79.1858 20.6939 79.1858 20.6967C79.1858 21.1181 78.8382 21.4605 78.41 21.4605C77.9808 21.4605 77.6341 21.1181 77.6341 20.6967C77.6341 20.6939 77.6351 20.691 77.6351 20.6882ZM82.9826 20.6882H84.5381C84.5381 20.691 84.5391 20.6939 84.5391 20.6967C84.5391 21.1181 84.1905 21.4605 83.7613 21.4605C83.3311 21.4605 82.9816 21.1181 82.9816 20.6967C82.9816 20.6939 82.9826 20.691 82.9826 20.6882ZM70.0964 18.4521H69.4079V20.6882H70.6283C70.6283 20.691 70.6274 20.6939 70.6274 20.6967C70.6274 21.9303 71.6423 22.9319 72.8945 22.9319C74.1504 22.9319 75.1654 21.9303 75.1654 20.6967C75.1654 20.6939 75.1644 20.691 75.1644 20.6882H76.14C76.14 20.691 76.1391 20.6939 76.1391 20.6967C76.1391 21.9303 77.1559 22.9319 78.41 22.9319C79.6602 22.9319 80.6828 21.9303 80.6828 20.6967C80.6828 20.6939 80.6819 20.691 80.6819 20.6882H81.4933C81.4933 20.691 81.4923 20.6939 81.4923 20.6967C81.4923 21.9303 82.5073 22.9319 83.7613 22.9319C85.0115 22.9319 86.0313 21.9303 86.0313 20.6967C86.0313 20.6939 86.0303 20.691 86.0303 20.6882H89.6782V17.4933H70.0964V18.4521ZM83.0738 16.8114V10.4198H73.1384V7.866H71.3965V10.4198H70.0964C69.2149 12.4609 69.2149 14.7702 70.0964 16.8114H83.0738ZM92.4724 22.6066C92.4724 23.9363 92.4705 24.7951 92.4167 25.4485C92.3649 26.0753 92.2766 26.3074 92.218 26.4216C91.9952 26.8553 91.639 27.2081 91.2011 27.4297C91.0859 27.4878 90.8506 27.5743 90.2178 27.6257C89.5582 27.6799 88.6911 27.6808 87.3487 27.6808H71.9784C70.636 27.6808 69.769 27.6799 69.1093 27.6257C68.4765 27.5743 68.2422 27.4878 68.127 27.4297C67.6891 27.2081 67.3319 26.8553 67.1091 26.4216C67.0506 26.3074 66.9622 26.0753 66.9104 25.4485C66.8566 24.7951 66.8547 23.9363 66.8547 22.6066V7.38187C66.8547 6.05124 66.8566 5.19237 66.9104 4.53895C66.9622 3.91216 67.0506 3.68008 67.1091 3.56594C67.3319 3.13223 67.6891 2.77936 68.127 2.55775C68.2422 2.49973 68.4765 2.41318 69.1093 2.36182C69.769 2.3076 70.636 2.30665 71.9784 2.30665H87.3487C88.6911 2.30665 89.5582 2.3076 90.2178 2.36182C90.8506 2.41318 91.0859 2.49973 91.2011 2.55775C91.639 2.77936 91.9952 3.13223 92.218 3.56594C92.2766 3.68008 92.3649 3.91216 92.4167 4.53895C92.4705 5.19237 92.4724 6.05124 92.4724 7.38187V22.6066ZM92.2583 0.502361C91.2616 0.000165939 89.9576 0.000165939 87.3487 0.000165939H71.9784C69.3705 0.000165939 68.0655 0.000165939 67.0688 0.502361C66.1931 0.944635 65.4806 1.65037 65.0341 2.51875C64.5261 3.50602 64.5261 4.79766 64.5261 7.38187V22.6066C64.5261 25.1898 64.5261 26.4815 65.0341 27.4687C65.4806 28.3371 66.1931 29.0429 67.0688 29.4851C68.0655 29.9883 69.3705 29.9883 71.9784 29.9883H87.3487C89.9576 29.9883 91.2616 29.9883 92.2583 29.4851C93.134 29.0429 93.8475 28.3371 94.293 27.4687C94.801 26.4815 94.801 25.1898 94.801 22.6066V7.38187C94.801 4.79766 94.801 3.50602 94.293 2.51875C93.8475 1.65037 93.134 0.944635 92.2583 0.502361ZM60.2733 22.6066C60.2733 23.9363 60.2714 24.7951 60.2167 25.4485C60.1648 26.0753 60.0774 26.3074 60.0189 26.4216C59.7961 26.8553 59.4398 27.2081 59.001 27.4297C58.8858 27.4878 58.6515 27.5743 58.0187 27.6257C57.359 27.6799 56.492 27.6808 55.1496 27.6808H39.7793C38.436 27.6808 37.5698 27.6799 36.9092 27.6257C36.2774 27.5743 36.0421 27.4878 35.9269 27.4297C35.489 27.2081 35.1328 26.8553 34.91 26.4216C34.8514 26.3074 34.7631 26.0753 34.7113 25.4485C34.6575 24.7951 34.6556 23.9363 34.6556 22.6066V7.38187C34.6556 6.05124 34.6575 5.19237 34.7113 4.53895C34.7631 3.91216 34.8514 3.68008 34.91 3.56594C35.1328 3.13223 35.489 2.77936 35.9269 2.55775C36.0421 2.49973 36.2774 2.41318 36.9092 2.36182C37.5698 2.3076 38.436 2.30665 39.7793 2.30665H55.1496C56.492 2.30665 57.359 2.3076 58.0187 2.36182C58.6515 2.41318 58.8858 2.49973 59.001 2.55775C59.4398 2.77936 59.7961 3.13223 60.0189 3.56594C60.0774 3.68008 60.1648 3.91216 60.2167 4.53895C60.2714 5.19237 60.2733 6.05124 60.2733 7.38187V22.6066ZM60.0582 0.502361C59.0625 0.000165939 57.7575 0.000165939 55.1496 0.000165939H39.7793C37.1704 0.000165939 35.8664 0.000165939 34.8697 0.502361C33.993 0.944635 33.2815 1.65037 32.835 2.51875C32.327 3.50602 32.327 4.79766 32.327 7.38187V22.6066C32.327 25.1898 32.327 26.4815 32.835 27.4687C33.2815 28.3371 33.993 29.0429 34.8697 29.4851C35.8664 29.9883 37.1704 29.9883 39.7793 29.9883H55.1496C57.7575 29.9883 59.0625 29.9883 60.0582 29.4851C60.9349 29.0429 61.6474 28.3371 62.0939 27.4687C62.6019 26.4815 62.6019 25.1898 62.6019 22.6066V7.38187C62.6019 4.79766 62.6019 3.50602 62.0939 2.51875C61.6474 1.65037 60.9349 0.944635 60.0582 0.502361ZM124.672 22.6066C124.672 23.9363 124.67 24.7951 124.616 25.4485C124.564 26.0753 124.477 26.3074 124.418 26.4216C124.194 26.8553 123.839 27.2081 123.4 27.4297C123.285 27.4878 123.051 27.5743 122.418 27.6257C121.758 27.6799 120.891 27.6808 119.549 27.6808H104.178C102.835 27.6808 101.968 27.6799 101.308 27.6257C100.677 27.5743 100.441 27.4878 100.326 27.4297C99.8882 27.2081 99.532 26.8553 99.3083 26.4216C99.2497 26.3074 99.1613 26.0753 99.1105 25.4485C99.0567 24.7951 99.0548 23.9363 99.0548 22.6066V7.38187C99.0548 6.05124 99.0567 5.19237 99.1105 4.53895C99.1613 3.91216 99.2497 3.68008 99.3083 3.56594C99.532 3.13223 99.8882 2.77936 100.326 2.55775C100.441 2.49973 100.677 2.41318 101.308 2.36182C101.968 2.3076 102.835 2.30665 104.178 2.30665H119.549C120.891 2.30665 121.758 2.3076 122.418 2.36182C123.051 2.41318 123.285 2.49973 123.4 2.55775C123.839 2.77936 124.194 3.13223 124.418 3.56594C124.477 3.68008 124.564 3.91216 124.616 4.53895C124.67 5.19237 124.672 6.05124 124.672 7.38187V22.6066ZM126.493 2.51875C126.047 1.65037 125.334 0.944635 124.457 0.502361C123.462 0.000165939 122.157 0.000165939 119.549 0.000165939H104.178C101.57 0.000165939 100.266 0.000165939 99.2689 0.502361C98.3922 0.944635 97.6797 1.65037 97.2332 2.51875C96.7262 3.50602 96.7262 4.79766 96.7262 7.38187V22.6066C96.7262 25.1898 96.7262 26.4815 97.2332 27.4687C97.6797 28.3371 98.3922 29.0429 99.2689 29.4851C100.266 29.9883 101.57 29.9883 104.178 29.9883H119.549C122.157 29.9883 123.462 29.9883 124.457 29.4851C125.334 29.0429 126.047 28.3371 126.493 27.4687C127.001 26.4815 127.001 25.1898 127.001 22.6066V7.38187C127.001 4.79766 127.001 3.50602 126.493 2.51875ZM28.0732 22.6066C28.0732 23.9363 28.0713 24.7951 28.0176 25.4485C27.9657 26.0753 27.8783 26.3074 27.8188 26.4216C27.596 26.8553 27.2398 27.2081 26.8019 27.4297C26.6867 27.4878 26.4524 27.5743 25.8196 27.6257C25.1599 27.6799 24.2929 27.6808 22.9495 27.6808H7.57923C6.23684 27.6808 5.36976 27.6799 4.71009 27.6257C4.0773 27.5743 3.84301 27.4878 3.72778 27.4297C3.28992 27.2081 2.93368 26.8553 2.70995 26.4216C2.65137 26.3074 2.56399 26.0753 2.51214 25.4485C2.45837 24.7951 2.45645 23.9363 2.45645 22.6066V7.38187C2.45645 6.05124 2.45837 5.19237 2.51214 4.53895C2.56399 3.91216 2.65137 3.68008 2.70995 3.56594C2.93368 3.13223 3.28992 2.77936 3.72778 2.55775C3.84301 2.49973 4.0773 2.41318 4.71009 2.36182C5.36976 2.3076 6.23684 2.30665 7.57923 2.30665H22.9495C24.2929 2.30665 25.1599 2.3076 25.8196 2.36182C26.4524 2.41318 26.6867 2.49973 26.8019 2.55775C27.2398 2.77936 27.596 3.13223 27.8188 3.56594C27.8783 3.68008 27.9657 3.91216 28.0176 4.53895C28.0713 5.19237 28.0732 6.05124 28.0732 7.38187V22.6066ZM27.8591 0.502361C26.8624 0.000165939 25.5584 0.000165939 22.9495 0.000165939H7.57923C4.97127 0.000165939 3.66729 0.000165939 2.67058 0.502361C1.7939 0.944635 1.08141 1.65037 0.63491 2.51875C0.126952 3.50602 0.126953 4.79766 0.126953 7.38187V22.6066C0.126953 25.1898 0.126952 26.4815 0.63491 27.4687C1.08141 28.3371 1.7939 29.0429 2.67058 29.4851C3.66729 29.9883 4.97127 29.9883 7.57923 29.9883H22.9495C25.5584 29.9883 26.8624 29.9883 27.8591 29.4851C28.7358 29.0429 29.4483 28.3371 29.8948 27.4687C30.4018 26.4815 30.4018 25.1898 30.4018 22.6066V7.38187C30.4018 4.79766 30.4018 3.50602 29.8948 2.51875C29.4483 1.65037 28.7358 0.944635 27.8591 0.502361ZM105.808 11.7152L101.383 11.7105L105.342 20.8603H120.014L122.343 16.916V14.4012H113.028C106.507 14.4012 105.808 11.7152 105.808 11.7152ZM120.48 11.7105H118.151V8.40338H113.028V13.6917H120.48V11.7105Z" fill="white"/>
<path d="M24.4928 40.439L18.9051 67.9746L13.3636 40.439H0V72.7256H7.31028V45.0977L13.7362 72.7256H24.027L30.4529 45.0977V72.7256H37.7171V40.439H24.4928Z" fill="white"/>
<path d="M2.19357 86.623C1.44011 86.623 0.841777 86.2928 0.664492 85.7983C0.576176 85.5564 0.56477 85.4465 0.56477 84.93V81.873H0V80.8617H0.56477C0.56477 80.3115 0.56477 79.949 0.620171 79.5311L2.12709 79.1573C2.07169 79.6741 2.03845 80.2899 2.03845 80.8617H3.36809L2.99136 81.873H2.03845V84.699C2.03845 85.4135 2.17141 85.6004 2.68111 85.6004C2.81407 85.6004 2.94704 85.5674 3.21264 85.4904L3.40133 86.3701C2.96887 86.5461 2.58139 86.623 2.19357 86.623Z" fill="white"/>
<path d="M7.18968 82.9944C7.18968 82.5766 7.14535 82.3563 7.01239 82.1477C6.86835 81.9278 6.65782 81.8178 6.35865 81.8178C5.79356 81.8178 5.47223 82.2577 5.47223 83.0384V83.0601H7.18968V82.9944ZM5.45039 84.1377V84.1817C5.45039 85.0504 5.8822 85.5452 6.64674 85.5452C7.15644 85.5452 7.63289 85.3583 8.08685 84.9844L8.66303 85.8641C8.00962 86.3919 7.32264 86.6445 6.52486 86.6445C4.89605 86.6445 3.84375 85.5012 3.84375 83.7309C3.84375 82.7192 4.05428 82.0488 4.55289 81.4989C5.01794 80.9821 5.58303 80.7402 6.33649 80.7402C6.99023 80.7402 7.61073 80.9601 7.97638 81.334C8.49715 81.8618 8.72984 82.6206 8.72984 83.7968V84.1377H5.45039Z" fill="white"/>
<path d="M12.4439 82.147C12.2998 82.0701 12.178 82.0371 12.0117 82.0371C11.6793 82.0371 11.3802 82.191 11.1035 82.5099V86.4902H9.61873V82.7298C9.61873 81.9711 9.53009 81.3993 9.4082 81.0804L10.7378 80.7285C10.8708 80.9595 10.9484 81.2124 10.9705 81.5316C11.2915 81.1027 11.7458 80.7285 12.2998 80.7285C12.5214 80.7285 12.6212 80.7508 12.8539 80.8495L12.4439 82.147Z" fill="white"/>
<path d="M19.0908 86.4902V82.7738C19.0908 82.1034 19.0132 81.9711 18.6254 81.9711C18.3484 81.9711 17.9606 82.158 17.6393 82.4439V86.4902H16.2324V82.8288C16.2324 82.1251 16.1327 81.9601 15.7227 81.9601C15.4457 81.9601 15.069 82.1034 14.7477 82.389V86.4902H13.2965V82.5649C13.2965 81.7515 13.2411 81.3996 13.0859 81.1247L14.4263 80.7618C14.5261 80.9158 14.5704 81.0477 14.6258 81.3336C15.0136 80.9595 15.49 80.7618 16.0108 80.7618C16.4762 80.7618 16.864 80.9158 17.1628 81.2237C17.2404 81.3003 17.3183 81.3996 17.3848 81.4983C17.9052 80.9708 18.3706 80.7618 18.9911 80.7618C19.4343 80.7618 19.8554 80.8935 20.1099 81.1137C20.4312 81.3886 20.5309 81.7182 20.5309 82.4879V86.4902H19.0908Z" fill="white"/>
<path d="M21.9143 86.4902V80.9595L23.399 80.7289V86.4902H21.9143ZM22.6566 80.223C22.158 80.223 21.748 79.8162 21.748 79.3103C21.748 78.8045 22.1691 78.398 22.6788 78.398C23.1771 78.398 23.5763 78.8045 23.5763 79.3103C23.5763 79.8162 23.1663 80.223 22.6566 80.223Z" fill="white"/>
<path d="M27.8009 86.4902V82.8288C27.8009 82.191 27.6901 82.0041 27.3022 82.0041C27.0031 82.0041 26.6153 82.202 26.2721 82.5099V86.4902H24.7873V82.4113C24.7873 81.9274 24.7209 81.4656 24.5879 81.0917L25.9064 80.7175C26.0391 80.9485 26.117 81.1904 26.117 81.4213C26.3383 81.2677 26.5266 81.1354 26.7704 81.0038C27.0696 80.8498 27.4574 80.7618 27.7898 80.7618C28.4214 80.7618 28.9754 81.0917 29.1523 81.5756C29.2299 81.7842 29.2631 82.0261 29.2631 82.378V86.4902H27.8009Z" fill="white"/>
<path d="M33.227 84.0276C32.1969 84.0276 31.8423 84.2146 31.8423 84.885C31.8423 85.3252 32.1193 85.6221 32.496 85.6221C32.7727 85.6221 33.0497 85.4788 33.2717 85.2369L33.2935 84.0276H33.227ZM34.4902 86.7764C34.1467 86.6337 33.4597 86.3145 33.3489 86.3918C33.0719 86.5894 32.6733 86.6994 32.2079 86.6994C30.9448 86.6994 30.2578 86.0616 30.2578 84.94C30.2578 83.6208 31.1775 83.005 32.9832 83.005C33.094 83.005 33.1938 83.005 33.3157 83.016V82.7851C33.3157 82.1586 33.1938 81.9493 32.6508 81.9493C32.1747 81.9493 31.6204 82.1806 31.0113 82.5875L30.3797 81.5318C30.6789 81.3449 30.9005 81.2349 31.2994 81.0696C31.8534 80.839 32.3295 80.7401 32.8506 80.7401C33.8032 80.7401 34.4566 81.092 34.6785 81.7184C34.7558 81.9493 34.7893 82.1253 34.7783 82.7301L34.745 84.6214C34.7339 85.2369 34.7783 85.5011 35.2769 85.8747L34.4902 86.7764Z" fill="white"/>
<path d="M36.1016 78.9258V86.6225L37.6297 86.6445V78.9258H36.1016Z" fill="white"/>
</svg>
