<svg width="109" height="109" viewBox="0 0 109 109" fill="none" xmlns="http://www.w3.org/2000/svg">
<path d="M54.5013 18.1667C59.3194 18.1667 63.9402 20.0807 67.3471 23.4876C70.754 26.8945 72.668 31.5153 72.668 36.3334C72.668 41.1515 70.754 45.7722 67.3471 49.1791C63.9402 52.586 59.3194 54.5 54.5013 54.5C49.6832 54.5 45.0624 52.586 41.6555 49.1791C38.2486 45.7722 36.3346 41.1515 36.3346 36.3334C36.3346 31.5153 38.2486 26.8945 41.6555 23.4876C45.0624 20.0807 49.6832 18.1667 54.5013 18.1667ZM54.5013 63.5834C74.5755 63.5834 90.8346 71.7129 90.8346 81.75V90.8334H18.168V81.75C18.168 71.7129 34.4271 63.5834 54.5013 63.5834Z" fill="white"/>
</svg>
