<svg width="64" height="64" viewBox="0 0 64 64" fill="none" xmlns="http://www.w3.org/2000/svg">
<path d="M44.5844 52.672L42.8777 39.008C42.6359 37.0726 41.6953 35.2922 40.2328 34.0017C38.7704 32.7111 36.8868 31.9993 34.9364 32H29.0591C27.1095 32.0006 25.2273 32.713 23.7659 34.0034C22.3046 35.2939 21.3648 37.0735 21.1231 39.008L19.4137 52.672C19.3199 53.4227 19.3869 54.1848 19.6102 54.9076C19.8335 55.6304 20.208 56.2975 20.7089 56.8645C21.2098 57.4314 21.8256 57.8853 22.5154 58.1961C23.2052 58.5068 23.9532 58.6672 24.7097 58.6667H39.2911C40.0474 58.6668 40.7951 58.5061 41.4845 58.1952C42.174 57.8844 42.7895 57.4304 43.2901 56.8635C43.7907 56.2965 44.165 55.6296 44.3881 54.907C44.6113 54.1843 44.6782 53.4225 44.5844 52.672Z" stroke="currentColor" stroke-width="3" stroke-linecap="round" stroke-linejoin="round"/>
<path d="M32 21.3333C36.4183 21.3333 40 17.7516 40 13.3333C40 8.91507 36.4183 5.33334 32 5.33334C27.5817 5.33334 24 8.91507 24 13.3333C24 17.7516 27.5817 21.3333 32 21.3333Z" stroke="currentColor" stroke-width="3"/>
<path d="M10.6668 29.3334C13.6123 29.3334 16.0002 26.9455 16.0002 24C16.0002 21.0545 13.6123 18.6667 10.6668 18.6667C7.72131 18.6667 5.3335 21.0545 5.3335 24C5.3335 26.9455 7.72131 29.3334 10.6668 29.3334Z" stroke="currentColor" stroke-width="3"/>
<path d="M53.3333 29.3334C56.2789 29.3334 58.6667 26.9455 58.6667 24C58.6667 21.0545 56.2789 18.6667 53.3333 18.6667C50.3878 18.6667 48 21.0545 48 24C48 26.9455 50.3878 29.3334 53.3333 29.3334Z" stroke="currentColor" stroke-width="3"/>
<path d="M10.6669 37.3333H9.8509C8.58839 37.3332 7.36677 37.7809 6.40337 38.5968C5.43996 39.4128 4.79724 40.544 4.58956 41.7893L3.70156 47.1227C3.57413 47.8868 3.61469 48.6695 3.82041 49.4164C4.02614 50.1632 4.3921 50.8563 4.89284 51.4474C5.39357 52.0385 6.01706 52.5134 6.71994 52.8391C7.42283 53.1648 8.18822 53.3334 8.9629 53.3333H18.6669M53.3336 37.3333H54.1496C55.4121 37.3332 56.6337 37.7809 57.5971 38.5968C58.5605 39.4128 59.2032 40.544 59.4109 41.7893L60.2989 47.1227C60.4263 47.8868 60.3858 48.6695 60.18 49.4164C59.9743 50.1632 59.6084 50.8563 59.1076 51.4474C58.6069 52.0385 57.9834 52.5134 57.2805 52.8391C56.5776 53.1648 55.8122 53.3334 55.0376 53.3333H45.3336" stroke="currentColor" stroke-width="3" stroke-linecap="round" stroke-linejoin="round"/>
</svg>
