<svg width="75" height="75" viewBox="0 0 75 75" fill="none" xmlns="http://www.w3.org/2000/svg">
<g clip-path="url(#clip0_2030_11235)">
<path d="M28.8335 36.7143C26.3256 40.6824 24.9916 45.2893 25 50L28.8335 36.7143ZM28.8335 36.7143H29.5V35.7143L28.6816 35.1397C28.5482 35.3297 28.4176 35.5212 28.2896 35.7143H22.4286L28.8335 36.7143ZM57.1429 15.2857H58.1429V14.2857V7.14286V6.14286H57.1429H7.14286H6.14286V7.14286V14.2857V15.2857H7.14286H57.1429ZM37.1786 29.5714H37.4556L37.6931 29.4289C41.2957 27.2673 45.5119 26 50 26C63.2691 26 74 36.7309 74 50C74 63.2691 63.2691 74 50 74C41.8436 74 34.6775 69.9236 30.3186 63.7113L30.0199 63.2857H29.5H4.57143V26H9.71429V57.1429V58.1429H10.7143H26.0357H27.3614L26.9972 56.8681C26.3763 54.6947 26 52.3947 26 50L26 49.9982C25.9913 45.0924 27.4996 40.304 30.3184 36.2889L31.4239 34.7143H29.5H22.4286V30.3571C22.4286 29.9094 22.7666 29.5714 23.2143 29.5714H37.1786ZM50.7857 50.8929V51.4635L51.277 51.7538L60.6152 57.2718L58.987 59.9203L47.4286 53.0044V36.7143H50.7857V50.8929ZM1 1H63.2857V20.4286H1V1ZM31.1429 50C31.1429 60.4094 39.5906 68.8571 50 68.8571C60.4094 68.8571 68.8571 60.4094 68.8571 50C68.8571 39.5906 60.4094 31.1429 50 31.1429C39.5906 31.1429 31.1429 39.5906 31.1429 50Z" fill="#004996" stroke="white" stroke-width="2"/>
<rect x="47.9167" y="37.5" width="2.08333" height="14.5833" fill="#E10000"/>
<path d="M47.9166 53.1251L47.9168 50.0001L60.2348 57.9535L59.0986 59.6997L47.9166 53.1251Z" fill="#E10000"/>
</g>
<defs>
<clipPath id="clip0_2030_11235">
<rect width="75" height="75" fill="white"/>
</clipPath>
</defs>
</svg>
