<svg width="100" height="100" viewBox="0 0 100 100" fill="none" xmlns="http://www.w3.org/2000/svg">
<path d="M82.25 18.75V17.75H81.25H68.75C68.1864 17.75 67.6459 17.5261 67.2474 17.1276C66.8489 16.7291 66.625 16.1886 66.625 15.625C66.625 15.0614 66.8489 14.5209 67.2474 14.1224C67.6459 13.7239 68.1864 13.5 68.75 13.5H84.375C84.9386 13.5 85.4791 13.7239 85.8776 14.1224C86.2761 14.5209 86.5 15.0614 86.5 15.625V31.25C86.5 31.8136 86.2761 32.3541 85.8776 32.7526C85.4791 33.1511 84.9386 33.375 84.375 33.375C83.8114 33.375 83.2709 33.1511 82.8724 32.7526C82.4739 32.3541 82.25 31.8136 82.25 31.25V18.75ZM17.75 81.25V82.25H18.75H31.25C31.8136 82.25 32.3541 82.4739 32.7526 82.8724C33.1511 83.2709 33.375 83.8114 33.375 84.375C33.375 84.9386 33.1511 85.4791 32.7526 85.8776C32.3541 86.2761 31.8136 86.5 31.25 86.5H15.625C15.0614 86.5 14.5209 86.2761 14.1224 85.8776C13.7239 85.4791 13.5 84.9386 13.5 84.375V68.75C13.5 68.1864 13.7239 67.6459 14.1224 67.2474C14.5209 66.8489 15.0614 66.625 15.625 66.625C16.1886 66.625 16.7291 66.8489 17.1276 67.2474C17.5261 67.6459 17.75 68.1864 17.75 68.75V81.25ZM81.25 82.25H82.25V81.25V68.75C82.25 68.1864 82.4739 67.6459 82.8724 67.2474C83.2709 66.8489 83.8114 66.625 84.375 66.625C84.9386 66.625 85.4791 66.8489 85.8776 67.2474C86.2761 67.6459 86.5 68.1864 86.5 68.75V84.375C86.5 84.9386 86.2761 85.4791 85.8776 85.8776C85.4791 86.2761 84.9386 86.5 84.375 86.5H68.75C68.1864 86.5 67.6459 86.2761 67.2474 85.8776C66.8489 85.4791 66.625 84.9386 66.625 84.375C66.625 83.8114 66.8489 83.2709 67.2474 82.8724C67.6459 82.4739 68.1864 82.25 68.75 82.25H81.25ZM17.1276 32.7526L17.8347 33.4597L17.1276 32.7526C16.7291 33.1511 16.1886 33.375 15.625 33.375C15.0614 33.375 14.5209 33.1511 14.1224 32.7526L13.4206 33.4544L14.1224 32.7526C13.7239 32.3541 13.5 31.8136 13.5 31.25V15.625C13.5 15.0614 13.7239 14.5209 14.1224 14.1224C14.5209 13.7239 15.0614 13.5 15.625 13.5H31.25C31.8136 13.5 32.3541 13.7239 32.7526 14.1224L33.4544 13.4206L32.7526 14.1224C33.1511 14.5209 33.375 15.0614 33.375 15.625C33.375 16.1886 33.1511 16.7291 32.7526 17.1276L33.4597 17.8347L32.7526 17.1276C32.3541 17.5261 31.8136 17.75 31.25 17.75H18.75H17.75V18.75V31.25C17.75 31.8136 17.5261 32.3541 17.1276 32.7526ZM33.375 65.625V66.625H34.375H65.625H66.625V65.625V34.375V33.375H65.625H34.375H33.375V34.375V65.625ZM65.625 70.875H34.375C32.9826 70.875 31.6473 70.3219 30.6627 69.3373C29.6781 68.3527 29.125 67.0174 29.125 65.625V34.375C29.125 32.9826 29.6781 31.6473 30.6627 30.6627C31.6473 29.6781 32.9826 29.125 34.375 29.125H65.625C67.0174 29.125 68.3527 29.6781 69.3373 30.6627C70.3219 31.6473 70.875 32.9826 70.875 34.375V65.625C70.875 67.0174 70.3219 68.3527 69.3373 69.3373C68.3527 70.3219 67.0174 70.875 65.625 70.875Z" fill="#004996" stroke="white" stroke-width="2"/>
</svg>
