<svg width="77" height="77" viewBox="0 0 77 77" fill="none" xmlns="http://www.w3.org/2000/svg">
<path d="M19.75 50.5312V24.5625H23.5625V50.5312V51.0312H24.0625H52.9375H53.4375V50.5312V11.5933V10.3864L52.584 11.2397L44.3095 19.5119L41.615 16.8421L55.3438 3.11336L69.0726 16.8422L66.3804 19.5117L58.1036 11.2326L57.25 10.3787V11.5861V50.5312C57.25 52.9092 55.3155 54.8438 52.9375 54.8438H24.0625C21.6845 54.8438 19.75 52.9092 19.75 50.5312Z" fill="#E10000" stroke="white"/>
<rect x="28" y="24" width="21" height="25" fill="white"/>
<path d="M30 30.6529C30.0002 30.4247 30.0599 30.2008 30.1729 30.0045C30.2859 29.8083 30.4481 29.647 30.6424 29.5374L38.4071 25.1575C38.5886 25.0542 38.7926 25 39 25C39.2074 25 39.4114 25.0542 39.5929 25.1575L30 30.6529ZM30 30.6529V39.3474V30.6529ZM47.4313 29.4068L39.6671 25.0271C39.6671 25.0271 39.667 25.027 39.6669 25.027C39.463 24.911 39.2335 24.85 39 24.85C38.7665 24.85 38.537 24.911 38.3331 25.027C38.333 25.027 38.3329 25.0271 38.3329 25.0271L30.5687 29.4068C30.3506 29.5297 30.1692 29.7105 30.0429 29.9297C29.9167 30.1488 29.8502 30.3986 29.85 30.6528V30.6529L29.85 39.3474L29.85 39.3475C29.8502 39.6017 29.9167 39.8514 30.0429 40.0706C30.1692 40.2898 30.3506 40.4705 30.5687 40.5935L38.333 44.9732C38.537 45.0891 38.7665 45.15 39 45.15C39.2335 45.15 39.463 45.0891 39.667 44.9732L47.4313 40.5935C47.6494 40.4705 47.8308 40.2898 47.9571 40.0706C48.0833 39.8514 48.1498 39.6017 48.15 39.3475V39.3474V30.6529V30.6528C48.1498 30.3986 48.0833 30.1488 47.9571 29.9297C47.8308 29.7105 47.6494 29.5297 47.4313 29.4068ZM31.2088 39.3487V39.3474V31.4988L38.3206 35.5114V43.3796L31.2229 39.377C31.2193 39.3747 31.2159 39.3712 31.2132 39.3664C31.2104 39.3613 31.2088 39.3552 31.2088 39.3487ZM46.7912 39.3474L46.7912 39.3487C46.7912 39.3552 46.7896 39.3613 46.7868 39.3664C46.7841 39.3712 46.7807 39.3747 46.7771 39.377L39.6794 43.3796V35.5095L42.5559 33.887V37.1819C42.5559 37.365 42.6264 37.5413 42.7533 37.6721C42.8804 37.803 43.0536 37.8774 43.2353 37.8774C43.417 37.8774 43.5902 37.803 43.7173 37.6721C43.8442 37.5413 43.9147 37.365 43.9147 37.1819V33.1214L46.7912 31.4988L46.7912 39.3474ZM38.9854 26.2445C38.9891 26.2424 38.9929 26.2415 38.9965 26.2415C39.0001 26.2415 39.0039 26.2424 39.0075 26.2445L46.1513 30.2729L43.4621 31.7889L36.3096 27.7556L38.9854 26.2445ZM39 34.3043L31.8486 30.2728L34.9024 28.5497L38.557 30.6108L42.0537 32.5828L39 34.3043Z" fill="#004996" stroke="#004996" stroke-width="0.3"/>
</svg>
