<?xml version="1.0" encoding="utf-8"?>
<!-- Generator: Adobe Illustrator 25.2.3, SVG Export Plug-In . SVG Version: 6.00 Build 0)  -->
<svg version="1.1" id="Слой_1" xmlns="http://www.w3.org/2000/svg" xmlns:xlink="http://www.w3.org/1999/xlink" x="0px" y="0px"
	 viewBox="0 0 87 87" style="enable-background:new 0 0 87 87;" xml:space="preserve">
<style type="text/css">
	.st0{clip-path:url(#SVGID_2_);}
	.st1{fill:#004996;stroke:#FFFFFF;stroke-width:0.8;}
	.st2{fill:#004996;}
	.st3{fill:#E10000;}
	.st4{fill:#FFFFFF;}
</style>
<g>
	<defs>
		<rect id="SVGID_1_" width="87" height="87"/>
	</defs>
	<clipPath id="SVGID_2_">
		<use xlink:href="#SVGID_1_"  style="overflow:visible;"/>
	</clipPath>
	<g class="st0">
		<path class="st1" d="M12.5,59.7c0,0.2,0,0.4,0.1,0.5c0.1,0.2,0.2,0.3,0.4,0.4v0l0,0l28.2,15.4l0.6,0.3v-0.7V45.1v-0.2l-0.2-0.1
			L13.1,29.1l-0.6-0.3v0.7V59.7z M12.5,59.7C12.5,59.7,12.5,59.7,12.5,59.7l0.4,0 M12.5,59.7L12.5,59.7l0.4,0 M75.5,23.4L75.5,23.4
			c0.7,0.4,1.3,0.9,1.7,1.6c0.4,0.7,0.6,1.4,0.6,2.2v32.5c0,0.8-0.2,1.5-0.6,2.2c-0.4,0.7-1,1.2-1.7,1.6l0,0L45.6,79.9l0,0
			c-0.6,0.4-1.4,0.5-2.1,0.5s-1.5-0.2-2.1-0.5l0,0L11.5,63.6l0,0c-0.7-0.4-1.3-0.9-1.7-1.6c-0.4-0.7-0.6-1.4-0.6-2.2V27.2
			c0-0.8,0.2-1.5,0.6-2.2c0.4-0.7,1-1.2,1.7-1.6h0L41.4,7.1l0,0c0.6-0.4,1.4-0.5,2.1-0.5s1.5,0.2,2.1,0.5l0,0L75.5,23.4z M43,9.9
			L43,9.9l-11.2,6.1l-0.6,0.4l0.6,0.4l28.7,15.7l0.2,0.1l0.2-0.1l11.5-6.3l0.6-0.4l-0.6-0.4L44,9.9v0c-0.2-0.1-0.3-0.1-0.5-0.1
			S43.1,9.8,43,9.9z M14.6,25.5l-0.6,0.4l0.6,0.4l28.7,15.7l0.2,0.1l0.2-0.1l12.9-7.1l0.6-0.4l-0.6-0.4l-14.4-7.9l-14.4-7.9
			l-0.2-0.1l-0.2,0.1L14.6,25.5z M73.9,60.7L73.9,60.7l0.1-0.9h0.4v0V29.5v-0.7l-0.6,0.3l-12.2,6.7l-0.2,0.1v0.2v15.5
			c0,0.4-0.2,0.9-0.5,1.2s-0.7,0.5-1.2,0.5s-0.9-0.2-1.2-0.5s-0.5-0.7-0.5-1.2V38.4v-0.7L57.6,38l-12.2,6.7l-0.2,0.1v0.2v30.7v0.7
			l0.6-0.3L73.9,60.7z"/>
		<path class="st2" d="M33.3,48.5l-8.2-4.4c-0.2-0.1-0.4-0.2-0.6-0.2s-0.4,0.1-0.6,0.2l-8.2,4.4c-0.2,0.1-0.4,0.3-0.5,0.5
			c-0.1,0.2-0.2,0.4-0.2,0.6v8.7c0,0.2,0.1,0.5,0.2,0.6c0.1,0.2,0.3,0.4,0.5,0.5l8.2,4.4c0.2,0.1,0.4,0.2,0.6,0.2s0.4-0.1,0.6-0.2
			l8.2-4.4c0.2-0.1,0.4-0.3,0.5-0.5c0.1-0.2,0.2-0.4,0.2-0.6v-8.7c0-0.2-0.1-0.5-0.2-0.6C33.7,48.8,33.5,48.6,33.3,48.5z M24.4,45.1
			C24.4,45.1,24.5,45.1,24.4,45.1c0.1,0,0.2,0,0.2,0l7.8,4.2L29.2,51l-7.9-4.2L24.4,45.1z M23.9,62.6l-7.7-4.1c0,0-0.1,0-0.1-0.1
			c0,0,0-0.1,0-0.1v-8.1l7.8,4.2V62.6z M16.6,49.3l3.5-1.9l3.9,2.1l3.9,2.1l-3.5,1.9L16.6,49.3z M32.9,58.3
			C32.9,58.4,32.9,58.4,32.9,58.3c0,0.1-0.1,0.1-0.1,0.2l-7.7,4.1v-8.2l3.4-1.8v3.6c0,0.1,0.1,0.3,0.2,0.4c0.1,0.1,0.2,0.2,0.4,0.2
			c0.1,0,0.3-0.1,0.4-0.2c0.1-0.1,0.2-0.2,0.2-0.4V52l3.4-1.8V58.3z"/>
		<path class="st3" d="M49.5,74.5V78H36.4v-3.5H49.5z M44.8,68.2v16.6h-3.5V68.2H44.8z"/>
		<path class="st4" d="M49.5,74.5h3v-3h-3V74.5z M49.5,78v3h3v-3H49.5z M36.4,78h-3v3h3V78z M36.4,74.5v-3h-3v3H36.4z M44.8,68.2h3
			v-3h-3V68.2z M44.8,84.7v3h3v-3H44.8z M41.2,84.7h-3v3h3V84.7z M41.2,68.2v-3h-3v3H41.2z M46.5,74.5V78h6v-3.5H46.5z M49.5,75
			H36.4v6h13.1V75z M39.4,78v-3.5h-6V78H39.4z M36.4,77.5h13.1v-6H36.4V77.5z M41.8,68.2v16.6h6V68.2H41.8z M44.8,81.7h-3.5v6h3.5
			V81.7z M44.2,84.7V68.2h-6v16.6H44.2z M41.2,71.2h3.5v-6h-3.5V71.2z"/>
	</g>
</g>
</svg>
