<svg width="99" height="82" viewBox="0 0 99 82" fill="none" xmlns="http://www.w3.org/2000/svg">
<path d="M5.67812 60.6334C5.67678 60.8239 5.72584 61.0113 5.82035 61.1767C5.9152 61.3427 6.05242 61.4805 6.21798 61.5761L6.21793 61.5762L6.22592 61.5805L34.4329 77.0196L35.025 77.3437V76.6688V45.9673V45.7303L34.8171 45.6164L6.27025 29.9836L5.67812 29.6594V30.3345V60.6334ZM5.67812 60.6334C5.67813 60.6327 5.67814 60.632 5.67814 60.6314L6.07812 60.6349M5.67812 60.6334V60.6349H6.07812M6.07812 60.6349V30.7905L34.8171 76.3179L34.625 76.6688H34.225V76.4498L6.41797 61.2297C6.31374 61.1695 6.22736 61.0827 6.16765 60.9782C6.10794 60.8738 6.07705 60.7553 6.07812 60.6349ZM68.662 24.3133L68.6621 24.3133C69.3475 24.6883 69.9194 25.2407 70.3181 25.9126C70.7168 26.5846 70.9275 27.3513 70.9281 28.1326V60.6346C70.9275 61.4159 70.7168 62.1826 70.3181 62.8546C69.9194 63.5265 69.3475 64.0789 68.6621 64.4539L68.662 64.454L38.7557 80.8276L38.7547 80.8282C38.1144 81.1812 37.3952 81.3663 36.6641 81.3663C35.9329 81.3663 35.2137 81.1812 34.5734 80.8282L34.5724 80.8276L4.66616 64.454L4.66606 64.4539C3.98066 64.0789 3.40868 63.5265 3.01001 62.8546C2.61138 62.1827 2.40069 61.416 2.4 60.6348V28.1324C2.40069 27.3512 2.61138 26.5845 3.01001 25.9126C3.40868 25.2407 3.98066 24.6883 4.66606 24.3133L4.66616 24.3133L34.5724 7.93959L34.5737 7.93888C35.2137 7.5854 35.9329 7.4 36.6641 7.4C37.3952 7.4 38.1144 7.5854 38.7544 7.93888L38.7557 7.93959L68.662 24.3133ZM36.1322 10.813L36.132 10.8131L24.9341 16.9507L24.2937 17.3017L24.9343 17.6523L53.6579 33.3735L53.8499 33.4786L54.042 33.3735L65.5763 27.0626L66.2175 26.7118L65.5763 26.3609L37.1688 10.813L37.1687 10.813C37.0098 10.726 36.8316 10.6805 36.6505 10.6805C36.4693 10.6805 36.2911 10.726 36.1322 10.813ZM7.75173 26.3609L7.11084 26.7119L7.75187 27.0626L36.4721 42.777L36.6641 42.8821L36.8561 42.777L49.7939 35.6981L50.4351 35.3472L49.794 34.9963L35.4339 27.1357L21.0738 19.2751L20.8817 19.17L20.6896 19.2752L7.75173 26.3609ZM67.1022 61.5805L67.1023 61.5806L67.25 60.6349H67.65V60.6333V30.3345V29.6594L67.0579 29.9836L54.8235 36.6819L54.6156 36.7958V37.0328V52.5399C54.6156 52.9746 54.4429 53.3915 54.1356 53.6989C53.8282 54.0062 53.4113 54.1789 52.9766 54.1789C52.5419 54.1789 52.125 54.0062 51.8176 53.6989C51.5102 53.3915 51.3375 52.9746 51.3375 52.5399V39.2622V38.5871L50.7454 38.9113L38.511 45.6096L38.3031 45.7235V45.9605V76.6688V77.3437L38.8952 77.0196L67.1022 61.5805Z" fill="#004996" stroke="white" stroke-width="0.8"/>
<path d="M78 20V18H80.75L80.35 17.65C79.4833 16.8833 78.875 16.0083 78.525 15.025C78.175 14.0417 78 13.05 78 12.05C78 10.2 78.554 8.554 79.662 7.112C80.77 5.67 82.216 4.716 84 4.25V6.35C82.8 6.78333 81.8333 7.52067 81.1 8.562C80.3667 9.60333 80 10.766 80 12.05C80 12.8 80.1417 13.5293 80.425 14.238C80.7083 14.9467 81.15 15.6007 81.75 16.2L82 16.45V14H84V20H78ZM95.925 11H93.9C93.8167 10.4167 93.6377 9.85833 93.363 9.325C93.0883 8.79167 92.7173 8.28333 92.25 7.8L92 7.55V10H90V4H96V6H93.25L93.65 6.35C94.3333 7.05 94.8583 7.79167 95.225 8.575C95.5917 9.35833 95.825 10.1667 95.925 11ZM92 23L91.7 21.5C91.5 21.4167 91.3123 21.329 91.137 21.237C90.9617 21.145 90.7827 21.0327 90.6 20.9L89.15 21.35L88.15 19.65L89.3 18.65C89.2667 18.4167 89.25 18.2 89.25 18C89.25 17.8 89.2667 17.5833 89.3 17.35L88.15 16.35L89.15 14.65L90.6 15.1C90.7833 14.9667 90.9627 14.8543 91.138 14.763C91.3133 14.6717 91.5007 14.584 91.7 14.5L92 13H94L94.3 14.5C94.5 14.5833 94.6877 14.675 94.863 14.775C95.0383 14.875 95.2173 15 95.4 15.15L96.85 14.65L97.85 16.4L96.7 17.4C96.7333 17.6 96.75 17.8083 96.75 18.025C96.75 18.2417 96.7333 18.45 96.7 18.65L97.85 19.65L96.85 21.35L95.4 20.9C95.2167 21.0333 95.0377 21.146 94.863 21.238C94.6883 21.33 94.5007 21.4173 94.3 21.5L94 23H92ZM93 20C93.55 20 94.021 19.804 94.413 19.412C94.805 19.02 95.0007 18.5493 95 18C95 17.45 94.804 16.979 94.412 16.587C94.02 16.195 93.5493 15.9993 93 16C92.45 16 91.979 16.196 91.587 16.588C91.195 16.98 90.9993 17.4507 91 18C91 18.55 91.196 19.021 91.588 19.413C91.98 19.805 92.4507 20.0007 93 20Z" fill="#E10000"/>
</svg>
