<svg width="80" height="80" viewBox="0 0 80 80" fill="none" xmlns="http://www.w3.org/2000/svg">
<path d="M10 71H62.3333V75.6667H10C6.88563 75.6667 4.33334 73.1144 4.33334 70V17.6667H9.00001V70V71H10ZM70 57.6667H71V56.6667V10V9.00004H70H23.3333H22.3333V10V56.6667V57.6667H23.3333H70ZM23.3333 4.33337H70C73.1144 4.33337 75.6667 6.88566 75.6667 10V56.6667C75.6667 59.8144 73.1477 62.3334 70 62.3334H23.3333C20.219 62.3334 17.6667 59.7811 17.6667 56.6667V10C17.6667 6.85233 20.1856 4.33337 23.3333 4.33337ZM27.6667 52.3334V47.6667H35.6667V52.3334H27.6667ZM41 47.6667H49V52.3334H41V47.6667ZM27.6667 42.3334V37.6667H35.6667V42.3334H27.6667ZM41 37.6667H49V42.3334H41V37.6667ZM27.6667 32.3334V27.6667H35.6667V32.3334H27.6667ZM41 27.6667H49V32.3334H41V27.6667Z" fill="#004996" stroke="white" stroke-width="2"/>
</svg>
