<svg width="77" height="76" viewBox="0 0 77 76" fill="none" xmlns="http://www.w3.org/2000/svg">
<path d="M7.16671 68.25V69.25H8.16671H60.25V74.8333H8.16671C4.54816 74.8333 1.58337 71.8686 1.58337 68.25V16.1667H7.16671V68.25ZM69.8334 7.58333V6.58333H68.8334H23.3334H22.3334V7.58333V53.0833V54.0833H23.3334H68.8334H69.8334V53.0833V7.58333ZM52.2854 35.1633L51.7709 34.8546L51.2564 35.1633L43.2917 39.9421V16.1667H60.25V39.9421L52.2854 35.1633ZM75.4167 7.58333V53.0833C75.4167 56.7019 72.4519 59.6667 68.8334 59.6667H23.3334C19.7148 59.6667 16.75 56.7019 16.75 53.0833V7.58333C16.75 3.96478 19.7148 1 23.3334 1H68.8334C72.4519 1 75.4167 3.96478 75.4167 7.58333Z" fill="#004996" stroke="white" stroke-width="2"/>
</svg>
