<svg width="73" height="73" viewBox="0 0 73 73" fill="none" xmlns="http://www.w3.org/2000/svg">
<path d="M65.6858 14.1875H70.2188V70.2188H2.78125V2.78125H23.4531V31.833V33.0523L24.3092 32.184L42.0523 14.1875H46.2656V32.1799V33.3769L47.1171 32.5355L65.6858 14.1875ZM66.1562 66.6562H66.6562V66.1562V19.4334V18.2364L65.8048 19.0777L47.5247 37.1406H42.7031V19.8209V18.6016L41.8471 19.4699L24.4252 37.1406H19.8906V6.84375V6.34375H19.3906H6.84375H6.34375V6.84375V66.1562V66.6562H6.84375H66.1562Z" fill="#004996" stroke="white"/>
<path d="M19.3906 46.7656V47.9062H23.9531V43.3438H19.3906V46.7656ZM19.3906 53.6094H23.9531V58.1719H19.3906V53.6094ZM30.7969 46.7656V47.9062H35.3594V43.3438H30.7969V46.7656ZM30.7969 53.6094H35.3594V58.1719H30.7969V53.6094ZM42.2031 46.7656V47.9062H46.7656V43.3438H42.2031V46.7656ZM42.2031 53.6094H46.7656V58.1719H42.2031V53.6094ZM53.6094 43.3438H58.1719V47.9062H53.6094V43.3438ZM53.6094 53.6094H58.1719V58.1719H53.6094V53.6094Z" fill="#E10000"/>
</svg>
