<svg width="76" height="76" viewBox="0 0 76 76" fill="none" xmlns="http://www.w3.org/2000/svg">
<mask id="path-1-inside-1_2203_17133" fill="white">
<path d="M71.7778 76H4.22222V29.5556H12.6667V67.5556H63.3333V29.5556H71.7778V76ZM0 0H76V25.3333H0V0ZM8.44444 8.44444V16.8889H67.5556V8.44444M31.6667 59.1111V46.4444H21.1111L38 29.5556L54.8889 46.4444H44.3333V59.1111"/>
</mask>
<path d="M71.7778 76H4.22222V29.5556H12.6667V67.5556H63.3333V29.5556H71.7778V76ZM0 0H76V25.3333H0V0ZM8.44444 8.44444V16.8889H67.5556V8.44444M31.6667 59.1111V46.4444H21.1111L38 29.5556L54.8889 46.4444H44.3333V59.1111" fill="#004996"/>
<path d="M71.7778 76V79H74.7778V76H71.7778ZM4.22222 76H1.22222V79H4.22222V76ZM4.22222 29.5556V26.5556H1.22222V29.5556H4.22222ZM12.6667 29.5556H15.6667V26.5556H12.6667V29.5556ZM12.6667 67.5556H9.66667V70.5556H12.6667V67.5556ZM63.3333 67.5556V70.5556H66.3333V67.5556H63.3333ZM63.3333 29.5556V26.5556H60.3333V29.5556H63.3333ZM71.7778 29.5556H74.7778V26.5556H71.7778V29.5556ZM0 0V-3H-3V0H0ZM76 0H79V-3H76V0ZM76 25.3333V28.3333H79V25.3333H76ZM0 25.3333H-3V28.3333H0V25.3333ZM8.44444 16.8889H5.44444V19.8889H8.44444V16.8889ZM67.5556 16.8889V19.8889H70.5556V16.8889H67.5556ZM31.6667 46.4444H34.6667V43.4444H31.6667V46.4444ZM21.1111 46.4444L18.9898 44.3231L13.8685 49.4444H21.1111V46.4444ZM38 29.5556L40.1213 27.4342L38 25.3129L35.8787 27.4342L38 29.5556ZM54.8889 46.4444V49.4444H62.1315L57.0102 44.3231L54.8889 46.4444ZM44.3333 46.4444V43.4444H41.3333V46.4444H44.3333ZM71.7778 73H4.22222V79H71.7778V73ZM7.22222 76V29.5556H1.22222V76H7.22222ZM4.22222 32.5556H12.6667V26.5556H4.22222V32.5556ZM9.66667 29.5556V67.5556H15.6667V29.5556H9.66667ZM12.6667 70.5556H63.3333V64.5556H12.6667V70.5556ZM66.3333 67.5556V29.5556H60.3333V67.5556H66.3333ZM63.3333 32.5556H71.7778V26.5556H63.3333V32.5556ZM68.7778 29.5556V76H74.7778V29.5556H68.7778ZM0 3H76V-3H0V3ZM73 0V25.3333H79V0H73ZM76 22.3333H0V28.3333H76V22.3333ZM3 25.3333V0H-3V25.3333H3ZM5.44444 8.44444V16.8889H11.4444V8.44444H5.44444ZM8.44444 19.8889H67.5556V13.8889H8.44444V19.8889ZM70.5556 16.8889V8.44444H64.5556V16.8889H70.5556ZM34.6667 59.1111V46.4444H28.6667V59.1111H34.6667ZM31.6667 43.4444H21.1111V49.4444H31.6667V43.4444ZM23.2324 48.5658L40.1213 31.6769L35.8787 27.4342L18.9898 44.3231L23.2324 48.5658ZM35.8787 31.6769L52.7676 48.5658L57.0102 44.3231L40.1213 27.4342L35.8787 31.6769ZM54.8889 43.4444H44.3333V49.4444H54.8889V43.4444ZM41.3333 46.4444V59.1111H47.3333V46.4444H41.3333Z" fill="white" mask="url(#path-1-inside-1_2203_17133)"/>
<rect x="3" y="3" width="70" height="6" fill="#E10000"/>
<rect x="25" y="32" width="32" height="33" fill="white"/>
<rect x="16" y="45" width="20" height="20" fill="#004996"/>
<rect x="40" y="45" width="20" height="20" fill="#004996"/>
</svg>
