<svg width="84" height="88" viewBox="0 0 84 88" fill="none" xmlns="http://www.w3.org/2000/svg">
<path d="M66.5 18.9034H67.5V17.9034V10.9241V9.92413H66.5H17.5H16.5V10.9241V17.9034V18.9034H17.5H66.5ZM64 59.7793V29.3724H69V65.7586H15V29.3724H20V59.7793V60.7793H21H63H64V59.7793ZM72.5 23.8828H11.5V4.94482H72.5V23.8828ZM51.5 33.6069V37.8414H32.5V33.6069C32.5 33.1849 32.8195 32.8621 33.25 32.8621H50.75C51.1805 32.8621 51.5 33.1849 51.5 33.6069ZM25.5 74.7379H30.5V79.7172H25.5V74.7379ZM39.5 74.7379H44.5V79.7172H39.5V74.7379ZM53.5 74.7379H58.5V79.7172H53.5V74.7379Z" fill="#004996" stroke="white" stroke-width="2"/>
<rect x="25" y="74" width="6" height="6" fill="#E10000"/>
<rect x="39" y="74" width="6" height="6" fill="#E10000"/>
<path d="M53 74H59V80H53V74Z" fill="#E10000"/>
</svg>
