<?xml version="1.0" encoding="utf-8"?>
<!-- Generator: Adobe Illustrator 25.2.3, SVG Export Plug-In . SVG Version: 6.00 Build 0)  -->
<svg version="1.1" id="Слой_1" xmlns="http://www.w3.org/2000/svg" xmlns:xlink="http://www.w3.org/1999/xlink" x="0px" y="0px"
	 viewBox="0 0 2258 795" style="enable-background:new 0 0 2258 795;" xml:space="preserve" preserveAspectRatio="none">
<style type="text/css">
	.st0{fill:none;stroke:url(#SVGID_1_);stroke-width:150;stroke-miterlimit:10;}

		.st1{opacity:0.5;fill:none;stroke:url(#SVGID_2_);stroke-width:2.6667;stroke-miterlimit:10;stroke-dasharray:14.64,14.64;enable-background:new    ;}
	.st2{fill:url(#SVGID_3_);}
	.st3{fill:url(#SVGID_4_);}
</style>
<linearGradient id="SVGID_1_" gradientUnits="userSpaceOnUse" x1="1316.9282" y1="328.9828" x2="257.4282" y2="406.9828" gradientTransform="matrix(1 0 0 -1 0 796)">
	<stop  offset="0" style="stop-color:#E0EFF9"/>
	<stop  offset="1" style="stop-color:#E0EFF9;stop-opacity:0"/>
</linearGradient>
<path class="st0" d="M2210.8,639c-37.4,9.8-83.7,7-121.3-6.3c-57.8-20.5-98.9-59.7-132.8-99.3c-33.9-39.6-63.8-81.8-109.5-114.8
	c-92.3-66.9-246.1-83.8-355.8-39c-76.5,31.2-127.1,86-174.1,139.4c-47.1,53.4-95.5,108.8-169.8,142.6
	c-74.2,33.8-182.5,39.2-249.5-5.5c-61.7-41.2-78.7-115.8-155.8-138.9c-98-29.4-199,51.6-301.3,32.6
	c-61.4-11.4-101.7-56.1-118.8-100.1c-17.1-44-17.6-90.1-34.7-134.1C258.8,241.6,181.4,177,83.7,145.4
	c-97.7-31.6-213.6-29.5-305.2,5.5c-70.5,26.9-124.6,71-190.9,102.8c-66.3,31.8-156.6,50.1-228.1,20.2c-36.8-15.4-64.3-42-103.7-53.4
	c-24.4-7.1-55.9-2.6-73.5,8.8"/>
<linearGradient id="SVGID_2_" gradientUnits="userSpaceOnUse" x1="578.8379" y1="315.5992" x2="1630.168" y2="898.1485" gradientTransform="matrix(1 0 0 -1 0 796)">
	<stop  offset="0.7865" style="stop-color:#004996"/>
	<stop  offset="1" style="stop-color:#E0F0FA"/>
</linearGradient>
<path class="st1" d="M2205.6,666c-37.7,9.4-83.8,5.3-120.9-9.6c-57.1-23-96.8-65.2-129.4-107.7c-32.6-42.5-61.1-87.5-105.6-123.4
	c-90-72.6-243.1-94.1-354.1-49.8c-77.4,30.9-129.8,87.3-178.5,142.3c-48.7,55-98.9,112.1-174.2,145.8
	c-75.3,33.7-183.5,36.7-249-11.9c-60.3-44.8-74.8-123.7-151.2-149.9c-97-33.3-200.4,49.4-302.1,26.9c-61-13.5-99.8-61.5-115.4-108.2
	c-15.6-46.7-14.6-95.2-30.2-141.9C268.8,200.2,193.6,130.4,97,94.8C0.5,59.2-115.4,58.5-208,93.1c-71.3,26.6-126.8,71.7-194.1,103.4
	c-67.3,31.8-158.1,48.8-228.5,15.6c-36.3-17.1-62.9-45.7-101.8-58.7c-24.1-8.1-55.7-4.1-73.7,7.5"/>
<linearGradient id="SVGID_3_" gradientUnits="userSpaceOnUse" x1="0" y1="397.5" x2="194" y2="397.5">
	<stop  offset="0.5223" style="stop-color:#FFFFFF"/>
	<stop  offset="1" style="stop-color:#FAFAFA;stop-opacity:0"/>
</linearGradient>
<rect class="st2" width="194" height="795"/>
<linearGradient id="SVGID_4_" gradientUnits="userSpaceOnUse" x1="694" y1="413.7065" x2="888" y2="413.7065" gradientTransform="matrix(-1 0 0 -1 2952 811.2065)">
	<stop  offset="0.5223" style="stop-color:#FFFFFF"/>
	<stop  offset="1" style="stop-color:#FAFAFA;stop-opacity:0"/>
</linearGradient>
<polygon class="st3" points="2064,0 2258,0 2258,795 2064,795 "/>
</svg>
