<svg width="2020" height="514" viewBox="0 0 2020 514" fill="none" xmlns="http://www.w3.org/2000/svg">
<path d="M304.622 130.682C277.026 154.925 255.939 182.786 235.546 209.729C221.898 227.76 209.007 244.789 194.883 259.812C170.544 285.704 130.451 312.384 97.5626 302.377C90.2387 300.15 81.6019 295.614 72.4566 290.812C55.5749 281.948 36.4431 271.905 12.4135 268.312C8.46672 267.722 4.467 267.449 0.455022 267.407L16.6118 370.291C20.1974 372.052 23.9267 374.007 27.7331 376.006C39.8374 382.359 53.5543 389.563 69.5656 394.431C133.268 413.817 206.323 388.125 264.984 325.719C282.623 306.953 297.686 287.051 312.258 267.8C330.56 243.621 347.848 220.778 368.11 202.979C410.655 165.613 471.634 148.955 527.266 159.51C582.891 170.066 633.537 207.9 659.443 258.248C667.687 274.275 674.068 292.305 680.823 311.394C688.356 332.674 696.144 354.681 707.377 376.506C738.98 437.901 790.969 475.006 846.452 475.753C895.891 476.411 933.773 449.886 967.184 426.473C992.546 408.7 1014.45 393.363 1031.74 396.129C1047.07 398.591 1062.39 415.896 1080.12 435.936C1097.46 455.54 1117.12 477.756 1143.84 493.251C1177.05 512.494 1213.78 517.064 1249.11 511.513C1294.35 504.406 1337.28 480.707 1367.52 449.987C1416.91 399.785 1441.27 333.657 1462.77 275.314L1463.4 273.617C1484.17 217.253 1504.23 167.943 1539.49 135.276C1587.22 91.0601 1667.56 83.8448 1722.4 118.855C1745.89 133.848 1766.44 156.084 1788.18 179.623C1794.3 186.247 1800.63 193.098 1807.09 199.851C1837.95 232.104 1880.61 270.786 1937.12 283.701C1965.53 290.196 1994.13 288.555 2019.67 280.327L2004.15 181.476C1993.34 189.759 1974.99 193.662 1958.55 189.902C1926.98 182.687 1898.18 155.885 1876.61 133.335C1870.72 127.187 1864.96 120.945 1858.85 114.331C1833.91 87.3402 1808.13 59.4306 1774.17 37.7541C1682.71 -20.6407 1553.7 -9.05719 1474.1 64.6969C1419.07 115.686 1392.51 187.733 1373.12 240.339L1372.49 242.038C1352.59 296.052 1333.8 347.072 1298.94 382.5C1271.39 410.493 1223.89 428.433 1192.09 410.001C1178.85 402.325 1165.89 387.679 1152.17 372.175C1127.28 344.043 1096.3 309.037 1046.97 301.124C991.165 292.172 947.258 322.947 911.975 347.671C888.4 364.19 866.133 379.798 847.748 379.543C826.462 379.258 804.875 355.696 792.922 332.468C784.669 316.435 778.284 298.394 771.521 279.29C763.996 258.028 756.212 236.042 744.992 214.231C705.245 136.972 630.554 81.1745 545.194 64.9821C513.135 58.8984 480.427 58.5661 448.623 63.5605C395.754 71.8603 345.383 94.8834 304.622 130.682Z" fill="url(#paint0_linear_2030_11213)" fill-opacity="0.3"/>
<defs>
<linearGradient id="paint0_linear_2030_11213" x1="1008" y1="379.5" x2="44.5" y2="394" gradientUnits="userSpaceOnUse">
<stop stop-color="#429EDD"/>
<stop offset="1" stop-color="#429EDD" stop-opacity="0"/>
</linearGradient>
</defs>
</svg>
