<?xml version="1.0" encoding="utf-8"?>
<!-- Generator: Adobe Illustrator 25.2.3, SVG Export Plug-In . SVG Version: 6.00 Build 0)  -->
<svg version="1.1" id="Слой_1" xmlns="http://www.w3.org/2000/svg" xmlns:xlink="http://www.w3.org/1999/xlink" x="0px" y="0px"
	 viewBox="0 0 2030.7 517" style="enable-background:new 0 0 2030.7 517;" xml:space="preserve">
<style type="text/css">
	.st0{fill:none;stroke:url(#SVGID_1_);stroke-width:150;stroke-miterlimit:10;}
	
		.st1{opacity:0.5;fill:none;stroke:url(#SVGID_2_);stroke-width:2.6667;stroke-miterlimit:10;stroke-dasharray:14.64,14.64;enable-background:new    ;}
</style>
<linearGradient id="SVGID_1_" gradientUnits="userSpaceOnUse" x1="1162.2615" y1="111.9829" x2="102.7615" y2="189.9829" gradientTransform="matrix(1 0 0 -1 0 322)">
	<stop  offset="0" style="stop-color:#E0EFF9"/>
	<stop  offset="1" style="stop-color:#E0EFF9;stop-opacity:0"/>
</linearGradient>
<path class="st0" d="M2056.1,382c-37.4,9.8-83.7,7-121.3-6.3c-57.8-20.5-98.9-59.7-132.8-99.3c-33.9-39.6-63.8-81.8-109.5-114.8
	c-92.3-66.9-246.1-83.8-355.8-39c-76.5,31.2-127.1,86-174.1,139.4c-47.1,53.4-95.5,108.9-169.8,142.6
	c-74.2,33.8-182.5,39.2-249.5-5.5c-61.7-41.2-78.7-115.8-155.8-138.9c-98-29.4-199,51.6-301.3,32.6
	c-61.4-11.4-101.7-56.1-118.8-100.1c-17.1-44-17.6-90.1-34.7-134.1C104.1-15.4,26.7-80-71-111.6c-97.7-31.6-213.6-29.5-305.2,5.5
	c-70.5,26.9-124.6,71-190.9,102.8c-66.3,31.8-156.6,50.1-228.1,20.2c-36.8-15.4-64.3-42-103.7-53.4c-24.4-7.1-55.9-2.6-73.5,8.8"/>
<linearGradient id="SVGID_2_" gradientUnits="userSpaceOnUse" x1="417.6799" y1="24.8035" x2="1104.2197" y2="495.8665" gradientTransform="matrix(1 0 0 -1 0 322)">
	<stop  offset="0.5556" style="stop-color:#FFFFFF"/>
	<stop  offset="1" style="stop-color:#004996"/>
</linearGradient>
<path class="st1" d="M2047.2,387.9c-36.8,12.6-82.4,11-119.8-3c-57.5-21.5-98.7-64.9-132.9-109c-34.2-44.1-64.6-91.3-110.3-127.6
	c-92.4-73.3-244.5-87.2-351.8-32.1c-74.8,38.4-123.7,102.9-169,165.7c-45.4,62.8-92.1,128-164.6,169.2
	c-72.6,41.3-179.2,51.3-246.2,2.5C690.9,408.8,672.6,324,596,300.3c-97.3-30.2-195.3,66.1-296.6,48
	c-60.8-10.9-101.5-60.6-119.2-110.4s-19.2-102.6-36.9-152.3C113.6,2.1,36-69.1-61.1-101.8c-97-32.7-211.3-26.2-301,17.1
	C-431-51.4-483.6,1-548.3,39.7c-64.8,38.7-153.5,62.9-224.6,31.2c-36.6-16.3-64.3-45.8-103.4-57.5c-24.2-7.2-55.2-1-72.3,12.7"/>
</svg>
