<?xml version="1.0" encoding="utf-8"?>
<!-- Generator: Adobe Illustrator 25.2.3, SVG Export Plug-In . SVG Version: 6.00 Build 0)  -->
<svg version="1.1" id="Слой_1" xmlns="http://www.w3.org/2000/svg" xmlns:xlink="http://www.w3.org/1999/xlink" x="0px" y="0px"
	 viewBox="0 0 99 82" style="enable-background:new 0 0 99 82;" xml:space="preserve">
<style type="text/css">
	.st0{fill:#FFFFFF;stroke:#004996;stroke-width:0.8;}
	.st1{fill:#FFFFFF;}
</style>
<path class="st0" d="M5.7,60.6c0,0.2,0,0.4,0.1,0.5c0.1,0.2,0.2,0.3,0.4,0.4l0,0l0,0L34.4,77l0.6,0.3v-0.7V46v-0.2l-0.2-0.1L6.3,30
	l-0.6-0.3v0.7V60.6z M5.7,60.6C5.7,60.6,5.7,60.6,5.7,60.6l0.4,0 M5.7,60.6L5.7,60.6l0.4,0 M68.7,24.3L68.7,24.3
	c0.7,0.4,1.3,0.9,1.7,1.6c0.4,0.7,0.6,1.4,0.6,2.2v32.5c0,0.8-0.2,1.5-0.6,2.2c-0.4,0.7-1,1.2-1.7,1.6l0,0L38.8,80.8l0,0
	c-0.6,0.4-1.4,0.5-2.1,0.5c-0.7,0-1.5-0.2-2.1-0.5l0,0L4.7,64.5l0,0C4,64.1,3.4,63.5,3,62.9c-0.4-0.7-0.6-1.4-0.6-2.2V28.1
	c0-0.8,0.2-1.5,0.6-2.2c0.4-0.7,1-1.2,1.7-1.6h0L34.6,7.9l0,0c0.6-0.4,1.4-0.5,2.1-0.5c0.7,0,1.5,0.2,2.1,0.5l0,0L68.7,24.3z
	 M36.1,10.8L36.1,10.8L24.9,17l-0.6,0.4l0.6,0.4l28.7,15.7l0.2,0.1l0.2-0.1l11.5-6.3l0.6-0.4l-0.6-0.4L37.2,10.8h0
	c-0.2-0.1-0.3-0.1-0.5-0.1C36.5,10.7,36.3,10.7,36.1,10.8z M7.8,26.4l-0.6,0.4l0.6,0.4l28.7,15.7l0.2,0.1l0.2-0.1l12.9-7.1l0.6-0.4
	L49.8,35l-14.4-7.9l-14.4-7.9l-0.2-0.1l-0.2,0.1L7.8,26.4z M67.1,61.6L67.1,61.6l0.1-0.9h0.4v0V30.3v-0.7L67.1,30l-12.2,6.7
	l-0.2,0.1V37v15.5c0,0.4-0.2,0.9-0.5,1.2c-0.3,0.3-0.7,0.5-1.2,0.5s-0.9-0.2-1.2-0.5c-0.3-0.3-0.5-0.7-0.5-1.2V39.3v-0.7l-0.6,0.3
	l-12.2,6.7l-0.2,0.1V46v30.7v0.7l0.6-0.3L67.1,61.6z"/>
<path class="st1" d="M78,20v-2h2.8l-0.4-0.4c-0.9-0.8-1.5-1.6-1.8-2.6c-0.3-1-0.5-2-0.5-3c0-1.9,0.6-3.5,1.7-4.9
	c1.1-1.4,2.6-2.4,4.3-2.9v2.1c-1.2,0.4-2.2,1.2-2.9,2.2S80,10.8,80,12.1c0,0.8,0.1,1.5,0.4,2.2c0.3,0.7,0.7,1.4,1.3,2l0.2,0.2V14h2
	v6H78z M95.9,11h-2c-0.1-0.6-0.3-1.1-0.5-1.7c-0.3-0.5-0.6-1-1.1-1.5L92,7.6V10h-2V4h6v2h-2.8l0.4,0.3c0.7,0.7,1.2,1.4,1.6,2.2
	S95.8,10.2,95.9,11z M92,23l-0.3-1.5c-0.2-0.1-0.4-0.2-0.6-0.3c-0.2-0.1-0.4-0.2-0.5-0.3l-1.4,0.5l-1-1.7l1.2-1
	c0-0.2-0.1-0.4-0.1-0.6s0-0.4,0.1-0.6l-1.2-1l1-1.7l1.4,0.5c0.2-0.1,0.4-0.2,0.5-0.3s0.4-0.2,0.6-0.3L92,13h2l0.3,1.5
	c0.2,0.1,0.4,0.2,0.6,0.3c0.2,0.1,0.4,0.2,0.5,0.4l1.4-0.5l1,1.8l-1.2,1c0,0.2,0.1,0.4,0.1,0.6s0,0.4-0.1,0.6l1.2,1l-1,1.7l-1.4-0.5
	c-0.2,0.1-0.4,0.2-0.5,0.3c-0.2,0.1-0.4,0.2-0.6,0.3L94,23H92z M93,20c0.6,0,1-0.2,1.4-0.6S95,18.5,95,18c0-0.5-0.2-1-0.6-1.4
	C94,16.2,93.5,16,93,16c-0.6,0-1,0.2-1.4,0.6S91,17.5,91,18c0,0.5,0.2,1,0.6,1.4C92,19.8,92.5,20,93,20z"/>
</svg>
