<svg width="100" height="100" viewBox="0 0 100 100" fill="none" xmlns="http://www.w3.org/2000/svg">
<g clip-path="url(#clip0_2405_27380)">
<path d="M39.7334 43.0623H42.3001V57.9373H39.7334V43.0623ZM43.5834 43.0623H44.8668V57.9373H43.5834V43.0623ZM46.1501 43.0623H50.0001V57.9373H46.1501V43.0623ZM51.2834 43.0623H52.5668V57.9373H51.2834V43.0623ZM55.1334 43.0623H57.7001V57.9373H55.1334V43.0623ZM58.9834 43.0623H60.2668V57.9373H58.9834V43.0623ZM37.1668 40.5832V45.5415H34.6001V40.5832C34.6001 39.9257 34.8705 39.2951 35.3519 38.8301C35.8332 38.3652 36.486 38.104 37.1668 38.104H42.3001V40.5832H37.1668ZM62.8334 38.104C63.5142 38.104 64.167 38.3652 64.6483 38.8301C65.1297 39.2951 65.4001 39.9257 65.4001 40.5832V45.5415H62.8334V40.5832H57.7001V38.104H62.8334ZM37.1668 55.4582V60.4165H42.3001V62.8957H37.1668C36.486 62.8957 35.8332 62.6345 35.3519 62.1695C34.8705 61.7046 34.6001 61.074 34.6001 60.4165V55.4582H37.1668ZM62.8334 60.4165V55.4582H65.4001V60.4165C65.4001 61.074 65.1297 61.7046 64.6483 62.1695C64.167 62.6345 63.5142 62.8957 62.8334 62.8957H57.7001V60.4165H62.8334Z" fill="white"/>
</g>
<path d="M82 18.75V18H81.25H68.75C68.1201 18 67.516 17.7498 67.0706 17.3044C66.6252 16.859 66.375 16.2549 66.375 15.625C66.375 14.9951 66.6252 14.391 67.0706 13.9456C67.516 13.5002 68.1201 13.25 68.75 13.25H84.375C85.0049 13.25 85.609 13.5002 86.0544 13.9456C86.4998 14.391 86.75 14.9951 86.75 15.625V31.25C86.75 31.8799 86.4998 32.484 86.0544 32.9294C85.609 33.3748 85.0049 33.625 84.375 33.625C83.7451 33.625 83.141 33.3748 82.6956 32.9294C82.2502 32.484 82 31.8799 82 31.25V18.75ZM18 81.25V82H18.75H31.25C31.8799 82 32.484 82.2502 32.9294 82.6956C33.3748 83.141 33.625 83.7451 33.625 84.375C33.625 85.0049 33.3748 85.609 32.9294 86.0544C32.484 86.4998 31.8799 86.75 31.25 86.75H15.625C14.9951 86.75 14.391 86.4998 13.9456 86.0544C13.5002 85.609 13.25 85.0049 13.25 84.375V68.75C13.25 68.1201 13.5002 67.516 13.9456 67.0706C14.391 66.6252 14.9951 66.375 15.625 66.375C16.2549 66.375 16.859 66.6252 17.3044 67.0706C17.7498 67.516 18 68.1201 18 68.75V81.25ZM81.25 82H82V81.25V68.75C82 68.1201 82.2502 67.516 82.6956 67.0706C83.141 66.6252 83.7451 66.375 84.375 66.375C85.0049 66.375 85.609 66.6252 86.0544 67.0706C86.4998 67.516 86.75 68.1201 86.75 68.75V84.375C86.75 85.0049 86.4998 85.609 86.0544 86.0544C85.609 86.4998 85.0049 86.75 84.375 86.75H68.75C68.1201 86.75 67.516 86.4998 67.0706 86.0544C66.6252 85.609 66.375 85.0049 66.375 84.375C66.375 83.7451 66.6252 83.141 67.0706 82.6956C67.516 82.2502 68.1201 82 68.75 82H81.25ZM18.75 18H18V18.75V31.25C18 31.8799 17.7498 32.484 17.3044 32.9294C16.859 33.3748 16.2549 33.625 15.625 33.625C14.9951 33.625 14.391 33.3748 13.9456 32.9294C13.5002 32.484 13.25 31.8799 13.25 31.25V15.625C13.25 14.9951 13.5002 14.391 13.9456 13.9456C14.391 13.5002 14.9951 13.25 15.625 13.25H31.25C31.8799 13.25 32.484 13.5002 32.9294 13.9456C33.3748 14.391 33.625 14.9951 33.625 15.625C33.625 16.2549 33.3748 16.859 32.9294 17.3044C32.484 17.7498 31.8799 18 31.25 18H18.75ZM33.625 65.625V66.375H34.375H65.625H66.375V65.625V34.375V33.625H65.625H34.375H33.625V34.375V65.625ZM65.625 71.125H34.375C32.9163 71.125 31.5174 70.5455 30.4859 69.5141C29.4545 68.4826 28.875 67.0837 28.875 65.625V34.375C28.875 32.9163 29.4545 31.5174 30.4859 30.4859C31.5174 29.4545 32.9163 28.875 34.375 28.875H65.625C67.0837 28.875 68.4826 29.4545 69.5141 30.4859C70.5455 31.5174 71.125 32.9163 71.125 34.375V65.625C71.125 67.0837 70.5455 68.4826 69.5141 69.5141C68.4826 70.5455 67.0837 71.125 65.625 71.125Z" fill="white" stroke="#004996" stroke-width="1.5"/>
<defs>
<clipPath id="clip0_2405_27380">
<rect width="22" height="17" fill="white" transform="translate(39 42)"/>
</clipPath>
</defs>
</svg>
