<svg width="400" height="309" viewBox="0 0 400 309" fill="none" xmlns="http://www.w3.org/2000/svg">
<path d="M73.7568 219.695V267.839L15.6899 243.882L15.2383 243.698V195.582L43.9895 207.428L45.8121 208.182L46.3444 208.401L52.4737 210.926L54.1512 211.617L60.345 214.166L62.1676 214.919L63.9911 215.673L72.2575 219.073L73.7334 219.683L73.7568 219.695Z" fill="#D2D2D2"/>
<path d="M15.6914 209.815V211.25L73.7599 235.191V233.746L15.6914 209.815Z" fill="#AAAAAA"/>
<path d="M15.6914 214.509V215.945L73.7599 239.885V238.44L15.6914 214.509Z" fill="#AAAAAA"/>
<path d="M15.6914 219.204V220.64L73.7599 244.58V243.135L15.6914 219.204Z" fill="#AAAAAA"/>
<path d="M15.6914 200.426V201.862L73.7599 225.802V224.358L15.6914 200.426Z" fill="#AAAAAA"/>
<path d="M15.6914 205.12V206.556L73.7599 230.496V229.052L15.6914 205.12Z" fill="#AAAAAA"/>
<path d="M15.6914 223.898V225.334L73.7599 249.274V247.83L15.6914 223.898Z" fill="#AAAAAA"/>
<path d="M15.6914 228.593V230.029L73.7599 253.969V252.524L15.6914 228.593Z" fill="#AAAAAA"/>
<path d="M15.6914 233.288V234.724L73.7599 258.664V257.219L15.6914 233.288Z" fill="#AAAAAA"/>
<path d="M15.6914 237.983V239.419L73.7599 263.359V261.914L15.6914 237.983Z" fill="#AAAAAA"/>
<path d="M399.065 145.254V211.947L224.401 282.901L160.465 308.871V242.178L307.859 182.302L399.065 145.254Z" fill="#00539E"/>
<path d="M96.296 204.764L94.3758 203.642L75.1419 192.429L0.277419 177.075L0.0078125 177.186V239.539L4.93302 241.536L5.35453 241.707L17.0192 246.439V210.288L18.4533 210.875V210.62L41.8951 220.137L43.3812 220.743L43.8152 220.918L48.8127 222.946L50.1811 223.501L55.2306 225.549L56.7167 226.155L58.2035 226.759L64.9436 229.491L66.147 229.981L66.166 229.99V230.253L66.1733 230.259V255.152L66.2449 255.179L66.1733 255.212V266.369L80.4294 272.155L88.7543 275.538L95.7239 278.367L96.5662 278.704L97.8149 279.212L104.049 281.745L106.14 282.596L113.117 285.425L114.004 285.784L115.102 286.234L121.442 288.807L123.427 289.611L130.405 292.444L131.502 292.893L132.495 293.291L138.73 295.824L140.82 296.674L147.79 299.507L148.941 299.97L156.115 302.886L160.403 304.624V304.628L160.468 304.6V242.179L96.296 204.764ZM141.898 256.575L97.1508 238.421V227.392L141.898 245.552V256.575Z" fill="#00539E"/>
<path d="M66.1648 229.991V230.254L66.1457 230.25L65.8169 230.116L64.6136 229.626L58.2023 227.024L56.7155 226.423L55.2294 225.817L49.8504 223.636L48.4893 223.081L43.8139 221.186L43.3799 221.011L41.8938 220.405L18.8197 211.041V249.698L17.0252 250.424L17.0179 250.429L0.394531 243.722L17.0179 250.424V210.288L18.4514 210.875V210.621L41.8938 220.137L43.3799 220.743L43.8139 220.918L48.8115 222.947L50.1792 223.502L55.2294 225.549L56.7155 226.155L58.2023 226.76L64.9424 229.492L66.1457 229.982L66.1648 229.991Z" fill="#2EB4A6"/>
<path d="M66.1719 255.212L66.2429 255.18L66.1719 255.152V255.212Z" fill="#2EB4A6"/>
<path d="M160.468 242.178L96.296 204.765L94.3758 203.642L75.1419 192.429L0.277419 177.075L0.0078125 177.186V176.872L0.579901 176.955L74.3265 187.835L97.3678 202.371L99.255 203.563L160.468 242.178Z" fill="#2EB4A6"/>
<path d="M141.9 245.552V256.575L97.1523 238.42V227.393L141.9 245.552Z" fill="#2EB4A6"/>
<path d="M160.468 304.6V308.866L160.441 308.857L160.434 308.852L160.401 308.838L66.1719 270.487V266.369L80.4274 272.156L88.7529 275.538L95.7231 278.367L96.5641 278.705L97.8135 279.213L104.047 281.746L106.138 282.596L113.116 285.425L114.003 285.785L115.101 286.234L121.44 288.808L123.427 289.612L130.403 292.445L131.501 292.893L132.494 293.291L138.728 295.824L140.819 296.674L147.789 299.507L148.94 299.969L156.114 302.886L160.401 304.624V304.628L160.468 304.6Z" fill="#2EB4A6"/>
<path d="M0.00390625 172.815L75.2563 187.262L313.952 90.3295L238.729 75.8711L0.00390625 172.815Z" fill="#666362"/>
<path d="M75.2539 187.262L313.949 90.3301L399.139 141.125L160.463 238.027L75.2539 187.262Z" fill="#585756"/>
<path d="M160.467 238.028V242.178L96.2947 204.765L94.3746 203.642L75.1406 192.429L0.276179 177.075L0.00657712 177.02H0V172.814L7.31219 174.219L75.2524 187.262L99.2669 201.566L101.253 202.75L160.467 238.028Z" fill="#E1E1E1"/>
<path d="M399.07 141.144L160.465 238.026V242.177L399.07 145.255V141.144Z" fill="#C1C1C1"/>
<path d="M80.4204 185.167L5.16797 170.72L7.36426 169.828L82.5864 184.287L80.4204 185.167Z" fill="#777370"/>
<path d="M88.1502 182.026L12.8984 167.58L15.0941 166.688L90.3169 181.146L88.1502 182.026Z" fill="#777370"/>
<path d="M95.8738 178.886L20.6213 164.439L22.8176 163.548L98.0411 178.007L95.8738 178.886Z" fill="#777370"/>
<path d="M103.553 175.771L28.3008 161.324L30.4971 160.432L105.719 174.891L103.553 175.771Z" fill="#777370"/>
<path d="M111.284 172.635L36.0312 158.189L38.2269 157.297L113.45 171.756L111.284 172.635Z" fill="#777370"/>
<path d="M118.99 169.502L43.7383 155.055L45.9333 154.163L121.157 168.622L118.99 169.502Z" fill="#777370"/>
<path d="M126.706 166.374L51.4531 151.927L53.6494 151.035L128.873 165.494L126.706 166.374Z" fill="#777370"/>
<path d="M134.412 163.24L59.1602 148.793L61.3564 147.901L136.579 162.36L134.412 163.24Z" fill="#777370"/>
<path d="M142.131 160.105L66.8789 145.659L69.0745 144.766L144.297 159.225L142.131 160.105Z" fill="#777370"/>
<path d="M149.838 156.976L74.5859 142.53L76.7822 141.638L152.004 156.097L149.838 156.976Z" fill="#777370"/>
<path d="M157.549 153.843L82.2969 139.396L84.4918 138.504L159.715 152.963L157.549 153.843Z" fill="#777370"/>
<path d="M165.275 150.715L90.0234 136.268L92.2184 135.376L167.442 149.835L165.275 150.715Z" fill="#777370"/>
<path d="M172.987 147.581L97.7344 133.135L99.93 132.243L175.153 146.702L172.987 147.581Z" fill="#777370"/>
<path d="M180.709 144.446L105.457 129.999L107.653 129.107L182.875 143.566L180.709 144.446Z" fill="#777370"/>
<path d="M188.405 141.318L113.152 126.872L115.349 125.98L190.572 140.439L188.405 141.318Z" fill="#777370"/>
<path d="M196.123 138.19L120.871 123.744L123.067 122.852L198.29 137.31L196.123 138.19Z" fill="#777370"/>
<path d="M203.834 135.056L128.582 120.61L130.778 119.717L206 134.177L203.834 135.056Z" fill="#777370"/>
<path d="M211.553 131.921L136.301 117.475L138.496 116.583L213.719 131.041L211.553 131.921Z" fill="#777370"/>
<path d="M219.248 128.793L143.996 114.347L146.192 113.455L221.416 127.914L219.248 128.793Z" fill="#777370"/>
<path d="M226.966 125.659L151.715 111.213L153.91 110.321L229.133 124.78L226.966 125.659Z" fill="#777370"/>
<path d="M234.657 122.521L159.406 108.075L161.601 107.183L236.825 121.641L234.657 122.521Z" fill="#777370"/>
<path d="M242.381 119.381L167.129 104.934L169.324 104.042L244.547 118.501L242.381 119.381Z" fill="#777370"/>
<path d="M250.064 116.265L174.812 101.819L177.009 100.926L252.231 115.385L250.064 116.265Z" fill="#777370"/>
<path d="M257.791 113.131L182.539 98.6845L184.734 97.7925L259.958 112.251L257.791 113.131Z" fill="#777370"/>
<path d="M265.502 109.997L190.25 95.5502L192.445 94.6577L267.668 109.117L265.502 109.997Z" fill="#777370"/>
<path d="M273.217 106.869L197.965 92.4223L200.16 91.5298L275.383 105.989L273.217 106.869Z" fill="#777370"/>
<path d="M280.924 103.734L205.672 89.2875L207.868 88.3955L283.09 102.854L280.924 103.734Z" fill="#777370"/>
<path d="M288.639 100.6L213.387 86.1536L215.583 85.2616L290.805 99.7205L288.639 100.6Z" fill="#777370"/>
<path d="M296.35 97.472L221.098 83.0251L223.294 82.1331L298.516 96.592L296.35 97.472Z" fill="#777370"/>
<path d="M304.056 94.3379L228.805 79.8915L231 78.999L306.223 93.4579L304.056 94.3379Z" fill="#777370"/>
<path d="M311.783 91.21L236.531 76.7636L238.726 75.8711L313.95 90.33L311.783 91.21Z" fill="#777370"/>
<path d="M80.4258 185.164L165.635 235.928L167.796 235.053L82.5925 184.284L80.4258 185.164Z" fill="#6C6B6A"/>
<path d="M88.1367 182.032L173.345 232.797L175.507 231.922L90.3041 181.153L88.1367 182.032Z" fill="#6C6B6A"/>
<path d="M95.8477 178.901L181.057 229.665L183.218 228.79L98.015 178.021L95.8477 178.901Z" fill="#6C6B6A"/>
<path d="M103.562 175.77L188.772 226.535L190.933 225.66L105.73 174.891L103.562 175.77Z" fill="#6C6B6A"/>
<path d="M111.277 172.639L196.487 223.403L198.647 222.529L113.445 171.759L111.277 172.639Z" fill="#6C6B6A"/>
<path d="M118.992 169.507L204.2 220.273L206.362 219.398L121.159 168.628L118.992 169.507Z" fill="#6C6B6A"/>
<path d="M126.707 166.377L211.916 217.141L214.077 216.266L128.874 165.497L126.707 166.377Z" fill="#6C6B6A"/>
<path d="M134.422 163.245L219.631 214.01L221.792 213.134L136.589 162.365L134.422 163.245Z" fill="#6C6B6A"/>
<path d="M142.133 160.114L227.342 210.879L229.503 210.004L144.3 159.234L142.133 160.114Z" fill="#6C6B6A"/>
<path d="M149.848 156.983L235.056 207.747L237.217 206.872L152.014 156.103L149.848 156.983Z" fill="#6C6B6A"/>
<path d="M157.562 153.852L242.77 204.616L244.932 203.742L159.729 152.973L157.562 153.852Z" fill="#6C6B6A"/>
<path d="M165.277 150.721L250.487 201.485L252.647 200.611L167.445 149.841L165.277 150.721Z" fill="#6C6B6A"/>
<path d="M172.988 147.589L258.198 198.354L260.358 197.479L175.156 146.71L172.988 147.589Z" fill="#6C6B6A"/>
<path d="M180.699 144.459L265.909 195.223L268.069 194.348L182.867 143.579L180.699 144.459Z" fill="#6C6B6A"/>
<path d="M188.414 141.328L273.623 192.092L275.784 191.217L190.581 140.448L188.414 141.328Z" fill="#6C6B6A"/>
<path d="M196.129 138.197L281.338 188.961L283.499 188.086L198.296 137.317L196.129 138.197Z" fill="#6C6B6A"/>
<path d="M203.844 135.065L289.053 185.83L291.214 184.955L206.011 134.185L203.844 135.065Z" fill="#6C6B6A"/>
<path d="M211.559 131.935L296.786 182.699L298.947 181.824L213.725 131.055L211.559 131.935Z" fill="#6C6B6A"/>
<path d="M219.273 128.784L304.516 179.571L306.676 178.696L221.441 127.904L219.273 128.784Z" fill="#6C6B6A"/>
<path d="M226.984 125.659L312.221 176.442L314.382 175.568L229.152 124.78L226.984 125.659Z" fill="#6C6B6A"/>
<path d="M234.636 122.546L319.846 173.311L322.007 172.436L236.804 121.666L234.636 122.546Z" fill="#6C6B6A"/>
<path d="M242.348 119.416L327.556 170.181L329.718 169.305L244.515 118.536L242.348 119.416Z" fill="#6C6B6A"/>
<path d="M250.062 116.284L335.272 167.048L337.433 166.174L252.23 115.404L250.062 116.284Z" fill="#6C6B6A"/>
<path d="M257.777 113.153L342.987 163.917L345.147 163.042L259.945 112.273L257.777 113.153Z" fill="#6C6B6A"/>
<path d="M265.488 110.023L350.698 160.787L352.858 159.913L267.656 109.144L265.488 110.023Z" fill="#6C6B6A"/>
<path d="M273.199 106.891L358.408 157.655L360.569 156.78L275.367 106.011L273.199 106.891Z" fill="#6C6B6A"/>
<path d="M280.918 103.759L366.127 154.524L368.288 153.649L283.085 102.879L280.918 103.759Z" fill="#6C6B6A"/>
<path d="M288.629 100.629L373.838 151.393L375.999 150.518L290.796 99.7485L288.629 100.629Z" fill="#6C6B6A"/>
<path d="M296.344 97.4977L381.553 148.262L383.714 147.387L298.511 96.6177L296.344 97.4977Z" fill="#6C6B6A"/>
<path d="M304.055 94.3668L389.263 145.131L391.424 144.256L306.221 93.4868L304.055 94.3668Z" fill="#6C6B6A"/>
<path d="M311.77 91.235L396.978 141.999L399.138 141.124L313.936 90.355L311.77 91.235Z" fill="#6C6B6A"/>
<path d="M399.13 207.746V211.993L224.4 282.901L160.464 308.844L160.438 308.857L160.398 308.871V304.628L160.464 304.601L393.396 210.075L399.064 207.774L399.13 207.746Z" fill="#C1C1C1"/>
<path d="M160.402 304.624V308.866L66.1719 270.487V266.369L80.428 272.156L88.7529 275.538L95.7231 278.367L96.5648 278.704L97.8135 279.213L104.048 281.746L106.138 282.596L113.116 285.425L114.003 285.785L115.101 286.234L121.441 288.807L123.427 289.612L130.403 292.444L131.502 292.893L132.494 293.291L138.728 295.824L140.819 296.674L147.789 299.507L148.94 299.969L156.114 302.886L160.402 304.624Z" fill="#D2D2D2"/>
<path d="M17.0192 246.439V250.423L0.395779 243.721L0.0801457 243.592L0.0078125 243.564V239.539L4.93302 241.535L5.35387 241.706L17.0192 246.439Z" fill="#D2D2D2"/>
<path d="M17.0159 250.428L17.0224 250.424V246.444L17.0159 246.44V250.428Z" fill="#D2D2D2"/>
<path d="M141.9 245.552V256.575L97.1523 238.42V227.393L141.9 245.552Z" fill="white"/>
<path d="M118.247 237.14L98.4414 229.101V236.849L118.247 244.892V237.14Z" fill="#999999"/>
<path d="M118.247 243.946L101.061 237.036L98.4414 237.834L118.247 245.908V243.946Z" fill="#E1E1E1"/>
<path d="M101.061 230.167L98.4414 229.101V237.834L101.061 237.035V230.167Z" fill="#C1C1C1"/>
<path d="M140.306 246.066L120.5 238.026V245.774L140.306 253.817V246.066Z" fill="#999999"/>
<path d="M140.306 252.871L123.118 245.961L120.5 246.76L140.306 254.833V252.871Z" fill="#E1E1E1"/>
<path d="M123.118 239.093L120.5 238.027V246.759L123.118 245.961V239.093Z" fill="#C1C1C1"/>
<path d="M178.871 245.552L223.619 227.393V238.418L178.871 256.577V245.552Z" fill="white"/>
<path d="M202.52 237.14L222.324 229.101V236.849L202.52 244.892V237.14Z" fill="#999999"/>
<path d="M202.52 243.946L219.706 237.036L222.324 237.834L202.52 245.908V243.946Z" fill="#E1E1E1"/>
<path d="M219.707 230.167L222.325 229.101V237.834L219.707 237.035V230.167Z" fill="#C1C1C1"/>
<path d="M180.465 246.066L200.271 238.026V245.774L180.465 253.817V246.066Z" fill="#999999"/>
<path d="M180.465 252.871L197.652 245.961L200.271 246.76L180.465 254.833V252.871Z" fill="#E1E1E1"/>
<path d="M197.648 239.093L200.267 238.027V246.759L197.648 245.961V239.093Z" fill="#C1C1C1"/>
<path d="M342.125 179.23L386.873 161.071V172.096L342.125 190.255V179.23Z" fill="white"/>
<path d="M365.773 170.818L385.578 162.779V170.527L365.773 178.57V170.818Z" fill="#999999"/>
<path d="M365.773 177.624L382.96 170.714L385.578 171.512L365.773 179.586V177.624Z" fill="#E1E1E1"/>
<path d="M382.961 163.845L385.579 162.779V171.512L382.961 170.714V163.845Z" fill="#C1C1C1"/>
<path d="M343.715 179.743L363.52 171.705V179.452L343.715 187.496V179.743Z" fill="#999999"/>
<path d="M343.715 186.549L360.901 179.638L363.52 180.437L343.715 188.511V186.549Z" fill="#E1E1E1"/>
<path d="M360.902 172.77L363.521 171.704V180.438L360.902 179.639V172.77Z" fill="#C1C1C1"/>
<path d="M18.8176 211.022V249.698L17.0231 250.423L17.0159 250.428V210.288L18.4494 210.875L18.8176 211.022Z" fill="#9B9B9B"/>
<path d="M228.609 249.988L235.198 247.315V244.899L228.609 247.572V249.988Z" fill="white"/>
<path d="M228.609 249.989L226.676 249.257V246.84L228.609 247.572V249.989Z" fill="#C1C1C1"/>
<path d="M235.195 244.899L228.605 247.573L226.672 246.841L233.363 244.164L235.195 244.899Z" fill="#D2D2D2"/>
<path d="M341.984 203.814L348.573 201.14V198.724L341.984 201.398V203.814Z" fill="white"/>
<path d="M341.984 203.814L340.051 203.082V200.666L341.984 201.398V203.814Z" fill="#C1C1C1"/>
<path d="M348.573 198.725L341.984 201.398L340.051 200.666L346.742 197.989L348.573 198.725Z" fill="#D2D2D2"/>
<path d="M18.4492 249.539L18.8201 249.691V211.04L18.4492 210.888V249.539Z" fill="#D2D2D2"/>
<g filter="url(#filter0_d_1902_2161)">
<circle cx="204.5" cy="64.5" r="48.5" fill="white"/>
</g>
<path d="M222.564 46.4645C222.314 46.2134 222.016 46.0142 221.689 45.8783C221.361 45.7424 221.01 45.6724 220.655 45.6724C220.3 45.6724 219.949 45.7424 219.621 45.8783C219.294 46.0142 218.996 46.2134 218.746 46.4645L205.502 59.6811L192.258 46.4374C192.007 46.1866 191.71 45.9877 191.382 45.852C191.054 45.7163 190.703 45.6465 190.349 45.6465C189.994 45.6465 189.643 45.7163 189.315 45.852C188.988 45.9877 188.69 46.1866 188.439 46.4374C188.189 46.6881 187.99 46.9858 187.854 47.3134C187.718 47.641 187.648 47.9921 187.648 48.3467C187.648 48.7014 187.718 49.0525 187.854 49.3801C187.99 49.7077 188.189 50.0054 188.439 50.2561L201.683 63.4999L188.439 76.7436C188.189 76.9944 187.99 77.292 187.854 77.6196C187.718 77.9473 187.648 78.2984 187.648 78.653C187.648 79.0076 187.718 79.3587 187.854 79.6863C187.99 80.014 188.189 80.3116 188.439 80.5624C188.69 80.8131 188.988 81.012 189.315 81.1477C189.643 81.2834 189.994 81.3533 190.349 81.3533C190.703 81.3533 191.054 81.2834 191.382 81.1477C191.71 81.012 192.007 80.8131 192.258 80.5624L205.502 67.3186L218.746 80.5624C218.996 80.8131 219.294 81.012 219.622 81.1477C219.949 81.2834 220.3 81.3533 220.655 81.3533C221.01 81.3533 221.361 81.2834 221.688 81.1477C222.016 81.012 222.314 80.8131 222.564 80.5624C222.815 80.3116 223.014 80.014 223.15 79.6863C223.285 79.3587 223.355 79.0076 223.355 78.653C223.355 78.2984 223.285 77.9473 223.15 77.6196C223.014 77.292 222.815 76.9944 222.564 76.7436L209.321 63.4999L222.564 50.2561C223.593 49.227 223.593 47.4936 222.564 46.4645Z" fill="#E10000"/>
<defs>
<filter id="filter0_d_1902_2161" x="136" y="0" width="137" height="137" filterUnits="userSpaceOnUse" color-interpolation-filters="sRGB">
<feFlood flood-opacity="0" result="BackgroundImageFix"/>
<feColorMatrix in="SourceAlpha" type="matrix" values="0 0 0 0 0 0 0 0 0 0 0 0 0 0 0 0 0 0 127 0" result="hardAlpha"/>
<feOffset dy="4"/>
<feGaussianBlur stdDeviation="10"/>
<feComposite in2="hardAlpha" operator="out"/>
<feColorMatrix type="matrix" values="0 0 0 0 0 0 0 0 0 0.32549 0 0 0 0 0.623529 0 0 0 0.1 0"/>
<feBlend mode="normal" in2="BackgroundImageFix" result="effect1_dropShadow_1902_2161"/>
<feBlend mode="normal" in="SourceGraphic" in2="effect1_dropShadow_1902_2161" result="shape"/>
</filter>
</defs>
</svg>
