<svg width="42" height="42" viewBox="0 0 42 42" fill="none" xmlns="http://www.w3.org/2000/svg">
<path d="M20.9825 3.5C11.3225 3.5 3.5 11.34 3.5 21C3.5 30.66 11.3225 38.5 20.9825 38.5C30.66 38.5 38.5 30.66 38.5 21C38.5 11.34 30.66 3.5 20.9825 3.5ZM21 35C13.265 35 7 28.735 7 21C7 13.265 13.265 7 21 7C28.735 7 35 13.265 35 21C35 28.735 28.735 35 21 35ZM20.615 12.25H20.51C19.81 12.25 19.25 12.81 19.25 13.51V21.77C19.25 22.3825 19.565 22.96 20.1075 23.275L27.37 27.6325C27.965 27.9825 28.735 27.8075 29.085 27.2125C29.1729 27.0708 29.2313 26.9129 29.2569 26.7481C29.2824 26.5833 29.2746 26.4151 29.2338 26.2534C29.1929 26.0918 29.12 25.94 29.0193 25.8071C28.9185 25.6742 28.7921 25.563 28.6475 25.48L21.875 21.455V13.51C21.875 12.81 21.315 12.25 20.615 12.25Z" fill="#004996"/>
</svg>
