<svg width="50" height="50" viewBox="0 0 50 50" fill="none" xmlns="http://www.w3.org/2000/svg">
	<circle cx="25" cy="25" r="25" fill="currentColor"/>
	<path d="M34.543 20.498C35 22.28 35 26 35 26C35 26 35 29.72 34.543 31.502C34.289 32.487 33.546 33.262 32.605 33.524C30.896 34 25 34 25 34C25 34 19.107 34 17.395 33.524C16.45 33.258 15.708 32.484 15.457 31.502C15 29.72 15 26 15 26C15 26 15 22.28 15.457 20.498C15.711 19.513 16.454 18.738 17.395 18.476C19.107 18 25 18 25 18C25 18 30.896 18 32.605 18.476C33.55 18.742 34.292 19.516 34.543 20.498ZM23 29.5L29 26L23 22.5V29.5Z" fill="white"/>
</svg>
