<svg width="32" height="42" viewBox="0 0 32 42" fill="none" xmlns="http://www.w3.org/2000/svg">
<path opacity="0.2" d="M29.0521 14.4375H19.7188V5.25L29.0521 14.4375Z" fill="currentColor"/>
<path d="M31.7174 24.9375C31.7174 25.2856 31.577 25.6194 31.3269 25.8656C31.0769 26.1117 30.7377 26.25 30.3841 26.25H26.3841V28.875H29.0508C29.4044 28.875 29.7435 29.0133 29.9936 29.2594C30.2436 29.5056 30.3841 29.8394 30.3841 30.1875C30.3841 30.5356 30.2436 30.8694 29.9936 31.1156C29.7435 31.3617 29.4044 31.5 29.0508 31.5H26.3841V34.125C26.3841 34.4731 26.2436 34.8069 25.9936 35.0531C25.7435 35.2992 25.4044 35.4375 25.0508 35.4375C24.6972 35.4375 24.358 35.2992 24.108 35.0531C23.8579 34.8069 23.7174 34.4731 23.7174 34.125V24.9375C23.7174 24.5894 23.8579 24.2556 24.108 24.0094C24.358 23.7633 24.6972 23.625 25.0508 23.625H30.3841C30.7377 23.625 31.0769 23.7633 31.3269 24.0094C31.577 24.2556 31.7174 24.5894 31.7174 24.9375ZM9.71745 28.2188C9.71745 29.4371 9.22578 30.6055 8.35061 31.467C7.47544 32.3285 6.28846 32.8125 5.05078 32.8125H3.71745V34.125C3.71745 34.4731 3.57697 34.8069 3.32692 35.0531C3.07687 35.2992 2.73774 35.4375 2.38411 35.4375C2.03049 35.4375 1.69135 35.2992 1.44131 35.0531C1.19126 34.8069 1.05078 34.4731 1.05078 34.125V24.9375C1.05078 24.5894 1.19126 24.2556 1.44131 24.0094C1.69135 23.7633 2.03049 23.625 2.38411 23.625H5.05078C6.28846 23.625 7.47544 24.109 8.35061 24.9705C9.22578 25.832 9.71745 27.0004 9.71745 28.2188ZM7.05078 28.2188C7.05078 27.6966 6.84007 27.1958 6.46499 26.8266C6.08992 26.4574 5.58121 26.25 5.05078 26.25H3.71745V30.1875H5.05078C5.58121 30.1875 6.08992 29.9801 6.46499 29.6109C6.84007 29.2417 7.05078 28.7409 7.05078 28.2188ZM21.7174 29.5312C21.7174 31.0977 21.0853 32.6 19.9601 33.7076C18.8349 34.8152 17.3087 35.4375 15.7174 35.4375H13.0508C12.6972 35.4375 12.358 35.2992 12.108 35.0531C11.8579 34.8069 11.7174 34.4731 11.7174 34.125V24.9375C11.7174 24.5894 11.8579 24.2556 12.108 24.0094C12.358 23.7633 12.6972 23.625 13.0508 23.625H15.7174C17.3087 23.625 18.8349 24.2473 19.9601 25.3549C21.0853 26.4625 21.7174 27.9648 21.7174 29.5312ZM19.0508 29.5312C19.0508 28.661 18.6996 27.8264 18.0745 27.2111C17.4493 26.5957 16.6015 26.25 15.7174 26.25H14.3841V32.8125H15.7174C16.6015 32.8125 17.4493 32.4668 18.0745 31.8514C18.6996 31.2361 19.0508 30.4015 19.0508 29.5312ZM1.05078 18.375V6.5625C1.05078 5.86631 1.33173 5.19863 1.83183 4.70634C2.33193 4.21406 3.0102 3.9375 3.71745 3.9375H19.7174C19.8926 3.93736 20.0661 3.9712 20.2279 4.03707C20.3898 4.10294 20.5369 4.19956 20.6608 4.32141L29.9941 13.5089C30.1179 13.6309 30.216 13.7757 30.283 13.935C30.3499 14.0943 30.3843 14.2651 30.3841 14.4375V18.375C30.3841 18.7231 30.2436 19.0569 29.9936 19.3031C29.7435 19.5492 29.4044 19.6875 29.0508 19.6875C28.6972 19.6875 28.358 19.5492 28.108 19.3031C27.8579 19.0569 27.7174 18.7231 27.7174 18.375V15.75H19.7174C19.3638 15.75 19.0247 15.6117 18.7746 15.3656C18.5246 15.1194 18.3841 14.7856 18.3841 14.4375V6.5625H3.71745V18.375C3.71745 18.7231 3.57697 19.0569 3.32692 19.3031C3.07687 19.5492 2.73774 19.6875 2.38411 19.6875C2.03049 19.6875 1.69135 19.5492 1.44131 19.3031C1.19126 19.0569 1.05078 18.7231 1.05078 18.375ZM21.0508 13.125H25.8324L21.0508 8.41805V13.125Z" fill="currentColor"/>
</svg>
