<svg width="50" height="50" viewBox="0 0 50 50" fill="none" xmlns="http://www.w3.org/2000/svg">
<circle cx="25" cy="25" r="25" fill="currentColor"/>
<path fill-rule="evenodd" clip-rule="evenodd" d="M35.7203 20.1875C35.8872 19.6587 35.7203 19.2744 34.982 19.2744H32.5272C31.908 19.2744 31.622 19.6109 31.4552 19.9709C31.4552 19.9709 30.1923 23.0459 28.4289 25.0395C27.857 25.6161 27.595 25.8083 27.2852 25.8083C27.1183 25.8083 26.9036 25.6161 26.9036 25.0878V20.1627C26.9036 19.5383 26.7133 19.25 26.1887 19.25H22.3281C21.9466 19.25 21.7084 19.5383 21.7084 19.8266C21.7084 20.427 22.5902 20.5714 22.6853 22.2528V25.9062C22.6853 26.6989 22.5447 26.8438 22.2325 26.8438C21.3986 26.8438 19.3731 23.7448 18.1581 20.2137C17.9219 19.5144 17.6819 19.25 17.0622 19.25H14.5839C13.8691 19.25 13.75 19.5861 13.75 19.9466C13.75 20.5953 14.5839 23.862 17.6341 28.1858C19.6595 31.1389 22.5428 32.7261 25.1402 32.7261C26.7133 32.7261 26.9036 32.3656 26.9036 31.7652V29.5311C26.9036 28.8106 27.0466 28.6906 27.5472 28.6906C27.9044 28.6906 28.548 28.8823 30.0016 30.2998C31.6694 31.9813 31.9553 32.75 32.8848 32.75H35.3392C36.0541 32.75 36.3878 32.3895 36.197 31.693C35.9828 30.9964 35.1723 29.9877 34.1238 28.7867C33.5519 28.1145 32.6941 27.3697 32.432 27.0092C32.0748 26.5287 32.17 26.3366 32.432 25.9044C32.4081 25.9044 35.4109 21.6284 35.7203 20.1856" fill="white"/>
</svg>
