<svg width="36" height="36" viewBox="0 0 36 36" fill="none" xmlns="http://www.w3.org/2000/svg">
<g clip-path="url(#clip0_1902_2023)">
<path d="M8.96094 20.28H10.4209V27.5H11.8209V20.28H13.2809V19.06H8.96094V20.28ZM16.3409 26C16.1009 26.28 15.2809 26.84 15.2809 26.04V21.26H14.0409V26.48C14.0409 28.06 15.6209 27.64 16.3609 26.82V27.5H17.6009V21.26H16.3609V26H16.3409ZM20.9609 21.22C20.2409 21.22 19.7809 21.76 19.7809 21.76V19.04H18.5209V27.5H19.7809V27.02C19.7809 27.02 20.2009 27.58 20.9609 27.58C21.6209 27.58 22.1209 27 22.1209 26.2V22.74C22.1209 21.8 21.6809 21.22 20.9609 21.22ZM20.8209 26.04C20.8209 26.5 20.5009 26.72 20.0809 26.54C19.9675 26.487 19.8656 26.4123 19.7809 26.32V22.44C19.8609 22.36 19.9609 22.3 20.0409 22.24C20.4809 22.02 20.8209 22.36 20.8209 22.82V26.04ZM25.4409 25.72C25.4409 26.2 25.1809 26.52 24.8809 26.54C24.5609 26.56 24.2409 26.3 24.2409 25.72V24.54H26.6209V22.94C26.6271 22.6964 26.5842 22.454 26.4949 22.2273C26.4055 22.0005 26.2716 21.794 26.1009 21.62C25.7569 21.3062 25.3066 21.1346 24.8409 21.14C24.4009 21.14 23.9409 21.28 23.5809 21.56C23.2009 21.86 22.9609 22.32 22.9609 22.94V25.74C22.9609 26.3 23.1409 26.74 23.4209 27.06C23.7609 27.42 24.2209 27.62 24.7009 27.64C25.2809 27.66 25.9009 27.42 26.2609 26.92C26.4809 26.62 26.6209 26.22 26.6209 25.74V25.42H25.4409V25.72ZM24.2409 22.94C24.2409 22.6 24.4409 22.2 24.8209 22.2C25.2009 22.2 25.4409 22.56 25.4409 22.94V23.58H24.2409V22.94Z" fill="currentColor"/>
<path d="M17.9414 2.78016e-08C15.5775 0.000131314 13.2367 0.465871 11.0528 1.37063C8.86887 2.27538 6.88452 3.60144 5.21307 5.27308C3.54162 6.94472 2.21578 8.92921 1.31127 11.1132C0.406754 13.2973 -0.058725 15.6381 -0.0585937 18.002C-0.0584624 20.3659 0.407277 22.7067 1.31203 24.8906C2.21679 27.0745 3.54284 29.0589 5.21448 30.7303C6.88612 32.4018 8.87061 33.7276 11.0546 34.6321C13.2387 35.5367 15.5795 36.0021 17.9434 36.002C22.7176 36.0017 27.2961 34.105 30.6717 30.7289C34.0474 27.3529 35.9437 22.7742 35.9434 18C35.9431 13.2258 34.0464 8.64732 30.6703 5.27166C27.2943 1.89601 22.7156 -0.000265118 17.9414 2.78016e-08ZM21.1014 6.74H22.7014V12.1C22.7014 12.44 22.8614 12.44 22.9214 12.44C23.1614 12.44 23.5214 12.18 23.7014 12V6.72H25.3014V13.8H23.7014V13.18C23.4814 13.38 23.2614 13.54 23.0414 13.66C22.7414 13.82 22.4614 13.88 22.1814 13.88C22.0281 13.8873 21.8751 13.8607 21.7333 13.8019C21.5915 13.7431 21.4645 13.6537 21.3614 13.54C21.1814 13.32 21.1014 12.98 21.1014 12.56V6.74ZM16.0014 8.6C16.0014 7.5 16.9014 6.6 18.0014 6.6C19.1014 6.6 20.0014 7.5 20.0014 8.6V12C20.0014 13.1 19.1014 14 18.0014 14C16.9014 14 16.0014 13.1 16.0014 12V8.6ZM11.8414 4.3L12.8014 7.82L13.7814 4.3H15.6014L13.7214 9.86V13.8H11.9414V9.86L10.0214 4.3H11.8414ZM27.6414 29.38C26.6214 30.38 17.9814 30.4 17.9814 30.4C17.9814 30.4 9.36141 30.38 8.32141 29.38C7.30141 28.38 7.30141 23.4 7.30141 23.36C7.30141 23.34 7.30141 18.36 8.32141 17.34C9.34141 16.34 17.9814 16.32 17.9814 16.32C17.9814 16.32 26.6014 16.34 27.6414 17.34C28.6614 18.34 28.6814 23.32 28.6814 23.36C28.6814 23.36 28.6814 28.36 27.6414 29.38Z" fill="currentColor"/>
<path d="M17.9605 12.6999C18.3005 12.6999 18.4605 12.4999 18.4805 12.1799V8.3799C18.4805 8.1199 18.2205 7.8999 17.9805 7.8999C17.7405 7.8999 17.4805 8.0999 17.4805 8.3799V12.1799C17.4805 12.4799 17.6205 12.6799 17.9605 12.6999Z" fill="currentColor"/>
</g>
<defs>
<clipPath id="clip0_1902_2023">
<rect width="36" height="36" fill="white"/>
</clipPath>
</defs>
</svg>
