<svg width="31" height="16" viewBox="0 0 31 16" fill="none" xmlns="http://www.w3.org/2000/svg">
<path d="M29.9805 4C30.3369 4 30.6767 4.0451 31 4.1346V6.43906C30.4427 6.33811 29.9805 6.28781 29.6128 6.28781C28.9218 6.28781 28.4179 6.48971 28.1005 6.8935C27.7827 7.29729 27.6242 7.96994 27.6242 8.91212V13H25V4.18525H27.4401V5.81672C27.975 4.60569 28.8215 4 29.9805 4Z" fill="#00539F"/>
<path d="M19.1456 2.37148e-07H21V2.42097H19.1456V2.37148e-07ZM18 15.9298V13.719C18.1259 13.7306 18.2796 13.7364 18.4605 13.7364C18.7204 13.7364 18.8994 13.646 18.9978 13.4647C19.0964 13.2835 19.1456 12.9297 19.1456 12.4033V3.08807H20.9998V13.07C20.9998 14.1344 20.8561 14.8886 20.5687 15.3333C20.2813 15.7775 19.7755 16 19.0511 16C18.8385 16 18.4881 15.9761 18 15.9298" fill="#E10000"/>
<path d="M9.7407 3.33388e-07L7.51852 11.0871L5.31467 3.33388e-07H0V13H2.90728V1.8758L5.46284 13H9.55549L12.1111 1.8758V13H15V3.33388e-07H9.7407Z" fill="#00539F"/>
</svg>
