<svg width="118" height="60" viewBox="0 0 118 60" fill="none" xmlns="http://www.w3.org/2000/svg">
<path d="M34.7247 47.3887C34.7247 47.9836 34.936 48.4518 35.3584 48.7933C35.7809 49.1354 36.3815 49.3058 37.1604 49.3058C38.3837 49.3058 39.3903 48.9255 40.1795 48.1649C40.9687 47.405 41.3643 46.4857 41.3643 45.4061V44.7444L37.7941 45.1083C35.7472 45.2855 34.7247 46.0447 34.7247 47.3887ZM29.5527 47.6531C29.5527 44.3927 32.0661 42.5308 37.0937 42.0673L41.3643 41.6714V41.2086C41.3643 39.3576 40.3742 38.4212 38.3947 38.3994C37.5051 38.3994 36.7875 38.5868 36.2432 38.9609C35.6976 39.3358 35.3921 39.8865 35.3254 40.6136H30.5208C30.5875 38.5643 31.3547 37.0772 32.823 36.1517C34.2906 35.2269 36.1476 34.7641 38.3947 34.7641C40.9976 34.7641 43.0156 35.3863 44.4509 36.6315C45.8854 37.876 46.6024 39.7658 46.6024 42.299V52.4783H41.731V49.5368C40.419 51.7627 38.328 52.8749 35.4589 52.8749C33.5681 52.8749 32.1109 52.3904 31.0878 51.4206C30.0646 50.4514 29.5527 49.1954 29.5527 47.6531" fill="#00539F"/>
<path d="M49.9221 29.3439H55.1608V33.9047H49.9221V29.3439ZM46.6855 59.3535V55.1887C47.0413 55.2105 47.4754 55.2214 47.9866 55.2214C48.7208 55.2214 49.2265 55.051 49.5044 54.7096C49.7831 54.3682 49.9221 53.7016 49.9221 52.71V35.1614H55.1601V53.9661C55.1601 55.9711 54.7542 57.3921 53.9423 58.2297C53.1304 59.0666 51.7014 59.4857 49.6551 59.4857C49.0545 59.4857 48.0644 59.4407 46.6855 59.3535" fill="#00539F"/>
<path d="M64.0472 40.2006C63.3014 41.137 62.9298 42.344 62.9298 43.8188C62.9298 45.2957 63.3014 46.502 64.0472 47.4384C64.7923 48.3748 65.8099 48.8424 67.1 48.8424C68.3681 48.8424 69.374 48.3748 70.1198 47.4384C70.8643 46.502 71.2372 45.2957 71.2372 43.8188C71.2372 42.344 70.8643 41.137 70.1198 40.2006C69.374 39.2642 68.3681 38.796 67.1 38.796C65.8099 38.796 64.7923 39.2642 64.0472 40.2006ZM60.2767 50.4289C58.5972 48.7987 57.7578 46.5954 57.7578 43.8188C57.7578 41.043 58.5972 38.8403 60.2767 37.2094C61.9562 35.5792 64.2309 34.7634 67.1 34.7634C69.9471 34.7634 72.2101 35.5738 73.8896 37.1931C75.5691 38.8124 76.4092 41.0212 76.4092 43.8188C76.4092 46.6179 75.5691 48.8267 73.8896 50.446C72.2101 52.0653 69.9471 52.8749 67.1 52.8749C64.2309 52.8749 61.9562 52.0605 60.2767 50.4289" fill="#00539F"/>
<path d="M88.9644 34.7971C89.6758 34.7971 90.3542 34.8857 90.9996 35.0615V39.5888C89.887 39.3905 88.9644 39.2917 88.2302 39.2917C86.8507 39.2917 85.8448 39.6884 85.2111 40.4816C84.5767 41.2749 84.2602 42.5964 84.2602 44.4474V52.4785H79.0215V35.161H83.8928V38.3662C84.9606 35.987 86.6505 34.7971 88.9644 34.7971Z" fill="#00539F"/>
<path d="M49.9221 29.3439H55.1608V33.9047H49.9221V29.3439ZM46.6855 59.3535V55.1887C47.0413 55.2105 47.4754 55.2214 47.9866 55.2214C48.7208 55.2214 49.2265 55.051 49.5044 54.7096C49.7831 54.3682 49.9221 53.7016 49.9221 52.71V35.1614H55.1601V53.9661C55.1601 55.9711 54.7542 57.3921 53.9423 58.2297C53.1304 59.0666 51.7014 59.4857 49.6551 59.4857C49.0545 59.4857 48.0644 59.4407 46.6855 59.3535" fill="#E10000"/>
<path d="M31.5252 7.85516H28.0011L26.5088 11.3793L26.4999 12.8588V15.1365H27.439V15.1371C27.439 16.0149 28.1621 16.7278 29.0531 16.7278C29.9476 16.7278 30.67 16.0149 30.67 15.1371V15.1365H34.0634V15.1371C34.0634 16.0149 34.7872 16.7278 35.6796 16.7278C36.5699 16.7278 37.2978 16.0149 37.2978 15.1371V15.1365H37.6363V15.1371C37.6363 16.0149 38.3587 16.7278 39.2518 16.7278C40.1414 16.7278 40.868 16.0149 40.868 15.1371C40.868 15.1365 40.868 15.1365 40.868 15.1365H41.5092V12.8588H31.5252V7.85516ZM32.0158 12.4036H41.5182V5.69408H32.0158V12.4036ZM13.2587 5.58913C13.2587 5.58913 13.7741 3.90647 12.4627 3.90647L8.38817 9.56917H11.8455L13.2587 5.58913ZM18.613 8.17275H17.7006L16.3356 10.3045L11.6639 10.0796L8.02282 10.0776L8.02076 10.0796H5.72481C4.59644 10.0796 3.60017 10.5178 3.60017 11.0896C3.60017 11.675 4.59644 12.1024 5.72481 12.1024H8.02076L12.4627 18.2728C13.7741 18.2728 13.2587 16.5894 13.2587 16.5894L11.6639 12.1024L16.3356 11.8781L17.7006 14.0126H18.613L17.8176 11.8781L17.7137 11.0896L17.8176 10.3045L18.613 8.17275ZM60.8284 6.54461H63.037V8.71932H60.8284V6.54461ZM60.0165 12.3831H64.2775V7.23158H64.7495V5.63002H60.0165V12.3831ZM51.6735 15.161H52.7874C52.7874 15.163 52.7881 15.1651 52.7881 15.1671C52.7881 15.469 52.5383 15.7144 52.2301 15.7144C51.9253 15.7144 51.6728 15.469 51.6728 15.1671C51.6728 15.1651 51.6735 15.163 51.6735 15.161M55.6269 15.161H56.7374C56.7374 15.163 56.7381 15.1651 56.7381 15.1671C56.7381 15.469 56.489 15.7144 56.1821 15.7144C55.8746 15.7144 55.6262 15.469 55.6262 15.1671C55.6262 15.1651 55.6269 15.163 55.6269 15.161M59.4585 15.161H60.5732C60.5732 15.163 60.5738 15.1651 60.5738 15.1671C60.5738 15.469 60.3241 15.7144 60.0165 15.7144C59.7083 15.7144 59.4579 15.469 59.4579 15.1671C59.4579 15.1651 59.4585 15.163 59.4585 15.161M50.2252 13.5588H49.7319V15.161H50.6064C50.6064 15.163 50.6057 15.1651 50.6057 15.1671C50.6057 16.051 51.3329 16.7687 52.2301 16.7687C53.13 16.7687 53.8573 16.051 53.8573 15.1671C53.8573 15.1651 53.8566 15.163 53.8566 15.161H54.5556C54.5556 15.163 54.555 15.1651 54.555 15.1671C54.555 16.051 55.2836 16.7687 56.1821 16.7687C57.078 16.7687 57.8107 16.051 57.8107 15.1671C57.8107 15.1651 57.81 15.163 57.81 15.161H58.3914C58.3914 15.163 58.3907 15.1651 58.3907 15.1671C58.3907 16.051 59.118 16.7687 60.0165 16.7687C60.9124 16.7687 61.643 16.051 61.643 15.1671C61.643 15.1651 61.6424 15.163 61.6424 15.161H64.2562V12.8718H50.2252V13.5588ZM59.5239 12.3831V7.80337H52.4049V5.9735H51.1568V7.80337H50.2252C49.5936 9.2659 49.5936 10.9206 50.2252 12.3831H59.5239ZM66.2583 16.5356C66.2583 17.4884 66.257 18.1038 66.2184 18.572C66.1813 19.0211 66.118 19.1874 66.076 19.2692C65.9164 19.5799 65.6611 19.8328 65.3474 19.9916C65.2648 20.0331 65.0963 20.0951 64.6428 20.1319C64.1702 20.1708 63.5489 20.1715 62.587 20.1715H51.5737C50.6119 20.1715 49.9906 20.1708 49.5179 20.1319C49.0645 20.0951 48.8966 20.0331 48.814 19.9916C48.5003 19.8328 48.2444 19.5799 48.0847 19.2692C48.0428 19.1874 47.9795 19.0211 47.9423 18.572C47.9038 18.1038 47.9024 17.4884 47.9024 16.5356V5.62661C47.9024 4.67317 47.9038 4.05777 47.9423 3.58957C47.9795 3.14045 48.0428 2.97416 48.0847 2.89238C48.2444 2.58161 48.5003 2.32877 48.814 2.16997C48.8966 2.1284 49.0645 2.06639 49.5179 2.02958C49.9906 1.99074 50.6119 1.99006 51.5737 1.99006H62.587C63.5489 1.99006 64.1702 1.99074 64.6428 2.02958C65.0963 2.06639 65.2648 2.1284 65.3474 2.16997C65.6611 2.32877 65.9164 2.58161 66.076 2.89238C66.118 2.97416 66.1813 3.14045 66.2184 3.58957C66.257 4.05777 66.2583 4.67317 66.2583 5.62661V16.5356ZM66.1049 0.697224C65.3907 0.337385 64.4564 0.337385 62.587 0.337385H51.5737C49.705 0.337385 48.77 0.337385 48.0558 0.697224C47.4283 1.01413 46.9178 1.51981 46.5979 2.14203C46.2339 2.84944 46.2339 3.77494 46.2339 5.62661V16.5356C46.2339 18.3866 46.2339 19.3121 46.5979 20.0195C46.9178 20.6417 47.4283 21.1474 48.0558 21.4643C48.77 21.8248 49.705 21.8248 51.5737 21.8248H62.587C64.4564 21.8248 65.3907 21.8248 66.1049 21.4643C66.7324 21.1474 67.2436 20.6417 67.5628 20.0195C67.9268 19.3121 67.9268 18.3866 67.9268 16.5356V5.62661C67.9268 3.77494 67.9268 2.84944 67.5628 2.14203C67.2436 1.51981 66.7324 1.01413 66.1049 0.697224M43.1866 16.5356C43.1866 17.4884 43.1853 18.1038 43.1461 18.572C43.1089 19.0211 43.0463 19.1874 43.0043 19.2692C42.8447 19.5799 42.5894 19.8328 42.275 19.9916C42.1924 20.0331 42.0246 20.0951 41.5712 20.1319C41.0985 20.1708 40.4772 20.1715 39.5153 20.1715H28.502C27.5395 20.1715 26.9189 20.1708 26.4455 20.1319C25.9928 20.0951 25.8242 20.0331 25.7417 19.9916C25.4279 19.8328 25.1727 19.5799 25.013 19.2692C24.9711 19.1874 24.9078 19.0211 24.8706 18.572C24.8321 18.1038 24.8307 17.4884 24.8307 16.5356V5.62661C24.8307 4.67317 24.8321 4.05777 24.8706 3.58957C24.9078 3.14045 24.9711 2.97416 25.013 2.89238C25.1727 2.58161 25.4279 2.32877 25.7417 2.16997C25.8242 2.1284 25.9928 2.06639 26.4455 2.02958C26.9189 1.99074 27.5395 1.99006 28.502 1.99006H39.5153C40.4772 1.99006 41.0985 1.99074 41.5712 2.02958C42.0246 2.06639 42.1924 2.1284 42.275 2.16997C42.5894 2.32877 42.8447 2.58161 43.0043 2.89238C43.0463 2.97416 43.1089 3.14045 43.1461 3.58957C43.1853 4.05777 43.1866 4.67317 43.1866 5.62661V16.5356ZM43.0325 0.697224C42.319 0.337385 41.384 0.337385 39.5153 0.337385H28.502C26.6327 0.337385 25.6983 0.337385 24.9841 0.697224C24.356 1.01413 23.8461 1.51981 23.5262 2.14203C23.1622 2.84944 23.1622 3.77494 23.1622 5.62661V16.5356C23.1622 18.3866 23.1622 19.3121 23.5262 20.0195C23.8461 20.6417 24.356 21.1474 24.9841 21.4643C25.6983 21.8248 26.6327 21.8248 28.502 21.8248H39.5153C41.384 21.8248 42.319 21.8248 43.0325 21.4643C43.6607 21.1474 44.1712 20.6417 44.4911 20.0195C44.8551 19.3121 44.8551 18.3866 44.8551 16.5356V5.62661C44.8551 3.77494 44.8551 2.84944 44.4911 2.14203C44.1712 1.51981 43.6607 1.01413 43.0325 0.697224M89.33 16.5356C89.33 17.4884 89.3287 18.1038 89.2901 18.572C89.253 19.0211 89.1904 19.1874 89.1484 19.2692C88.9881 19.5799 88.7335 19.8328 88.4191 19.9916C88.3365 20.0331 88.1686 20.0951 87.7152 20.1319C87.2426 20.1708 86.6213 20.1715 85.6594 20.1715H74.6461C73.6836 20.1715 73.0623 20.1708 72.5896 20.1319C72.1369 20.0951 71.9683 20.0331 71.8857 19.9916C71.572 19.8328 71.3167 19.5799 71.1564 19.2692C71.1145 19.1874 71.0512 19.0211 71.0147 18.572C70.9762 18.1038 70.9748 17.4884 70.9748 16.5356V5.62661C70.9748 4.67317 70.9762 4.05777 71.0147 3.58957C71.0512 3.14045 71.1145 2.97416 71.1564 2.89238C71.3167 2.58161 71.572 2.32877 71.8857 2.16997C71.9683 2.1284 72.1369 2.06639 72.5896 2.02958C73.0623 1.99074 73.6836 1.99006 74.6461 1.99006H85.6594C86.6213 1.99006 87.2426 1.99074 87.7152 2.02958C88.1686 2.06639 88.3365 2.1284 88.4191 2.16997C88.7335 2.32877 88.9881 2.58161 89.1484 2.89238C89.1904 2.97416 89.253 3.14045 89.2901 3.58957C89.3287 4.05777 89.33 4.67317 89.33 5.62661V16.5356ZM90.6352 2.14203C90.3153 1.51981 89.8048 1.01413 89.1766 0.697224C88.4631 0.337385 87.5281 0.337385 85.6594 0.337385H74.6461C72.7767 0.337385 71.8424 0.337385 71.1282 0.697224C70.5 1.01413 69.9895 1.51981 69.6696 2.14203C69.3063 2.84944 69.3063 3.77494 69.3063 5.62661V16.5356C69.3063 18.3866 69.3063 19.3121 69.6696 20.0195C69.9895 20.6417 70.5 21.1474 71.1282 21.4643C71.8424 21.8248 72.7767 21.8248 74.6461 21.8248H85.6594C87.5281 21.8248 88.4631 21.8248 89.1766 21.4643C89.8048 21.1474 90.3153 20.6417 90.6352 20.0195C90.9992 19.3121 90.9992 18.3866 90.9992 16.5356V5.62661C90.9992 3.77494 90.9992 2.84944 90.6352 2.14203M20.1143 16.5356C20.1143 17.4884 20.1129 18.1038 20.0744 18.572C20.0372 19.0211 19.9746 19.1874 19.9319 19.2692C19.7723 19.5799 19.517 19.8328 19.2033 19.9916C19.1207 20.0331 18.9529 20.0951 18.4995 20.1319C18.0268 20.1708 17.4055 20.1715 16.4429 20.1715H5.42964C4.46777 20.1715 3.84648 20.1708 3.37381 20.1319C2.9204 20.0951 2.75252 20.0331 2.66995 19.9916C2.35621 19.8328 2.10095 19.5799 1.94064 19.2692C1.89867 19.1874 1.83606 19.0211 1.79891 18.572C1.76038 18.1038 1.759 17.4884 1.759 16.5356V5.62661C1.759 4.67317 1.76038 4.05777 1.79891 3.58957C1.83606 3.14045 1.89867 2.97416 1.94064 2.89238C2.10095 2.58161 2.35621 2.32877 2.66995 2.16997C2.75252 2.1284 2.9204 2.06639 3.37381 2.02958C3.84648 1.99074 4.46777 1.99006 5.42964 1.99006H16.4429C17.4055 1.99006 18.0268 1.99074 18.4995 2.02958C18.9529 2.06639 19.1207 2.1284 19.2033 2.16997C19.517 2.32877 19.7723 2.58161 19.9319 2.89238C19.9746 2.97416 20.0372 3.14045 20.0744 3.58957C20.1129 4.05777 20.1143 4.67317 20.1143 5.62661V16.5356ZM19.9608 0.697224C19.2467 0.337385 18.3123 0.337385 16.4429 0.337385H5.42964C3.56095 0.337385 2.62661 0.337385 1.91243 0.697224C1.28426 1.01413 0.773745 1.51981 0.453811 2.14203C0.0898433 2.84944 0.0898438 3.77494 0.0898438 5.62661V16.5356C0.0898438 18.3866 0.0898433 19.3121 0.453811 20.0195C0.773745 20.6417 1.28426 21.1474 1.91243 21.4643C2.62661 21.8248 3.56095 21.8248 5.42964 21.8248H16.4429C18.3123 21.8248 19.2467 21.8248 19.9608 21.4643C20.589 21.1474 21.0995 20.6417 21.4195 20.0195C21.7827 19.3121 21.7827 18.3866 21.7827 16.5356V5.62661C21.7827 3.77494 21.7827 2.84944 21.4195 2.14203C21.0995 1.51981 20.589 1.01413 19.9608 0.697224M75.8137 8.73159L72.6433 8.72818L75.48 15.2843H85.9931L87.6616 12.4581V10.6562H80.987C76.3146 10.6562 75.8137 8.73159 75.8137 8.73159ZM86.3268 8.72818H84.6576V6.35856H80.987V10.1478H86.3268V8.72818Z" fill="#00539F"/>
<path d="M17.5498 29.3135L13.5461 49.0437L9.57545 29.3135H0V52.4479H5.23805V32.6516L9.84241 52.4479H17.2161L21.8205 32.6516V52.4479H27.0255V29.3135H17.5498Z" fill="#00539F"/>
<path d="M104.914 53.1138H117V55.5293H104.914V53.1138ZM104.914 50.1089H106.931V58.4761H104.914V50.1089Z" fill="#004996"/>
<path d="M117.166 45.9419C117.166 46.5562 117.072 47.1012 116.884 47.5771C116.696 48.0475 116.424 48.446 116.07 48.7725C115.711 49.099 115.276 49.348 114.767 49.5195C114.258 49.6911 113.677 49.7769 113.024 49.7769H112.285C111.555 49.7769 110.916 49.6938 110.368 49.5278C109.814 49.3618 109.349 49.1266 108.973 48.8223C108.597 48.5179 108.317 48.1444 108.135 47.7017C107.947 47.2534 107.853 46.7471 107.853 46.1826C107.853 45.6182 107.947 45.1229 108.135 44.6968C108.317 44.2651 108.594 43.9082 108.965 43.626C109.33 43.3438 109.784 43.1307 110.326 42.9868C110.868 42.8429 111.499 42.771 112.219 42.771H113.281V48.7891H111.646V45.0537H111.438C111.073 45.0537 110.769 45.0924 110.525 45.1699C110.276 45.2474 110.091 45.3691 109.969 45.5352C109.847 45.7012 109.787 45.9225 109.787 46.1992C109.787 46.4316 109.834 46.6281 109.928 46.7886C110.022 46.9491 110.168 47.0763 110.368 47.1704C110.567 47.2645 110.827 47.3337 111.148 47.3779C111.463 47.4222 111.842 47.4443 112.285 47.4443H113.024C113.439 47.4443 113.788 47.4084 114.07 47.3364C114.347 47.2645 114.573 47.1593 114.75 47.021C114.922 46.8771 115.047 46.7028 115.124 46.498C115.196 46.2933 115.232 46.0553 115.232 45.7842C115.232 45.3747 115.16 45.0067 115.016 44.6802C114.867 44.3481 114.665 44.0659 114.41 43.8335L115.821 42.9038C116.032 43.0643 116.242 43.2856 116.452 43.5679C116.662 43.8501 116.834 44.1877 116.967 44.5806C117.1 44.9735 117.166 45.4272 117.166 45.9419Z" fill="#004996"/>
<path d="M110.019 39.1021H117V41.4263H108.019V39.2349L110.019 39.1021ZM107.952 36.9854L110.268 37.0186C110.246 37.1237 110.229 37.251 110.218 37.4004C110.207 37.5443 110.202 37.6715 110.202 37.7822C110.202 38.0423 110.243 38.2637 110.326 38.4463C110.404 38.6289 110.523 38.7811 110.683 38.9028C110.838 39.019 111.032 39.1076 111.264 39.1685C111.497 39.2293 111.759 39.2653 112.053 39.2764L111.887 39.7163C111.3 39.7163 110.763 39.672 110.276 39.5835C109.784 39.4894 109.358 39.3511 108.998 39.1685C108.633 38.9858 108.351 38.7673 108.151 38.5127C107.952 38.2526 107.853 37.9593 107.853 37.6328C107.853 37.5221 107.864 37.4059 107.886 37.2842C107.902 37.1569 107.924 37.0573 107.952 36.9854Z" fill="#004996"/>
<path d="M109.878 33.4575H117V35.79H108.019V33.5986L109.878 33.4575ZM112.202 33.7812L112.219 34.4287C111.588 34.4398 111.007 34.3844 110.476 34.2627C109.944 34.141 109.482 33.9583 109.089 33.7148C108.696 33.4658 108.392 33.1532 108.176 32.7769C107.96 32.4006 107.853 31.9606 107.853 31.457C107.853 31.1305 107.913 30.8289 108.035 30.5522C108.151 30.2756 108.337 30.0376 108.591 29.8384C108.84 29.6336 109.167 29.4759 109.571 29.3652C109.969 29.249 110.448 29.1909 111.007 29.1909H117V31.5151H111.289C110.891 31.5151 110.586 31.5539 110.376 31.6313C110.16 31.7088 110.011 31.8195 109.928 31.9634C109.839 32.1073 109.795 32.2843 109.795 32.4946C109.795 32.716 109.856 32.9097 109.978 33.0757C110.099 33.2417 110.271 33.3773 110.492 33.4824C110.708 33.582 110.963 33.6595 111.256 33.7148C111.549 33.7646 111.865 33.7868 112.202 33.7812ZM111.97 29.415L112.078 30.2534C111.486 30.2645 110.935 30.2119 110.426 30.0957C109.911 29.9795 109.463 29.7996 109.081 29.5562C108.694 29.3127 108.392 29.0083 108.176 28.6431C107.96 28.2723 107.853 27.8434 107.853 27.3564C107.853 26.9912 107.913 26.6592 108.035 26.3604C108.157 26.0615 108.353 25.807 108.625 25.5967C108.89 25.3809 109.242 25.2176 109.679 25.1069C110.11 24.9907 110.642 24.9326 111.272 24.9326H117V27.2651H111.281C110.877 27.2651 110.567 27.3039 110.351 27.3813C110.135 27.4533 109.989 27.564 109.911 27.7134C109.834 27.8573 109.795 28.0288 109.795 28.228C109.795 28.4272 109.85 28.6016 109.961 28.751C110.072 28.8949 110.227 29.0166 110.426 29.1162C110.625 29.2158 110.855 29.2905 111.115 29.3403C111.375 29.3901 111.66 29.415 111.97 29.415Z" fill="#004996"/>
<path d="M108.019 20.7407H117V23.0732H108.019V20.7407ZM105.694 23.1812C105.335 23.1812 105.039 23.0677 104.806 22.8408C104.568 22.6084 104.449 22.2957 104.449 21.9028C104.449 21.5155 104.565 21.2083 104.798 20.9814C105.03 20.7546 105.326 20.6411 105.686 20.6411C106.046 20.6411 106.345 20.7546 106.583 20.9814C106.815 21.2083 106.931 21.5155 106.931 21.9028C106.931 22.2957 106.815 22.6084 106.583 22.8408C106.345 23.0677 106.049 23.1812 105.694 23.1812Z" fill="#004996"/>
<path d="M109.936 16.6152H117V18.9478H108.019V16.7646L109.936 16.6152ZM112.202 16.9639L112.219 17.5864C111.544 17.5975 110.938 17.5339 110.401 17.3955C109.864 17.2516 109.408 17.0469 109.031 16.7812C108.649 16.5156 108.359 16.2002 108.16 15.835C107.955 15.4697 107.853 15.0575 107.853 14.5981C107.853 14.255 107.913 13.9396 108.035 13.6519C108.157 13.3586 108.351 13.1068 108.616 12.8965C108.882 12.6862 109.233 12.5229 109.67 12.4067C110.108 12.2905 110.647 12.2324 111.289 12.2324H117V14.5649H111.272C110.885 14.5649 110.586 14.6037 110.376 14.6812C110.16 14.7586 110.011 14.8748 109.928 15.0298C109.839 15.1792 109.795 15.3729 109.795 15.6108C109.795 15.8322 109.859 16.0286 109.986 16.2002C110.108 16.3717 110.276 16.5156 110.492 16.6318C110.708 16.7425 110.963 16.8283 111.256 16.8892C111.549 16.9445 111.865 16.9694 112.202 16.9639Z" fill="#004996"/>
<path d="M114.933 6.57129H110.783C110.512 6.57129 110.296 6.60449 110.135 6.6709C109.975 6.73177 109.859 6.82585 109.787 6.95312C109.709 7.07487 109.67 7.22428 109.67 7.40137C109.67 7.60059 109.712 7.7666 109.795 7.89941C109.878 8.03223 109.997 8.13184 110.152 8.19824C110.307 8.25911 110.492 8.28955 110.708 8.28955V10.6221C110.321 10.6221 109.955 10.5474 109.612 10.3979C109.264 10.2485 108.959 10.0299 108.699 9.74219C108.434 9.44889 108.226 9.10026 108.077 8.69629C107.927 8.29232 107.853 7.83854 107.853 7.33496C107.853 6.7373 107.955 6.20605 108.16 5.74121C108.359 5.27637 108.677 4.90837 109.114 4.63721C109.551 4.36605 110.119 4.23047 110.816 4.23047H114.817C115.32 4.23047 115.73 4.20557 116.045 4.15576C116.361 4.10042 116.632 4.02018 116.859 3.91504H117V6.25586C116.751 6.361 116.441 6.44124 116.07 6.49658C115.694 6.54639 115.315 6.57129 114.933 6.57129ZM111.513 6.28906L112.908 6.28076V7.13574C112.908 7.3571 112.944 7.55078 113.016 7.7168C113.088 7.87728 113.19 8.01286 113.323 8.12354C113.45 8.23421 113.599 8.31722 113.771 8.37256C113.943 8.42236 114.125 8.44727 114.319 8.44727C114.535 8.44727 114.717 8.41683 114.867 8.35596C115.016 8.29508 115.13 8.20378 115.207 8.08203C115.285 7.96029 115.323 7.81641 115.323 7.65039C115.323 7.39583 115.271 7.17448 115.166 6.98633C115.06 6.79818 114.933 6.65983 114.784 6.57129C114.634 6.47721 114.496 6.44678 114.369 6.47998L115.273 5.94873C115.478 6.01514 115.691 6.10645 115.913 6.22266C116.134 6.33333 116.339 6.47445 116.527 6.646C116.715 6.81755 116.87 7.0306 116.992 7.28516C117.108 7.53418 117.166 7.83024 117.166 8.17334C117.166 8.65479 117.055 9.09473 116.834 9.49316C116.613 9.8916 116.303 10.207 115.904 10.4395C115.506 10.6663 115.033 10.7798 114.485 10.7798C114.031 10.7798 113.622 10.7078 113.256 10.564C112.886 10.4146 112.573 10.1932 112.318 9.8999C112.058 9.60661 111.859 9.23584 111.721 8.7876C111.582 8.33936 111.513 7.81364 111.513 7.21045V6.28906Z" fill="#004996"/>
<path d="M104.25 0.0717773H117V2.4043H104.25V0.0717773Z" fill="#004996"/>
</svg>
