<svg width="107" height="71" viewBox="0 0 107 71" fill="none" xmlns="http://www.w3.org/2000/svg">
<path d="M40.8301 56.1674C40.8301 56.8776 41.0785 57.4365 41.5752 57.8441C42.072 58.2525 42.7782 58.4559 43.6941 58.4559C45.1325 58.4559 46.3161 58.0019 47.244 57.094C48.1719 56.1869 48.6371 55.0894 48.6371 53.8007V53.0107L44.4392 53.4452C42.0323 53.6567 40.8301 54.563 40.8301 56.1674ZM34.7488 56.483C34.7488 52.5909 37.7041 50.3683 43.6156 49.815L48.6371 49.3424V48.7899C48.6371 46.5803 47.473 45.4625 45.1454 45.4364C44.0994 45.4364 43.2556 45.6602 42.6156 46.1068C41.9741 46.5543 41.6149 47.2116 41.5364 48.0797H35.8871C35.9655 45.6333 36.8676 43.8581 38.594 42.7533C40.3197 41.6493 42.5032 41.0969 45.1454 41.0969C48.2059 41.0969 50.5788 41.8397 52.2664 43.326C53.9532 44.8116 54.7962 47.0676 54.7962 50.0916V62.2431H49.0683V58.7317C47.5255 61.3888 45.0669 62.7166 41.6934 62.7166C39.4702 62.7166 37.7567 62.1381 36.5537 60.9804C35.3507 59.8235 34.7488 58.3241 34.7488 56.483Z" fill="#00539F"/>
<path d="M58.6996 34.6266H64.8595V40.071H58.6996V34.6266ZM54.894 70.4503V65.4786C55.3123 65.5047 55.8228 65.5177 56.4239 65.5177C57.2871 65.5177 57.8817 65.3143 58.2086 64.9067C58.5362 64.4991 58.6996 63.7034 58.6996 62.5197V41.5712H64.8587V64.0191C64.8587 66.4126 64.3814 68.1089 63.4267 69.1088C62.4721 70.1078 60.7918 70.6082 58.3857 70.6082C57.6795 70.6082 56.5153 70.5545 54.894 70.4503Z" fill="#00539F"/>
<path d="M75.3083 47.5867C74.4313 48.7045 73.9944 50.1453 73.9944 51.9059C73.9944 53.6689 74.4313 55.1089 75.3083 56.2267C76.1844 57.3446 77.381 57.9027 78.8979 57.9027C80.3889 57.9027 81.5717 57.3446 82.4486 56.2267C83.324 55.1089 83.7625 53.6689 83.7625 51.9059C83.7625 50.1453 83.324 48.7045 82.4486 47.5867C81.5717 46.4688 80.3889 45.9099 78.8979 45.9099C77.381 45.9099 76.1844 46.4688 75.3083 47.5867ZM70.8749 59.7967C68.9001 57.8506 67.9131 55.2204 67.9131 51.9059C67.9131 48.5922 68.9001 45.9628 70.8749 44.0159C72.8497 42.0699 75.5243 41.0961 78.8979 41.0961C82.2456 41.0961 84.9064 42.0634 86.8812 43.9964C88.856 45.9294 89.8438 48.5662 89.8438 51.9059C89.8438 55.2472 88.856 57.884 86.8812 59.817C84.9064 61.75 82.2456 62.7166 78.8979 62.7166C75.5243 62.7166 72.8497 61.7443 70.8749 59.7967Z" fill="#00539F"/>
<path d="M104.606 41.1363C105.443 41.1363 106.241 41.242 106.999 41.4519V46.8564C105.691 46.6197 104.606 46.5017 103.743 46.5017C102.121 46.5017 100.938 46.9752 100.193 47.9222C99.4473 48.8692 99.0751 50.4467 99.0751 52.6564V62.2434H92.9153V41.5707H98.6431V45.3969C99.8987 42.5568 101.886 41.1363 104.606 41.1363Z" fill="#00539F"/>
<path d="M58.6996 34.6266H64.8595V40.071H58.6996V34.6266ZM54.894 70.4503V65.4786C55.3123 65.5047 55.8228 65.5177 56.4239 65.5177C57.2871 65.5177 57.8817 65.3143 58.2086 64.9067C58.5362 64.4991 58.6996 63.7034 58.6996 62.5197V41.5712H64.8587V64.0191C64.8587 66.4126 64.3814 68.1089 63.4267 69.1088C62.4721 70.1078 60.7918 70.6082 58.3857 70.6082C57.6795 70.6082 56.5153 70.5545 54.894 70.4503Z" fill="#E10000"/>
<path d="M37.0682 8.97443H32.9245L31.1698 13.1813L31.1593 14.9475V17.6664H32.2635V17.6672C32.2635 18.7151 33.1138 19.5661 34.1615 19.5661C35.2132 19.5661 36.0626 18.7151 36.0626 17.6672V17.6664H40.0526V17.6672C40.0526 18.7151 40.9037 19.5661 41.953 19.5661C42.9998 19.5661 43.8557 18.7151 43.8557 17.6672V17.6664H44.2538V17.6672C44.2538 18.7151 45.1032 19.5661 46.1533 19.5661C47.1993 19.5661 48.0536 18.7151 48.0536 17.6672C48.0536 17.6664 48.0536 17.6664 48.0536 17.6664H48.8076V14.9475H37.0682V8.97443ZM37.645 14.4041H48.8181V6.39466H37.645V14.4041ZM15.59 6.26937C15.59 6.26937 16.196 4.2607 14.654 4.2607L9.86309 11.0205H13.9283L15.59 6.26937ZM21.8857 9.35355H20.8129L19.2079 11.8983L13.7147 11.6299L9.4335 11.6274L9.43108 11.6299H6.73144C5.40467 11.6299 4.23324 12.153 4.23324 12.8356C4.23324 13.5344 5.40467 14.0445 6.73144 14.0445H9.43108L14.654 21.4104C16.196 21.4104 15.59 19.4009 15.59 19.4009L13.7147 14.0445L19.2079 13.7768L20.8129 16.3249H21.8857L20.9505 13.7768L20.8283 12.8356L20.9505 11.8983L21.8857 9.35355ZM71.5236 7.40997H74.1205V10.006H71.5236V7.40997ZM70.569 14.3797H75.5791V8.23003H76.1341V6.31818H70.569V14.3797ZM60.759 17.6957H62.0688C62.0688 17.6982 62.0696 17.7006 62.0696 17.703C62.0696 18.0634 61.7759 18.3563 61.4135 18.3563C61.0551 18.3563 60.7582 18.0634 60.7582 17.703C60.7582 17.7006 60.759 17.6982 60.759 17.6957ZM65.4075 17.6957H66.7133C66.7133 17.6982 66.7141 17.7006 66.7141 17.703C66.7141 18.0634 66.4212 18.3563 66.0604 18.3563C65.6988 18.3563 65.4067 18.0634 65.4067 17.703C65.4067 17.7006 65.4075 17.6982 65.4075 17.6957ZM69.9129 17.6957H71.2235C71.2235 17.6982 71.2243 17.7006 71.2243 17.703C71.2243 18.0634 70.9306 18.3563 70.569 18.3563C70.2065 18.3563 69.9121 18.0634 69.9121 17.703C69.9121 17.7006 69.9129 17.6982 69.9129 17.6957ZM59.0561 15.7831H58.476V17.6957H59.5042C59.5042 17.6982 59.5034 17.7006 59.5034 17.703C59.5034 18.7582 60.3586 19.6149 61.4135 19.6149C62.4717 19.6149 63.3268 18.7582 63.3268 17.703C63.3268 17.7006 63.326 17.6982 63.326 17.6957H64.1479C64.1479 17.6982 64.1471 17.7006 64.1471 17.703C64.1471 18.7582 65.0038 19.6149 66.0604 19.6149C67.1137 19.6149 67.9753 18.7582 67.9753 17.703C67.9753 17.7006 67.9745 17.6982 67.9745 17.6957H68.6581C68.6581 17.6982 68.6573 17.7006 68.6573 17.703C68.6573 18.7582 69.5124 19.6149 70.569 19.6149C71.6223 19.6149 72.4815 18.7582 72.4815 17.703C72.4815 17.7006 72.4806 17.6982 72.4806 17.6957H75.554V14.963H59.0561V15.7831ZM69.9897 14.3797V8.9126H61.619V6.72821H60.1515V8.9126H59.0561C58.3134 10.6585 58.3134 12.6338 59.0561 14.3797H69.9897ZM77.9082 19.3367C77.9082 20.474 77.9066 21.2086 77.8613 21.7675C77.8176 22.3037 77.7432 22.5022 77.6938 22.5998C77.5062 22.9708 77.206 23.2726 76.8371 23.4622C76.74 23.5118 76.5418 23.5858 76.0087 23.6298C75.4529 23.6761 74.7224 23.677 73.5914 23.677H60.6417C59.5107 23.677 58.7802 23.6761 58.2244 23.6298C57.6913 23.5858 57.4939 23.5118 57.3968 23.4622C57.0279 23.2726 56.727 22.9708 56.5393 22.5998C56.4899 22.5022 56.4155 22.3037 56.3718 21.7675C56.3265 21.2086 56.3249 20.474 56.3249 19.3367V6.31411C56.3249 5.17595 56.3265 4.44131 56.3718 3.8824C56.4155 3.34627 56.4899 3.14777 56.5393 3.05014C56.727 2.67916 57.0279 2.37733 57.3968 2.18777C57.4939 2.13815 57.6913 2.06411 58.2244 2.02018C58.7802 1.97381 59.5107 1.97299 60.6417 1.97299H73.5914C74.7224 1.97299 75.4529 1.97381 76.0087 2.02018C76.5418 2.06411 76.74 2.13815 76.8371 2.18777C77.206 2.37733 77.5062 2.67916 77.6938 3.05014C77.7432 3.14777 77.8176 3.34627 77.8613 3.8824C77.9066 4.44131 77.9082 5.17595 77.9082 6.31411V19.3367ZM77.7278 0.429686C76.8881 0.0001297 75.7895 0.0001297 73.5914 0.0001297H60.6417C58.4445 0.0001297 57.345 0.0001297 56.5053 0.429686C55.7675 0.807987 55.1672 1.41164 54.791 2.15442C54.363 2.99888 54.363 4.10369 54.363 6.31411V19.3367C54.363 21.5463 54.363 22.6511 54.791 23.4955C55.1672 24.2383 55.7675 24.842 56.5053 25.2203C57.345 25.6506 58.4445 25.6506 60.6417 25.6506H73.5914C75.7895 25.6506 76.8881 25.6506 77.7278 25.2203C78.4656 24.842 79.0667 24.2383 79.4421 23.4955C79.8701 22.6511 79.8701 21.5463 79.8701 19.3367V6.31411C79.8701 4.10369 79.8701 2.99888 79.4421 2.15442C79.0667 1.41164 78.4656 0.807987 77.7278 0.429686ZM50.78 19.3367C50.78 20.474 50.7784 21.2086 50.7322 21.7675C50.6886 22.3037 50.6149 22.5022 50.5656 22.5998C50.3779 22.9708 50.0778 23.2726 49.708 23.4622C49.611 23.5118 49.4136 23.5858 48.8804 23.6298C48.3247 23.6761 47.5941 23.677 46.4631 23.677H33.5134C32.3817 23.677 31.6519 23.6761 31.0953 23.6298C30.563 23.5858 30.3648 23.5118 30.2677 23.4622C29.8988 23.2726 29.5987 22.9708 29.411 22.5998C29.3616 22.5022 29.2872 22.3037 29.2435 21.7675C29.1982 21.2086 29.1966 20.474 29.1966 19.3367V6.31411C29.1966 5.17595 29.1982 4.44131 29.2435 3.8824C29.2872 3.34627 29.3616 3.14777 29.411 3.05014C29.5987 2.67916 29.8988 2.37733 30.2677 2.18777C30.3648 2.13815 30.563 2.06411 31.0953 2.02018C31.6519 1.97381 32.3817 1.97299 33.5134 1.97299H46.4631C47.5941 1.97299 48.3247 1.97381 48.8804 2.02018C49.4136 2.06411 49.611 2.13815 49.708 2.18777C50.0778 2.37733 50.3779 2.67916 50.5656 3.05014C50.6149 3.14777 50.6886 3.34627 50.7322 3.8824C50.7784 4.44131 50.78 5.17595 50.78 6.31411V19.3367ZM50.5988 0.429686C49.7598 0.0001297 48.6604 0.0001297 46.4631 0.0001297H33.5134C31.3154 0.0001297 30.2168 0.0001297 29.377 0.429686C28.6384 0.807987 28.0389 1.41164 27.6627 2.15442C27.2348 2.99888 27.2348 4.10369 27.2348 6.31411V19.3367C27.2348 21.5463 27.2348 22.6511 27.6627 23.4955C28.0389 24.2383 28.6384 24.842 29.377 25.2203C30.2168 25.6506 31.3154 25.6506 33.5134 25.6506H46.4631C48.6604 25.6506 49.7598 25.6506 50.5988 25.2203C51.3374 24.842 51.9377 24.2383 52.3138 23.4955C52.7418 22.6511 52.7418 21.5463 52.7418 19.3367V6.31411C52.7418 4.10369 52.7418 2.99888 52.3138 2.15442C51.9377 1.41164 51.3374 0.807987 50.5988 0.429686ZM105.036 19.3367C105.036 20.474 105.035 21.2086 104.99 21.7675C104.946 22.3037 104.872 22.5022 104.823 22.5998C104.634 22.9708 104.335 23.2726 103.965 23.4622C103.868 23.5118 103.671 23.5858 103.138 23.6298C102.582 23.6761 101.851 23.677 100.72 23.677H87.7708C86.639 23.677 85.9085 23.6761 85.3527 23.6298C84.8204 23.5858 84.6221 23.5118 84.5251 23.4622C84.1562 23.2726 83.856 22.9708 83.6675 22.5998C83.6182 22.5022 83.5437 22.3037 83.5009 21.7675C83.4556 21.2086 83.4539 20.474 83.4539 19.3367V6.31411C83.4539 5.17595 83.4556 4.44131 83.5009 3.8824C83.5437 3.34627 83.6182 3.14777 83.6675 3.05014C83.856 2.67916 84.1562 2.37733 84.5251 2.18777C84.6221 2.13815 84.8204 2.06411 85.3527 2.02018C85.9085 1.97381 86.639 1.97299 87.7708 1.97299H100.72C101.851 1.97299 102.582 1.97381 103.138 2.02018C103.671 2.06411 103.868 2.13815 103.965 2.18777C104.335 2.37733 104.634 2.67916 104.823 3.05014C104.872 3.14777 104.946 3.34627 104.99 3.8824C105.035 4.44131 105.036 5.17595 105.036 6.31411V19.3367ZM106.571 2.15442C106.195 1.41164 105.595 0.807987 104.856 0.429686C104.017 0.0001297 102.918 0.0001297 100.72 0.0001297H87.7708C85.5727 0.0001297 84.4741 0.0001297 83.6344 0.429686C82.8957 0.807987 82.2955 1.41164 81.9193 2.15442C81.4921 2.99888 81.4921 4.10369 81.4921 6.31411V19.3367C81.4921 21.5463 81.4921 22.6511 81.9193 23.4955C82.2955 24.2383 82.8957 24.842 83.6344 25.2203C84.4741 25.6506 85.5727 25.6506 87.7708 25.6506H100.72C102.918 25.6506 104.017 25.6506 104.856 25.2203C105.595 24.842 106.195 24.2383 106.571 23.4955C106.999 22.6511 106.999 21.5463 106.999 19.3367V6.31411C106.999 4.10369 106.999 2.99888 106.571 2.15442ZM23.6509 19.3367C23.6509 20.474 23.6493 21.2086 23.604 21.7675C23.5603 22.3037 23.4867 22.5022 23.4365 22.5998C23.2488 22.9708 22.9487 23.2726 22.5798 23.4622C22.4827 23.5118 22.2853 23.5858 21.7522 23.6298C21.1964 23.6761 20.4659 23.677 19.3341 23.677H6.38438C5.25339 23.677 4.52286 23.6761 3.96708 23.6298C3.43395 23.5858 3.23655 23.5118 3.13947 23.4622C2.77057 23.2726 2.47042 22.9708 2.28193 22.5998C2.23258 22.5022 2.15896 22.3037 2.11527 21.7675C2.06997 21.2086 2.06835 20.474 2.06835 19.3367V6.31411C2.06835 5.17595 2.06997 4.44131 2.11527 3.8824C2.15896 3.34627 2.23258 3.14777 2.28193 3.05014C2.47042 2.67916 2.77057 2.37733 3.13947 2.18777C3.23655 2.13815 3.43395 2.06411 3.96708 2.02018C4.52286 1.97381 5.25339 1.97299 6.38438 1.97299H19.3341C20.4659 1.97299 21.1964 1.97381 21.7522 2.02018C22.2853 2.06411 22.4827 2.13815 22.5798 2.18777C22.9487 2.37733 23.2488 2.67916 23.4365 3.05014C23.4867 3.14777 23.5603 3.34627 23.604 3.8824C23.6493 4.44131 23.6509 5.17595 23.6509 6.31411V19.3367ZM23.4705 0.429686C22.6308 0.0001297 21.5321 0.0001297 19.3341 0.0001297H6.38438C4.18713 0.0001297 3.0885 0.0001297 2.24876 0.429686C1.51014 0.807987 0.90986 1.41164 0.533674 2.15442C0.105712 2.99888 0.105713 4.10369 0.105713 6.31411V19.3367C0.105713 21.5463 0.105712 22.6511 0.533674 23.4955C0.90986 24.2383 1.51014 24.842 2.24876 25.2203C3.0885 25.6506 4.18713 25.6506 6.38438 25.6506H19.3341C21.5321 25.6506 22.6308 25.6506 23.4705 25.2203C24.2091 24.842 24.8094 24.2383 25.1856 23.4955C25.6127 22.6511 25.6127 21.5463 25.6127 19.3367V6.31411C25.6127 4.10369 25.6127 2.99888 25.1856 2.15442C24.8094 1.41164 24.2091 0.807987 23.4705 0.429686ZM89.1437 10.0207L85.4158 10.0166L88.7513 17.843H101.113L103.075 14.4692V12.3181H95.2265C89.7326 12.3181 89.1437 10.0207 89.1437 10.0207ZM101.505 10.0166H99.5426V7.18787H95.2265V11.7112H101.505V10.0166Z" fill="#00539F"/>
<path d="M20.6355 34.5903L15.9279 58.143L11.2591 34.5903H0V62.2068H6.15903V38.5752L11.5729 62.2068H20.2432L25.6571 38.5752V62.2068H31.7773V34.5903H20.6355Z" fill="#00539F"/>
</svg>
