<svg width="776" height="546" viewBox="0 0 776 546" fill="none" xmlns="http://www.w3.org/2000/svg">
<g opacity="0.85">
<g opacity="0.300003">
<path d="M766.575 395.687C766.575 400.55 762.366 404.495 757.245 404.495H715.327C710.208 404.495 706 400.497 706 395.687V355.808C706 350.945 710.208 347 715.327 347H757.191C762.31 347 766.516 350.945 766.516 355.808V395.687H766.575ZM715.327 351.108C712.6 351.108 710.325 353.216 710.325 355.808V395.687C710.325 398.281 712.542 400.387 715.327 400.387H757.191C759.92 400.387 762.196 398.281 762.196 395.687V355.808C762.196 353.216 759.976 351.108 757.191 351.108H715.327Z" fill="#429EDD"/>
<path d="M754.005 375.747V369.694H749.967V362.995H740.183V375.856C737.909 375.91 733.528 375.693 728.696 374.179C721.584 371.911 720.562 369.694 720.562 369.694H714.134L722.95 388.554H752.357L758.442 380.232V375.747H754.005Z" fill="#429EDD"/>
</g>
<g opacity="0.199997">
<path d="M77 533.879C77 540.061 71.6453 545.072 65.1326 545.072H11.8681C5.35801 545.072 0.000728346 539.991 0.000728346 533.879V483.195C-0.0718074 477.014 5.28288 472 11.8681 472H65.1326C71.6453 472 77 477.014 77 483.195V533.879ZM11.8681 477.221C8.39674 477.221 5.50049 479.898 5.50049 483.195V533.879C5.50049 537.176 8.32161 539.853 11.8681 539.853H65.1326C68.6066 539.853 71.5002 537.176 71.5002 533.879V483.195C71.5002 479.898 68.6791 477.221 65.1326 477.221H11.8681Z" fill="#429EDD"/>
</g>
<g opacity="0.199997">
<path d="M65.98 497.711H62.5786L57.4882 505.745L40.0718 504.899L26.4973 504.889L26.4895 504.899H17.9303C13.7258 504.899 10.0109 506.549 10.0109 508.702C10.0109 510.909 13.7258 512.52 17.9303 512.52H26.4895L43.051 535.773C47.9394 535.773 46.0198 529.431 46.0198 529.431L40.0718 512.52L57.4882 511.675L62.5786 519.719H65.98L63.0138 511.675L62.6253 508.702L63.0138 505.745L65.98 497.711Z" fill="#429EDD"/>
</g>
<g opacity="0.199997">
<path d="M46.0199 487.975C46.0199 487.975 47.9396 481.633 43.0538 481.633L27.8601 502.974H40.7507L46.0199 487.975Z" fill="#429EDD"/>
</g>
<g clip-path="url(#clip0_2208_30378)">
<path d="M121.907 443.209H646.742V140.138L382.934 102.254L121.907 140.138V443.209Z" fill="#D1E1F5"/>
<path d="M318.225 241C317.117 241 316.237 240.469 315.977 239.674C315.847 239.286 315.83 239.109 315.83 238.279V233.365H315V231.74H315.83C315.83 230.855 315.83 230.273 315.912 229.601L318.127 229C318.045 229.831 317.997 230.82 317.997 231.74H319.951L319.397 233.365H317.997V237.907C317.997 239.056 318.192 239.356 318.941 239.356C319.137 239.356 319.332 239.303 319.723 239.18L320 240.593C319.364 240.876 318.795 241 318.225 241Z" fill="#0053A0"/>
<path d="M326.478 235.436C326.478 234.799 326.406 234.463 326.188 234.145C325.952 233.81 325.607 233.643 325.118 233.643C324.192 233.643 323.666 234.313 323.666 235.503V235.536H326.478V235.436ZM323.631 237.179V237.246C323.631 238.57 324.338 239.324 325.589 239.324C326.424 239.324 327.204 239.039 327.947 238.469L328.891 239.81C327.821 240.615 326.696 241 325.39 241C322.723 241 321 239.257 321 236.559C321 235.017 321.345 233.995 322.161 233.157C322.922 232.369 323.848 232 325.081 232C326.152 232 327.168 232.335 327.766 232.905C328.619 233.71 329 234.866 329 236.659V237.179H323.631Z" fill="#0053A0"/>
<path d="M334.405 234.216C334.196 234.096 334.019 234.044 333.778 234.044C333.296 234.044 332.862 234.284 332.46 234.783V241H330.305V235.126C330.305 233.941 330.177 233.048 330 232.55L331.929 232C332.122 232.361 332.235 232.756 332.267 233.254C332.733 232.585 333.392 232 334.196 232C334.518 232 334.662 232.035 335 232.189L334.405 234.216Z" fill="#0053A0"/>
<path d="M344.679 241V235.161C344.679 234.108 344.554 233.9 343.929 233.9C343.482 233.9 342.857 234.194 342.339 234.643V241H340.072V235.247C340.072 234.142 339.911 233.883 339.25 233.883C338.804 233.883 338.196 234.108 337.678 234.556V241H335.339V234.833C335.339 233.555 335.25 233.002 335 232.57L337.16 232C337.321 232.242 337.393 232.449 337.482 232.898C338.107 232.31 338.875 232 339.714 232C340.464 232 341.09 232.242 341.571 232.726C341.696 232.846 341.822 233.002 341.929 233.157C342.768 232.328 343.518 232 344.518 232C345.232 232 345.911 232.207 346.321 232.553C346.839 232.985 347 233.503 347 234.712V241H344.679Z" fill="#0053A0"/>
<path d="M349.273 241V232.115L351.709 231.744V241H349.273ZM350.491 230.932C349.673 230.932 349 230.278 349 229.466C349 228.653 349.691 228 350.527 228C351.345 228 352 228.653 352 229.466C352 230.278 351.327 230.932 350.491 230.932Z" fill="#0053A0"/>
<path d="M357.811 241V235.292C357.811 234.297 357.645 234.006 357.064 234.006C356.616 234.006 356.035 234.314 355.522 234.794V241H353.299V234.641C353.299 233.886 353.199 233.166 353 232.583L354.974 232C355.173 232.36 355.289 232.737 355.289 233.097C355.621 232.858 355.903 232.651 356.268 232.446C356.716 232.206 357.296 232.069 357.794 232.069C358.74 232.069 359.569 232.583 359.834 233.338C359.95 233.663 360 234.04 360 234.589V241H357.811Z" fill="#0053A0"/>
<path d="M366.733 236.902C365.091 236.902 364.526 237.18 364.526 238.18C364.526 238.836 364.967 239.279 365.568 239.279C366.009 239.279 366.45 239.065 366.804 238.705L366.839 236.902H366.733ZM368.746 241C368.199 240.787 367.104 240.311 366.927 240.427C366.485 240.721 365.85 240.885 365.108 240.885C363.095 240.885 362 239.934 362 238.262C362 236.295 363.466 235.377 366.344 235.377C366.521 235.377 366.68 235.377 366.874 235.393V235.049C366.874 234.115 366.68 233.803 365.814 233.803C365.055 233.803 364.172 234.148 363.201 234.754L362.194 233.18C362.671 232.902 363.024 232.738 363.66 232.491C364.543 232.148 365.302 232 366.133 232C367.651 232 368.693 232.525 369.046 233.459C369.169 233.803 369.223 234.065 369.205 234.967L369.152 237.787C369.135 238.705 369.205 239.099 370 239.656L368.746 241Z" fill="#0053A0"/>
<path d="M371 229V240.966L373 241V229H371Z" fill="#0053A0"/>
<path d="M382.937 108.567L121.99 145.314V159.208L383.838 122.458L646.742 159.416V145.527L382.937 108.567Z" fill="#2672AB"/>
<path d="M117.863 134.258L381.986 97.3352C382.616 97.247 383.256 97.247 383.886 97.3352L648.98 134.261C652.379 134.735 654.908 137.641 654.908 141.073C654.908 145.25 651.216 148.462 647.08 147.884L384.787 111.227C384.156 111.139 383.517 111.139 382.886 111.226L119.763 147.887C115.628 148.464 111.939 145.252 111.939 141.076V141.07C111.939 137.64 114.466 134.733 117.863 134.258Z" fill="#014996"/>
<path d="M544.329 241H594.671C596.51 241 598 238.491 598 235.399V194.601C598 191.507 596.51 189 594.671 189H544.329C542.49 189 541 191.507 541 194.601V235.399C541 238.491 542.49 241 544.329 241Z" fill="#678FB5"/>
<path d="M175.387 241H226.613C228.484 241 230 238.491 230 235.399V194.601C230 191.507 228.484 189 226.613 189H175.387C173.516 189 172 191.507 172 194.601V235.399C172 238.491 173.516 241 175.387 241Z" fill="#678FB5"/>
<path d="M172.24 443.209H598.375V294.515H172.24V443.209Z" fill="#07529B"/>
<path d="M177.895 443.209H592.721V301.144H177.895V443.209Z" fill="#B1CCE8"/>
<path d="M177.895 336.502H592.721V301.144H177.895V336.502Z" fill="#D1E1F5"/>
<path d="M177.895 303.754H592.721V300.33H177.895V303.754Z" fill="#A3C5E5"/>
<path d="M177.895 316.09H592.721V312.668H177.895V316.09Z" fill="#A3C5E5"/>
<path d="M177.895 328.427H592.721V325.004H177.895V328.427Z" fill="#A3C5E5"/>
<path d="M325.552 400.393H221.665V443.209H325.552V400.393Z" fill="#FFF7D5"/>
<path d="M318.768 443.209H326.318V400.393H318.768V443.209Z" fill="#D1C38D"/>
<path d="M279.531 426.506H269.218V400.392H279.531V426.506Z" fill="#07529B"/>
<path d="M221.665 416.459H186.036V443.21H221.665V416.459Z" fill="#FFF7D5"/>
<path d="M217.934 443.209H222.431V416.459H217.934V443.209Z" fill="#D1C38D"/>
<path d="M204.94 432.774H199.96V416.459H204.94V432.774Z" fill="#07529B"/>
<path d="M122 515H647" stroke="#2563A5" stroke-width="11.8649" stroke-miterlimit="10"/>
<path d="M386.837 494.18H405.26C407.494 494.18 409.324 492.351 409.324 490.115V473.478C409.324 471.244 407.494 469.414 405.26 469.414H386.837C384.602 469.414 382.773 471.244 382.773 473.478V490.115C382.773 492.351 384.602 494.18 386.837 494.18Z" fill="#0E1844"/>
<path d="M462.65 495.355H475.058V403.603C475.058 400.176 472.28 397.399 468.854 397.399C465.428 397.399 462.65 400.176 462.65 403.603V495.355Z" fill="#07529B"/>
<path d="M396.109 472.049H427.547C429.866 472.049 431.762 470.152 431.762 467.834V459.943C431.762 457.626 429.866 455.729 427.547 455.729H396.109C393.79 455.729 391.894 457.626 391.894 459.943V467.834C391.894 470.152 393.79 472.049 396.109 472.049Z" fill="#07529B"/>
<path d="M458.53 484.708L408.026 486.755V465.906L459.368 466.744L458.53 484.708Z" fill="#07529B"/>
<path d="M398.26 492.675C398.26 485.869 392.743 480.351 385.937 480.351C379.131 480.351 373.615 485.869 373.615 492.675C373.615 499.482 379.131 505 385.937 505C392.743 505 398.26 499.482 398.26 492.675Z" fill="#07529B"/>
<path d="M393.039 492.676C393.039 488.752 389.86 485.574 385.938 485.574C382.017 485.574 378.837 488.752 378.837 492.676C378.837 496.598 382.017 499.778 385.938 499.778C389.86 499.778 393.039 496.598 393.039 492.676Z" fill="#EF3D33"/>
<path d="M394.872 452.502V461.811H407.902L445.902 482.287V497.505H408.232C405.01 497.505 402.398 494.891 402.398 491.669V488.23C402.398 484.508 400.573 481.024 397.514 478.905C395.794 477.714 393.752 477.075 391.66 477.075H381.823C379.161 477.075 377.004 474.918 377.004 472.255V457.666C377.004 454.813 379.316 452.502 382.167 452.502H394.872Z" fill="#1E1E1E"/>
<path d="M460.513 476.566L464.788 476.096L438.632 414.317C435.488 406.867 428.233 402.053 420.149 402.053H400C395.033 402.053 390.992 406.095 390.992 411.063V461.811H395.087V411.063C395.087 408.353 397.29 406.149 400 406.149H420.149C426.583 406.149 432.357 409.98 434.859 415.91L460.513 476.566Z" fill="#1E1E1E"/>
<path d="M403.076 436.974L404.554 455.73H427.815C427.815 455.73 429.045 450.489 425.187 450.26C421.328 450.032 412.087 448.637 412.087 448.637C412.087 448.637 412.541 436.99 405.424 435.047C404.18 434.707 402.976 435.71 403.076 436.974Z" fill="#004996"/>
<path d="M434.805 441.883C435.236 442.062 435.736 441.858 435.916 441.427L440.225 431.103C440.404 430.672 440.199 430.174 439.768 429.994C439.338 429.813 438.837 430.018 438.658 430.449L434.35 440.774C434.169 441.204 434.374 441.703 434.805 441.883Z" fill="#1E1E1E"/>
<path d="M443.251 434.593H439.923C439.059 434.593 438.289 435.135 437.997 435.947L437.036 438.625C436.841 439.166 436.883 439.764 437.151 440.272L437.704 441.319C439.028 443.829 441.555 445.478 444.385 445.682L448.446 445.973L445.195 436.004C444.921 435.163 444.136 434.593 443.251 434.593Z" fill="#1E1E1E"/>
<path d="M471.56 489.363C471.56 480.727 464.559 473.724 455.924 473.724C447.289 473.724 440.289 480.727 440.289 489.363C440.289 497.999 447.289 505 455.924 505C464.559 505 471.56 497.999 471.56 489.363Z" fill="#07529B"/>
<path d="M464.934 489.363C464.934 484.386 460.901 480.351 455.924 480.351C450.948 480.351 446.915 484.386 446.915 489.363C446.915 494.339 450.948 498.373 455.924 498.373C460.901 498.373 464.934 494.339 464.934 489.363Z" fill="#EF3D33"/>
<path d="M475.058 461.664H555.521C556.348 461.664 557.02 460.993 557.02 460.166C557.02 459.337 556.348 458.668 555.521 458.668H475.058V461.664Z" fill="#07529B"/>
<path d="M508.143 422.927H555.745V458.666H508.143V422.927Z" fill="#FFF7D5"/>
<path d="M513.017 458.666H508.143V422.927H513.017V458.666Z" fill="black"/>
<path d="M530.489 444.726H537.145V422.927H530.489V444.726Z" fill="#07529B"/>
<path d="M475.058 433.827H508.143V458.667H475.058V433.827Z" fill="#FFF7D5"/>
<path d="M478.445 458.667H475.058V433.826H478.445V458.667Z" fill="black"/>
<path d="M490.588 448.977H495.214V433.826H490.588V448.977Z" fill="#07529B"/>
</g>
<path opacity="0.3" d="M704.021 23.0719C700.188 23.0719 696.992 26.1884 696.992 30.0213V88.9787C696.992 92.8147 700.107 95.9281 704.021 95.9281H762.818C766.654 95.9281 769.85 92.8147 769.85 88.9787V30.0213C769.85 26.1884 766.735 23.0719 762.818 23.0719H704.021ZM776 88.9787C776 96.17 770.088 102 762.898 102H704.102C696.912 102 691 96.17 691 88.9787V30.0213C691 22.8331 696.912 17 704.102 17H762.898C770.088 17 776 22.8331 776 30.0213V88.9787Z" fill="#429EDD"/>
<path opacity="0.3" d="M762.921 66.539H719.81V46.6457H708.067L702 60.6464V66.539V76.0252H707.597C707.597 78.7814 709.882 81 712.717 81C715.555 81 717.84 78.7814 717.84 76.0252H738.017C738.017 78.7814 740.302 81 743.14 81C745.975 81 748.263 78.7814 748.263 76.0252H750.625C750.625 78.7814 752.913 81 755.748 81C758.586 81 760.871 78.7814 760.871 76.0252H762.762V66.539H762.921ZM762.921 64.7035H722.254V38H763V64.7035H762.921Z" fill="#429EDD"/>
</g>
<path opacity="0.3" d="M14.8937 48.2145C12.8641 48.2145 11.1722 49.8645 11.1722 51.8937V83.1063C11.1722 85.1372 12.8215 86.7855 14.8937 86.7855H46.0211C48.0523 86.7855 49.7441 85.1372 49.7441 83.1063V51.8937C49.7441 49.8645 48.0949 48.2145 46.0211 48.2145H14.8937ZM53 83.1063C53 86.9135 49.8704 90 46.0637 90H14.9363C11.1296 90 8 86.9135 8 83.1063V51.8937C8 48.0881 11.1296 45 14.9363 45H46.0637C49.8704 45 53 48.0881 53 51.8937V83.1063Z" fill="#429EDD"/>
<path opacity="0.3" d="M45.9583 71.265H23.3429V60.6245H17.1827L14 68.1132V71.265V76.3391H16.9359C16.9359 77.8133 18.1346 79 19.6218 79C21.1106 79 22.3093 77.8133 22.3093 76.3391H32.8942C32.8942 77.8133 34.0929 79 35.5817 79C37.0689 79 38.2692 77.8133 38.2692 76.3391H39.508C39.508 77.8133 40.7083 79 42.1955 79C43.6843 79 44.883 77.8133 44.883 76.3391H45.875V71.265H45.9583ZM45.9583 70.2833H24.625V56H46V70.2833H45.9583Z" fill="#429EDD"/>
<path d="M506 27.0984C506 29.8051 503.638 32 500.764 32H477.235C474.362 32 472 29.7749 472 27.0984V4.90162C472 2.19553 474.362 -9.06249e-07 477.235 -9.06249e-07H500.733C503.606 -9.06249e-07 505.968 2.19553 505.968 4.90162V27.0984H506ZM477.235 2.28567C475.703 2.28567 474.427 3.45877 474.427 4.90162V27.0984C474.427 28.5425 475.672 29.7143 477.235 29.7143H500.733C502.265 29.7143 503.542 28.5425 503.542 27.0984V4.90162C503.542 3.45877 502.296 2.28567 500.733 2.28567H477.235Z" fill="#CFE6F6"/>
<path d="M498.597 15.9854V12.6704H496.41V9H491.11V16.045C489.878 16.0741 487.507 15.9563 484.888 15.1269C481.037 13.8838 480.482 12.6704 480.482 12.6704H477L481.776 23H497.704L501 18.4419V15.9854H498.597Z" fill="#CFE6F6"/>
<path d="M329.223 181L337.059 210.941H337.181L344.895 181H358V219H349.564V187.227H349.502L341.367 219H332.452L324.556 187.227H324.436V219H316V181H329.223Z" fill="#0053A0"/>
<path d="M375.69 206.344C372.629 206.804 370.147 207.52 370.147 210.492C370.147 213.053 372.339 213.824 373.958 213.824C377.541 213.824 381.237 211.72 381.237 208.39V204.859C380.429 205.418 379.042 205.881 375.69 206.344ZM362.982 199.632C363.906 191.179 370.492 190 376.846 190C381.237 190 389.209 191.179 389.209 197.993V212.899C389.209 216.13 390.015 216.843 391 217.155V218.281H382.219C381.755 216.948 381.642 216.54 381.469 215.003C379.618 216.691 376.962 219 371.417 219C366.737 219 362 216.639 362 210.951C362 204.6 368.699 201.99 376.498 201.425C379.965 201.169 381.237 200.348 381.237 199.018C381.237 195.944 377.944 195.786 375.864 195.786C371.763 195.786 371.068 198.043 370.838 199.632H362.982Z" fill="#0053A0"/>
<path d="M402 187.775H393.867V181H402V187.775ZM402 191.028V221.731C402 229.016 398.251 230 390 230V224.156C393.057 224.156 393.867 223.848 393.867 221.572V191.028H402Z" fill="#EF3D33"/>
<path d="M414.185 204.449C414.185 207.983 415.374 212.899 421.528 212.899C427.683 212.899 428.812 208.035 428.812 204.498C428.812 200.965 427.683 196.095 421.528 196.095C415.374 196.095 414.185 200.913 414.185 204.449ZM437 204.449C437 214.386 429.657 219 421.528 219C413.396 219 406 214.438 406 204.498C406 194.561 413.396 190 421.528 190C429.657 190 437 194.506 437 204.449Z" fill="#0053A0"/>
<path d="M447.82 190.71V195.435H447.933C449.602 192.693 451.445 190 456.391 190C456.791 190 457.657 190.052 458 190.101V197.418C457.253 197.314 456.391 197.265 455.644 197.265C449.317 197.265 448.109 200.668 448.109 203.718V218H440V190.71H447.82Z" fill="#0053A0"/>
<path d="M117.863 101.258L381.986 64.3352C382.616 64.247 383.256 64.247 383.886 64.3352L648.98 101.261C652.379 101.735 654.908 104.641 654.908 108.073C654.908 112.25 651.216 115.462 647.08 114.884L384.787 78.2267C384.156 78.1385 383.517 78.1385 382.886 78.226L119.763 114.887C115.628 115.464 111.939 112.252 111.939 108.076V108.07C111.939 104.64 114.466 101.733 117.863 101.258Z" fill="#014996"/>
<defs>
<clipPath id="clip0_2208_30378">
<rect width="562" height="423" fill="white" transform="translate(121 94)"/>
</clipPath>
</defs>
</svg>
