<svg width="49" height="49" viewBox="0 0 49 49" fill="none" xmlns="http://www.w3.org/2000/svg">
<path d="M12.25 20.417H20.4167" stroke="#004996" stroke-width="1.5" stroke-linecap="round" stroke-linejoin="round"/>
<path d="M44.9126 25.521C44.9126 25.3638 44.9167 24.4328 44.9126 24.3675C44.8391 23.3446 43.9632 22.53 42.8607 22.4626C42.7893 22.4585 42.7055 22.4585 42.534 22.4585H37.2216C33.5773 22.4585 30.625 25.2005 30.625 28.5835C30.625 31.9665 33.5793 34.7085 37.2196 34.7085H42.534C42.7055 34.7085 42.7893 34.7085 42.8607 34.7044C43.9632 34.637 44.8411 33.8224 44.9126 32.7995C44.9167 32.7342 44.9167 31.8032 44.9167 31.646" stroke="#004996" stroke-width="3" stroke-linecap="round"/>
<path d="M36.7502 30.6253C37.8777 30.6253 38.7918 29.7112 38.7918 28.5837C38.7918 27.4561 37.8777 26.542 36.7502 26.542C35.6226 26.542 34.7085 27.4561 34.7085 28.5837C34.7085 29.7112 35.6226 30.6253 36.7502 30.6253Z" fill="#004996"/>
<path d="M20.4168 44.9168H26.5418C34.241 44.9168 38.0915 44.9168 40.4823 42.5239C42.134 40.8743 42.6465 38.5304 42.8037 34.7084M42.8037 22.4584C42.6445 18.6364 42.134 16.2926 40.4823 14.6429C38.0915 12.2501 34.241 12.2501 26.5418 12.2501H20.4168C12.7177 12.2501 8.86712 12.2501 6.47633 14.6429C4.0835 17.0337 4.0835 20.8843 4.0835 28.5834C4.0835 36.2826 4.0835 40.1331 6.47633 42.5239C7.80954 43.8592 9.596 44.4492 12.2502 44.7085M12.2502 12.2501L19.8758 7.19289C20.9482 6.49533 22.2 6.12402 23.4793 6.12402C24.7586 6.12402 26.0105 6.49533 27.0829 7.19289L34.7085 12.2501" stroke="#004996" stroke-width="3" stroke-linecap="round"/>
</svg>
