<svg width="54" height="54" viewBox="0 0 54 54" fill="none" xmlns="http://www.w3.org/2000/svg">
<g clip-path="url(#clip0_2250_23180)">
<path d="M28 19.4998C29.7239 19.4998 31.3772 20.1847 32.5962 21.4036C33.8152 22.6226 34.5 24.2759 34.5 25.9998C34.5 27.7237 33.8152 29.377 32.5962 30.596C31.3772 31.815 29.7239 32.4998 28 32.4998C26.2761 32.4998 24.6228 31.815 23.4038 30.596C22.1848 29.377 21.5 27.7237 21.5 25.9998C21.5 24.2759 22.1848 22.6226 23.4038 21.4036C24.6228 20.1847 26.2761 19.4998 28 19.4998ZM40.6967 41.8382C37.165 45.9765 32.94 48.6415 28 49.8332C22.4533 48.5115 17.8167 45.3482 14.09 40.3648C10.3633 35.4032 8.5 29.8998 8.5 23.8332V10.8332L28 2.1665L47.5 10.8332V23.8332C47.5 29.0115 46.1133 33.8215 43.34 38.2848L37.035 31.9798C38.1617 30.2682 38.8333 28.1665 38.8333 25.9998C38.8333 23.1267 37.692 20.3712 35.6603 18.3395C33.6287 16.3079 30.8732 15.1665 28 15.1665C25.1268 15.1665 22.3713 16.3079 20.3397 18.3395C18.308 20.3712 17.1667 23.1267 17.1667 25.9998C17.1667 28.873 18.308 31.6285 20.3397 33.6602C22.3713 35.6918 25.1268 36.8332 28 36.8332C30.1667 36.8332 32.2683 36.1615 33.98 35.0348L40.6967 41.8382Z" fill="#004996"/>
</g>
<defs>
<clipPath id="clip0_2250_23180">
<rect width="54" height="54" fill="white"/>
</clipPath>
</defs>
</svg>
