<svg width="46" height="46" viewBox="0 0 46 46" fill="none" xmlns="http://www.w3.org/2000/svg">
<g clip-path="url(#clip0_2250_23184)">
<path d="M36.4168 13.4165H46.0002V17.2498H36.4168V13.4165ZM32.5835 22.9998H46.0002V26.8332H32.5835V22.9998ZM38.3335 32.5832H46.0002V36.4165H38.3335V32.5832ZM3.8335 42.1665C3.8335 38.0998 5.44897 34.1998 8.32453 31.3242C11.2001 28.4486 15.1002 26.8332 19.1668 26.8332C23.2335 26.8332 27.1336 28.4486 30.0091 31.3242C32.8847 34.1998 34.5002 38.0998 34.5002 42.1665H30.6668C30.6668 39.1165 29.4552 36.1914 27.2986 34.0348C25.1419 31.8781 22.2168 30.6665 19.1668 30.6665C16.1168 30.6665 13.1918 31.8781 11.0351 34.0348C8.87843 36.1914 7.66683 39.1165 7.66683 42.1665H3.8335ZM19.1668 24.9165C12.8131 24.9165 7.66683 19.7703 7.66683 13.4165C7.66683 7.06275 12.8131 1.9165 19.1668 1.9165C25.5206 1.9165 30.6668 7.06275 30.6668 13.4165C30.6668 19.7703 25.5206 24.9165 19.1668 24.9165ZM19.1668 21.0832C23.4027 21.0832 26.8335 17.6523 26.8335 13.4165C26.8335 9.18067 23.4027 5.74984 19.1668 5.74984C14.931 5.74984 11.5002 9.18067 11.5002 13.4165C11.5002 17.6523 14.931 21.0832 19.1668 21.0832Z" fill="#00539F"/>
</g>
<defs>
<clipPath id="clip0_2250_23184">
<rect width="46" height="46" fill="white"/>
</clipPath>
</defs>
</svg>
