<svg width="58" height="58" viewBox="0 0 58 58" fill="none" xmlns="http://www.w3.org/2000/svg">
<path d="M4.8335 26.5835L11.6171 18.9541C12.524 17.9335 13.6368 17.1166 14.8823 16.5572C16.1277 15.9977 17.4776 15.7085 18.8429 15.7085H19.3335M4.8335 47.1252H18.1252L27.7918 39.8752C27.7918 39.8752 29.7493 38.5532 32.6252 36.2502C38.6668 31.4168 32.6252 23.7657 26.5835 27.7918C21.6632 31.0712 16.9168 33.8335 16.9168 33.8335" stroke="#004996" stroke-width="3" stroke-linecap="round" stroke-linejoin="round"/>
<path d="M19.3335 32.6252V16.9168C19.3335 15.6349 19.8427 14.4056 20.7491 13.4991C21.6556 12.5927 22.8849 12.0835 24.1668 12.0835H48.3335C49.6154 12.0835 50.8448 12.5927 51.7512 13.4991C52.6576 14.4056 53.1668 15.6349 53.1668 16.9168V31.4168C53.1668 32.6987 52.6576 33.9281 51.7512 34.8345C50.8448 35.7409 49.6154 36.2502 48.3335 36.2502H32.6252" stroke="#004996" stroke-width="3"/>
<path d="M42.9883 23.5125L43.0005 23.4987M32.0005 23.5125L32.0127 23.4987M37.4944 26C36.8468 26 36.2257 25.7366 35.7678 25.2678C35.3099 24.7989 35.0527 24.163 35.0527 23.5C35.0527 22.837 35.3099 22.2011 35.7678 21.7322C36.2257 21.2634 36.8468 21 37.4944 21C38.142 21 38.763 21.2634 39.2209 21.7322C39.6789 22.2011 39.9361 22.837 39.9361 23.5C39.9361 24.163 39.6789 24.7989 39.2209 25.2678C38.763 25.7366 38.142 26 37.4944 26Z" stroke="#E10000" stroke-width="1.5" stroke-linecap="round" stroke-linejoin="round"/>
</svg>
