<svg width="3100" height="795" viewBox="0 0 3100 795" fill="none" xmlns="http://www.w3.org/2000/svg">
<path d="M3069.75 639.004C3032.3 648.819 2986.08 646.017 2948.47 632.656C2890.62 612.12 2849.61 572.915 2815.72 533.314C2781.82 493.71 2751.92 451.554 2706.26 418.477C2613.95 351.588 2460.13 334.715 2350.51 379.449C2274.02 410.66 2223.41 465.47 2176.36 518.843C2129.3 572.216 2080.84 627.693 2006.59 661.475C1932.35 695.254 1824.13 700.671 1757.11 655.95C1695.43 614.79 1678.44 540.174 1601.26 517.038C1503.22 487.65 1402.26 568.681 1299.92 549.661C1238.51 538.249 1198.2 493.546 1181.12 449.566C1164.04 405.585 1163.53 359.419 1146.46 315.436C1117.8 241.557 1040.4 176.967 942.689 145.367C844.979 113.771 729.073 115.854 637.514 150.855C567.031 177.799 512.883 221.9 446.577 253.674C380.268 285.446 289.962 303.747 218.479 273.842C181.647 258.436 154.133 231.874 114.787 220.418C90.4354 213.33 58.9358 217.859 41.2927 229.266" stroke="url(#paint0_linear_3004_39180)" stroke-width="150" stroke-miterlimit="10"/>
<path opacity="0.5" d="M3064.58 666.034C3026.86 675.438 2980.78 671.358 2943.64 656.387C2886.54 633.374 2846.85 591.142 2814.28 548.668C2781.72 506.191 2753.21 461.127 2708.69 425.227C2618.66 352.625 2465.57 331.113 2354.61 375.466C2277.2 406.411 2224.86 462.808 2176.12 517.78C2127.38 572.751 2077.18 629.901 2001.92 663.605C1926.65 697.306 1818.39 700.349 1752.9 651.68C1692.63 606.886 1678.09 528.006 1601.75 501.785C1504.78 468.479 1401.3 551.213 1299.69 528.704C1238.73 515.199 1199.91 467.202 1184.29 420.535C1168.66 373.867 1169.65 325.308 1154.04 278.639C1127.81 200.249 1052.61 130.431 956.033 94.8064C859.463 59.1853 743.624 58.5348 651.031 93.0966C579.751 119.703 524.231 164.75 456.967 196.538C389.7 228.322 298.902 245.354 228.475 212.154C192.187 195.052 165.569 166.446 126.641 153.435C102.548 145.384 70.9374 149.374 52.9433 160.937" stroke="url(#paint1_linear_3004_39180)" stroke-width="2.66667" stroke-miterlimit="10" stroke-dasharray="14.64 14.64"/>
<defs>
<linearGradient id="paint0_linear_3004_39180" x1="2167.5" y1="581.5" x2="1108" y2="503.5" gradientUnits="userSpaceOnUse">
<stop stop-color="#E0EFF9"/>
<stop offset="1" stop-color="#E0EFF9" stop-opacity="0"/>
</linearGradient>
<linearGradient id="paint1_linear_3004_39180" x1="1536.73" y1="658.872" x2="2588.06" y2="76.3227" gradientUnits="userSpaceOnUse">
<stop offset="0.786458" stop-color="#004996"/>
<stop offset="1" stop-color="#E0F0FA"/>
</linearGradient>
</defs>
</svg>
