<svg width="4082" height="795" viewBox="0 0 4082 795" fill="none" xmlns="http://www.w3.org/2000/svg">
<path d="M2087.5 638C2087.5 638 2047.5 645.5 1963.47 632.656C1905.62 612.12 1864.61 572.915 1830.72 533.314C1796.82 493.71 1766.92 451.554 1721.26 418.477C1628.95 351.588 1475.13 334.715 1365.51 379.449C1289.02 410.66 1238.41 465.47 1191.36 518.843C1144.3 572.216 1095.84 627.693 1021.59 661.475C947.345 695.254 839.129 700.671 772.115 655.95C710.434 614.79 693.438 540.174 616.259 517.038C518.223 487.65 417.258 568.681 314.918 549.661C253.515 538.249 213.196 493.546 196.118 449.566C179.035 405.585 178.529 359.419 161.463 315.436C132.795 241.557 55.4039 176.967 -42.3106 145.367C-140.021 113.771 -255.927 115.854 -347.486 150.855C-417.969 177.799 -472.117 221.9 -538.423 253.674C-604.732 285.446 -695.038 303.747 -766.521 273.842C-803.353 258.436 -830.867 231.874 -870.213 220.418C-894.565 213.33 -926.064 217.859 -943.707 229.266" stroke="url(#paint0_linear_3401_40726)" stroke-width="150" stroke-miterlimit="10"/>
<path d="M2087.28 638C2124.28 631 2125.92 628.493 2152.28 616.5C2192.81 598.066 2219.78 568.703 2243.7 530.361C2267.62 492.016 2288.77 450.978 2320.87 419.578C2385.76 356.077 2493.3 344.756 2569.59 393.39C2622.81 427.322 2657.82 483.899 2690.35 538.913C2722.88 593.926 2756.37 651.091 2808.02 687.511C2859.67 723.929 2935.21 733.234 2982.3 690.969C3025.64 652.07 3037.98 578.14 3092.03 557.804C3160.68 531.973 3230.69 616.556 3302.29 601.238C3345.25 592.048 3373.69 548.84 3385.89 505.518C3398.1 462.195 3398.74 416.093 3410.94 372.768C3431.42 299.995 3485.88 238.254 3554.32 210.202C3622.77 182.153 3703.71 188.405 3767.44 226.666C3816.49 256.12 3854.04 302.125 3900.15 336.254C3946.26 370.38 4009.22 391.912 4059.33 364.609C4085.16 350.545 4104.54 324.999 4132.09 314.97C4149.14 308.766 4202.25 576.469 4214.5 588.5" stroke="url(#paint1_linear_3401_40726)" stroke-width="150" stroke-miterlimit="10"/>
<path opacity="0.5" d="M2079.58 666.034C2041.86 675.438 1995.78 671.358 1958.64 656.387C1901.53 633.374 1861.85 591.142 1829.28 548.668C1796.72 506.191 1768.21 461.128 1723.69 425.227C1633.66 352.626 1480.57 331.113 1369.61 375.466C1292.2 406.412 1239.86 462.808 1191.12 517.78C1142.38 572.752 1092.18 629.901 1016.92 663.605C941.653 697.307 833.385 700.35 767.904 651.68C707.634 606.886 693.085 528.006 616.749 501.785C519.781 468.479 416.296 551.213 314.692 528.704C253.732 515.199 214.914 467.202 199.287 420.535C183.656 373.868 184.652 325.309 169.037 278.64C142.807 200.249 67.6069 130.431 -28.9667 94.8066C-125.537 59.1855 -241.376 58.535 -333.969 93.0968C-405.249 119.703 -460.769 164.75 -528.033 196.538C-595.3 228.323 -686.098 245.354 -756.525 212.155C-792.813 195.052 -819.431 166.446 -858.359 153.435C-882.452 145.384 -914.063 149.375 -932.057 160.938" stroke="url(#paint2_linear_3401_40726)" stroke-width="2.66667" stroke-miterlimit="10" stroke-dasharray="14.64 14.64"/>
<defs>
<linearGradient id="paint0_linear_3401_40726" x1="1182.5" y1="581.5" x2="-390" y2="391" gradientUnits="userSpaceOnUse">
<stop stop-color="#E0EFF9"/>
<stop offset="1" stop-color="#E0EFF9" stop-opacity="0"/>
</linearGradient>
<linearGradient id="paint1_linear_3401_40726" x1="2696.14" y1="601.825" x2="4159.36" y2="444.651" gradientUnits="userSpaceOnUse">
<stop stop-color="#E0EFF9"/>
<stop offset="1" stop-color="#E0EFF9" stop-opacity="0"/>
</linearGradient>
<linearGradient id="paint2_linear_3401_40726" x1="551.731" y1="658.872" x2="1603.06" y2="76.3229" gradientUnits="userSpaceOnUse">
<stop offset="0.786458" stop-color="#004996"/>
<stop offset="1" stop-color="#E0F0FA"/>
</linearGradient>
</defs>
</svg>
