<svg width="331" height="430" viewBox="0 0 331 430" fill="none" xmlns="http://www.w3.org/2000/svg">
<path d="M330.092 97.1511C330.092 106.855 322.573 114.726 313.431 114.726H238.659C229.517 114.726 222 106.855 222 97.1511V17.5753C222 7.87119 229.517 6.66775e-05 238.659 6.66775e-05H313.431C322.573 6.66775e-05 330.092 7.87119 330.092 17.5753V97.1511ZM238.558 8.19466C233.683 8.19466 229.618 12.3998 229.618 17.5753V97.1511C229.618 102.329 233.581 106.532 238.558 106.532H313.329C318.206 106.532 322.268 102.329 322.268 97.1511V17.5753C322.268 12.3998 318.308 8.19466 313.329 8.19466H238.558Z" fill="#F6F6F6"/>
<path d="M314.958 64.6957H262.538V27.0653H315.06V64.6957H314.958ZM314.958 67.2835H259.388V39.2494H244.253L236.43 58.9811V67.2835V80.6536H243.642C243.642 84.5352 246.588 87.6621 250.246 87.6621C253.902 87.6621 256.848 84.5352 256.848 80.6536H282.857C282.857 84.5352 285.802 87.6621 289.457 87.6621C293.115 87.6621 296.062 84.5352 296.062 80.6536H299.11C299.11 84.5352 302.057 87.6621 305.714 87.6621C309.372 87.6621 312.317 84.5352 312.317 80.6536H314.755V67.2835H314.958Z" fill="#F6F6F6"/>
<path d="M12.5983 399.433V401.882H10.6243C10.6243 401.882 8.99031 402.085 9.12509 405.009C9.26195 407.458 10.9644 407.458 10.9644 407.458H61.425V399.433H12.5983Z" fill="#F6F6F6"/>
<path d="M72.4573 418.269C72.4573 424.39 67.4164 429.352 61.2889 429.352H11.1683C5.03881 429.352 0 424.321 0 418.269V368.083C0 361.966 5.03881 357 11.1683 357H61.2889C67.4164 357 72.4573 361.966 72.4573 368.083V418.269ZM11.0999 362.167C7.83193 362.167 5.10724 364.821 5.10724 368.083V418.269C5.10724 421.532 7.76143 424.184 11.0999 424.184H61.2205C64.4905 424.184 67.2111 421.532 67.2111 418.269V368.083C67.2111 364.821 64.5569 362.167 61.2205 362.167H11.0999Z" fill="#F6F6F6"/>
<path d="M64.0146 374.001H46.7168V397.735H61.5637V379.646H64.0146V374.001ZM57.2734 384.881H49.5783V377.197H57.2734V384.881Z" fill="#F6F6F6"/>
<path d="M19.0684 381.618V375.225H15.8689V381.686H13.4158C13.4158 381.686 10.9648 384.676 10.9648 390.457C10.9648 396.17 13.4158 397.804 13.4158 397.804H45.0131V381.618H19.0684Z" fill="#F6F6F6"/>
<path d="M25.2661 407.525C25.2661 410.652 22.7467 413.169 19.6135 413.169C16.4803 413.169 13.9609 410.652 13.9609 407.525C13.9609 404.398 16.4803 401.881 19.6135 401.881C22.7467 401.881 25.2661 404.398 25.2661 407.525ZM17.6395 407.525C17.6395 408.612 18.5249 409.429 19.6135 409.429C20.7042 409.429 21.5897 408.543 21.5897 407.525C21.5897 406.439 20.7042 405.622 19.6135 405.622C18.5249 405.553 17.6395 406.439 17.6395 407.525Z" fill="#F6F6F6"/>
<path d="M39.0181 407.525C39.0181 410.652 36.4987 413.169 33.3676 413.169C30.2323 413.169 27.7129 410.652 27.7129 407.525C27.7129 404.398 30.2323 401.881 33.3676 401.881C36.4987 401.881 39.0181 404.398 39.0181 407.525ZM31.3914 407.525C31.3914 408.612 32.2768 409.429 33.2971 409.429C34.3878 409.429 35.2048 408.543 35.2048 407.525C35.2048 406.439 34.3193 405.622 33.2971 405.622C32.2768 405.553 31.3914 406.439 31.3914 407.525Z" fill="#F6F6F6"/>
<path d="M52.3677 407.525C52.3677 410.652 49.8483 413.169 46.7172 413.169C43.5819 413.169 41.0625 410.652 41.0625 407.525C41.0625 404.398 43.5819 401.881 46.7172 401.881C49.8483 401.881 52.3677 404.398 52.3677 407.525ZM44.741 407.525C44.741 408.612 45.6265 409.429 46.7172 409.429C47.8037 409.429 48.6912 408.543 48.6912 407.525C48.6912 406.439 47.8037 405.622 46.7172 405.622C45.6265 405.553 44.741 406.439 44.741 407.525Z" fill="#F6F6F6"/>
</svg>
