<svg width="607" height="316" viewBox="0 0 607 316" fill="none" xmlns="http://www.w3.org/2000/svg">
<path d="M7.39648 294.888C5.21921 294.888 3.40275 296.655 3.40275 298.83V332.265C3.40275 334.441 5.17359 336.207 7.39648 336.207H40.7915C42.9688 336.207 44.7832 334.441 44.7832 332.265V298.83C44.7832 296.655 43.0144 294.888 40.7915 294.888H7.39648ZM48.2772 332.265C48.2772 336.344 44.9201 339.651 40.8372 339.651H7.44209C3.35921 339.651 0 336.298 0 332.265V298.83C0 294.751 3.35921 291.444 7.44209 291.444H40.8372C44.9201 291.444 48.2772 294.751 48.2772 298.83V332.265Z" fill="#F6F6F6"/>
<path d="M38.1586 310.019H33.0306V304.9H38.1586V310.019ZM42.65 302.77H31.125V318.583H41.016V306.532H42.65V302.77Z" fill="#F6F6F6"/>
<path d="M12.7043 307.845V303.586H10.5706V307.891H8.93867C8.93867 307.891 7.30469 309.883 7.30469 313.734C7.30469 317.541 8.93867 318.627 8.93867 318.627H29.9918V307.845H12.7043Z" fill="#F6F6F6"/>
<path d="M417.86 91.7115C417.86 100.833 409.947 108.233 400.32 108.233H321.6C311.977 108.233 304.06 100.731 304.06 91.7115V16.9028C303.954 7.78131 311.867 0.380886 321.6 0.380886H400.32C409.947 0.380886 417.86 7.78131 417.86 16.9028V91.7115ZM321.6 8.08612C316.468 8.08612 312.188 12.0362 312.188 16.9028V91.7115C312.188 96.5781 316.358 100.528 321.6 100.528H400.32C405.456 100.528 409.732 96.5781 409.732 91.7115V16.9028C409.732 12.0362 405.562 8.08612 400.32 8.08612H321.6Z" fill="#F6F6F6"/>
<path d="M402.821 37.5713H397.689L390.011 49.6744L363.732 48.3992L343.252 48.3847L343.241 48.3992H330.327C323.982 48.3992 318.379 50.8874 318.379 54.1325C318.379 57.4564 323.982 59.8845 330.327 59.8845H343.241L368.228 94.9209C375.604 94.9209 372.705 85.364 372.705 85.364L363.732 59.8845L390.011 58.6093L397.689 70.7311H402.821L398.345 58.6093L397.762 54.1325L398.345 49.6744L402.821 37.5713Z" fill="#F6F6F6"/>
<path d="M372.705 22.9012C372.705 22.9012 375.604 13.3443 368.228 13.3443L345.309 45.4985H364.753L372.705 22.9012Z" fill="#F6F6F6"/>
<path d="M606.178 263.645C606.178 273.349 598.659 281.22 589.516 281.22H514.745C505.603 281.22 498.086 273.349 498.086 263.645V184.069C498.086 174.365 505.603 166.494 514.745 166.494H589.516C598.659 166.494 606.178 174.365 606.178 184.069V263.645ZM514.644 174.688C509.769 174.688 505.704 178.893 505.704 184.069V263.645C505.704 268.822 509.667 273.025 514.644 273.025H589.415C594.292 273.025 598.354 268.822 598.354 263.645V184.069C598.354 178.893 594.394 174.688 589.415 174.688H514.644Z" fill="#F6F6F6"/>
<path d="M591.044 231.189H538.624V193.559H591.146V231.189H591.044ZM591.044 233.777H535.474V205.743H520.339L512.516 225.475V233.777V247.147H519.728C519.728 251.029 522.674 254.156 526.332 254.156C529.988 254.156 532.934 251.029 532.934 247.147H558.943C558.943 251.029 561.888 254.156 565.543 254.156C569.201 254.156 572.148 251.029 572.148 247.147H575.196C575.196 251.029 578.142 254.156 581.8 254.156C585.458 254.156 588.403 251.029 588.403 247.147H590.841V233.777H591.044Z" fill="#F6F6F6"/>
<path d="M114.58 131.494C114.58 136.653 110.11 140.839 104.671 140.839H60.1362C54.6972 140.839 50.2266 136.595 50.2266 131.494V89.1836C50.2266 84.0247 54.6972 79.8403 60.1362 79.8403H104.61C110.049 79.8403 114.52 84.0247 114.52 89.1836V131.494H114.58ZM60.1362 84.1968C57.2374 84.1968 54.8196 86.432 54.8196 89.1836V131.494C54.8196 134.248 57.1772 136.481 60.1362 136.481H104.61C107.511 136.481 109.929 134.248 109.929 131.494V89.1836C109.929 86.432 107.572 84.1968 104.61 84.1968H60.1362Z" fill="#F6F6F6"/>
<path d="M101.226 110.339V103.919H96.9361V96.8093H86.5433V110.453C84.1255 110.511 79.4745 110.281 74.3361 108.676C66.7841 106.267 65.6955 103.919 65.6955 103.919H58.8672L68.2336 123.925H99.4742L105.94 115.096V110.339H101.226Z" fill="#F6F6F6"/>
</svg>
