<svg width="914" height="629" viewBox="0 0 914 629" fill="none" xmlns="http://www.w3.org/2000/svg">
<path d="M246.301 383.074L229.004 373.085L433.719 254.895L451.016 264.879L246.301 383.074Z" fill="#CC9445"/>
<path d="M437.694 493.58L420.393 483.596L625.108 365.401L642.409 375.39L437.694 493.58Z" fill="#CC9445"/>
<path d="M341.988 438.329L324.691 428.345L529.406 310.15L546.703 320.139L341.988 438.329Z" fill="#CC9445"/>
<path d="M246.305 404.555V383.078L451.02 264.884V286.365L246.305 404.555Z" fill="#A26A01"/>
<path d="M437.69 515.065L420.393 505.076V483.595L437.69 493.579V515.065Z" fill="#965E0D"/>
<path d="M437.701 515.059V493.578L642.421 375.388V396.869L437.701 515.059Z" fill="#C1944E"/>
<path d="M341.998 459.804V438.323L546.713 320.133V341.614L341.998 459.804Z" fill="#A26A01"/>
<path d="M468.038 469.37L437.699 486.88L229.004 366.392L259.338 348.886L468.038 469.37Z" fill="#DFAA5C"/>
<path d="M229 366.393V373.085L437.695 493.578V486.882L229 366.393Z" fill="#965E0D"/>
<path d="M437.701 486.878V493.574L468.035 476.06V469.368L437.701 486.878Z" fill="#C1944E"/>
<path d="M511.629 444.205L481.291 461.715L272.596 341.227L302.93 323.712L511.629 444.205Z" fill="#DFAA5C"/>
<path d="M272.604 341.225V347.921L481.299 468.409V461.713L272.604 341.225Z" fill="#BE7D00"/>
<path d="M481.285 461.714V468.41L511.619 450.896V444.204L481.285 461.714Z" fill="#C1944E"/>
<path d="M555.221 419.029L524.883 436.544L316.188 316.05L346.522 298.541L555.221 419.029Z" fill="#DFAA5C"/>
<path d="M316.203 316.051V322.747L524.894 443.244V436.548L316.203 316.051Z" fill="#BE7D00"/>
<path d="M524.887 436.545V443.241L555.221 425.726V419.03L524.887 436.545Z" fill="#C1944E"/>
<path d="M598.821 393.86L568.482 411.37L359.787 290.881L390.121 273.367L598.821 393.86Z" fill="#DFAA5C"/>
<path d="M359.793 290.884V297.58L568.488 418.068V411.372L359.793 290.884Z" fill="#BE7D00"/>
<path d="M568.496 411.373V418.069L598.83 400.554V393.863L568.496 411.373Z" fill="#C1944E"/>
<path d="M642.409 368.692L612.07 386.202L403.375 265.714L433.709 248.199L642.409 368.692Z" fill="#DFAA5C"/>
<path d="M403.391 265.716V272.412L612.086 392.901V386.204L403.391 265.716Z" fill="#BE7D00"/>
<path d="M612.074 386.204V392.9L642.408 375.386V368.694L612.074 386.204Z" fill="#C1944E"/>
<path d="M229.004 373.088V394.57L246.301 404.558V383.077L229.004 373.088Z" fill="#965E0D"/>
<path d="M324.691 428.34V449.826L341.988 459.81V438.324L324.691 428.34Z" fill="#965E0D"/>
<path d="M531.1 308.281L436.836 362.71V253.852L531.1 199.432V308.281Z" fill="#004996"/>
<path d="M531.105 199.429L436.842 253.858L342.578 199.429L436.842 145L531.105 199.429Z" fill="#E2E8F2"/>
<path d="M436.837 362.684L342.578 308.268L342.583 199.427L436.842 253.843L436.837 362.684Z" fill="#004996"/>
<path d="M399.183 260.97L380.23 250.032V221.167L399.183 232.105V260.97Z" fill="#E03C02"/>
<path d="M380.234 221.164L399.187 232.107L493.45 177.682L474.498 166.744L380.234 221.164Z" fill="#FF5102"/>
<path d="M408.844 304.42L411.089 305.721V338.553L408.844 337.253V304.42Z" fill="black"/>
<path d="M404.344 301.82L406.589 303.12V330.965L404.344 329.665V301.82Z" fill="black"/>
<path d="M399.852 299.225L402.097 300.52V328.369L399.852 327.069V299.225Z" fill="black"/>
<path d="M395.342 296.631L397.587 297.927V325.776L395.342 324.476V296.631Z" fill="black"/>
<path d="M390.838 294.03L393.083 295.326V323.175L390.838 321.875V294.03Z" fill="black"/>
<path d="M386.35 291.432L388.595 292.732V320.576L386.35 319.276V291.432Z" fill="black"/>
<path d="M381.84 288.834L384.085 290.134V317.979L381.84 316.679V288.834Z" fill="black"/>
<path d="M377.328 286.235L379.573 287.535V315.38L377.328 314.08V286.235Z" fill="black"/>
<path d="M372.84 283.639L375.085 284.934V312.783L372.84 311.483V283.639Z" fill="black"/>
<path d="M368.33 281.039L370.575 282.339V315.172L368.33 313.871V281.039Z" fill="black"/>
<path d="M378.46 321.665L373.961 319.069V313.868L378.46 316.468V321.665Z" fill="black"/>
<path d="M387.464 326.865L382.965 324.265V319.068L387.464 321.669V326.865Z" fill="black"/>
<path d="M396.462 332.065L391.963 329.469V324.268L396.462 326.868V332.065Z" fill="black"/>
<path d="M405.473 337.255L400.965 334.66V329.463L405.473 332.059V337.255Z" fill="black"/>
<path d="M431.288 365.92L337.02 420.345V311.491L431.288 257.066V365.92Z" fill="#004996"/>
<path d="M431.293 257.062L337.029 311.491L242.766 257.062L337.029 202.633L431.293 257.062Z" fill="#E2E8F2"/>
<path d="M337.024 420.345L242.756 365.902L242.765 257.066L337.024 311.478V420.345Z" fill="#429EDD"/>
<path d="M299.37 318.606L280.418 307.668L280.422 278.803L299.37 289.741V318.606Z" fill="#E03C02"/>
<path d="M280.418 278.796L299.37 289.738L393.634 235.314L374.682 224.375L280.418 278.796Z" fill="#FF5102"/>
<path d="M309.029 362.056L311.279 363.356V396.188L309.029 394.888V362.056Z" fill="black"/>
<path d="M304.525 359.459L306.771 360.76V388.604L304.525 387.304V359.459Z" fill="black"/>
<path d="M300.016 356.859L302.261 358.155V386.004L300.016 384.704V356.859Z" fill="black"/>
<path d="M295.527 354.264L297.773 355.559V383.408L295.527 382.108V354.264Z" fill="black"/>
<path d="M291.014 351.663L293.259 352.963V380.808L291.014 379.512V351.663Z" fill="black"/>
<path d="M286.527 349.063L288.773 350.364V378.208L286.527 376.908V349.063Z" fill="black"/>
<path d="M282.027 346.467L284.273 347.767V375.612L282.027 374.312V346.467Z" fill="black"/>
<path d="M277.52 343.871L279.765 345.167V373.016L277.52 371.716V343.871Z" fill="black"/>
<path d="M273.016 341.271L275.261 342.567V370.416L273.016 369.116V341.271Z" fill="black"/>
<path d="M268.514 338.667L270.759 339.972V372.804L268.514 371.504V338.667Z" fill="black"/>
<path d="M278.626 379.3L274.127 376.7V371.503L278.626 374.099V379.3Z" fill="black"/>
<path d="M287.645 384.493L283.137 381.893L283.141 376.697L287.645 379.293V384.493Z" fill="black"/>
<path d="M296.652 389.689L292.152 387.089V381.893L296.652 384.493V389.689Z" fill="black"/>
<path d="M305.64 394.885L301.141 392.289V387.089L305.64 389.689V394.885Z" fill="black"/>
<path d="M631.289 366.148L537.025 420.577V311.719L631.289 257.29V366.148Z" fill="#D6DEEA"/>
<path d="M631.281 257.291L537.018 311.721L442.754 257.291L537.018 202.862L631.281 257.291Z" fill="#E2E8F2"/>
<path d="M537.013 420.543L442.754 366.132L442.758 257.287L537.013 311.707V420.543Z" fill="#004996"/>
<path d="M499.358 318.836L480.406 307.898L480.411 279.033L499.358 289.971V318.836Z" fill="#E03C02"/>
<path d="M480.426 279.034L499.378 289.972L593.642 235.552L574.689 224.609L480.426 279.034Z" fill="#FF5102"/>
<path d="M509.02 362.285L511.269 363.585V396.418L509.02 395.117V362.285Z" fill="black"/>
<path d="M504.52 359.689L506.769 360.985V388.834L504.52 387.534V359.689Z" fill="black"/>
<path d="M500.014 357.09L502.263 358.386V386.235L500.014 384.935V357.09Z" fill="black"/>
<path d="M495.518 354.489L497.767 355.789V383.634L495.518 382.338V354.489Z" fill="black"/>
<path d="M491.02 351.894L493.269 353.194V381.039L491.02 379.739V351.894Z" fill="black"/>
<path d="M486.51 349.297L488.76 350.593V378.442L486.51 377.142V349.297Z" fill="black"/>
<path d="M482.008 346.697L484.258 347.997V375.842L482.008 374.546V346.697Z" fill="black"/>
<path d="M477.521 344.098L479.771 345.398V373.243L477.521 371.943V344.098Z" fill="black"/>
<path d="M473.004 341.501L475.254 342.801V370.646L473.004 369.346V341.501Z" fill="black"/>
<path d="M468.506 338.901L470.756 340.202V373.034L468.506 371.734V338.901Z" fill="black"/>
<path d="M478.636 379.533L474.137 376.933V371.737L478.636 374.337V379.533Z" fill="black"/>
<path d="M487.64 384.73L483.141 382.129V376.933L487.64 379.533V384.73Z" fill="black"/>
<path d="M496.632 389.929L492.133 387.333V382.133L496.632 384.733V389.929Z" fill="black"/>
<path d="M505.64 395.129L501.141 392.529V387.333L505.64 389.928V395.129Z" fill="black"/>
<path d="M531.475 423.784L437.211 478.213V369.354L531.475 314.925V423.784Z" fill="#004996"/>
<path d="M531.469 314.931L437.205 369.36L342.941 314.931L437.205 260.502L531.469 314.931Z" fill="#E2E8F2"/>
<path d="M437.201 478.185L342.941 423.769L342.946 314.929L437.205 369.349L437.201 478.185Z" fill="#D6DEEA"/>
<path d="M399.546 376.469L380.594 365.531V336.666L399.546 347.609V376.469Z" fill="#E03C02"/>
<path d="M380.594 336.663L399.546 347.601L493.81 293.181L474.857 282.238L380.594 336.663Z" fill="#FF5102"/>
<path d="M409.209 419.918L411.454 421.219V454.051L409.209 452.751V419.918Z" fill="black"/>
<path d="M404.703 417.325L406.948 418.629V446.47L404.703 445.174V417.325Z" fill="black"/>
<path d="M400.203 414.725L402.448 416.025V443.869L400.203 442.569V414.725Z" fill="black"/>
<path d="M395.711 412.129L397.956 413.429V441.274L395.711 439.974V412.129Z" fill="black"/>
<path d="M391.195 409.528L393.441 410.828V438.673L391.195 437.373V409.528Z" fill="black"/>
<path d="M386.699 406.929L388.945 408.229V436.074L386.699 434.773V406.929Z" fill="black"/>
<path d="M382.191 404.332L384.437 405.637V433.477L382.191 432.181V404.332Z" fill="black"/>
<path d="M377.695 401.732L379.941 403.033V430.877L377.695 429.577V401.732Z" fill="black"/>
<path d="M373.191 399.137L375.437 400.437V428.282L373.191 426.981V399.137Z" fill="black"/>
<path d="M368.689 396.537L370.939 397.837V430.67L368.689 429.369V396.537Z" fill="black"/>
<path d="M378.814 437.166L374.314 434.566V429.37L378.814 431.97V437.166Z" fill="black"/>
<path d="M387.82 442.362L383.32 439.766V434.565L387.82 437.166V442.362Z" fill="black"/>
<path d="M396.828 447.558L392.328 444.962V439.762L396.828 442.362V447.558Z" fill="black"/>
<path d="M405.834 452.755L401.334 450.159V444.963L405.834 447.559V452.755Z" fill="black"/>
<g filter="url(#filter0_f_2017_9613)">
<path d="M825 572.333L761 609V535.667L825 499V572.333Z" fill="#E2E8F2"/>
<path d="M825 498.5L761.5 535L698 498.5L761.5 462L825 498.5Z" fill="#004996"/>
<path d="M761.491 608.578L698 571.925L698.003 498.611L761.494 535.268L761.491 608.578Z" fill="#429EDD"/>
<path d="M736.127 540.064L723.361 532.696V513.253L736.127 520.624V540.064Z" fill="#E03C02"/>
<path d="M724 513.637L736.555 521L799 484.366L786.445 477L724 513.637Z" fill="#FF5102"/>
</g>
<path d="M914 184.667L819 240V129.333L914 74V184.667Z" fill="#2B6BCD" fill-opacity="0.1"/>
<path d="M914 75L818.5 130L723 75L818.5 20L914 75Z" fill="#F6F6F6"/>
<path d="M818.748 240.625L723.012 185.356L723.016 74.8096L818.753 130.083L818.748 240.625Z" fill="#429EDD"/>
<path d="M780.489 137.314L761.24 126.204V96.8867L780.489 108.001V137.314Z" fill="#E03C02"/>
<path d="M761 96.9552L780.251 108L876 53.0493L856.749 42L761 96.9552Z" fill="#FF5102"/>
<path d="M76 420.667L38 443V398.333L76 376V420.667Z" fill="#2B6BCD" fill-opacity="0.1"/>
<path d="M76 377L38 399L0 377L38 355L76 377Z" fill="#F6F6F6"/>
<path d="M38.0981 442.788L0.00390625 420.796L0.00570032 376.809L38.0999 398.803L38.0981 442.788Z" fill="#429EDD"/>
<path d="M22.8762 401.68L15.2168 397.259V385.594L22.8762 390.016V401.68Z" fill="#E03C02"/>
<path d="M15 385.649L22.7003 390L61 368.353L53.2997 364L15 385.649Z" fill="#FF5102"/>
<g filter="url(#filter1_f_2017_9613)">
<path d="M269 154.667L197 196V113.333L269 72V154.667Z" fill="#2B6BCD" fill-opacity="0.1"/>
<path d="M269 71.5L197 113L125 71.5L197 30L269 71.5Z" fill="#F6F6F6"/>
<path d="M196.995 195.912L125 154.35L125.003 71.2173L196.999 112.783L196.995 195.912Z" fill="#D6DEEA"/>
<path d="M169.041 152.198L169.981 152.742V166.486L169.041 165.942V152.198Z" fill="#429EDD"/>
<path d="M167.154 151.113L168.094 151.659V163.313L167.154 162.771V151.113Z" fill="#429EDD"/>
<path d="M165.273 150.024L166.213 150.568V162.224L165.273 161.68V150.024Z" fill="#429EDD"/>
<path d="M163.393 148.938L164.332 149.482V161.138L163.393 160.593V148.938Z" fill="#429EDD"/>
<path d="M161.502 147.849L162.442 148.393V160.049L161.502 159.505V147.849Z" fill="#429EDD"/>
<path d="M159.613 146.761L160.553 147.305V158.961L159.613 158.417V146.761Z" fill="#429EDD"/>
<path d="M157.729 145.674L158.668 146.22V157.874L157.729 157.332V145.674Z" fill="#429EDD"/>
<path d="M155.85 144.586L156.79 145.13V156.786L155.85 156.242V144.586Z" fill="#429EDD"/>
<path d="M153.965 143.499L154.905 144.043V155.699L153.965 155.155V143.499Z" fill="#429EDD"/>
<path d="M152.08 142.411L153.022 142.955V156.699L152.08 156.154V142.411Z" fill="#429EDD"/>
<path d="M156.317 159.418L154.434 158.33V156.155L156.317 157.243V159.418Z" fill="#429EDD"/>
<path d="M160.089 161.593L158.205 160.507V158.33L160.089 159.418V161.593Z" fill="#429EDD"/>
<path d="M163.858 163.769L161.975 162.682V160.505L163.858 161.593V163.769Z" fill="#429EDD"/>
<path d="M167.63 165.943L165.746 164.857V162.682L167.63 163.768V165.943Z" fill="#429EDD"/>
<path d="M168.233 118.222L153.758 109.867V87.8198L168.233 96.1778V118.222Z" fill="#E03C02"/>
<path d="M154 87.4654L168.564 96L241 53.5381L226.436 45L154 87.4654Z" fill="#FF5102"/>
</g>
<defs>
<filter id="filter0_f_2017_9613" x="678" y="442" width="167" height="187" filterUnits="userSpaceOnUse" color-interpolation-filters="sRGB">
<feFlood flood-opacity="0" result="BackgroundImageFix"/>
<feBlend mode="normal" in="SourceGraphic" in2="BackgroundImageFix" result="shape"/>
<feGaussianBlur stdDeviation="10" result="effect1_foregroundBlur_2017_9613"/>
</filter>
<filter id="filter1_f_2017_9613" x="95" y="0" width="204" height="226" filterUnits="userSpaceOnUse" color-interpolation-filters="sRGB">
<feFlood flood-opacity="0" result="BackgroundImageFix"/>
<feBlend mode="normal" in="SourceGraphic" in2="BackgroundImageFix" result="shape"/>
<feGaussianBlur stdDeviation="15" result="effect1_foregroundBlur_2017_9613"/>
</filter>
</defs>
</svg>
