<svg width="972" height="587" viewBox="0 0 972 587" fill="none" xmlns="http://www.w3.org/2000/svg">
<g filter="url(#filter0_f_2017_9612)">
<path d="M174 501.667L102 543V460.333L174 419V501.667Z" fill="#2B6BCD" fill-opacity="0.1"/>
<path d="M174 418.5L102 460L30 418.5L102 377L174 418.5Z" fill="#F6F6F6"/>
<path d="M101.995 542.912L30 501.35L30.0034 418.217L101.999 459.783L101.995 542.912Z" fill="#D6DEEA"/>
<path d="M74.041 499.198L74.9809 499.742V513.486L74.041 512.942V499.198Z" fill="#429EDD"/>
<path d="M72.1543 498.113L73.0942 498.659V510.313L72.1543 509.771V498.113Z" fill="#429EDD"/>
<path d="M70.2734 497.024L71.2133 497.568V509.224L70.2734 508.68V497.024Z" fill="#429EDD"/>
<path d="M68.3926 495.938L69.3325 496.482V508.138L68.3926 507.593V495.938Z" fill="#429EDD"/>
<path d="M66.502 494.849L67.4419 495.393V507.049L66.502 506.505V494.849Z" fill="#429EDD"/>
<path d="M64.6133 493.761L65.5532 494.305V505.961L64.6133 505.417V493.761Z" fill="#429EDD"/>
<path d="M62.7285 492.674L63.6684 493.22V504.874L62.7285 504.332V492.674Z" fill="#429EDD"/>
<path d="M60.8496 491.586L61.7895 492.13V503.786L60.8496 503.242V491.586Z" fill="#429EDD"/>
<path d="M58.9648 490.499L59.9047 491.043V502.699L58.9648 502.155V490.499Z" fill="#429EDD"/>
<path d="M57.0801 489.411L58.0218 489.955V503.699L57.0801 503.154V489.411Z" fill="#429EDD"/>
<path d="M61.3171 506.418L59.4336 505.33V503.155L61.3171 504.243V506.418Z" fill="#429EDD"/>
<path d="M65.0886 508.593L63.2051 507.507V505.33L65.0886 506.418V508.593Z" fill="#429EDD"/>
<path d="M68.8581 510.769L66.9746 509.682V507.505L68.8581 508.593V510.769Z" fill="#429EDD"/>
<path d="M72.6296 512.943L70.7461 511.857V509.682L72.6296 510.768V512.943Z" fill="#429EDD"/>
<path d="M73.2334 465.222L58.7578 456.867V434.82L73.2334 443.178V465.222Z" fill="#E03C02"/>
<path d="M59 434.465L73.5637 443L146 400.538L131.436 392L59 434.465Z" fill="#FF5102"/>
</g>
<path d="M972 564.667L934 587V542.333L972 520V564.667Z" fill="#2B6BCD" fill-opacity="0.1"/>
<path d="M972 521L934 543L896 521L934 499L972 521Z" fill="#F6F6F6"/>
<path d="M934.098 586.788L896.004 564.796L896.006 520.809L934.1 542.803L934.098 586.788Z" fill="#429EDD"/>
<path d="M918.876 545.68L911.217 541.259V529.594L918.876 534.016V545.68Z" fill="#E03C02"/>
<path d="M911 529.649L918.7 534L957 512.353L949.3 508L911 529.649Z" fill="#FF5102"/>
<g filter="url(#filter1_f_2017_9612)">
<path d="M315 92.9766L272.669 117.229V68.7246L315 44.4727V92.9766Z" fill="#E2E8F2"/>
<path d="M315 44.1417L273 68.2835L231 44.1417L273 20L315 44.1417Z" fill="#004996"/>
<path d="M272.994 116.949L231 92.7059L231.002 44.2153L272.996 68.4606L272.994 116.949Z" fill="#429EDD"/>
<path d="M256.218 71.6327L247.774 66.7595V53.8994L256.218 58.7746V71.6327Z" fill="#E03C02"/>
<path d="M248.197 54.1536L256.501 59.0237L297.804 34.7935L289.5 29.9214L248.197 54.1536Z" fill="#FF5102"/>
</g>
<path d="M358.204 317.993V401.678L257.272 360.036L256.487 359.716V276.081L306.462 296.672L309.631 297.982L310.556 298.362L321.21 302.753L324.126 303.953L334.892 308.383L338.06 309.693L341.229 311.003L355.598 316.913L358.163 317.973L358.204 317.993Z" fill="#D2D2D2"/>
<path d="M257.274 300.82V303.315L358.209 344.929V342.418L257.274 300.82Z" fill="#AAAAAA"/>
<path d="M257.274 308.98V311.475L358.209 353.088V350.577L257.274 308.98Z" fill="#AAAAAA"/>
<path d="M257.274 317.141V319.637L358.209 361.249V358.738L257.274 317.141Z" fill="#AAAAAA"/>
<path d="M257.274 284.5V286.996L358.209 328.609V326.098L257.274 284.5Z" fill="#AAAAAA"/>
<path d="M257.274 292.66V295.155L358.209 336.769V334.258L257.274 292.66Z" fill="#AAAAAA"/>
<path d="M257.274 325.299V327.796L358.209 369.408V366.898L257.274 325.299Z" fill="#AAAAAA"/>
<path d="M257.274 333.461V335.956L358.209 377.569V375.057L257.274 333.461Z" fill="#AAAAAA"/>
<path d="M257.274 341.621V344.117L358.209 385.73V383.218L257.274 341.621Z" fill="#AAAAAA"/>
<path d="M257.274 349.783V352.278L358.209 393.891V391.379L257.274 349.783Z" fill="#AAAAAA"/>
<path d="M923.653 188.601V304.526L620.053 427.858L508.919 472.999V357.074L765.12 252.999L923.653 188.601Z" fill="#00539E"/>
<path d="M397.381 292.042L394.044 290.091L360.611 270.6L230.482 243.913L230.014 244.105V352.487L238.575 355.957L239.307 356.255L259.583 364.481V301.643L262.076 302.663V302.221L302.822 318.763L305.405 319.815L306.16 320.12L314.846 323.645L317.225 324.61L326.002 328.17L328.585 329.222L331.169 330.273L342.885 335.022L344.977 335.873L345.01 335.889V336.347L345.022 336.356V379.625L345.147 379.672L345.022 379.73V399.122L369.802 409.18L384.272 415.061L396.387 419.977L397.851 420.564L400.022 421.447L410.857 425.85L414.492 427.329L426.619 432.246L428.162 432.871L430.071 433.651L441.09 438.125L444.541 439.522L456.669 444.447L458.577 445.227L460.303 445.918L471.139 450.321L474.773 451.799L486.889 456.724L488.889 457.527L501.359 462.596L508.812 465.617V465.625L508.926 465.575V357.075L397.381 292.042ZM476.648 382.099L398.867 350.544V331.374L476.648 362.939V382.099Z" fill="#00539E"/>
<path d="M345.007 335.89V336.348L344.974 336.34L344.403 336.107L342.311 335.256L331.167 330.733L328.582 329.688L325.999 328.636L316.65 324.844L314.284 323.88L306.157 320.586L305.403 320.281L302.819 319.229L262.712 302.953V370.146L259.593 371.407L259.58 371.415L230.686 359.758L259.58 371.407V301.643L262.072 302.663V302.221L302.819 318.763L305.403 319.815L306.157 320.12L314.844 323.647L317.221 324.611L325.999 328.17L328.582 329.222L331.167 330.275L342.882 335.023L344.974 335.874L345.007 335.89Z" fill="#2EB4A6"/>
<path d="M345.02 379.729L345.143 379.673L345.02 379.625V379.729Z" fill="#2EB4A6"/>
<path d="M508.926 357.075L397.381 292.042L394.044 290.09L360.611 270.601L230.482 243.913L230.014 244.106V243.56L231.008 243.704L359.194 262.615L399.244 287.881L402.525 289.954L508.926 357.075Z" fill="#2EB4A6"/>
<path d="M476.65 362.938V382.099L398.87 350.542V331.375L476.65 362.938Z" fill="#2EB4A6"/>
<path d="M508.924 465.576V472.991L508.877 472.975L508.866 472.967L508.808 472.943L345.02 406.28V399.122L369.798 409.181L384.27 415.061L396.385 419.977L397.847 420.565L400.019 421.447L410.854 425.851L414.489 427.329L426.617 432.245L428.159 432.871L430.068 433.651L441.086 438.125L444.539 439.523L456.665 444.448L458.574 445.227L460.3 445.918L471.136 450.321L474.771 451.799L486.886 456.723L488.886 457.526L501.356 462.596L508.808 465.617V465.625L508.924 465.576Z" fill="#2EB4A6"/>
<path d="M230.007 236.508L360.81 261.62L775.71 93.1316L644.957 68L230.007 236.508Z" fill="#666362"/>
<path d="M360.806 261.62L775.704 93.1323L923.782 181.424L508.915 349.858L360.806 261.62Z" fill="#585756"/>
<path d="M508.923 349.86V357.074L397.379 292.042L394.042 290.09L360.609 270.601L230.48 243.913L230.011 243.816H230V236.506L242.71 238.948L360.803 261.619L402.545 286.483L405.997 288.54L508.923 349.86Z" fill="#E1E1E1"/>
<path d="M923.661 181.457L508.919 349.856V357.072L923.661 188.602V181.457Z" fill="#C1C1C1"/>
<path d="M369.787 257.977L238.983 232.866L242.801 231.315L373.552 256.447L369.787 257.977Z" fill="#777370"/>
<path d="M383.222 252.519L252.42 227.408L256.236 225.857L386.988 250.989L383.222 252.519Z" fill="#777370"/>
<path d="M396.647 247.06L265.844 221.948L269.661 220.399L400.415 245.532L396.647 247.06Z" fill="#777370"/>
<path d="M409.995 241.645L279.192 216.533L283.01 214.983L413.761 240.116L409.995 241.645Z" fill="#777370"/>
<path d="M423.432 236.195L292.629 211.085L296.445 209.535L427.197 234.667L423.432 236.195Z" fill="#777370"/>
<path d="M436.828 230.749L306.025 205.637L309.841 204.087L440.594 229.219L436.828 230.749Z" fill="#777370"/>
<path d="M450.239 225.311L319.436 200.199L323.253 198.649L454.006 223.781L450.239 225.311Z" fill="#777370"/>
<path d="M463.634 219.864L332.832 194.753L336.65 193.202L467.401 218.335L463.634 219.864Z" fill="#777370"/>
<path d="M477.053 214.415L346.249 189.304L350.065 187.753L480.818 212.885L477.053 214.415Z" fill="#777370"/>
<path d="M490.447 208.976L359.645 183.866L363.462 182.316L494.213 207.448L490.447 208.976Z" fill="#777370"/>
<path d="M503.85 203.531L373.048 178.42L376.863 176.869L507.616 202.002L503.85 203.531Z" fill="#777370"/>
<path d="M517.281 198.093L386.479 172.982L390.294 171.431L521.047 196.564L517.281 198.093Z" fill="#777370"/>
<path d="M530.685 192.645L399.882 167.535L403.698 165.985L534.45 191.117L530.685 192.645Z" fill="#777370"/>
<path d="M544.107 187.197L413.305 162.086L417.121 160.535L547.873 185.668L544.107 187.197Z" fill="#777370"/>
<path d="M557.484 181.759L426.681 156.65L430.498 155.099L561.251 180.231L557.484 181.759Z" fill="#777370"/>
<path d="M570.9 176.323L440.098 151.212L443.914 149.661L574.666 174.794L570.9 176.323Z" fill="#777370"/>
<path d="M584.303 170.875L453.501 145.765L457.317 144.213L588.069 169.347L584.303 170.875Z" fill="#777370"/>
<path d="M597.72 165.427L466.918 140.316L470.734 138.765L601.486 163.897L597.72 165.427Z" fill="#777370"/>
<path d="M611.096 159.99L480.294 134.878L484.112 133.328L614.865 158.461L611.096 159.99Z" fill="#777370"/>
<path d="M624.512 154.541L493.71 129.431L497.526 127.881L628.278 153.013L624.512 154.541Z" fill="#777370"/>
<path d="M637.881 149.088L507.08 123.976L510.895 122.426L641.649 147.558L637.881 149.088Z" fill="#777370"/>
<path d="M651.305 143.629L520.503 118.518L524.318 116.967L655.071 142.1L651.305 143.629Z" fill="#777370"/>
<path d="M664.661 138.213L533.858 113.102L537.676 111.551L668.427 136.683L664.661 138.213Z" fill="#777370"/>
<path d="M678.093 132.765L547.289 107.654L551.104 106.104L681.858 131.236L678.093 132.765Z" fill="#777370"/>
<path d="M691.494 127.317L560.691 102.206L564.507 100.655L695.26 125.787L691.494 127.317Z" fill="#777370"/>
<path d="M704.904 121.88L574.102 96.7691L577.917 95.2178L708.67 120.35L704.904 121.88Z" fill="#777370"/>
<path d="M718.3 116.432L587.498 91.3205L591.316 89.77L722.067 114.902L718.3 116.432Z" fill="#777370"/>
<path d="M731.712 110.985L600.908 85.8732L604.725 84.3228L735.477 109.455L731.712 110.985Z" fill="#777370"/>
<path d="M745.114 105.547L614.312 80.4353L618.129 78.8848L748.88 104.017L745.114 105.547Z" fill="#777370"/>
<path d="M758.509 100.099L627.707 74.9883L631.522 73.437L762.276 98.5694L758.509 100.099Z" fill="#777370"/>
<path d="M771.94 94.662L641.138 69.5513L644.953 68L775.706 93.1324L771.94 94.662Z" fill="#777370"/>
<path d="M369.796 257.972L517.907 346.21L521.662 344.689L373.562 256.442L369.796 257.972Z" fill="#6C6B6A"/>
<path d="M383.199 252.529L531.309 340.768L535.066 339.247L386.967 251L383.199 252.529Z" fill="#6C6B6A"/>
<path d="M396.602 247.085L544.712 335.323L548.468 333.803L400.369 245.556L396.602 247.085Z" fill="#6C6B6A"/>
<path d="M410.012 241.644L558.122 329.883L561.878 328.362L413.779 240.115L410.012 241.644Z" fill="#6C6B6A"/>
<path d="M423.422 236.201L571.533 324.44L575.288 322.92L427.189 234.672L423.422 236.201Z" fill="#6C6B6A"/>
<path d="M436.832 230.758L584.94 318.998L588.697 317.477L440.598 229.229L436.832 230.758Z" fill="#6C6B6A"/>
<path d="M450.241 225.317L598.352 313.555L602.108 312.035L454.008 223.788L450.241 225.317Z" fill="#6C6B6A"/>
<path d="M463.651 219.873L611.762 308.112L615.518 306.591L467.419 218.344L463.651 219.873Z" fill="#6C6B6A"/>
<path d="M477.055 214.431L625.165 302.67L628.921 301.149L480.822 212.902L477.055 214.431Z" fill="#6C6B6A"/>
<path d="M490.465 208.988L638.573 297.226L642.33 295.705L494.23 207.458L490.465 208.988Z" fill="#6C6B6A"/>
<path d="M503.875 203.546L651.983 291.784L655.74 290.265L507.641 202.018L503.875 203.546Z" fill="#6C6B6A"/>
<path d="M517.284 198.103L665.395 286.341L669.151 284.821L521.051 196.574L517.284 198.103Z" fill="#6C6B6A"/>
<path d="M530.688 192.661L678.798 280.899L682.554 279.379L534.455 191.132L530.688 192.661Z" fill="#6C6B6A"/>
<path d="M544.091 187.219L692.201 275.457L695.957 273.936L547.858 185.689L544.091 187.219Z" fill="#6C6B6A"/>
<path d="M557.501 181.777L705.612 270.015L709.367 268.495L561.267 180.247L557.501 181.777Z" fill="#6C6B6A"/>
<path d="M570.91 176.334L719.02 264.572L722.777 263.052L574.677 174.805L570.91 176.334Z" fill="#6C6B6A"/>
<path d="M584.32 170.891L732.431 259.129L736.187 257.609L588.088 169.362L584.32 170.891Z" fill="#6C6B6A"/>
<path d="M597.73 165.45L745.873 253.688L749.629 252.167L601.497 163.92L597.73 165.45Z" fill="#6C6B6A"/>
<path d="M611.141 159.973L759.308 248.25L763.064 246.729L614.908 158.444L611.141 159.973Z" fill="#6C6B6A"/>
<path d="M624.543 154.542L772.702 242.812L776.457 241.292L628.31 153.014L624.543 154.542Z" fill="#6C6B6A"/>
<path d="M637.845 149.13L785.955 237.37L789.711 235.849L641.612 147.601L637.845 149.13Z" fill="#6C6B6A"/>
<path d="M651.248 143.689L799.358 231.928L803.115 230.407L655.015 142.159L651.248 143.689Z" fill="#6C6B6A"/>
<path d="M664.658 138.246L812.769 226.484L816.525 224.964L668.425 136.716L664.658 138.246Z" fill="#6C6B6A"/>
<path d="M678.067 132.803L826.178 221.041L829.934 219.52L681.835 131.273L678.067 132.803Z" fill="#6C6B6A"/>
<path d="M691.471 127.362L839.581 215.6L843.337 214.081L695.238 125.834L691.471 127.362Z" fill="#6C6B6A"/>
<path d="M704.874 121.919L852.983 210.157L856.74 208.637L708.641 120.39L704.874 121.919Z" fill="#6C6B6A"/>
<path d="M718.291 116.475L866.402 204.715L870.157 203.194L722.058 114.946L718.291 116.475Z" fill="#6C6B6A"/>
<path d="M731.693 111.034L879.804 199.272L883.56 197.752L735.461 109.504L731.693 111.034Z" fill="#6C6B6A"/>
<path d="M745.104 105.591L893.214 193.829L896.97 192.308L748.871 104.062L745.104 105.591Z" fill="#6C6B6A"/>
<path d="M758.507 100.149L906.615 188.387L910.371 186.867L762.273 98.6196L758.507 100.149Z" fill="#6C6B6A"/>
<path d="M771.917 94.7054L920.025 182.943L923.781 181.423L775.683 93.1758L771.917 94.7054Z" fill="#6C6B6A"/>
<path d="M923.766 297.225V304.608L620.052 427.859L508.919 472.952L508.873 472.976L508.805 473V465.625L508.919 465.577L913.799 301.274L923.652 297.273L923.766 297.225Z" fill="#C1C1C1"/>
<path d="M508.81 465.617V472.991L345.02 406.281V399.122L369.799 409.181L384.27 415.06L396.385 419.977L397.848 420.564L400.019 421.448L410.856 425.851L414.489 427.329L426.617 432.245L428.159 432.871L430.068 433.651L441.088 438.124L444.539 439.524L456.667 444.447L458.575 445.227L460.301 445.918L471.137 450.321L474.771 451.799L486.886 456.723L488.886 457.526L501.356 462.596L508.81 465.617Z" fill="#D2D2D2"/>
<path d="M259.583 364.481V371.406L230.688 359.757L230.139 359.532L230.014 359.484V352.486L238.575 355.957L239.306 356.254L259.583 364.481Z" fill="#D2D2D2"/>
<path d="M259.576 371.414L259.588 371.406V364.489L259.576 364.481V371.414Z" fill="#D2D2D2"/>
<path d="M476.65 362.938V382.099L398.87 350.542V331.375L476.65 362.938Z" fill="white"/>
<path d="M435.537 348.317L401.11 334.344V347.811L435.537 361.791V348.317Z" fill="#999999"/>
<path d="M435.537 360.148L405.663 348.136L401.11 349.524L435.537 363.557V360.148Z" fill="#E1E1E1"/>
<path d="M405.664 336.196L401.11 334.343V349.523L405.664 348.134V336.196Z" fill="#C1C1C1"/>
<path d="M473.88 363.832L439.453 349.858V363.325L473.88 377.306V363.832Z" fill="#999999"/>
<path d="M473.88 375.661L444.005 363.649L439.453 365.038L473.88 379.071V375.661Z" fill="#E1E1E1"/>
<path d="M444.005 351.711L439.453 349.858V365.037L444.005 363.65V351.711Z" fill="#C1C1C1"/>
<path d="M540.913 362.939L618.693 331.375V350.539L540.913 382.102V362.939Z" fill="white"/>
<path d="M582.019 348.317L616.443 334.344V347.811L582.019 361.791V348.317Z" fill="#999999"/>
<path d="M582.019 360.148L611.892 348.136L616.443 349.524L582.019 363.557V360.148Z" fill="#E1E1E1"/>
<path d="M611.894 336.196L616.445 334.343V349.523L611.894 348.134V336.196Z" fill="#C1C1C1"/>
<path d="M543.684 363.832L578.11 349.858V363.325L543.684 377.306V363.832Z" fill="#999999"/>
<path d="M543.684 375.661L573.559 363.649L578.11 365.038L543.684 379.071V375.661Z" fill="#E1E1E1"/>
<path d="M573.552 351.711L578.103 349.858V365.037L573.552 363.65V351.711Z" fill="#C1C1C1"/>
<path d="M824.68 247.658L902.46 216.095V235.258L824.68 266.822V247.658Z" fill="white"/>
<path d="M865.786 233.036L900.211 219.063V232.53L865.786 246.511V233.036Z" fill="#999999"/>
<path d="M865.786 244.866L895.66 232.854L900.211 234.243L865.786 248.276V244.866Z" fill="#E1E1E1"/>
<path d="M895.661 220.916L900.213 219.063V234.242L895.661 232.855V220.916Z" fill="#C1C1C1"/>
<path d="M827.443 248.551L861.869 234.578V248.044L827.443 262.025V248.551Z" fill="#999999"/>
<path d="M827.443 260.38L857.316 248.368L861.869 249.756L827.443 263.789V260.38Z" fill="#E1E1E1"/>
<path d="M857.319 236.43L861.872 234.577V249.757L857.319 248.369V236.43Z" fill="#C1C1C1"/>
<path d="M262.708 302.919V370.145L259.589 371.406L259.576 371.414V301.642L262.068 302.662L262.708 302.919Z" fill="#9B9B9B"/>
<path d="M627.368 370.65L638.821 366.003V361.804L627.368 366.45V370.65Z" fill="white"/>
<path d="M627.367 370.651L624.007 369.378V365.178L627.367 366.451V370.651Z" fill="#C1C1C1"/>
<path d="M638.815 361.805L627.36 366.452L624 365.179L635.631 360.526L638.815 361.805Z" fill="#D2D2D2"/>
<path d="M824.436 290.389L835.888 285.742V281.542L824.436 286.19V290.389Z" fill="white"/>
<path d="M824.436 290.39L821.075 289.118V284.918L824.436 286.19V290.39Z" fill="#C1C1C1"/>
<path d="M835.888 281.543L824.436 286.191L821.075 284.918L832.706 280.265L835.888 281.543Z" fill="#D2D2D2"/>
<path d="M262.068 369.87L262.713 370.133V302.95L262.068 302.686V369.87Z" fill="#D2D2D2"/>
<defs>
<filter id="filter0_f_2017_9612" x="0" y="347" width="204" height="226" filterUnits="userSpaceOnUse" color-interpolation-filters="sRGB">
<feFlood flood-opacity="0" result="BackgroundImageFix"/>
<feBlend mode="normal" in="SourceGraphic" in2="BackgroundImageFix" result="shape"/>
<feGaussianBlur stdDeviation="15" result="effect1_foregroundBlur_2017_9612"/>
</filter>
<filter id="filter1_f_2017_9612" x="211" y="0" width="124" height="137.229" filterUnits="userSpaceOnUse" color-interpolation-filters="sRGB">
<feFlood flood-opacity="0" result="BackgroundImageFix"/>
<feBlend mode="normal" in="SourceGraphic" in2="BackgroundImageFix" result="shape"/>
<feGaussianBlur stdDeviation="10" result="effect1_foregroundBlur_2017_9612"/>
</filter>
</defs>
</svg>
