<svg width="64" height="64" viewBox="0 0 64 64" fill="none" xmlns="http://www.w3.org/2000/svg">
<path d="M25.3335 44L44.0002 32L25.3335 20V44ZM32.0002 58.6667C28.3113 58.6667 24.8446 57.9662 21.6002 56.5653C18.3557 55.1645 15.5335 53.2649 13.1335 50.8667C10.7335 48.4667 8.83394 45.6445 7.43483 42.4C6.03572 39.1556 5.33527 35.6889 5.3335 32C5.3335 28.3111 6.03394 24.8445 7.43483 21.6C8.83572 18.3556 10.7353 15.5333 13.1335 13.1333C15.5335 10.7333 18.3557 8.83379 21.6002 7.43468C24.8446 6.03557 28.3113 5.33512 32.0002 5.33334C35.6891 5.33334 39.1557 6.03379 42.4002 7.43468C45.6446 8.83557 48.4668 10.7351 50.8668 13.1333C53.2668 15.5333 55.1673 18.3556 56.5682 21.6C57.969 24.8445 58.6686 28.3111 58.6668 32C58.6668 35.6889 57.9664 39.1556 56.5655 42.4C55.1646 45.6445 53.2651 48.4667 50.8668 50.8667C48.4668 53.2667 45.6446 55.1671 42.4002 56.568C39.1557 57.9689 35.6891 58.6685 32.0002 58.6667ZM32.0002 53.3333C37.9557 53.3333 43.0002 51.2667 47.1335 47.1333C51.2668 43 53.3335 37.9556 53.3335 32C53.3335 26.0445 51.2668 21 47.1335 16.8667C43.0002 12.7333 37.9557 10.6667 32.0002 10.6667C26.0446 10.6667 21.0002 12.7333 16.8668 16.8667C12.7335 21 10.6668 26.0445 10.6668 32C10.6668 37.9556 12.7335 43 16.8668 47.1333C21.0002 51.2667 26.0446 53.3333 32.0002 53.3333Z" fill="currentColor"/>
</svg>
