<svg width="0" height="0" class="hidden">
	<symbol fill="none" xmlns="http://www.w3.org/2000/svg" viewBox="0 0 64 64" id="play-circle">
		<path d="M25.3335 44L44.0002 32L25.3335 20V44ZM32.0002 58.6667C28.3113 58.6667 24.8446 57.9662 21.6002 56.5653C18.3557 55.1645 15.5335 53.2649 13.1335 50.8667C10.7335 48.4667 8.83394 45.6445 7.43483 42.4C6.03572 39.1556 5.33527 35.6889 5.3335 32C5.3335 28.3111 6.03394 24.8445 7.43483 21.6C8.83572 18.3556 10.7353 15.5333 13.1335 13.1333C15.5335 10.7333 18.3557 8.83379 21.6002 7.43468C24.8446 6.03557 28.3113 5.33512 32.0002 5.33334C35.6891 5.33334 39.1557 6.03379 42.4002 7.43468C45.6446 8.83557 48.4668 10.7351 50.8668 13.1333C53.2668 15.5333 55.1673 18.3556 56.5682 21.6C57.969 24.8445 58.6686 28.3111 58.6668 32C58.6668 35.6889 57.9664 39.1556 56.5655 42.4C55.1646 45.6445 53.2651 48.4667 50.8668 50.8667C48.4668 53.2667 45.6446 55.1671 42.4002 56.568C39.1557 57.9689 35.6891 58.6685 32.0002 58.6667ZM32.0002 53.3333C37.9557 53.3333 43.0002 51.2667 47.1335 47.1333C51.2668 43 53.3335 37.9556 53.3335 32C53.3335 26.0445 51.2668 21 47.1335 16.8667C43.0002 12.7333 37.9557 10.6667 32.0002 10.6667C26.0446 10.6667 21.0002 12.7333 16.8668 16.8667C12.7335 21 10.6668 26.0445 10.6668 32C10.6668 37.9556 12.7335 43 16.8668 47.1333C21.0002 51.2667 26.0446 53.3333 32.0002 53.3333Z" fill="currentColor"></path>
	</symbol>
	<symbol fill="none" xmlns="http://www.w3.org/2000/svg" viewBox="0 0 24 24" id="search-loupe">
		<path d="M10 18C11.775 17.9996 13.4988 17.4054 14.897 16.312L19.293 20.708L20.707 19.294L16.311 14.898C17.405 13.4997 17.9996 11.7754 18 10C18 5.589 14.411 2 10 2C5.589 2 2 5.589 2 10C2 14.411 5.589 18 10 18ZM10 4C13.309 4 16 6.691 16 10C16 13.309 13.309 16 10 16C6.691 16 4 13.309 4 10C4 6.691 6.691 4 10 4Z" fill="currentColor"></path>
	</symbol>
	<symbol fill="none" xmlns="http://www.w3.org/2000/svg" viewBox="0 0 100 100" id="submitted-form">
		<path d="M29.1666 49.9999L45.8333 62.4999L66.6666 33.3333M50 91.6666C73.0125 91.6666 91.6666 73.0124 91.6666 49.9999C91.6666 26.9874 73.0125 8.33325 50 8.33325C26.9875 8.33325 8.33331 26.9874 8.33331 49.9999C8.33331 73.0124 26.9875 91.6666 50 91.6666Z" stroke="#004996" stroke-width="4"></path>
	</symbol>
	<symbol fill="none" xmlns="http://www.w3.org/2000/svg" viewBox="0 0 42 42" id="time">
		<path d="M20.9825 3.5C11.3225 3.5 3.5 11.34 3.5 21C3.5 30.66 11.3225 38.5 20.9825 38.5C30.66 38.5 38.5 30.66 38.5 21C38.5 11.34 30.66 3.5 20.9825 3.5ZM21 35C13.265 35 7 28.735 7 21C7 13.265 13.265 7 21 7C28.735 7 35 13.265 35 21C35 28.735 28.735 35 21 35ZM20.615 12.25H20.51C19.81 12.25 19.25 12.81 19.25 13.51V21.77C19.25 22.3825 19.565 22.96 20.1075 23.275L27.37 27.6325C27.965 27.9825 28.735 27.8075 29.085 27.2125C29.1729 27.0708 29.2313 26.9129 29.2569 26.7481C29.2824 26.5833 29.2746 26.4151 29.2338 26.2534C29.1929 26.0918 29.12 25.94 29.0193 25.8071C28.9185 25.6742 28.7921 25.563 28.6475 25.48L21.875 21.455V13.51C21.875 12.81 21.315 12.25 20.615 12.25Z" fill="#004996"></path>
	</symbol>
	<symbol fill="none" xmlns="http://www.w3.org/2000/svg" viewBox="0 0 109 109" id="user">
		<path d="M54.5013 18.1667C59.3194 18.1667 63.9402 20.0807 67.3471 23.4876C70.754 26.8945 72.668 31.5153 72.668 36.3334C72.668 41.1515 70.754 45.7722 67.3471 49.1791C63.9402 52.586 59.3194 54.5 54.5013 54.5C49.6832 54.5 45.0624 52.586 41.6555 49.1791C38.2486 45.7722 36.3346 41.1515 36.3346 36.3334C36.3346 31.5153 38.2486 26.8945 41.6555 23.4876C45.0624 20.0807 49.6832 18.1667 54.5013 18.1667ZM54.5013 63.5834C74.5755 63.5834 90.8346 71.7129 90.8346 81.75V90.8334H18.168V81.75C18.168 71.7129 34.4271 63.5834 54.5013 63.5834Z" fill="white"></path>
	</symbol>
	<symbol fill="none" xmlns="http://www.w3.org/2000/svg" viewBox="0 0 64 64" id="users">
		<path d="M44.5844 52.672L42.8777 39.008C42.6359 37.0726 41.6953 35.2922 40.2328 34.0017C38.7704 32.7111 36.8868 31.9993 34.9364 32H29.0591C27.1095 32.0006 25.2273 32.713 23.7659 34.0034C22.3046 35.2939 21.3648 37.0735 21.1231 39.008L19.4137 52.672C19.3199 53.4227 19.3869 54.1848 19.6102 54.9076C19.8335 55.6304 20.208 56.2975 20.7089 56.8645C21.2098 57.4314 21.8256 57.8853 22.5154 58.1961C23.2052 58.5068 23.9532 58.6672 24.7097 58.6667H39.2911C40.0474 58.6668 40.7951 58.5061 41.4845 58.1952C42.174 57.8844 42.7895 57.4304 43.2901 56.8635C43.7907 56.2965 44.165 55.6296 44.3881 54.907C44.6113 54.1843 44.6782 53.4225 44.5844 52.672Z" stroke="currentColor" stroke-width="3" stroke-linecap="round" stroke-linejoin="round"></path>
		<path d="M32 21.3333C36.4183 21.3333 40 17.7516 40 13.3333C40 8.91507 36.4183 5.33334 32 5.33334C27.5817 5.33334 24 8.91507 24 13.3333C24 17.7516 27.5817 21.3333 32 21.3333Z" stroke="currentColor" stroke-width="3"></path>
		<path d="M10.6668 29.3334C13.6123 29.3334 16.0002 26.9455 16.0002 24C16.0002 21.0545 13.6123 18.6667 10.6668 18.6667C7.72131 18.6667 5.3335 21.0545 5.3335 24C5.3335 26.9455 7.72131 29.3334 10.6668 29.3334Z" stroke="currentColor" stroke-width="3"></path>
		<path d="M53.3333 29.3334C56.2789 29.3334 58.6667 26.9455 58.6667 24C58.6667 21.0545 56.2789 18.6667 53.3333 18.6667C50.3878 18.6667 48 21.0545 48 24C48 26.9455 50.3878 29.3334 53.3333 29.3334Z" stroke="currentColor" stroke-width="3"></path>
		<path d="M10.6669 37.3333H9.8509C8.58839 37.3332 7.36677 37.7809 6.40337 38.5968C5.43996 39.4128 4.79724 40.544 4.58956 41.7893L3.70156 47.1227C3.57413 47.8868 3.61469 48.6695 3.82041 49.4164C4.02614 50.1632 4.3921 50.8563 4.89284 51.4474C5.39357 52.0385 6.01706 52.5134 6.71994 52.8391C7.42283 53.1648 8.18822 53.3334 8.9629 53.3333H18.6669M53.3336 37.3333H54.1496C55.4121 37.3332 56.6337 37.7809 57.5971 38.5968C58.5605 39.4128 59.2032 40.544 59.4109 41.7893L60.2989 47.1227C60.4263 47.8868 60.3858 48.6695 60.18 49.4164C59.9743 50.1632 59.6084 50.8563 59.1076 51.4474C58.6069 52.0385 57.9834 52.5134 57.2805 52.8391C56.5776 53.1648 55.8122 53.3334 55.0376 53.3333H45.3336" stroke="currentColor" stroke-width="3" stroke-linecap="round" stroke-linejoin="round"></path>
	</symbol>
	<symbol fill="none" xmlns="http://www.w3.org/2000/svg" viewBox="0 0 50 50" id="youtube-red">
		<circle cx="25" cy="25" r="25" fill="#E10000"></circle>
		<path d="M34.543 20.498C35 22.28 35 26 35 26C35 26 35 29.72 34.543 31.502C34.289 32.487 33.546 33.262 32.605 33.524C30.896 34 25 34 25 34C25 34 19.107 34 17.395 33.524C16.45 33.258 15.708 32.484 15.457 31.502C15 29.72 15 26 15 26C15 26 15 22.28 15.457 20.498C15.711 19.513 16.454 18.738 17.395 18.476C19.107 18 25 18 25 18C25 18 30.896 18 32.605 18.476C33.55 18.742 34.292 19.516 34.543 20.498ZM23 29.5L29 26L23 22.5V29.5Z" fill="white"></path>
	</symbol>
	<symbol fill="none" xmlns="http://www.w3.org/2000/svg" viewBox="0 0 16 24" id="chevron-list-blue">
		<path d="M3 21L12 12L3 3" stroke="#004996" stroke-width="5" stroke-linecap="round"></path>
	</symbol>
	<symbol fill="none" xmlns="http://www.w3.org/2000/svg" viewBox="0 0 21 36" id="chevron-right">
		<path d="M2 34L18 18L2 2" stroke="currentColor" stroke-width="4" stroke-linecap="round"></path>
	</symbol>
	<symbol fill="none" xmlns="http://www.w3.org/2000/svg" viewBox="0 0 38 70" id="chevron-right-big">
		<path d="M1 69L36 35L1 0.999998" stroke="currentColor" stroke-width="2" stroke-linecap="round"></path>
	</symbol>
	<symbol fill="none" xmlns="http://www.w3.org/2000/svg" viewBox="0 0 15 24" id="chevron-slider">
		<path d="M2.8 24L0 21.2L9.2 12L0 2.8L2.8 0L14.8 12L2.8 24Z" fill="currentColor"></path>
	</symbol>
	<symbol fill="none" xmlns="http://www.w3.org/2000/svg" viewBox="0 0 24 24" id="fire">
		<path d="M16.5 8.00004C16.5 9.50004 16 11.5 13.6 12.3C14.3 10.6 14.4 8.90004 13.9 7.30004C13.2 5.20004 10.9 3.60004 9.3 2.70004C8.9 2.40004 8.2 2.80004 8.3 3.40004C8.3 4.50004 8 6.10004 6.3 7.80004C4.1 10 3 12.3 3 14.5C3 17.4 5 21 9 21C5 17 8 13.5 8 13.5C8.8 19.4 13 21 15 21C16.7 21 20 19.8 20 14.6C20 11.5 18.7 9.10004 17.6 7.70004C17.3 7.20004 16.6 7.50004 16.5 8.00004Z" fill="#E10000"></path>
	</symbol>
	<symbol fill="none" xmlns="http://www.w3.org/2000/svg" viewBox="0 0 24 24" id="flag-ru">
		<path d="M0 9.375H24V14.625H0V9.375Z" fill="#1B75BB"></path>
		<path d="M20.25 3.75H3.75C1.26488 3.75 0 5.59688 0 7.875V9.375H24V7.875C24 5.59688 22.7351 3.75 20.25 3.75Z" fill="#E6E7E8"></path>
		<path d="M0 16.125C0 18.4031 1.26488 20.25 3.75 20.25H20.25C22.7351 20.25 24 18.4031 24 16.125V14.625H0V16.125Z" fill="#EC1C24"></path>
	</symbol>
	<symbol fill="none" xmlns="http://www.w3.org/2000/svg" viewBox="0 0 31 44" id="map-marker">
		<path d="M15.5 2C8.04263 2 2 8.0905 2 15.6087C2 23.123 15.5 42 15.5 42C15.5 42 29 23.123 29 15.6087C29 8.0905 22.9545 2 15.5 2ZM15.5 21.1785C12.3719 21.1785 9.83642 18.6198 9.83642 15.4694C9.83642 12.3121 12.3719 9.75834 15.5 9.75834C18.6312 9.75834 21.1647 12.3121 21.1647 15.4694C21.1647 18.6198 18.6312 21.1785 15.5 21.1785Z" stroke="white" stroke-width="3" stroke-linecap="round" stroke-linejoin="round"></path>
	</symbol>
	<symbol fill="none" xmlns="http://www.w3.org/2000/svg" viewBox="0 0 28 39" id="map-marker-blue">
		<path d="M14 2C7.37123 2 2 7.32919 2 13.9076C2 20.4826 14 37 14 37C14 37 26 20.4826 26 13.9076C26 7.32919 20.6262 2 14 2ZM14 18.7812C11.2194 18.7812 8.9657 16.5423 8.9657 13.7858C8.9657 11.0231 11.2194 8.78855 14 8.78855C16.7833 8.78855 19.0353 11.0231 19.0353 13.7858C19.0353 16.5423 16.7833 18.7812 14 18.7812Z" stroke="#004996" stroke-width="3" stroke-linecap="round" stroke-linejoin="round"></path>
	</symbol>
	<symbol fill="none" xmlns="http://www.w3.org/2000/svg" viewBox="0 0 18 22" id="play">
		<path d="M18 11L0 21.3923V0.607696L18 11Z" fill="currentColor"></path>
	</symbol>
</svg>
