<svg width="54" height="54" viewBox="0 0 54 54" fill="none" xmlns="http://www.w3.org/2000/svg">
<g clip-path="url(#clip0_2029_9625)">
<path fill-rule="evenodd" clip-rule="evenodd" d="M25.4205 4.93866C26.3084 4.60646 27.2785 4.56315 28.1925 4.81491L28.5795 4.93866L44.3295 10.8449C45.1281 11.1444 45.8251 11.6646 46.3394 12.345C46.8537 13.0254 47.164 13.8379 47.2342 14.6879L47.25 15.0592V27.1259C47.2499 30.7719 46.2655 34.3502 44.4006 37.4831C42.5357 40.616 39.8596 43.1874 36.6548 44.9257L36.0562 45.2384L28.5097 49.0117C28.0942 49.2191 27.6404 49.3386 27.1766 49.3626C26.7127 49.3866 26.249 49.3146 25.8142 49.1512L25.4903 49.0117L17.9437 45.2384C14.6826 43.6078 11.9222 41.127 9.95401 38.0578C7.98577 34.9886 6.88271 31.445 6.76125 27.8009L6.75 27.1259V15.0592C6.75001 14.2067 6.99216 13.3718 7.44825 12.6516C7.90434 11.9314 8.55561 11.3556 9.32625 10.9912L9.6705 10.8449L25.4205 4.93866ZM27 9.15291L11.25 15.0592V27.1259C11.2501 29.9497 12.0093 32.7215 13.4481 35.1512C14.887 37.5808 16.9527 39.579 19.4288 40.9364L19.9575 41.2132L27 44.7344L34.0425 41.2132C36.5686 39.9503 38.7088 38.0315 40.2387 35.6576C41.7687 33.2837 42.6321 30.5421 42.7388 27.7199L42.75 27.1259V15.0592L27 9.15291ZM25.893 16.9109C26.5023 16.6829 27.1672 16.6491 27.7965 16.8142L28.107 16.9109L34.407 19.2734C34.9596 19.4807 35.4429 19.8391 35.8017 20.3077C36.1606 20.7763 36.3805 21.3364 36.4365 21.9239L36.45 22.2232V27.0494C36.45 28.7218 36.0061 30.3643 35.1638 31.8091C34.3214 33.2539 33.1107 34.4493 31.6553 35.2732L31.2277 35.5027L28.2083 37.0102C27.8812 37.1739 27.5243 37.2696 27.1592 37.2912C26.7941 37.3129 26.4284 37.2601 26.0843 37.1362L25.7917 37.0124L22.7745 35.5027C21.2789 34.7548 20.0085 33.6235 19.093 32.2241C18.1775 30.8248 17.6497 29.2076 17.5635 27.5377L17.55 27.0494V22.2232C17.5501 21.6331 17.7159 21.0549 18.0286 20.5544C18.3412 20.054 18.7882 19.6515 19.3185 19.3927L19.593 19.2734L25.893 16.9109ZM27 21.3029L22.05 23.1592V27.0517C22.0502 27.9071 22.2721 28.7478 22.6941 29.4919C23.116 30.236 23.7236 30.858 24.4575 31.2974L24.786 31.4774L27 32.5844L29.214 31.4774C29.9796 31.0947 30.6329 30.5199 31.1101 29.8093C31.5872 29.0987 31.872 28.2764 31.9365 27.4229L31.95 27.0494V23.1592L27 21.3029Z" fill="#004996"/>
</g>
<defs>
<clipPath id="clip0_2029_9625">
<rect width="54" height="54" fill="white"/>
</clipPath>
</defs>
</svg>
