<svg width="54" height="54" viewBox="0 0 54 54" fill="none" xmlns="http://www.w3.org/2000/svg">
<path d="M27 27C25.665 27 24.3599 27.3959 23.2499 28.1376C22.1399 28.8793 21.2747 29.9335 20.7638 31.1669C20.2529 32.4003 20.1192 33.7575 20.3797 35.0669C20.6401 36.3762 21.283 37.579 22.227 38.523C23.171 39.467 24.3738 40.1099 25.6831 40.3703C26.9925 40.6308 28.3497 40.4971 29.5831 39.9862C30.8165 39.4753 31.8707 38.6101 32.6124 37.5001C33.3541 36.3901 33.75 35.085 33.75 33.75C33.75 31.9598 33.0388 30.2429 31.773 28.977C30.5071 27.7112 28.7902 27 27 27ZM27 36C26.555 36 26.12 35.868 25.75 35.6208C25.38 35.3736 25.0916 35.0222 24.9213 34.611C24.751 34.1999 24.7064 33.7475 24.7932 33.311C24.88 32.8746 25.0943 32.4737 25.409 32.159C25.7237 31.8443 26.1246 31.63 26.561 31.5432C26.9975 31.4564 27.4499 31.501 27.861 31.6713C28.2722 31.8416 28.6236 32.13 28.8708 32.5C29.118 32.87 29.25 33.305 29.25 33.75C29.25 34.3467 29.0129 34.919 28.591 35.341C28.169 35.7629 27.5967 36 27 36ZM25.4025 21.8475C25.6165 22.0523 25.8688 22.2129 26.145 22.32C26.4143 22.439 26.7055 22.5005 27 22.5005C27.2945 22.5005 27.5857 22.439 27.855 22.32C28.1312 22.2129 28.3835 22.0523 28.5975 21.8475L33.75 16.785C34.1856 16.3494 34.4303 15.7586 34.4303 15.1425C34.4303 14.5264 34.1856 13.9356 33.75 13.5C33.3144 13.0644 32.7236 12.8197 32.1075 12.8197C31.4914 12.8197 30.9006 13.0644 30.465 13.5L29.25 14.8275V6.75C29.25 6.15326 29.0129 5.58097 28.591 5.15901C28.169 4.73705 27.5967 4.5 27 4.5C26.4033 4.5 25.831 4.73705 25.409 5.15901C24.9871 5.58097 24.75 6.15326 24.75 6.75V14.8275L23.535 13.5C23.0994 13.0644 22.5086 12.8197 21.8925 12.8197C21.2764 12.8197 20.6856 13.0644 20.25 13.5C19.8144 13.9356 19.5697 14.5264 19.5697 15.1425C19.5697 15.7586 19.8144 16.3494 20.25 16.785L25.4025 21.8475ZM42.75 33.75C42.75 33.305 42.618 32.87 42.3708 32.5C42.1236 32.13 41.7722 31.8416 41.361 31.6713C40.9499 31.501 40.4975 31.4564 40.061 31.5432C39.6246 31.63 39.2237 31.8443 38.909 32.159C38.5943 32.4737 38.3801 32.8746 38.2932 33.311C38.2064 33.7475 38.251 34.1999 38.4213 34.611C38.5916 35.0222 38.88 35.3736 39.25 35.6208C39.62 35.868 40.055 36 40.5 36C41.0967 36 41.669 35.7629 42.091 35.341C42.5129 34.919 42.75 34.3467 42.75 33.75ZM45 18H38.25C37.6533 18 37.081 18.2371 36.659 18.659C36.2371 19.081 36 19.6533 36 20.25C36 20.8467 36.2371 21.419 36.659 21.841C37.081 22.2629 37.6533 22.5 38.25 22.5H45C45.5967 22.5 46.169 22.7371 46.591 23.159C47.0129 23.581 47.25 24.1533 47.25 24.75V42.75C47.25 43.3467 47.0129 43.919 46.591 44.341C46.169 44.7629 45.5967 45 45 45H9C8.40326 45 7.83097 44.7629 7.40901 44.341C6.98705 43.919 6.75 43.3467 6.75 42.75V24.75C6.75 24.1533 6.98705 23.581 7.40901 23.159C7.83097 22.7371 8.40326 22.5 9 22.5H15.75C16.3467 22.5 16.919 22.2629 17.341 21.841C17.7629 21.419 18 20.8467 18 20.25C18 19.6533 17.7629 19.081 17.341 18.659C16.919 18.2371 16.3467 18 15.75 18H9C7.20979 18 5.4929 18.7112 4.22703 19.977C2.96116 21.2429 2.25 22.9598 2.25 24.75V42.75C2.25 44.5402 2.96116 46.2571 4.22703 47.523C5.4929 48.7888 7.20979 49.5 9 49.5H45C46.7902 49.5 48.5071 48.7888 49.773 47.523C51.0388 46.2571 51.75 44.5402 51.75 42.75V24.75C51.75 22.9598 51.0388 21.2429 49.773 19.977C48.5071 18.7112 46.7902 18 45 18ZM11.25 33.75C11.25 34.195 11.382 34.63 11.6292 35C11.8764 35.37 12.2278 35.6584 12.639 35.8287C13.0501 35.999 13.5025 36.0436 13.939 35.9568C14.3754 35.87 14.7763 35.6557 15.091 35.341C15.4057 35.0263 15.62 34.6254 15.7068 34.189C15.7936 33.7525 15.749 33.3001 15.5787 32.889C15.4084 32.4778 15.12 32.1264 14.75 31.8792C14.38 31.632 13.945 31.5 13.5 31.5C12.9033 31.5 12.331 31.7371 11.909 32.159C11.4871 32.581 11.25 33.1533 11.25 33.75Z" fill="#004996"/>
</svg>
