<svg width="54" height="54" viewBox="0 0 54 54" fill="none" xmlns="http://www.w3.org/2000/svg">
<g clip-path="url(#clip0_2029_9623)">
<path d="M26.163 0.222206C26.4179 0.0765906 26.7064 0 27 0C27.2936 0 27.5821 0.0765906 27.837 0.222206L40.4933 7.45483C40.7515 7.60236 40.9662 7.81554 41.1156 8.07277C41.2649 8.33 41.3437 8.62214 41.3438 8.91958V22.4027L53.1495 29.1527C53.4068 29.2997 53.6208 29.5118 53.7701 29.7677C53.9194 30.0237 53.9987 30.3144 54 30.6107V45.076C53.9999 45.3734 53.9212 45.6655 53.7718 45.9228C53.6225 46.18 53.4078 46.3932 53.1495 46.5407L40.4933 53.7733C40.2383 53.9189 39.9498 53.9955 39.6562 53.9955C39.3627 53.9955 39.0742 53.9189 38.8192 53.7733L27 47.0233L15.1808 53.7767C14.9258 53.9223 14.6373 53.9989 14.3438 53.9989C14.0502 53.9989 13.7617 53.9223 13.5067 53.7767L0.8505 46.5441C0.592221 46.3965 0.377527 46.1834 0.228169 45.9261C0.0788105 45.6689 9.59413e-05 45.3768 0 45.0793L0 30.6141C9.59413e-05 30.3166 0.0788105 30.0245 0.228169 29.7673C0.377527 29.51 0.592221 29.2969 0.8505 29.1493L12.6562 22.4027V8.91958C12.6563 8.62214 12.7351 8.33 12.8844 8.07277C13.0338 7.81554 13.2485 7.60236 13.5067 7.45483L26.163 0.222206ZM14.3438 25.3255L5.0895 30.6141L14.3438 35.9027L23.598 30.6141L14.3438 25.3255ZM25.3125 33.5233L16.0312 38.8255V49.4027L25.3125 44.1006V33.5233ZM28.6875 44.1006L37.9688 49.4027V38.8255L28.6875 33.5233V44.1006ZM30.402 30.6141L39.6562 35.9027L48.9105 30.6141L39.6562 25.3255L30.402 30.6141ZM37.9688 22.4027V11.8255L28.6875 17.131V27.7082L37.9688 22.4027ZM25.3125 27.7082V17.131L16.0312 11.8255V22.4027L25.3125 27.7082ZM17.7458 8.91958L27 14.2082L36.2542 8.91958L27 3.63096L17.7458 8.91958ZM50.625 33.5233L41.3438 38.8255V49.4027L50.625 44.1006V33.5233ZM12.6562 49.4027V38.8255L3.375 33.5233V44.1006L12.6562 49.4027Z" fill="#004996"/>
</g>
<defs>
<clipPath id="clip0_2029_9623">
<rect width="54" height="54" fill="white"/>
</clipPath>
</defs>
</svg>
