<svg width="58" height="58" viewBox="0 0 58 58" fill="none" xmlns="http://www.w3.org/2000/svg">
<path d="M48.332 4.83337H19.332C18.0502 4.83337 16.8208 5.3426 15.9143 6.24902C15.0079 7.15545 14.4987 8.38483 14.4987 9.66671V38.6667C14.4987 39.9486 15.0079 41.178 15.9143 42.0844C16.8208 42.9908 18.0502 43.5 19.332 43.5H48.332C49.6139 43.5 50.8433 42.9908 51.7497 42.0844C52.6561 41.178 53.1654 39.9486 53.1654 38.6667V9.66671C53.1654 8.38483 52.6561 7.15545 51.7497 6.24902C50.8433 5.3426 49.6139 4.83337 48.332 4.83337ZM48.332 38.6667H19.332V9.66671H48.332V38.6667ZM38.6654 48.3334V53.1667H9.66536C8.38348 53.1667 7.15411 52.6575 6.24768 51.7511C5.34126 50.8446 4.83203 49.6152 4.83203 48.3334V16.9167H9.66536V48.3334H38.6654ZM44.7795 19.4784L42.2179 16.9167L30.4245 28.71L25.3012 23.5867L22.7395 26.1484L30.4245 33.8334L44.7795 19.4784Z" fill="#004996"/>
</svg>
