<svg width="819" height="660" viewBox="0 0 819 660" fill="none" xmlns="http://www.w3.org/2000/svg">
<path d="M151.301 383.074L134.004 373.085L338.719 254.895L356.016 264.879L151.301 383.074Z" fill="#CC9445"/>
<path d="M342.694 493.58L325.393 483.596L530.108 365.401L547.409 375.39L342.694 493.58Z" fill="#CC9445"/>
<path d="M246.988 438.329L229.691 428.345L434.406 310.15L451.703 320.139L246.988 438.329Z" fill="#CC9445"/>
<path d="M151.305 404.556V383.079L356.02 264.884V286.365L151.305 404.556Z" fill="#A26A01"/>
<path d="M342.69 515.065L325.393 505.076V483.594L342.69 493.579V515.065Z" fill="#965E0D"/>
<path d="M342.701 515.059V493.578L547.421 375.388V396.869L342.701 515.059Z" fill="#C1944E"/>
<path d="M246.998 459.804V438.323L451.713 320.133V341.614L246.998 459.804Z" fill="#A26A01"/>
<path d="M373.038 469.37L342.699 486.88L134.004 366.392L164.338 348.886L373.038 469.37Z" fill="#DFAA5C"/>
<path d="M134 366.393V373.085L342.695 493.578V486.882L134 366.393Z" fill="#965E0D"/>
<path d="M342.701 486.878V493.574L373.035 476.06V469.368L342.701 486.878Z" fill="#C1944E"/>
<path d="M416.629 444.205L386.291 461.715L177.596 341.227L207.93 323.712L416.629 444.205Z" fill="#DFAA5C"/>
<path d="M177.604 341.225V347.921L386.299 468.409V461.713L177.604 341.225Z" fill="#BE7D00"/>
<path d="M386.285 461.714V468.41L416.619 450.896V444.204L386.285 461.714Z" fill="#C1944E"/>
<path d="M460.221 419.029L429.883 436.544L221.188 316.05L251.522 298.541L460.221 419.029Z" fill="#DFAA5C"/>
<path d="M221.203 316.051V322.747L429.894 443.244V436.548L221.203 316.051Z" fill="#BE7D00"/>
<path d="M429.887 436.545V443.241L460.221 425.727V419.031L429.887 436.545Z" fill="#C1944E"/>
<path d="M503.821 393.86L473.482 411.37L264.787 290.881L295.121 273.367L503.821 393.86Z" fill="#DFAA5C"/>
<path d="M264.793 290.884V297.58L473.488 418.068V411.372L264.793 290.884Z" fill="#BE7D00"/>
<path d="M473.496 411.373V418.069L503.83 400.554V393.863L473.496 411.373Z" fill="#C1944E"/>
<path d="M547.409 368.692L517.07 386.202L308.375 265.713L338.709 248.199L547.409 368.692Z" fill="#DFAA5C"/>
<path d="M308.391 265.716V272.412L517.086 392.9V386.204L308.391 265.716Z" fill="#BE7D00"/>
<path d="M517.074 386.205V392.901L547.408 375.386V368.695L517.074 386.205Z" fill="#C1944E"/>
<path d="M134.004 373.088V394.57L151.301 404.558V383.077L134.004 373.088Z" fill="#965E0D"/>
<path d="M229.691 428.34V449.825L246.988 459.81V438.324L229.691 428.34Z" fill="#965E0D"/>
<path d="M436.1 308.281L341.836 362.71V253.852L436.1 199.431V308.281Z" fill="#004996"/>
<path d="M436.105 199.429L341.842 253.858L247.578 199.429L341.842 145L436.105 199.429Z" fill="#E2E8F2"/>
<path d="M341.837 362.684L247.578 308.268L247.583 199.427L341.842 253.843L341.837 362.684Z" fill="#004996"/>
<path d="M304.183 260.971L285.23 250.033V221.167L304.183 232.105V260.971Z" fill="#E03C02"/>
<path d="M285.234 221.164L304.187 232.107L398.45 177.682L379.498 166.744L285.234 221.164Z" fill="#FF5102"/>
<path d="M313.844 304.42L316.089 305.721V338.553L313.844 337.253V304.42Z" fill="black"/>
<path d="M309.344 301.82L311.589 303.12V330.965L309.344 329.665V301.82Z" fill="black"/>
<path d="M304.852 299.225L307.097 300.521V328.37L304.852 327.07V299.225Z" fill="black"/>
<path d="M300.342 296.631L302.587 297.926V325.775L300.342 324.475V296.631Z" fill="black"/>
<path d="M295.838 294.031L298.083 295.326V323.175L295.838 321.875V294.031Z" fill="black"/>
<path d="M291.35 291.431L293.595 292.732V320.576L291.35 319.276V291.431Z" fill="black"/>
<path d="M286.84 288.834L289.085 290.134V317.979L286.84 316.679V288.834Z" fill="black"/>
<path d="M282.328 286.235L284.573 287.535V315.38L282.328 314.08V286.235Z" fill="black"/>
<path d="M277.84 283.639L280.085 284.934V312.783L277.84 311.483V283.639Z" fill="black"/>
<path d="M273.33 281.039L275.575 282.339V315.171L273.33 313.871V281.039Z" fill="black"/>
<path d="M283.46 321.665L278.961 319.069V313.868L283.46 316.469V321.665Z" fill="black"/>
<path d="M292.464 326.865L287.965 324.265V319.068L292.464 321.669V326.865Z" fill="black"/>
<path d="M301.462 332.065L296.963 329.469V324.268L301.462 326.868V332.065Z" fill="black"/>
<path d="M310.473 337.255L305.965 334.66V329.463L310.473 332.059V337.255Z" fill="black"/>
<path d="M336.288 365.92L242.02 420.345V311.491L336.288 257.066V365.92Z" fill="#004996"/>
<path d="M336.293 257.062L242.029 311.491L147.766 257.062L242.029 202.633L336.293 257.062Z" fill="#E2E8F2"/>
<path d="M242.024 420.345L147.756 365.902L147.765 257.066L242.024 311.478V420.345Z" fill="#429EDD"/>
<path d="M204.37 318.606L185.418 307.668L185.422 278.803L204.37 289.741V318.606Z" fill="#E03C02"/>
<path d="M185.418 278.796L204.37 289.738L298.634 235.314L279.682 224.375L185.418 278.796Z" fill="#FF5102"/>
<path d="M214.029 362.056L216.279 363.356V396.188L214.029 394.888V362.056Z" fill="black"/>
<path d="M209.525 359.459L211.771 360.76V388.604L209.525 387.304V359.459Z" fill="black"/>
<path d="M205.016 356.86L207.261 358.155V386.004L205.016 384.704V356.86Z" fill="black"/>
<path d="M200.527 354.264L202.773 355.559V383.408L200.527 382.108V354.264Z" fill="black"/>
<path d="M196.014 351.663L198.259 352.963V380.808L196.014 379.512V351.663Z" fill="black"/>
<path d="M191.527 349.064L193.773 350.364V378.209L191.527 376.908V349.064Z" fill="black"/>
<path d="M187.027 346.467L189.273 347.767V375.612L187.027 374.312V346.467Z" fill="black"/>
<path d="M182.52 343.871L184.765 345.167V373.016L182.52 371.716V343.871Z" fill="black"/>
<path d="M178.016 341.272L180.261 342.567V370.417L178.016 369.116V341.272Z" fill="black"/>
<path d="M173.514 338.667L175.759 339.972V372.804L173.514 371.504V338.667Z" fill="black"/>
<path d="M183.626 379.3L179.127 376.7V371.503L183.626 374.099V379.3Z" fill="black"/>
<path d="M192.645 384.493L188.137 381.893L188.141 376.697L192.645 379.293V384.493Z" fill="black"/>
<path d="M201.652 389.689L197.152 387.089V381.893L201.652 384.493V389.689Z" fill="black"/>
<path d="M210.64 394.885L206.141 392.289V387.089L210.64 389.689V394.885Z" fill="black"/>
<path d="M536.289 366.149L442.025 420.578V311.719L536.289 257.29V366.149Z" fill="#D6DEEA"/>
<path d="M536.281 257.292L442.018 311.721L347.754 257.292L442.018 202.863L536.281 257.292Z" fill="#E2E8F2"/>
<path d="M442.013 420.543L347.754 366.132L347.758 257.287L442.013 311.707V420.543Z" fill="#004996"/>
<path d="M404.358 318.836L385.406 307.898L385.411 279.033L404.358 289.971V318.836Z" fill="#E03C02"/>
<path d="M385.426 279.034L404.378 289.972L498.642 235.552L479.689 224.609L385.426 279.034Z" fill="#FF5102"/>
<path d="M414.02 362.285L416.269 363.585V396.418L414.02 395.117V362.285Z" fill="black"/>
<path d="M409.52 359.689L411.769 360.985V388.834L409.52 387.534V359.689Z" fill="black"/>
<path d="M405.014 357.09L407.263 358.386V386.235L405.014 384.935V357.09Z" fill="black"/>
<path d="M400.518 354.489L402.767 355.789V383.634L400.518 382.338V354.489Z" fill="black"/>
<path d="M396.02 351.894L398.269 353.194V381.039L396.02 379.739V351.894Z" fill="black"/>
<path d="M391.51 349.297L393.76 350.593V378.442L391.51 377.142V349.297Z" fill="black"/>
<path d="M387.008 346.697L389.258 347.997V375.842L387.008 374.546V346.697Z" fill="black"/>
<path d="M382.521 344.098L384.771 345.398V373.243L382.521 371.943V344.098Z" fill="black"/>
<path d="M378.004 341.501L380.254 342.801V370.646L378.004 369.345V341.501Z" fill="black"/>
<path d="M373.506 338.902L375.756 340.202V373.034L373.506 371.734V338.902Z" fill="black"/>
<path d="M383.636 379.533L379.137 376.933V371.737L383.636 374.337V379.533Z" fill="black"/>
<path d="M392.64 384.73L388.141 382.129V376.933L392.64 379.533V384.73Z" fill="black"/>
<path d="M401.632 389.93L397.133 387.334V382.133L401.632 384.733V389.93Z" fill="black"/>
<path d="M410.64 395.129L406.141 392.529V387.333L410.64 389.928V395.129Z" fill="black"/>
<path d="M436.475 423.784L342.211 478.213V369.354L436.475 314.925V423.784Z" fill="#004996"/>
<path d="M436.469 314.931L342.205 369.36L247.941 314.931L342.205 260.502L436.469 314.931Z" fill="#E2E8F2"/>
<path d="M342.201 478.185L247.941 423.769L247.946 314.929L342.205 369.349L342.201 478.185Z" fill="#D6DEEA"/>
<path d="M304.546 376.469L285.594 365.531V336.666L304.546 347.608V376.469Z" fill="#E03C02"/>
<path d="M285.594 336.663L304.546 347.601L398.81 293.181L379.857 282.238L285.594 336.663Z" fill="#FF5102"/>
<path d="M314.209 419.918L316.454 421.219V454.051L314.209 452.751V419.918Z" fill="black"/>
<path d="M309.703 417.325L311.948 418.629V446.47L309.703 445.174V417.325Z" fill="black"/>
<path d="M305.203 414.725L307.448 416.025V443.869L305.203 442.569V414.725Z" fill="black"/>
<path d="M300.711 412.129L302.956 413.429V441.274L300.711 439.974V412.129Z" fill="black"/>
<path d="M296.195 409.528L298.441 410.828V438.673L296.195 437.373V409.528Z" fill="black"/>
<path d="M291.699 406.928L293.945 408.229V436.073L291.699 434.773V406.928Z" fill="black"/>
<path d="M287.191 404.332L289.437 405.637V433.477L287.191 432.181V404.332Z" fill="black"/>
<path d="M282.695 401.733L284.941 403.033V430.877L282.695 429.577V401.733Z" fill="black"/>
<path d="M278.191 399.137L280.437 400.437V428.282L278.191 426.981V399.137Z" fill="black"/>
<path d="M273.689 396.537L275.939 397.837V430.669L273.689 429.369V396.537Z" fill="black"/>
<path d="M283.814 437.166L279.314 434.566V429.37L283.814 431.97V437.166Z" fill="black"/>
<path d="M292.82 442.362L288.32 439.766V434.565L292.82 437.166V442.362Z" fill="black"/>
<path d="M301.828 447.558L297.328 444.962V439.762L301.828 442.362V447.558Z" fill="black"/>
<path d="M310.834 452.755L306.334 450.159V444.963L310.834 447.559V452.755Z" fill="black"/>
<g filter="url(#filter0_f_1918_2160)">
<path d="M730 572.333L666 609V535.667L730 499V572.333Z" fill="#E2E8F2"/>
<path d="M730 498.5L666.5 535L603 498.5L666.5 462L730 498.5Z" fill="#004996"/>
<path d="M666.491 608.578L603 571.925L603.003 498.611L666.494 535.268L666.491 608.578Z" fill="#429EDD"/>
<path d="M641.127 540.064L628.361 532.696V513.253L641.127 520.623V540.064Z" fill="#E03C02"/>
<path d="M629 513.637L641.555 521L704 484.366L691.445 477L629 513.637Z" fill="#FF5102"/>
</g>
<path d="M819 184.667L724 240V129.333L819 74V184.667Z" fill="#2B6BCD" fill-opacity="0.1"/>
<path d="M819 75L723.5 130L628 75L723.5 20L819 75Z" fill="#F6F6F6"/>
<path d="M723.748 240.625L628.012 185.356L628.016 74.8094L723.753 130.083L723.748 240.625Z" fill="#429EDD"/>
<path d="M685.489 137.314L666.24 126.205V96.887L685.489 108.001V137.314Z" fill="#E03C02"/>
<path d="M666 96.9552L685.251 108L781 53.0493L761.749 42L666 96.9552Z" fill="#FF5102"/>
<path d="M151 637.667L113 660V615.333L151 593V637.667Z" fill="#2B6BCD" fill-opacity="0.1"/>
<path d="M151 594L113 616L75 594L113 572L151 594Z" fill="#F6F6F6"/>
<path d="M113.098 659.788L75.0039 637.796L75.0057 593.809L113.1 615.802L113.098 659.788Z" fill="#429EDD"/>
<path d="M97.8762 618.68L90.2168 614.259V602.594L97.8762 607.016V618.68Z" fill="#E03C02"/>
<path d="M90 602.649L97.7003 607L136 585.353L128.3 581L90 602.649Z" fill="#FF5102"/>
<g filter="url(#filter1_f_1918_2160)">
<path d="M174 154.667L102 196V113.333L174 72V154.667Z" fill="#2B6BCD" fill-opacity="0.1"/>
<path d="M174 71.5L102 113L30 71.5L102 30L174 71.5Z" fill="#F6F6F6"/>
<path d="M101.995 195.912L30 154.35L30.0034 71.2174L101.999 112.784L101.995 195.912Z" fill="#D6DEEA"/>
<path d="M74.041 152.198L74.9809 152.743V166.487L74.041 165.942V152.198Z" fill="#429EDD"/>
<path d="M72.1541 151.113L73.094 151.659V163.313L72.1541 162.771V151.113Z" fill="#429EDD"/>
<path d="M70.2737 150.024L71.2136 150.569V162.224L70.2737 161.68V150.024Z" fill="#429EDD"/>
<path d="M68.3926 148.938L69.3325 149.482V161.138L68.3926 160.594V148.938Z" fill="#429EDD"/>
<path d="M66.502 147.849L67.4419 148.393V160.049L66.502 159.505V147.849Z" fill="#429EDD"/>
<path d="M64.6133 146.761L65.5532 147.305V158.961L64.6133 158.417V146.761Z" fill="#429EDD"/>
<path d="M62.7285 145.674L63.6684 146.22V157.874L62.7285 157.332V145.674Z" fill="#429EDD"/>
<path d="M60.8496 144.586L61.7895 145.13V156.786L60.8496 156.242V144.586Z" fill="#429EDD"/>
<path d="M58.9648 143.499L59.9047 144.043V155.699L58.9648 155.155V143.499Z" fill="#429EDD"/>
<path d="M57.0801 142.411L58.0218 142.955V156.699L57.0801 156.155V142.411Z" fill="#429EDD"/>
<path d="M61.3171 159.418L59.4336 158.33V156.155L61.3171 157.243V159.418Z" fill="#429EDD"/>
<path d="M65.0886 161.593L63.2051 160.507V158.33L65.0886 159.418V161.593Z" fill="#429EDD"/>
<path d="M68.8579 163.769L66.9744 162.682V160.505L68.8579 161.594V163.769Z" fill="#429EDD"/>
<path d="M72.6296 165.944L70.7461 164.857V162.682L72.6296 163.769V165.944Z" fill="#429EDD"/>
<path d="M73.2334 118.222L58.7578 109.867V87.82L73.2334 96.178V118.222Z" fill="#E03C02"/>
<path d="M59 87.4654L73.5637 96L146 53.5381L131.436 45L59 87.4654Z" fill="#FF5102"/>
</g>
<defs>
<filter id="filter0_f_1918_2160" x="583" y="442" width="167" height="187" filterUnits="userSpaceOnUse" color-interpolation-filters="sRGB">
<feFlood flood-opacity="0" result="BackgroundImageFix"/>
<feBlend mode="normal" in="SourceGraphic" in2="BackgroundImageFix" result="shape"/>
<feGaussianBlur stdDeviation="10" result="effect1_foregroundBlur_1918_2160"/>
</filter>
<filter id="filter1_f_1918_2160" x="0" y="0" width="204" height="226" filterUnits="userSpaceOnUse" color-interpolation-filters="sRGB">
<feFlood flood-opacity="0" result="BackgroundImageFix"/>
<feBlend mode="normal" in="SourceGraphic" in2="BackgroundImageFix" result="shape"/>
<feGaussianBlur stdDeviation="15" result="effect1_foregroundBlur_1918_2160"/>
</filter>
</defs>
</svg>
