<svg width="3093" height="738" viewBox="0 0 3093 738" fill="none" xmlns="http://www.w3.org/2000/svg">
<path d="M3069.75 591.004C3032.3 600.819 2986.08 598.017 2948.47 584.656C2890.62 564.12 2849.61 524.915 2815.72 485.314C2781.82 445.71 2751.92 403.554 2706.26 370.477C2613.95 303.588 2460.13 286.715 2350.51 331.449C2274.02 362.66 2223.41 417.47 2176.36 470.843C2129.3 524.216 2080.84 579.693 2006.59 613.475C1932.35 647.254 1824.13 652.671 1757.11 607.95C1695.43 566.79 1678.44 492.174 1601.26 469.038C1503.22 439.65 1402.26 520.681 1299.92 501.661C1238.51 490.249 1198.2 445.546 1181.12 401.566C1164.04 357.585 1163.53 311.419 1146.46 267.436C1117.8 193.557 1040.4 128.967 942.689 97.3674C844.979 65.7705 729.073 67.8536 637.514 102.855C567.031 129.799 512.883 173.9 446.577 205.674C380.268 237.446 289.962 255.747 218.479 225.842C181.647 210.436 154.133 183.874 114.787 172.418C90.4354 165.33 58.9358 169.859 41.2927 181.266" stroke="url(#paint0_linear_2204_17135)" stroke-width="150" stroke-miterlimit="10"/>
<path opacity="0.5" d="M3060.85 596.913C3024.1 609.471 2978.45 607.9 2941.07 593.94C2883.6 572.483 2842.36 529.064 2808.13 484.94C2773.9 440.812 2743.56 393.623 2697.86 357.382C2605.45 284.095 2453.37 270.227 2346.11 325.304C2271.28 363.731 2222.45 428.253 2177.09 491.003C2131.73 553.754 2085.03 618.962 2012.46 660.253C1939.88 701.541 1833.23 711.569 1766.23 662.757C1704.56 617.833 1686.3 533.036 1609.7 509.288C1512.4 479.123 1414.41 575.435 1313.07 557.288C1252.26 546.401 1211.6 496.665 1193.87 446.933C1176.14 397.201 1174.72 344.382 1157.01 294.648C1127.25 211.108 1049.62 139.924 952.589 107.215C855.564 74.5103 741.261 80.9959 651.633 124.295C582.636 157.627 530.096 210.016 465.317 248.728C400.534 287.437 311.809 311.579 240.693 279.882C204.05 263.554 176.377 234.127 137.332 222.408C113.167 215.158 82.1819 221.455 65.0039 235.135" stroke="url(#paint1_linear_2204_17135)" stroke-width="2.66667" stroke-miterlimit="10" stroke-dasharray="14.64 14.64"/>
<defs>
<linearGradient id="paint0_linear_2204_17135" x1="2167.5" y1="533.5" x2="1108" y2="455.5" gradientUnits="userSpaceOnUse">
<stop stop-color="#E0EFF9"/>
<stop offset="1" stop-color="#E0EFF9" stop-opacity="0"/>
</linearGradient>
<linearGradient id="paint1_linear_2204_17135" x1="1553.34" y1="683.993" x2="2239.88" y2="212.93" gradientUnits="userSpaceOnUse">
<stop offset="0.555615" stop-color="white"/>
<stop offset="1" stop-color="#004996"/>
</linearGradient>
</defs>
</svg>
